G75*
G70*
%OFA0B0*%
%FSLAX24Y24*%
%IPPOS*%
%LPD*%
%AMOC8*
5,1,8,0,0,1.08239X$1,22.5*
%
%ADD10C,0.0000*%
%ADD11R,0.0512X0.0591*%
%ADD12C,0.0620*%
%ADD13C,0.0004*%
%ADD14C,0.0009*%
%ADD15C,0.0039*%
%ADD16R,0.0551X0.0295*%
%ADD17R,0.0325X0.0197*%
%ADD18R,0.0169X0.0276*%
%ADD19R,0.0240X0.0120*%
%ADD20R,0.0120X0.0240*%
%ADD21R,0.1000X0.0402*%
%ADD22R,0.0354X0.0276*%
%ADD23R,0.0276X0.0354*%
%ADD24C,0.0079*%
%ADD25R,0.0460X0.0630*%
%ADD26R,0.0600X0.0600*%
%ADD27C,0.0600*%
%ADD28OC8,0.0600*%
%ADD29C,0.0540*%
%ADD30R,0.0160X0.0160*%
%ADD31R,0.0630X0.0460*%
%ADD32C,0.0320*%
%ADD33C,0.0300*%
%ADD34R,0.0450X0.0400*%
%ADD35R,0.0276X0.0472*%
%ADD36R,0.0400X0.0450*%
%ADD37R,0.0580X0.0140*%
D10*
X002104Y001280D02*
X002104Y017815D01*
X018600Y017815D01*
X018600Y012307D01*
X022249Y012327D01*
X022249Y001300D01*
X002104Y001280D01*
D11*
X020195Y012087D03*
X021179Y012087D03*
D12*
X017504Y011880D03*
X017504Y010880D03*
X017504Y009880D03*
X016324Y012820D03*
X015324Y012820D03*
X014324Y012820D03*
X013324Y012820D03*
X012324Y012820D03*
X011324Y012820D03*
X010324Y012820D03*
X008264Y012420D03*
X008264Y011420D03*
X008264Y010420D03*
X008264Y009420D03*
X008264Y008420D03*
X005180Y007938D03*
X004904Y003000D03*
X003904Y003000D03*
X021104Y002280D03*
X021104Y006280D03*
X010994Y015190D03*
X013724Y016040D03*
X009104Y017280D03*
X008104Y017280D03*
X003704Y016820D03*
X002704Y016820D03*
X004404Y014357D03*
D13*
X011437Y010057D02*
X011437Y009825D01*
X011437Y010057D02*
X011511Y010057D01*
X011511Y009825D01*
X011437Y009825D01*
X011437Y009828D02*
X011511Y009828D01*
X011511Y009831D02*
X011437Y009831D01*
X011437Y009834D02*
X011511Y009834D01*
X011511Y009837D02*
X011437Y009837D01*
X011437Y009840D02*
X011511Y009840D01*
X011511Y009843D02*
X011437Y009843D01*
X011437Y009846D02*
X011511Y009846D01*
X011511Y009849D02*
X011437Y009849D01*
X011437Y009852D02*
X011511Y009852D01*
X011511Y009855D02*
X011437Y009855D01*
X011437Y009858D02*
X011511Y009858D01*
X011511Y009861D02*
X011437Y009861D01*
X011437Y009864D02*
X011511Y009864D01*
X011511Y009867D02*
X011437Y009867D01*
X011437Y009870D02*
X011511Y009870D01*
X011511Y009873D02*
X011437Y009873D01*
X011437Y009876D02*
X011511Y009876D01*
X011511Y009879D02*
X011437Y009879D01*
X011437Y009882D02*
X011511Y009882D01*
X011511Y009885D02*
X011437Y009885D01*
X011437Y009888D02*
X011511Y009888D01*
X011511Y009891D02*
X011437Y009891D01*
X011437Y009894D02*
X011511Y009894D01*
X011511Y009897D02*
X011437Y009897D01*
X011437Y009900D02*
X011511Y009900D01*
X011511Y009903D02*
X011437Y009903D01*
X011437Y009906D02*
X011511Y009906D01*
X011511Y009909D02*
X011437Y009909D01*
X011437Y009912D02*
X011511Y009912D01*
X011511Y009915D02*
X011437Y009915D01*
X011437Y009918D02*
X011511Y009918D01*
X011511Y009921D02*
X011437Y009921D01*
X011437Y009924D02*
X011511Y009924D01*
X011511Y009927D02*
X011437Y009927D01*
X011437Y009930D02*
X011511Y009930D01*
X011511Y009933D02*
X011437Y009933D01*
X011437Y009936D02*
X011511Y009936D01*
X011511Y009939D02*
X011437Y009939D01*
X011437Y009942D02*
X011511Y009942D01*
X011511Y009945D02*
X011437Y009945D01*
X011437Y009948D02*
X011511Y009948D01*
X011511Y009951D02*
X011437Y009951D01*
X011437Y009954D02*
X011511Y009954D01*
X011511Y009957D02*
X011437Y009957D01*
X011437Y009960D02*
X011511Y009960D01*
X011511Y009963D02*
X011437Y009963D01*
X011437Y009966D02*
X011511Y009966D01*
X011511Y009969D02*
X011437Y009969D01*
X011437Y009972D02*
X011511Y009972D01*
X011511Y009975D02*
X011437Y009975D01*
X011437Y009978D02*
X011511Y009978D01*
X011511Y009981D02*
X011437Y009981D01*
X011437Y009984D02*
X011511Y009984D01*
X011511Y009987D02*
X011437Y009987D01*
X011437Y009990D02*
X011511Y009990D01*
X011511Y009993D02*
X011437Y009993D01*
X011437Y009996D02*
X011511Y009996D01*
X011511Y009999D02*
X011437Y009999D01*
X011437Y010002D02*
X011511Y010002D01*
X011511Y010005D02*
X011437Y010005D01*
X011437Y010008D02*
X011511Y010008D01*
X011511Y010011D02*
X011437Y010011D01*
X011437Y010014D02*
X011511Y010014D01*
X011511Y010017D02*
X011437Y010017D01*
X011437Y010020D02*
X011511Y010020D01*
X011511Y010023D02*
X011437Y010023D01*
X011437Y010026D02*
X011511Y010026D01*
X011511Y010029D02*
X011437Y010029D01*
X011437Y010032D02*
X011511Y010032D01*
X011511Y010035D02*
X011437Y010035D01*
X011437Y010038D02*
X011511Y010038D01*
X011511Y010041D02*
X011437Y010041D01*
X011437Y010044D02*
X011511Y010044D01*
X011511Y010047D02*
X011437Y010047D01*
X011437Y010050D02*
X011511Y010050D01*
X011511Y010053D02*
X011437Y010053D01*
X011437Y010056D02*
X011511Y010056D01*
X011595Y010057D02*
X011595Y009825D01*
X011595Y010057D02*
X011669Y010057D01*
X011669Y009825D01*
X011595Y009825D01*
X011595Y009828D02*
X011669Y009828D01*
X011669Y009831D02*
X011595Y009831D01*
X011595Y009834D02*
X011669Y009834D01*
X011669Y009837D02*
X011595Y009837D01*
X011595Y009840D02*
X011669Y009840D01*
X011669Y009843D02*
X011595Y009843D01*
X011595Y009846D02*
X011669Y009846D01*
X011669Y009849D02*
X011595Y009849D01*
X011595Y009852D02*
X011669Y009852D01*
X011669Y009855D02*
X011595Y009855D01*
X011595Y009858D02*
X011669Y009858D01*
X011669Y009861D02*
X011595Y009861D01*
X011595Y009864D02*
X011669Y009864D01*
X011669Y009867D02*
X011595Y009867D01*
X011595Y009870D02*
X011669Y009870D01*
X011669Y009873D02*
X011595Y009873D01*
X011595Y009876D02*
X011669Y009876D01*
X011669Y009879D02*
X011595Y009879D01*
X011595Y009882D02*
X011669Y009882D01*
X011669Y009885D02*
X011595Y009885D01*
X011595Y009888D02*
X011669Y009888D01*
X011669Y009891D02*
X011595Y009891D01*
X011595Y009894D02*
X011669Y009894D01*
X011669Y009897D02*
X011595Y009897D01*
X011595Y009900D02*
X011669Y009900D01*
X011669Y009903D02*
X011595Y009903D01*
X011595Y009906D02*
X011669Y009906D01*
X011669Y009909D02*
X011595Y009909D01*
X011595Y009912D02*
X011669Y009912D01*
X011669Y009915D02*
X011595Y009915D01*
X011595Y009918D02*
X011669Y009918D01*
X011669Y009921D02*
X011595Y009921D01*
X011595Y009924D02*
X011669Y009924D01*
X011669Y009927D02*
X011595Y009927D01*
X011595Y009930D02*
X011669Y009930D01*
X011669Y009933D02*
X011595Y009933D01*
X011595Y009936D02*
X011669Y009936D01*
X011669Y009939D02*
X011595Y009939D01*
X011595Y009942D02*
X011669Y009942D01*
X011669Y009945D02*
X011595Y009945D01*
X011595Y009948D02*
X011669Y009948D01*
X011669Y009951D02*
X011595Y009951D01*
X011595Y009954D02*
X011669Y009954D01*
X011669Y009957D02*
X011595Y009957D01*
X011595Y009960D02*
X011669Y009960D01*
X011669Y009963D02*
X011595Y009963D01*
X011595Y009966D02*
X011669Y009966D01*
X011669Y009969D02*
X011595Y009969D01*
X011595Y009972D02*
X011669Y009972D01*
X011669Y009975D02*
X011595Y009975D01*
X011595Y009978D02*
X011669Y009978D01*
X011669Y009981D02*
X011595Y009981D01*
X011595Y009984D02*
X011669Y009984D01*
X011669Y009987D02*
X011595Y009987D01*
X011595Y009990D02*
X011669Y009990D01*
X011669Y009993D02*
X011595Y009993D01*
X011595Y009996D02*
X011669Y009996D01*
X011669Y009999D02*
X011595Y009999D01*
X011595Y010002D02*
X011669Y010002D01*
X011669Y010005D02*
X011595Y010005D01*
X011595Y010008D02*
X011669Y010008D01*
X011669Y010011D02*
X011595Y010011D01*
X011595Y010014D02*
X011669Y010014D01*
X011669Y010017D02*
X011595Y010017D01*
X011595Y010020D02*
X011669Y010020D01*
X011669Y010023D02*
X011595Y010023D01*
X011595Y010026D02*
X011669Y010026D01*
X011669Y010029D02*
X011595Y010029D01*
X011595Y010032D02*
X011669Y010032D01*
X011669Y010035D02*
X011595Y010035D01*
X011595Y010038D02*
X011669Y010038D01*
X011669Y010041D02*
X011595Y010041D01*
X011595Y010044D02*
X011669Y010044D01*
X011669Y010047D02*
X011595Y010047D01*
X011595Y010050D02*
X011669Y010050D01*
X011669Y010053D02*
X011595Y010053D01*
X011595Y010056D02*
X011669Y010056D01*
X011752Y010057D02*
X011752Y009825D01*
X011752Y010057D02*
X011826Y010057D01*
X011826Y009825D01*
X011752Y009825D01*
X011752Y009828D02*
X011826Y009828D01*
X011826Y009831D02*
X011752Y009831D01*
X011752Y009834D02*
X011826Y009834D01*
X011826Y009837D02*
X011752Y009837D01*
X011752Y009840D02*
X011826Y009840D01*
X011826Y009843D02*
X011752Y009843D01*
X011752Y009846D02*
X011826Y009846D01*
X011826Y009849D02*
X011752Y009849D01*
X011752Y009852D02*
X011826Y009852D01*
X011826Y009855D02*
X011752Y009855D01*
X011752Y009858D02*
X011826Y009858D01*
X011826Y009861D02*
X011752Y009861D01*
X011752Y009864D02*
X011826Y009864D01*
X011826Y009867D02*
X011752Y009867D01*
X011752Y009870D02*
X011826Y009870D01*
X011826Y009873D02*
X011752Y009873D01*
X011752Y009876D02*
X011826Y009876D01*
X011826Y009879D02*
X011752Y009879D01*
X011752Y009882D02*
X011826Y009882D01*
X011826Y009885D02*
X011752Y009885D01*
X011752Y009888D02*
X011826Y009888D01*
X011826Y009891D02*
X011752Y009891D01*
X011752Y009894D02*
X011826Y009894D01*
X011826Y009897D02*
X011752Y009897D01*
X011752Y009900D02*
X011826Y009900D01*
X011826Y009903D02*
X011752Y009903D01*
X011752Y009906D02*
X011826Y009906D01*
X011826Y009909D02*
X011752Y009909D01*
X011752Y009912D02*
X011826Y009912D01*
X011826Y009915D02*
X011752Y009915D01*
X011752Y009918D02*
X011826Y009918D01*
X011826Y009921D02*
X011752Y009921D01*
X011752Y009924D02*
X011826Y009924D01*
X011826Y009927D02*
X011752Y009927D01*
X011752Y009930D02*
X011826Y009930D01*
X011826Y009933D02*
X011752Y009933D01*
X011752Y009936D02*
X011826Y009936D01*
X011826Y009939D02*
X011752Y009939D01*
X011752Y009942D02*
X011826Y009942D01*
X011826Y009945D02*
X011752Y009945D01*
X011752Y009948D02*
X011826Y009948D01*
X011826Y009951D02*
X011752Y009951D01*
X011752Y009954D02*
X011826Y009954D01*
X011826Y009957D02*
X011752Y009957D01*
X011752Y009960D02*
X011826Y009960D01*
X011826Y009963D02*
X011752Y009963D01*
X011752Y009966D02*
X011826Y009966D01*
X011826Y009969D02*
X011752Y009969D01*
X011752Y009972D02*
X011826Y009972D01*
X011826Y009975D02*
X011752Y009975D01*
X011752Y009978D02*
X011826Y009978D01*
X011826Y009981D02*
X011752Y009981D01*
X011752Y009984D02*
X011826Y009984D01*
X011826Y009987D02*
X011752Y009987D01*
X011752Y009990D02*
X011826Y009990D01*
X011826Y009993D02*
X011752Y009993D01*
X011752Y009996D02*
X011826Y009996D01*
X011826Y009999D02*
X011752Y009999D01*
X011752Y010002D02*
X011826Y010002D01*
X011826Y010005D02*
X011752Y010005D01*
X011752Y010008D02*
X011826Y010008D01*
X011826Y010011D02*
X011752Y010011D01*
X011752Y010014D02*
X011826Y010014D01*
X011826Y010017D02*
X011752Y010017D01*
X011752Y010020D02*
X011826Y010020D01*
X011826Y010023D02*
X011752Y010023D01*
X011752Y010026D02*
X011826Y010026D01*
X011826Y010029D02*
X011752Y010029D01*
X011752Y010032D02*
X011826Y010032D01*
X011826Y010035D02*
X011752Y010035D01*
X011752Y010038D02*
X011826Y010038D01*
X011826Y010041D02*
X011752Y010041D01*
X011752Y010044D02*
X011826Y010044D01*
X011826Y010047D02*
X011752Y010047D01*
X011752Y010050D02*
X011826Y010050D01*
X011826Y010053D02*
X011752Y010053D01*
X011752Y010056D02*
X011826Y010056D01*
X011910Y010057D02*
X011910Y009825D01*
X011910Y010057D02*
X011984Y010057D01*
X011984Y009825D01*
X011910Y009825D01*
X011910Y009828D02*
X011984Y009828D01*
X011984Y009831D02*
X011910Y009831D01*
X011910Y009834D02*
X011984Y009834D01*
X011984Y009837D02*
X011910Y009837D01*
X011910Y009840D02*
X011984Y009840D01*
X011984Y009843D02*
X011910Y009843D01*
X011910Y009846D02*
X011984Y009846D01*
X011984Y009849D02*
X011910Y009849D01*
X011910Y009852D02*
X011984Y009852D01*
X011984Y009855D02*
X011910Y009855D01*
X011910Y009858D02*
X011984Y009858D01*
X011984Y009861D02*
X011910Y009861D01*
X011910Y009864D02*
X011984Y009864D01*
X011984Y009867D02*
X011910Y009867D01*
X011910Y009870D02*
X011984Y009870D01*
X011984Y009873D02*
X011910Y009873D01*
X011910Y009876D02*
X011984Y009876D01*
X011984Y009879D02*
X011910Y009879D01*
X011910Y009882D02*
X011984Y009882D01*
X011984Y009885D02*
X011910Y009885D01*
X011910Y009888D02*
X011984Y009888D01*
X011984Y009891D02*
X011910Y009891D01*
X011910Y009894D02*
X011984Y009894D01*
X011984Y009897D02*
X011910Y009897D01*
X011910Y009900D02*
X011984Y009900D01*
X011984Y009903D02*
X011910Y009903D01*
X011910Y009906D02*
X011984Y009906D01*
X011984Y009909D02*
X011910Y009909D01*
X011910Y009912D02*
X011984Y009912D01*
X011984Y009915D02*
X011910Y009915D01*
X011910Y009918D02*
X011984Y009918D01*
X011984Y009921D02*
X011910Y009921D01*
X011910Y009924D02*
X011984Y009924D01*
X011984Y009927D02*
X011910Y009927D01*
X011910Y009930D02*
X011984Y009930D01*
X011984Y009933D02*
X011910Y009933D01*
X011910Y009936D02*
X011984Y009936D01*
X011984Y009939D02*
X011910Y009939D01*
X011910Y009942D02*
X011984Y009942D01*
X011984Y009945D02*
X011910Y009945D01*
X011910Y009948D02*
X011984Y009948D01*
X011984Y009951D02*
X011910Y009951D01*
X011910Y009954D02*
X011984Y009954D01*
X011984Y009957D02*
X011910Y009957D01*
X011910Y009960D02*
X011984Y009960D01*
X011984Y009963D02*
X011910Y009963D01*
X011910Y009966D02*
X011984Y009966D01*
X011984Y009969D02*
X011910Y009969D01*
X011910Y009972D02*
X011984Y009972D01*
X011984Y009975D02*
X011910Y009975D01*
X011910Y009978D02*
X011984Y009978D01*
X011984Y009981D02*
X011910Y009981D01*
X011910Y009984D02*
X011984Y009984D01*
X011984Y009987D02*
X011910Y009987D01*
X011910Y009990D02*
X011984Y009990D01*
X011984Y009993D02*
X011910Y009993D01*
X011910Y009996D02*
X011984Y009996D01*
X011984Y009999D02*
X011910Y009999D01*
X011910Y010002D02*
X011984Y010002D01*
X011984Y010005D02*
X011910Y010005D01*
X011910Y010008D02*
X011984Y010008D01*
X011984Y010011D02*
X011910Y010011D01*
X011910Y010014D02*
X011984Y010014D01*
X011984Y010017D02*
X011910Y010017D01*
X011910Y010020D02*
X011984Y010020D01*
X011984Y010023D02*
X011910Y010023D01*
X011910Y010026D02*
X011984Y010026D01*
X011984Y010029D02*
X011910Y010029D01*
X011910Y010032D02*
X011984Y010032D01*
X011984Y010035D02*
X011910Y010035D01*
X011910Y010038D02*
X011984Y010038D01*
X011984Y010041D02*
X011910Y010041D01*
X011910Y010044D02*
X011984Y010044D01*
X011984Y010047D02*
X011910Y010047D01*
X011910Y010050D02*
X011984Y010050D01*
X011984Y010053D02*
X011910Y010053D01*
X011910Y010056D02*
X011984Y010056D01*
X012067Y010057D02*
X012067Y009825D01*
X012067Y010057D02*
X012141Y010057D01*
X012141Y009825D01*
X012067Y009825D01*
X012067Y009828D02*
X012141Y009828D01*
X012141Y009831D02*
X012067Y009831D01*
X012067Y009834D02*
X012141Y009834D01*
X012141Y009837D02*
X012067Y009837D01*
X012067Y009840D02*
X012141Y009840D01*
X012141Y009843D02*
X012067Y009843D01*
X012067Y009846D02*
X012141Y009846D01*
X012141Y009849D02*
X012067Y009849D01*
X012067Y009852D02*
X012141Y009852D01*
X012141Y009855D02*
X012067Y009855D01*
X012067Y009858D02*
X012141Y009858D01*
X012141Y009861D02*
X012067Y009861D01*
X012067Y009864D02*
X012141Y009864D01*
X012141Y009867D02*
X012067Y009867D01*
X012067Y009870D02*
X012141Y009870D01*
X012141Y009873D02*
X012067Y009873D01*
X012067Y009876D02*
X012141Y009876D01*
X012141Y009879D02*
X012067Y009879D01*
X012067Y009882D02*
X012141Y009882D01*
X012141Y009885D02*
X012067Y009885D01*
X012067Y009888D02*
X012141Y009888D01*
X012141Y009891D02*
X012067Y009891D01*
X012067Y009894D02*
X012141Y009894D01*
X012141Y009897D02*
X012067Y009897D01*
X012067Y009900D02*
X012141Y009900D01*
X012141Y009903D02*
X012067Y009903D01*
X012067Y009906D02*
X012141Y009906D01*
X012141Y009909D02*
X012067Y009909D01*
X012067Y009912D02*
X012141Y009912D01*
X012141Y009915D02*
X012067Y009915D01*
X012067Y009918D02*
X012141Y009918D01*
X012141Y009921D02*
X012067Y009921D01*
X012067Y009924D02*
X012141Y009924D01*
X012141Y009927D02*
X012067Y009927D01*
X012067Y009930D02*
X012141Y009930D01*
X012141Y009933D02*
X012067Y009933D01*
X012067Y009936D02*
X012141Y009936D01*
X012141Y009939D02*
X012067Y009939D01*
X012067Y009942D02*
X012141Y009942D01*
X012141Y009945D02*
X012067Y009945D01*
X012067Y009948D02*
X012141Y009948D01*
X012141Y009951D02*
X012067Y009951D01*
X012067Y009954D02*
X012141Y009954D01*
X012141Y009957D02*
X012067Y009957D01*
X012067Y009960D02*
X012141Y009960D01*
X012141Y009963D02*
X012067Y009963D01*
X012067Y009966D02*
X012141Y009966D01*
X012141Y009969D02*
X012067Y009969D01*
X012067Y009972D02*
X012141Y009972D01*
X012141Y009975D02*
X012067Y009975D01*
X012067Y009978D02*
X012141Y009978D01*
X012141Y009981D02*
X012067Y009981D01*
X012067Y009984D02*
X012141Y009984D01*
X012141Y009987D02*
X012067Y009987D01*
X012067Y009990D02*
X012141Y009990D01*
X012141Y009993D02*
X012067Y009993D01*
X012067Y009996D02*
X012141Y009996D01*
X012141Y009999D02*
X012067Y009999D01*
X012067Y010002D02*
X012141Y010002D01*
X012141Y010005D02*
X012067Y010005D01*
X012067Y010008D02*
X012141Y010008D01*
X012141Y010011D02*
X012067Y010011D01*
X012067Y010014D02*
X012141Y010014D01*
X012141Y010017D02*
X012067Y010017D01*
X012067Y010020D02*
X012141Y010020D01*
X012141Y010023D02*
X012067Y010023D01*
X012067Y010026D02*
X012141Y010026D01*
X012141Y010029D02*
X012067Y010029D01*
X012067Y010032D02*
X012141Y010032D01*
X012141Y010035D02*
X012067Y010035D01*
X012067Y010038D02*
X012141Y010038D01*
X012141Y010041D02*
X012067Y010041D01*
X012067Y010044D02*
X012141Y010044D01*
X012141Y010047D02*
X012067Y010047D01*
X012067Y010050D02*
X012141Y010050D01*
X012141Y010053D02*
X012067Y010053D01*
X012067Y010056D02*
X012141Y010056D01*
X012225Y010057D02*
X012225Y009825D01*
X012225Y010057D02*
X012299Y010057D01*
X012299Y009825D01*
X012225Y009825D01*
X012225Y009828D02*
X012299Y009828D01*
X012299Y009831D02*
X012225Y009831D01*
X012225Y009834D02*
X012299Y009834D01*
X012299Y009837D02*
X012225Y009837D01*
X012225Y009840D02*
X012299Y009840D01*
X012299Y009843D02*
X012225Y009843D01*
X012225Y009846D02*
X012299Y009846D01*
X012299Y009849D02*
X012225Y009849D01*
X012225Y009852D02*
X012299Y009852D01*
X012299Y009855D02*
X012225Y009855D01*
X012225Y009858D02*
X012299Y009858D01*
X012299Y009861D02*
X012225Y009861D01*
X012225Y009864D02*
X012299Y009864D01*
X012299Y009867D02*
X012225Y009867D01*
X012225Y009870D02*
X012299Y009870D01*
X012299Y009873D02*
X012225Y009873D01*
X012225Y009876D02*
X012299Y009876D01*
X012299Y009879D02*
X012225Y009879D01*
X012225Y009882D02*
X012299Y009882D01*
X012299Y009885D02*
X012225Y009885D01*
X012225Y009888D02*
X012299Y009888D01*
X012299Y009891D02*
X012225Y009891D01*
X012225Y009894D02*
X012299Y009894D01*
X012299Y009897D02*
X012225Y009897D01*
X012225Y009900D02*
X012299Y009900D01*
X012299Y009903D02*
X012225Y009903D01*
X012225Y009906D02*
X012299Y009906D01*
X012299Y009909D02*
X012225Y009909D01*
X012225Y009912D02*
X012299Y009912D01*
X012299Y009915D02*
X012225Y009915D01*
X012225Y009918D02*
X012299Y009918D01*
X012299Y009921D02*
X012225Y009921D01*
X012225Y009924D02*
X012299Y009924D01*
X012299Y009927D02*
X012225Y009927D01*
X012225Y009930D02*
X012299Y009930D01*
X012299Y009933D02*
X012225Y009933D01*
X012225Y009936D02*
X012299Y009936D01*
X012299Y009939D02*
X012225Y009939D01*
X012225Y009942D02*
X012299Y009942D01*
X012299Y009945D02*
X012225Y009945D01*
X012225Y009948D02*
X012299Y009948D01*
X012299Y009951D02*
X012225Y009951D01*
X012225Y009954D02*
X012299Y009954D01*
X012299Y009957D02*
X012225Y009957D01*
X012225Y009960D02*
X012299Y009960D01*
X012299Y009963D02*
X012225Y009963D01*
X012225Y009966D02*
X012299Y009966D01*
X012299Y009969D02*
X012225Y009969D01*
X012225Y009972D02*
X012299Y009972D01*
X012299Y009975D02*
X012225Y009975D01*
X012225Y009978D02*
X012299Y009978D01*
X012299Y009981D02*
X012225Y009981D01*
X012225Y009984D02*
X012299Y009984D01*
X012299Y009987D02*
X012225Y009987D01*
X012225Y009990D02*
X012299Y009990D01*
X012299Y009993D02*
X012225Y009993D01*
X012225Y009996D02*
X012299Y009996D01*
X012299Y009999D02*
X012225Y009999D01*
X012225Y010002D02*
X012299Y010002D01*
X012299Y010005D02*
X012225Y010005D01*
X012225Y010008D02*
X012299Y010008D01*
X012299Y010011D02*
X012225Y010011D01*
X012225Y010014D02*
X012299Y010014D01*
X012299Y010017D02*
X012225Y010017D01*
X012225Y010020D02*
X012299Y010020D01*
X012299Y010023D02*
X012225Y010023D01*
X012225Y010026D02*
X012299Y010026D01*
X012299Y010029D02*
X012225Y010029D01*
X012225Y010032D02*
X012299Y010032D01*
X012299Y010035D02*
X012225Y010035D01*
X012225Y010038D02*
X012299Y010038D01*
X012299Y010041D02*
X012225Y010041D01*
X012225Y010044D02*
X012299Y010044D01*
X012299Y010047D02*
X012225Y010047D01*
X012225Y010050D02*
X012299Y010050D01*
X012299Y010053D02*
X012225Y010053D01*
X012225Y010056D02*
X012299Y010056D01*
X012382Y010057D02*
X012382Y009825D01*
X012382Y010057D02*
X012456Y010057D01*
X012456Y009825D01*
X012382Y009825D01*
X012382Y009828D02*
X012456Y009828D01*
X012456Y009831D02*
X012382Y009831D01*
X012382Y009834D02*
X012456Y009834D01*
X012456Y009837D02*
X012382Y009837D01*
X012382Y009840D02*
X012456Y009840D01*
X012456Y009843D02*
X012382Y009843D01*
X012382Y009846D02*
X012456Y009846D01*
X012456Y009849D02*
X012382Y009849D01*
X012382Y009852D02*
X012456Y009852D01*
X012456Y009855D02*
X012382Y009855D01*
X012382Y009858D02*
X012456Y009858D01*
X012456Y009861D02*
X012382Y009861D01*
X012382Y009864D02*
X012456Y009864D01*
X012456Y009867D02*
X012382Y009867D01*
X012382Y009870D02*
X012456Y009870D01*
X012456Y009873D02*
X012382Y009873D01*
X012382Y009876D02*
X012456Y009876D01*
X012456Y009879D02*
X012382Y009879D01*
X012382Y009882D02*
X012456Y009882D01*
X012456Y009885D02*
X012382Y009885D01*
X012382Y009888D02*
X012456Y009888D01*
X012456Y009891D02*
X012382Y009891D01*
X012382Y009894D02*
X012456Y009894D01*
X012456Y009897D02*
X012382Y009897D01*
X012382Y009900D02*
X012456Y009900D01*
X012456Y009903D02*
X012382Y009903D01*
X012382Y009906D02*
X012456Y009906D01*
X012456Y009909D02*
X012382Y009909D01*
X012382Y009912D02*
X012456Y009912D01*
X012456Y009915D02*
X012382Y009915D01*
X012382Y009918D02*
X012456Y009918D01*
X012456Y009921D02*
X012382Y009921D01*
X012382Y009924D02*
X012456Y009924D01*
X012456Y009927D02*
X012382Y009927D01*
X012382Y009930D02*
X012456Y009930D01*
X012456Y009933D02*
X012382Y009933D01*
X012382Y009936D02*
X012456Y009936D01*
X012456Y009939D02*
X012382Y009939D01*
X012382Y009942D02*
X012456Y009942D01*
X012456Y009945D02*
X012382Y009945D01*
X012382Y009948D02*
X012456Y009948D01*
X012456Y009951D02*
X012382Y009951D01*
X012382Y009954D02*
X012456Y009954D01*
X012456Y009957D02*
X012382Y009957D01*
X012382Y009960D02*
X012456Y009960D01*
X012456Y009963D02*
X012382Y009963D01*
X012382Y009966D02*
X012456Y009966D01*
X012456Y009969D02*
X012382Y009969D01*
X012382Y009972D02*
X012456Y009972D01*
X012456Y009975D02*
X012382Y009975D01*
X012382Y009978D02*
X012456Y009978D01*
X012456Y009981D02*
X012382Y009981D01*
X012382Y009984D02*
X012456Y009984D01*
X012456Y009987D02*
X012382Y009987D01*
X012382Y009990D02*
X012456Y009990D01*
X012456Y009993D02*
X012382Y009993D01*
X012382Y009996D02*
X012456Y009996D01*
X012456Y009999D02*
X012382Y009999D01*
X012382Y010002D02*
X012456Y010002D01*
X012456Y010005D02*
X012382Y010005D01*
X012382Y010008D02*
X012456Y010008D01*
X012456Y010011D02*
X012382Y010011D01*
X012382Y010014D02*
X012456Y010014D01*
X012456Y010017D02*
X012382Y010017D01*
X012382Y010020D02*
X012456Y010020D01*
X012456Y010023D02*
X012382Y010023D01*
X012382Y010026D02*
X012456Y010026D01*
X012456Y010029D02*
X012382Y010029D01*
X012382Y010032D02*
X012456Y010032D01*
X012456Y010035D02*
X012382Y010035D01*
X012382Y010038D02*
X012456Y010038D01*
X012456Y010041D02*
X012382Y010041D01*
X012382Y010044D02*
X012456Y010044D01*
X012456Y010047D02*
X012382Y010047D01*
X012382Y010050D02*
X012456Y010050D01*
X012456Y010053D02*
X012382Y010053D01*
X012382Y010056D02*
X012456Y010056D01*
X012618Y009668D02*
X012850Y009668D01*
X012618Y009668D02*
X012618Y009742D01*
X012850Y009742D01*
X012850Y009668D01*
X012850Y009671D02*
X012618Y009671D01*
X012618Y009674D02*
X012850Y009674D01*
X012850Y009677D02*
X012618Y009677D01*
X012618Y009680D02*
X012850Y009680D01*
X012850Y009683D02*
X012618Y009683D01*
X012618Y009686D02*
X012850Y009686D01*
X012850Y009689D02*
X012618Y009689D01*
X012618Y009692D02*
X012850Y009692D01*
X012850Y009695D02*
X012618Y009695D01*
X012618Y009698D02*
X012850Y009698D01*
X012850Y009701D02*
X012618Y009701D01*
X012618Y009704D02*
X012850Y009704D01*
X012850Y009707D02*
X012618Y009707D01*
X012618Y009710D02*
X012850Y009710D01*
X012850Y009713D02*
X012618Y009713D01*
X012618Y009716D02*
X012850Y009716D01*
X012850Y009719D02*
X012618Y009719D01*
X012618Y009722D02*
X012850Y009722D01*
X012850Y009725D02*
X012618Y009725D01*
X012618Y009728D02*
X012850Y009728D01*
X012850Y009731D02*
X012618Y009731D01*
X012618Y009734D02*
X012850Y009734D01*
X012850Y009737D02*
X012618Y009737D01*
X012618Y009740D02*
X012850Y009740D01*
X012850Y009510D02*
X012618Y009510D01*
X012618Y009584D01*
X012850Y009584D01*
X012850Y009510D01*
X012850Y009513D02*
X012618Y009513D01*
X012618Y009516D02*
X012850Y009516D01*
X012850Y009519D02*
X012618Y009519D01*
X012618Y009522D02*
X012850Y009522D01*
X012850Y009525D02*
X012618Y009525D01*
X012618Y009528D02*
X012850Y009528D01*
X012850Y009531D02*
X012618Y009531D01*
X012618Y009534D02*
X012850Y009534D01*
X012850Y009537D02*
X012618Y009537D01*
X012618Y009540D02*
X012850Y009540D01*
X012850Y009543D02*
X012618Y009543D01*
X012618Y009546D02*
X012850Y009546D01*
X012850Y009549D02*
X012618Y009549D01*
X012618Y009552D02*
X012850Y009552D01*
X012850Y009555D02*
X012618Y009555D01*
X012618Y009558D02*
X012850Y009558D01*
X012850Y009561D02*
X012618Y009561D01*
X012618Y009564D02*
X012850Y009564D01*
X012850Y009567D02*
X012618Y009567D01*
X012618Y009570D02*
X012850Y009570D01*
X012850Y009573D02*
X012618Y009573D01*
X012618Y009576D02*
X012850Y009576D01*
X012850Y009579D02*
X012618Y009579D01*
X012618Y009582D02*
X012850Y009582D01*
X012850Y009353D02*
X012618Y009353D01*
X012618Y009427D01*
X012850Y009427D01*
X012850Y009353D01*
X012850Y009356D02*
X012618Y009356D01*
X012618Y009359D02*
X012850Y009359D01*
X012850Y009362D02*
X012618Y009362D01*
X012618Y009365D02*
X012850Y009365D01*
X012850Y009368D02*
X012618Y009368D01*
X012618Y009371D02*
X012850Y009371D01*
X012850Y009374D02*
X012618Y009374D01*
X012618Y009377D02*
X012850Y009377D01*
X012850Y009380D02*
X012618Y009380D01*
X012618Y009383D02*
X012850Y009383D01*
X012850Y009386D02*
X012618Y009386D01*
X012618Y009389D02*
X012850Y009389D01*
X012850Y009392D02*
X012618Y009392D01*
X012618Y009395D02*
X012850Y009395D01*
X012850Y009398D02*
X012618Y009398D01*
X012618Y009401D02*
X012850Y009401D01*
X012850Y009404D02*
X012618Y009404D01*
X012618Y009407D02*
X012850Y009407D01*
X012850Y009410D02*
X012618Y009410D01*
X012618Y009413D02*
X012850Y009413D01*
X012850Y009416D02*
X012618Y009416D01*
X012618Y009419D02*
X012850Y009419D01*
X012850Y009422D02*
X012618Y009422D01*
X012618Y009425D02*
X012850Y009425D01*
X012850Y009196D02*
X012618Y009196D01*
X012618Y009270D01*
X012850Y009270D01*
X012850Y009196D01*
X012850Y009199D02*
X012618Y009199D01*
X012618Y009202D02*
X012850Y009202D01*
X012850Y009205D02*
X012618Y009205D01*
X012618Y009208D02*
X012850Y009208D01*
X012850Y009211D02*
X012618Y009211D01*
X012618Y009214D02*
X012850Y009214D01*
X012850Y009217D02*
X012618Y009217D01*
X012618Y009220D02*
X012850Y009220D01*
X012850Y009223D02*
X012618Y009223D01*
X012618Y009226D02*
X012850Y009226D01*
X012850Y009229D02*
X012618Y009229D01*
X012618Y009232D02*
X012850Y009232D01*
X012850Y009235D02*
X012618Y009235D01*
X012618Y009238D02*
X012850Y009238D01*
X012850Y009241D02*
X012618Y009241D01*
X012618Y009244D02*
X012850Y009244D01*
X012850Y009247D02*
X012618Y009247D01*
X012618Y009250D02*
X012850Y009250D01*
X012850Y009253D02*
X012618Y009253D01*
X012618Y009256D02*
X012850Y009256D01*
X012850Y009259D02*
X012618Y009259D01*
X012618Y009262D02*
X012850Y009262D01*
X012850Y009265D02*
X012618Y009265D01*
X012618Y009268D02*
X012850Y009268D01*
X012850Y009038D02*
X012618Y009038D01*
X012618Y009112D01*
X012850Y009112D01*
X012850Y009038D01*
X012850Y009041D02*
X012618Y009041D01*
X012618Y009044D02*
X012850Y009044D01*
X012850Y009047D02*
X012618Y009047D01*
X012618Y009050D02*
X012850Y009050D01*
X012850Y009053D02*
X012618Y009053D01*
X012618Y009056D02*
X012850Y009056D01*
X012850Y009059D02*
X012618Y009059D01*
X012618Y009062D02*
X012850Y009062D01*
X012850Y009065D02*
X012618Y009065D01*
X012618Y009068D02*
X012850Y009068D01*
X012850Y009071D02*
X012618Y009071D01*
X012618Y009074D02*
X012850Y009074D01*
X012850Y009077D02*
X012618Y009077D01*
X012618Y009080D02*
X012850Y009080D01*
X012850Y009083D02*
X012618Y009083D01*
X012618Y009086D02*
X012850Y009086D01*
X012850Y009089D02*
X012618Y009089D01*
X012618Y009092D02*
X012850Y009092D01*
X012850Y009095D02*
X012618Y009095D01*
X012618Y009098D02*
X012850Y009098D01*
X012850Y009101D02*
X012618Y009101D01*
X012618Y009104D02*
X012850Y009104D01*
X012850Y009107D02*
X012618Y009107D01*
X012618Y009110D02*
X012850Y009110D01*
X012850Y008881D02*
X012618Y008881D01*
X012618Y008955D01*
X012850Y008955D01*
X012850Y008881D01*
X012850Y008884D02*
X012618Y008884D01*
X012618Y008887D02*
X012850Y008887D01*
X012850Y008890D02*
X012618Y008890D01*
X012618Y008893D02*
X012850Y008893D01*
X012850Y008896D02*
X012618Y008896D01*
X012618Y008899D02*
X012850Y008899D01*
X012850Y008902D02*
X012618Y008902D01*
X012618Y008905D02*
X012850Y008905D01*
X012850Y008908D02*
X012618Y008908D01*
X012618Y008911D02*
X012850Y008911D01*
X012850Y008914D02*
X012618Y008914D01*
X012618Y008917D02*
X012850Y008917D01*
X012850Y008920D02*
X012618Y008920D01*
X012618Y008923D02*
X012850Y008923D01*
X012850Y008926D02*
X012618Y008926D01*
X012618Y008929D02*
X012850Y008929D01*
X012850Y008932D02*
X012618Y008932D01*
X012618Y008935D02*
X012850Y008935D01*
X012850Y008938D02*
X012618Y008938D01*
X012618Y008941D02*
X012850Y008941D01*
X012850Y008944D02*
X012618Y008944D01*
X012618Y008947D02*
X012850Y008947D01*
X012850Y008950D02*
X012618Y008950D01*
X012618Y008953D02*
X012850Y008953D01*
X012850Y008723D02*
X012618Y008723D01*
X012618Y008797D01*
X012850Y008797D01*
X012850Y008723D01*
X012850Y008726D02*
X012618Y008726D01*
X012618Y008729D02*
X012850Y008729D01*
X012850Y008732D02*
X012618Y008732D01*
X012618Y008735D02*
X012850Y008735D01*
X012850Y008738D02*
X012618Y008738D01*
X012618Y008741D02*
X012850Y008741D01*
X012850Y008744D02*
X012618Y008744D01*
X012618Y008747D02*
X012850Y008747D01*
X012850Y008750D02*
X012618Y008750D01*
X012618Y008753D02*
X012850Y008753D01*
X012850Y008756D02*
X012618Y008756D01*
X012618Y008759D02*
X012850Y008759D01*
X012850Y008762D02*
X012618Y008762D01*
X012618Y008765D02*
X012850Y008765D01*
X012850Y008768D02*
X012618Y008768D01*
X012618Y008771D02*
X012850Y008771D01*
X012850Y008774D02*
X012618Y008774D01*
X012618Y008777D02*
X012850Y008777D01*
X012850Y008780D02*
X012618Y008780D01*
X012618Y008783D02*
X012850Y008783D01*
X012850Y008786D02*
X012618Y008786D01*
X012618Y008789D02*
X012850Y008789D01*
X012850Y008792D02*
X012618Y008792D01*
X012618Y008795D02*
X012850Y008795D01*
X012850Y008566D02*
X012618Y008566D01*
X012618Y008640D01*
X012850Y008640D01*
X012850Y008566D01*
X012850Y008569D02*
X012618Y008569D01*
X012618Y008572D02*
X012850Y008572D01*
X012850Y008575D02*
X012618Y008575D01*
X012618Y008578D02*
X012850Y008578D01*
X012850Y008581D02*
X012618Y008581D01*
X012618Y008584D02*
X012850Y008584D01*
X012850Y008587D02*
X012618Y008587D01*
X012618Y008590D02*
X012850Y008590D01*
X012850Y008593D02*
X012618Y008593D01*
X012618Y008596D02*
X012850Y008596D01*
X012850Y008599D02*
X012618Y008599D01*
X012618Y008602D02*
X012850Y008602D01*
X012850Y008605D02*
X012618Y008605D01*
X012618Y008608D02*
X012850Y008608D01*
X012850Y008611D02*
X012618Y008611D01*
X012618Y008614D02*
X012850Y008614D01*
X012850Y008617D02*
X012618Y008617D01*
X012618Y008620D02*
X012850Y008620D01*
X012850Y008623D02*
X012618Y008623D01*
X012618Y008626D02*
X012850Y008626D01*
X012850Y008629D02*
X012618Y008629D01*
X012618Y008632D02*
X012850Y008632D01*
X012850Y008635D02*
X012618Y008635D01*
X012618Y008638D02*
X012850Y008638D01*
X012382Y008482D02*
X012382Y008250D01*
X012382Y008482D02*
X012456Y008482D01*
X012456Y008250D01*
X012382Y008250D01*
X012382Y008253D02*
X012456Y008253D01*
X012456Y008256D02*
X012382Y008256D01*
X012382Y008259D02*
X012456Y008259D01*
X012456Y008262D02*
X012382Y008262D01*
X012382Y008265D02*
X012456Y008265D01*
X012456Y008268D02*
X012382Y008268D01*
X012382Y008271D02*
X012456Y008271D01*
X012456Y008274D02*
X012382Y008274D01*
X012382Y008277D02*
X012456Y008277D01*
X012456Y008280D02*
X012382Y008280D01*
X012382Y008283D02*
X012456Y008283D01*
X012456Y008286D02*
X012382Y008286D01*
X012382Y008289D02*
X012456Y008289D01*
X012456Y008292D02*
X012382Y008292D01*
X012382Y008295D02*
X012456Y008295D01*
X012456Y008298D02*
X012382Y008298D01*
X012382Y008301D02*
X012456Y008301D01*
X012456Y008304D02*
X012382Y008304D01*
X012382Y008307D02*
X012456Y008307D01*
X012456Y008310D02*
X012382Y008310D01*
X012382Y008313D02*
X012456Y008313D01*
X012456Y008316D02*
X012382Y008316D01*
X012382Y008319D02*
X012456Y008319D01*
X012456Y008322D02*
X012382Y008322D01*
X012382Y008325D02*
X012456Y008325D01*
X012456Y008328D02*
X012382Y008328D01*
X012382Y008331D02*
X012456Y008331D01*
X012456Y008334D02*
X012382Y008334D01*
X012382Y008337D02*
X012456Y008337D01*
X012456Y008340D02*
X012382Y008340D01*
X012382Y008343D02*
X012456Y008343D01*
X012456Y008346D02*
X012382Y008346D01*
X012382Y008349D02*
X012456Y008349D01*
X012456Y008352D02*
X012382Y008352D01*
X012382Y008355D02*
X012456Y008355D01*
X012456Y008358D02*
X012382Y008358D01*
X012382Y008361D02*
X012456Y008361D01*
X012456Y008364D02*
X012382Y008364D01*
X012382Y008367D02*
X012456Y008367D01*
X012456Y008370D02*
X012382Y008370D01*
X012382Y008373D02*
X012456Y008373D01*
X012456Y008376D02*
X012382Y008376D01*
X012382Y008379D02*
X012456Y008379D01*
X012456Y008382D02*
X012382Y008382D01*
X012382Y008385D02*
X012456Y008385D01*
X012456Y008388D02*
X012382Y008388D01*
X012382Y008391D02*
X012456Y008391D01*
X012456Y008394D02*
X012382Y008394D01*
X012382Y008397D02*
X012456Y008397D01*
X012456Y008400D02*
X012382Y008400D01*
X012382Y008403D02*
X012456Y008403D01*
X012456Y008406D02*
X012382Y008406D01*
X012382Y008409D02*
X012456Y008409D01*
X012456Y008412D02*
X012382Y008412D01*
X012382Y008415D02*
X012456Y008415D01*
X012456Y008418D02*
X012382Y008418D01*
X012382Y008421D02*
X012456Y008421D01*
X012456Y008424D02*
X012382Y008424D01*
X012382Y008427D02*
X012456Y008427D01*
X012456Y008430D02*
X012382Y008430D01*
X012382Y008433D02*
X012456Y008433D01*
X012456Y008436D02*
X012382Y008436D01*
X012382Y008439D02*
X012456Y008439D01*
X012456Y008442D02*
X012382Y008442D01*
X012382Y008445D02*
X012456Y008445D01*
X012456Y008448D02*
X012382Y008448D01*
X012382Y008451D02*
X012456Y008451D01*
X012456Y008454D02*
X012382Y008454D01*
X012382Y008457D02*
X012456Y008457D01*
X012456Y008460D02*
X012382Y008460D01*
X012382Y008463D02*
X012456Y008463D01*
X012456Y008466D02*
X012382Y008466D01*
X012382Y008469D02*
X012456Y008469D01*
X012456Y008472D02*
X012382Y008472D01*
X012382Y008475D02*
X012456Y008475D01*
X012456Y008478D02*
X012382Y008478D01*
X012382Y008481D02*
X012456Y008481D01*
X012225Y008482D02*
X012225Y008250D01*
X012225Y008482D02*
X012299Y008482D01*
X012299Y008250D01*
X012225Y008250D01*
X012225Y008253D02*
X012299Y008253D01*
X012299Y008256D02*
X012225Y008256D01*
X012225Y008259D02*
X012299Y008259D01*
X012299Y008262D02*
X012225Y008262D01*
X012225Y008265D02*
X012299Y008265D01*
X012299Y008268D02*
X012225Y008268D01*
X012225Y008271D02*
X012299Y008271D01*
X012299Y008274D02*
X012225Y008274D01*
X012225Y008277D02*
X012299Y008277D01*
X012299Y008280D02*
X012225Y008280D01*
X012225Y008283D02*
X012299Y008283D01*
X012299Y008286D02*
X012225Y008286D01*
X012225Y008289D02*
X012299Y008289D01*
X012299Y008292D02*
X012225Y008292D01*
X012225Y008295D02*
X012299Y008295D01*
X012299Y008298D02*
X012225Y008298D01*
X012225Y008301D02*
X012299Y008301D01*
X012299Y008304D02*
X012225Y008304D01*
X012225Y008307D02*
X012299Y008307D01*
X012299Y008310D02*
X012225Y008310D01*
X012225Y008313D02*
X012299Y008313D01*
X012299Y008316D02*
X012225Y008316D01*
X012225Y008319D02*
X012299Y008319D01*
X012299Y008322D02*
X012225Y008322D01*
X012225Y008325D02*
X012299Y008325D01*
X012299Y008328D02*
X012225Y008328D01*
X012225Y008331D02*
X012299Y008331D01*
X012299Y008334D02*
X012225Y008334D01*
X012225Y008337D02*
X012299Y008337D01*
X012299Y008340D02*
X012225Y008340D01*
X012225Y008343D02*
X012299Y008343D01*
X012299Y008346D02*
X012225Y008346D01*
X012225Y008349D02*
X012299Y008349D01*
X012299Y008352D02*
X012225Y008352D01*
X012225Y008355D02*
X012299Y008355D01*
X012299Y008358D02*
X012225Y008358D01*
X012225Y008361D02*
X012299Y008361D01*
X012299Y008364D02*
X012225Y008364D01*
X012225Y008367D02*
X012299Y008367D01*
X012299Y008370D02*
X012225Y008370D01*
X012225Y008373D02*
X012299Y008373D01*
X012299Y008376D02*
X012225Y008376D01*
X012225Y008379D02*
X012299Y008379D01*
X012299Y008382D02*
X012225Y008382D01*
X012225Y008385D02*
X012299Y008385D01*
X012299Y008388D02*
X012225Y008388D01*
X012225Y008391D02*
X012299Y008391D01*
X012299Y008394D02*
X012225Y008394D01*
X012225Y008397D02*
X012299Y008397D01*
X012299Y008400D02*
X012225Y008400D01*
X012225Y008403D02*
X012299Y008403D01*
X012299Y008406D02*
X012225Y008406D01*
X012225Y008409D02*
X012299Y008409D01*
X012299Y008412D02*
X012225Y008412D01*
X012225Y008415D02*
X012299Y008415D01*
X012299Y008418D02*
X012225Y008418D01*
X012225Y008421D02*
X012299Y008421D01*
X012299Y008424D02*
X012225Y008424D01*
X012225Y008427D02*
X012299Y008427D01*
X012299Y008430D02*
X012225Y008430D01*
X012225Y008433D02*
X012299Y008433D01*
X012299Y008436D02*
X012225Y008436D01*
X012225Y008439D02*
X012299Y008439D01*
X012299Y008442D02*
X012225Y008442D01*
X012225Y008445D02*
X012299Y008445D01*
X012299Y008448D02*
X012225Y008448D01*
X012225Y008451D02*
X012299Y008451D01*
X012299Y008454D02*
X012225Y008454D01*
X012225Y008457D02*
X012299Y008457D01*
X012299Y008460D02*
X012225Y008460D01*
X012225Y008463D02*
X012299Y008463D01*
X012299Y008466D02*
X012225Y008466D01*
X012225Y008469D02*
X012299Y008469D01*
X012299Y008472D02*
X012225Y008472D01*
X012225Y008475D02*
X012299Y008475D01*
X012299Y008478D02*
X012225Y008478D01*
X012225Y008481D02*
X012299Y008481D01*
X012067Y008482D02*
X012067Y008250D01*
X012067Y008482D02*
X012141Y008482D01*
X012141Y008250D01*
X012067Y008250D01*
X012067Y008253D02*
X012141Y008253D01*
X012141Y008256D02*
X012067Y008256D01*
X012067Y008259D02*
X012141Y008259D01*
X012141Y008262D02*
X012067Y008262D01*
X012067Y008265D02*
X012141Y008265D01*
X012141Y008268D02*
X012067Y008268D01*
X012067Y008271D02*
X012141Y008271D01*
X012141Y008274D02*
X012067Y008274D01*
X012067Y008277D02*
X012141Y008277D01*
X012141Y008280D02*
X012067Y008280D01*
X012067Y008283D02*
X012141Y008283D01*
X012141Y008286D02*
X012067Y008286D01*
X012067Y008289D02*
X012141Y008289D01*
X012141Y008292D02*
X012067Y008292D01*
X012067Y008295D02*
X012141Y008295D01*
X012141Y008298D02*
X012067Y008298D01*
X012067Y008301D02*
X012141Y008301D01*
X012141Y008304D02*
X012067Y008304D01*
X012067Y008307D02*
X012141Y008307D01*
X012141Y008310D02*
X012067Y008310D01*
X012067Y008313D02*
X012141Y008313D01*
X012141Y008316D02*
X012067Y008316D01*
X012067Y008319D02*
X012141Y008319D01*
X012141Y008322D02*
X012067Y008322D01*
X012067Y008325D02*
X012141Y008325D01*
X012141Y008328D02*
X012067Y008328D01*
X012067Y008331D02*
X012141Y008331D01*
X012141Y008334D02*
X012067Y008334D01*
X012067Y008337D02*
X012141Y008337D01*
X012141Y008340D02*
X012067Y008340D01*
X012067Y008343D02*
X012141Y008343D01*
X012141Y008346D02*
X012067Y008346D01*
X012067Y008349D02*
X012141Y008349D01*
X012141Y008352D02*
X012067Y008352D01*
X012067Y008355D02*
X012141Y008355D01*
X012141Y008358D02*
X012067Y008358D01*
X012067Y008361D02*
X012141Y008361D01*
X012141Y008364D02*
X012067Y008364D01*
X012067Y008367D02*
X012141Y008367D01*
X012141Y008370D02*
X012067Y008370D01*
X012067Y008373D02*
X012141Y008373D01*
X012141Y008376D02*
X012067Y008376D01*
X012067Y008379D02*
X012141Y008379D01*
X012141Y008382D02*
X012067Y008382D01*
X012067Y008385D02*
X012141Y008385D01*
X012141Y008388D02*
X012067Y008388D01*
X012067Y008391D02*
X012141Y008391D01*
X012141Y008394D02*
X012067Y008394D01*
X012067Y008397D02*
X012141Y008397D01*
X012141Y008400D02*
X012067Y008400D01*
X012067Y008403D02*
X012141Y008403D01*
X012141Y008406D02*
X012067Y008406D01*
X012067Y008409D02*
X012141Y008409D01*
X012141Y008412D02*
X012067Y008412D01*
X012067Y008415D02*
X012141Y008415D01*
X012141Y008418D02*
X012067Y008418D01*
X012067Y008421D02*
X012141Y008421D01*
X012141Y008424D02*
X012067Y008424D01*
X012067Y008427D02*
X012141Y008427D01*
X012141Y008430D02*
X012067Y008430D01*
X012067Y008433D02*
X012141Y008433D01*
X012141Y008436D02*
X012067Y008436D01*
X012067Y008439D02*
X012141Y008439D01*
X012141Y008442D02*
X012067Y008442D01*
X012067Y008445D02*
X012141Y008445D01*
X012141Y008448D02*
X012067Y008448D01*
X012067Y008451D02*
X012141Y008451D01*
X012141Y008454D02*
X012067Y008454D01*
X012067Y008457D02*
X012141Y008457D01*
X012141Y008460D02*
X012067Y008460D01*
X012067Y008463D02*
X012141Y008463D01*
X012141Y008466D02*
X012067Y008466D01*
X012067Y008469D02*
X012141Y008469D01*
X012141Y008472D02*
X012067Y008472D01*
X012067Y008475D02*
X012141Y008475D01*
X012141Y008478D02*
X012067Y008478D01*
X012067Y008481D02*
X012141Y008481D01*
X011910Y008482D02*
X011910Y008250D01*
X011910Y008482D02*
X011984Y008482D01*
X011984Y008250D01*
X011910Y008250D01*
X011910Y008253D02*
X011984Y008253D01*
X011984Y008256D02*
X011910Y008256D01*
X011910Y008259D02*
X011984Y008259D01*
X011984Y008262D02*
X011910Y008262D01*
X011910Y008265D02*
X011984Y008265D01*
X011984Y008268D02*
X011910Y008268D01*
X011910Y008271D02*
X011984Y008271D01*
X011984Y008274D02*
X011910Y008274D01*
X011910Y008277D02*
X011984Y008277D01*
X011984Y008280D02*
X011910Y008280D01*
X011910Y008283D02*
X011984Y008283D01*
X011984Y008286D02*
X011910Y008286D01*
X011910Y008289D02*
X011984Y008289D01*
X011984Y008292D02*
X011910Y008292D01*
X011910Y008295D02*
X011984Y008295D01*
X011984Y008298D02*
X011910Y008298D01*
X011910Y008301D02*
X011984Y008301D01*
X011984Y008304D02*
X011910Y008304D01*
X011910Y008307D02*
X011984Y008307D01*
X011984Y008310D02*
X011910Y008310D01*
X011910Y008313D02*
X011984Y008313D01*
X011984Y008316D02*
X011910Y008316D01*
X011910Y008319D02*
X011984Y008319D01*
X011984Y008322D02*
X011910Y008322D01*
X011910Y008325D02*
X011984Y008325D01*
X011984Y008328D02*
X011910Y008328D01*
X011910Y008331D02*
X011984Y008331D01*
X011984Y008334D02*
X011910Y008334D01*
X011910Y008337D02*
X011984Y008337D01*
X011984Y008340D02*
X011910Y008340D01*
X011910Y008343D02*
X011984Y008343D01*
X011984Y008346D02*
X011910Y008346D01*
X011910Y008349D02*
X011984Y008349D01*
X011984Y008352D02*
X011910Y008352D01*
X011910Y008355D02*
X011984Y008355D01*
X011984Y008358D02*
X011910Y008358D01*
X011910Y008361D02*
X011984Y008361D01*
X011984Y008364D02*
X011910Y008364D01*
X011910Y008367D02*
X011984Y008367D01*
X011984Y008370D02*
X011910Y008370D01*
X011910Y008373D02*
X011984Y008373D01*
X011984Y008376D02*
X011910Y008376D01*
X011910Y008379D02*
X011984Y008379D01*
X011984Y008382D02*
X011910Y008382D01*
X011910Y008385D02*
X011984Y008385D01*
X011984Y008388D02*
X011910Y008388D01*
X011910Y008391D02*
X011984Y008391D01*
X011984Y008394D02*
X011910Y008394D01*
X011910Y008397D02*
X011984Y008397D01*
X011984Y008400D02*
X011910Y008400D01*
X011910Y008403D02*
X011984Y008403D01*
X011984Y008406D02*
X011910Y008406D01*
X011910Y008409D02*
X011984Y008409D01*
X011984Y008412D02*
X011910Y008412D01*
X011910Y008415D02*
X011984Y008415D01*
X011984Y008418D02*
X011910Y008418D01*
X011910Y008421D02*
X011984Y008421D01*
X011984Y008424D02*
X011910Y008424D01*
X011910Y008427D02*
X011984Y008427D01*
X011984Y008430D02*
X011910Y008430D01*
X011910Y008433D02*
X011984Y008433D01*
X011984Y008436D02*
X011910Y008436D01*
X011910Y008439D02*
X011984Y008439D01*
X011984Y008442D02*
X011910Y008442D01*
X011910Y008445D02*
X011984Y008445D01*
X011984Y008448D02*
X011910Y008448D01*
X011910Y008451D02*
X011984Y008451D01*
X011984Y008454D02*
X011910Y008454D01*
X011910Y008457D02*
X011984Y008457D01*
X011984Y008460D02*
X011910Y008460D01*
X011910Y008463D02*
X011984Y008463D01*
X011984Y008466D02*
X011910Y008466D01*
X011910Y008469D02*
X011984Y008469D01*
X011984Y008472D02*
X011910Y008472D01*
X011910Y008475D02*
X011984Y008475D01*
X011984Y008478D02*
X011910Y008478D01*
X011910Y008481D02*
X011984Y008481D01*
X011752Y008482D02*
X011752Y008250D01*
X011752Y008482D02*
X011826Y008482D01*
X011826Y008250D01*
X011752Y008250D01*
X011752Y008253D02*
X011826Y008253D01*
X011826Y008256D02*
X011752Y008256D01*
X011752Y008259D02*
X011826Y008259D01*
X011826Y008262D02*
X011752Y008262D01*
X011752Y008265D02*
X011826Y008265D01*
X011826Y008268D02*
X011752Y008268D01*
X011752Y008271D02*
X011826Y008271D01*
X011826Y008274D02*
X011752Y008274D01*
X011752Y008277D02*
X011826Y008277D01*
X011826Y008280D02*
X011752Y008280D01*
X011752Y008283D02*
X011826Y008283D01*
X011826Y008286D02*
X011752Y008286D01*
X011752Y008289D02*
X011826Y008289D01*
X011826Y008292D02*
X011752Y008292D01*
X011752Y008295D02*
X011826Y008295D01*
X011826Y008298D02*
X011752Y008298D01*
X011752Y008301D02*
X011826Y008301D01*
X011826Y008304D02*
X011752Y008304D01*
X011752Y008307D02*
X011826Y008307D01*
X011826Y008310D02*
X011752Y008310D01*
X011752Y008313D02*
X011826Y008313D01*
X011826Y008316D02*
X011752Y008316D01*
X011752Y008319D02*
X011826Y008319D01*
X011826Y008322D02*
X011752Y008322D01*
X011752Y008325D02*
X011826Y008325D01*
X011826Y008328D02*
X011752Y008328D01*
X011752Y008331D02*
X011826Y008331D01*
X011826Y008334D02*
X011752Y008334D01*
X011752Y008337D02*
X011826Y008337D01*
X011826Y008340D02*
X011752Y008340D01*
X011752Y008343D02*
X011826Y008343D01*
X011826Y008346D02*
X011752Y008346D01*
X011752Y008349D02*
X011826Y008349D01*
X011826Y008352D02*
X011752Y008352D01*
X011752Y008355D02*
X011826Y008355D01*
X011826Y008358D02*
X011752Y008358D01*
X011752Y008361D02*
X011826Y008361D01*
X011826Y008364D02*
X011752Y008364D01*
X011752Y008367D02*
X011826Y008367D01*
X011826Y008370D02*
X011752Y008370D01*
X011752Y008373D02*
X011826Y008373D01*
X011826Y008376D02*
X011752Y008376D01*
X011752Y008379D02*
X011826Y008379D01*
X011826Y008382D02*
X011752Y008382D01*
X011752Y008385D02*
X011826Y008385D01*
X011826Y008388D02*
X011752Y008388D01*
X011752Y008391D02*
X011826Y008391D01*
X011826Y008394D02*
X011752Y008394D01*
X011752Y008397D02*
X011826Y008397D01*
X011826Y008400D02*
X011752Y008400D01*
X011752Y008403D02*
X011826Y008403D01*
X011826Y008406D02*
X011752Y008406D01*
X011752Y008409D02*
X011826Y008409D01*
X011826Y008412D02*
X011752Y008412D01*
X011752Y008415D02*
X011826Y008415D01*
X011826Y008418D02*
X011752Y008418D01*
X011752Y008421D02*
X011826Y008421D01*
X011826Y008424D02*
X011752Y008424D01*
X011752Y008427D02*
X011826Y008427D01*
X011826Y008430D02*
X011752Y008430D01*
X011752Y008433D02*
X011826Y008433D01*
X011826Y008436D02*
X011752Y008436D01*
X011752Y008439D02*
X011826Y008439D01*
X011826Y008442D02*
X011752Y008442D01*
X011752Y008445D02*
X011826Y008445D01*
X011826Y008448D02*
X011752Y008448D01*
X011752Y008451D02*
X011826Y008451D01*
X011826Y008454D02*
X011752Y008454D01*
X011752Y008457D02*
X011826Y008457D01*
X011826Y008460D02*
X011752Y008460D01*
X011752Y008463D02*
X011826Y008463D01*
X011826Y008466D02*
X011752Y008466D01*
X011752Y008469D02*
X011826Y008469D01*
X011826Y008472D02*
X011752Y008472D01*
X011752Y008475D02*
X011826Y008475D01*
X011826Y008478D02*
X011752Y008478D01*
X011752Y008481D02*
X011826Y008481D01*
X011595Y008482D02*
X011595Y008250D01*
X011595Y008482D02*
X011669Y008482D01*
X011669Y008250D01*
X011595Y008250D01*
X011595Y008253D02*
X011669Y008253D01*
X011669Y008256D02*
X011595Y008256D01*
X011595Y008259D02*
X011669Y008259D01*
X011669Y008262D02*
X011595Y008262D01*
X011595Y008265D02*
X011669Y008265D01*
X011669Y008268D02*
X011595Y008268D01*
X011595Y008271D02*
X011669Y008271D01*
X011669Y008274D02*
X011595Y008274D01*
X011595Y008277D02*
X011669Y008277D01*
X011669Y008280D02*
X011595Y008280D01*
X011595Y008283D02*
X011669Y008283D01*
X011669Y008286D02*
X011595Y008286D01*
X011595Y008289D02*
X011669Y008289D01*
X011669Y008292D02*
X011595Y008292D01*
X011595Y008295D02*
X011669Y008295D01*
X011669Y008298D02*
X011595Y008298D01*
X011595Y008301D02*
X011669Y008301D01*
X011669Y008304D02*
X011595Y008304D01*
X011595Y008307D02*
X011669Y008307D01*
X011669Y008310D02*
X011595Y008310D01*
X011595Y008313D02*
X011669Y008313D01*
X011669Y008316D02*
X011595Y008316D01*
X011595Y008319D02*
X011669Y008319D01*
X011669Y008322D02*
X011595Y008322D01*
X011595Y008325D02*
X011669Y008325D01*
X011669Y008328D02*
X011595Y008328D01*
X011595Y008331D02*
X011669Y008331D01*
X011669Y008334D02*
X011595Y008334D01*
X011595Y008337D02*
X011669Y008337D01*
X011669Y008340D02*
X011595Y008340D01*
X011595Y008343D02*
X011669Y008343D01*
X011669Y008346D02*
X011595Y008346D01*
X011595Y008349D02*
X011669Y008349D01*
X011669Y008352D02*
X011595Y008352D01*
X011595Y008355D02*
X011669Y008355D01*
X011669Y008358D02*
X011595Y008358D01*
X011595Y008361D02*
X011669Y008361D01*
X011669Y008364D02*
X011595Y008364D01*
X011595Y008367D02*
X011669Y008367D01*
X011669Y008370D02*
X011595Y008370D01*
X011595Y008373D02*
X011669Y008373D01*
X011669Y008376D02*
X011595Y008376D01*
X011595Y008379D02*
X011669Y008379D01*
X011669Y008382D02*
X011595Y008382D01*
X011595Y008385D02*
X011669Y008385D01*
X011669Y008388D02*
X011595Y008388D01*
X011595Y008391D02*
X011669Y008391D01*
X011669Y008394D02*
X011595Y008394D01*
X011595Y008397D02*
X011669Y008397D01*
X011669Y008400D02*
X011595Y008400D01*
X011595Y008403D02*
X011669Y008403D01*
X011669Y008406D02*
X011595Y008406D01*
X011595Y008409D02*
X011669Y008409D01*
X011669Y008412D02*
X011595Y008412D01*
X011595Y008415D02*
X011669Y008415D01*
X011669Y008418D02*
X011595Y008418D01*
X011595Y008421D02*
X011669Y008421D01*
X011669Y008424D02*
X011595Y008424D01*
X011595Y008427D02*
X011669Y008427D01*
X011669Y008430D02*
X011595Y008430D01*
X011595Y008433D02*
X011669Y008433D01*
X011669Y008436D02*
X011595Y008436D01*
X011595Y008439D02*
X011669Y008439D01*
X011669Y008442D02*
X011595Y008442D01*
X011595Y008445D02*
X011669Y008445D01*
X011669Y008448D02*
X011595Y008448D01*
X011595Y008451D02*
X011669Y008451D01*
X011669Y008454D02*
X011595Y008454D01*
X011595Y008457D02*
X011669Y008457D01*
X011669Y008460D02*
X011595Y008460D01*
X011595Y008463D02*
X011669Y008463D01*
X011669Y008466D02*
X011595Y008466D01*
X011595Y008469D02*
X011669Y008469D01*
X011669Y008472D02*
X011595Y008472D01*
X011595Y008475D02*
X011669Y008475D01*
X011669Y008478D02*
X011595Y008478D01*
X011595Y008481D02*
X011669Y008481D01*
X011437Y008482D02*
X011437Y008250D01*
X011437Y008482D02*
X011511Y008482D01*
X011511Y008250D01*
X011437Y008250D01*
X011437Y008253D02*
X011511Y008253D01*
X011511Y008256D02*
X011437Y008256D01*
X011437Y008259D02*
X011511Y008259D01*
X011511Y008262D02*
X011437Y008262D01*
X011437Y008265D02*
X011511Y008265D01*
X011511Y008268D02*
X011437Y008268D01*
X011437Y008271D02*
X011511Y008271D01*
X011511Y008274D02*
X011437Y008274D01*
X011437Y008277D02*
X011511Y008277D01*
X011511Y008280D02*
X011437Y008280D01*
X011437Y008283D02*
X011511Y008283D01*
X011511Y008286D02*
X011437Y008286D01*
X011437Y008289D02*
X011511Y008289D01*
X011511Y008292D02*
X011437Y008292D01*
X011437Y008295D02*
X011511Y008295D01*
X011511Y008298D02*
X011437Y008298D01*
X011437Y008301D02*
X011511Y008301D01*
X011511Y008304D02*
X011437Y008304D01*
X011437Y008307D02*
X011511Y008307D01*
X011511Y008310D02*
X011437Y008310D01*
X011437Y008313D02*
X011511Y008313D01*
X011511Y008316D02*
X011437Y008316D01*
X011437Y008319D02*
X011511Y008319D01*
X011511Y008322D02*
X011437Y008322D01*
X011437Y008325D02*
X011511Y008325D01*
X011511Y008328D02*
X011437Y008328D01*
X011437Y008331D02*
X011511Y008331D01*
X011511Y008334D02*
X011437Y008334D01*
X011437Y008337D02*
X011511Y008337D01*
X011511Y008340D02*
X011437Y008340D01*
X011437Y008343D02*
X011511Y008343D01*
X011511Y008346D02*
X011437Y008346D01*
X011437Y008349D02*
X011511Y008349D01*
X011511Y008352D02*
X011437Y008352D01*
X011437Y008355D02*
X011511Y008355D01*
X011511Y008358D02*
X011437Y008358D01*
X011437Y008361D02*
X011511Y008361D01*
X011511Y008364D02*
X011437Y008364D01*
X011437Y008367D02*
X011511Y008367D01*
X011511Y008370D02*
X011437Y008370D01*
X011437Y008373D02*
X011511Y008373D01*
X011511Y008376D02*
X011437Y008376D01*
X011437Y008379D02*
X011511Y008379D01*
X011511Y008382D02*
X011437Y008382D01*
X011437Y008385D02*
X011511Y008385D01*
X011511Y008388D02*
X011437Y008388D01*
X011437Y008391D02*
X011511Y008391D01*
X011511Y008394D02*
X011437Y008394D01*
X011437Y008397D02*
X011511Y008397D01*
X011511Y008400D02*
X011437Y008400D01*
X011437Y008403D02*
X011511Y008403D01*
X011511Y008406D02*
X011437Y008406D01*
X011437Y008409D02*
X011511Y008409D01*
X011511Y008412D02*
X011437Y008412D01*
X011437Y008415D02*
X011511Y008415D01*
X011511Y008418D02*
X011437Y008418D01*
X011437Y008421D02*
X011511Y008421D01*
X011511Y008424D02*
X011437Y008424D01*
X011437Y008427D02*
X011511Y008427D01*
X011511Y008430D02*
X011437Y008430D01*
X011437Y008433D02*
X011511Y008433D01*
X011511Y008436D02*
X011437Y008436D01*
X011437Y008439D02*
X011511Y008439D01*
X011511Y008442D02*
X011437Y008442D01*
X011437Y008445D02*
X011511Y008445D01*
X011511Y008448D02*
X011437Y008448D01*
X011437Y008451D02*
X011511Y008451D01*
X011511Y008454D02*
X011437Y008454D01*
X011437Y008457D02*
X011511Y008457D01*
X011511Y008460D02*
X011437Y008460D01*
X011437Y008463D02*
X011511Y008463D01*
X011511Y008466D02*
X011437Y008466D01*
X011437Y008469D02*
X011511Y008469D01*
X011511Y008472D02*
X011437Y008472D01*
X011437Y008475D02*
X011511Y008475D01*
X011511Y008478D02*
X011437Y008478D01*
X011437Y008481D02*
X011511Y008481D01*
X011276Y008566D02*
X011044Y008566D01*
X011044Y008640D01*
X011276Y008640D01*
X011276Y008566D01*
X011276Y008569D02*
X011044Y008569D01*
X011044Y008572D02*
X011276Y008572D01*
X011276Y008575D02*
X011044Y008575D01*
X011044Y008578D02*
X011276Y008578D01*
X011276Y008581D02*
X011044Y008581D01*
X011044Y008584D02*
X011276Y008584D01*
X011276Y008587D02*
X011044Y008587D01*
X011044Y008590D02*
X011276Y008590D01*
X011276Y008593D02*
X011044Y008593D01*
X011044Y008596D02*
X011276Y008596D01*
X011276Y008599D02*
X011044Y008599D01*
X011044Y008602D02*
X011276Y008602D01*
X011276Y008605D02*
X011044Y008605D01*
X011044Y008608D02*
X011276Y008608D01*
X011276Y008611D02*
X011044Y008611D01*
X011044Y008614D02*
X011276Y008614D01*
X011276Y008617D02*
X011044Y008617D01*
X011044Y008620D02*
X011276Y008620D01*
X011276Y008623D02*
X011044Y008623D01*
X011044Y008626D02*
X011276Y008626D01*
X011276Y008629D02*
X011044Y008629D01*
X011044Y008632D02*
X011276Y008632D01*
X011276Y008635D02*
X011044Y008635D01*
X011044Y008638D02*
X011276Y008638D01*
X011276Y008723D02*
X011044Y008723D01*
X011044Y008797D01*
X011276Y008797D01*
X011276Y008723D01*
X011276Y008726D02*
X011044Y008726D01*
X011044Y008729D02*
X011276Y008729D01*
X011276Y008732D02*
X011044Y008732D01*
X011044Y008735D02*
X011276Y008735D01*
X011276Y008738D02*
X011044Y008738D01*
X011044Y008741D02*
X011276Y008741D01*
X011276Y008744D02*
X011044Y008744D01*
X011044Y008747D02*
X011276Y008747D01*
X011276Y008750D02*
X011044Y008750D01*
X011044Y008753D02*
X011276Y008753D01*
X011276Y008756D02*
X011044Y008756D01*
X011044Y008759D02*
X011276Y008759D01*
X011276Y008762D02*
X011044Y008762D01*
X011044Y008765D02*
X011276Y008765D01*
X011276Y008768D02*
X011044Y008768D01*
X011044Y008771D02*
X011276Y008771D01*
X011276Y008774D02*
X011044Y008774D01*
X011044Y008777D02*
X011276Y008777D01*
X011276Y008780D02*
X011044Y008780D01*
X011044Y008783D02*
X011276Y008783D01*
X011276Y008786D02*
X011044Y008786D01*
X011044Y008789D02*
X011276Y008789D01*
X011276Y008792D02*
X011044Y008792D01*
X011044Y008795D02*
X011276Y008795D01*
X011276Y008881D02*
X011044Y008881D01*
X011044Y008955D01*
X011276Y008955D01*
X011276Y008881D01*
X011276Y008884D02*
X011044Y008884D01*
X011044Y008887D02*
X011276Y008887D01*
X011276Y008890D02*
X011044Y008890D01*
X011044Y008893D02*
X011276Y008893D01*
X011276Y008896D02*
X011044Y008896D01*
X011044Y008899D02*
X011276Y008899D01*
X011276Y008902D02*
X011044Y008902D01*
X011044Y008905D02*
X011276Y008905D01*
X011276Y008908D02*
X011044Y008908D01*
X011044Y008911D02*
X011276Y008911D01*
X011276Y008914D02*
X011044Y008914D01*
X011044Y008917D02*
X011276Y008917D01*
X011276Y008920D02*
X011044Y008920D01*
X011044Y008923D02*
X011276Y008923D01*
X011276Y008926D02*
X011044Y008926D01*
X011044Y008929D02*
X011276Y008929D01*
X011276Y008932D02*
X011044Y008932D01*
X011044Y008935D02*
X011276Y008935D01*
X011276Y008938D02*
X011044Y008938D01*
X011044Y008941D02*
X011276Y008941D01*
X011276Y008944D02*
X011044Y008944D01*
X011044Y008947D02*
X011276Y008947D01*
X011276Y008950D02*
X011044Y008950D01*
X011044Y008953D02*
X011276Y008953D01*
X011276Y009038D02*
X011044Y009038D01*
X011044Y009112D01*
X011276Y009112D01*
X011276Y009038D01*
X011276Y009041D02*
X011044Y009041D01*
X011044Y009044D02*
X011276Y009044D01*
X011276Y009047D02*
X011044Y009047D01*
X011044Y009050D02*
X011276Y009050D01*
X011276Y009053D02*
X011044Y009053D01*
X011044Y009056D02*
X011276Y009056D01*
X011276Y009059D02*
X011044Y009059D01*
X011044Y009062D02*
X011276Y009062D01*
X011276Y009065D02*
X011044Y009065D01*
X011044Y009068D02*
X011276Y009068D01*
X011276Y009071D02*
X011044Y009071D01*
X011044Y009074D02*
X011276Y009074D01*
X011276Y009077D02*
X011044Y009077D01*
X011044Y009080D02*
X011276Y009080D01*
X011276Y009083D02*
X011044Y009083D01*
X011044Y009086D02*
X011276Y009086D01*
X011276Y009089D02*
X011044Y009089D01*
X011044Y009092D02*
X011276Y009092D01*
X011276Y009095D02*
X011044Y009095D01*
X011044Y009098D02*
X011276Y009098D01*
X011276Y009101D02*
X011044Y009101D01*
X011044Y009104D02*
X011276Y009104D01*
X011276Y009107D02*
X011044Y009107D01*
X011044Y009110D02*
X011276Y009110D01*
X011276Y009196D02*
X011044Y009196D01*
X011044Y009270D01*
X011276Y009270D01*
X011276Y009196D01*
X011276Y009199D02*
X011044Y009199D01*
X011044Y009202D02*
X011276Y009202D01*
X011276Y009205D02*
X011044Y009205D01*
X011044Y009208D02*
X011276Y009208D01*
X011276Y009211D02*
X011044Y009211D01*
X011044Y009214D02*
X011276Y009214D01*
X011276Y009217D02*
X011044Y009217D01*
X011044Y009220D02*
X011276Y009220D01*
X011276Y009223D02*
X011044Y009223D01*
X011044Y009226D02*
X011276Y009226D01*
X011276Y009229D02*
X011044Y009229D01*
X011044Y009232D02*
X011276Y009232D01*
X011276Y009235D02*
X011044Y009235D01*
X011044Y009238D02*
X011276Y009238D01*
X011276Y009241D02*
X011044Y009241D01*
X011044Y009244D02*
X011276Y009244D01*
X011276Y009247D02*
X011044Y009247D01*
X011044Y009250D02*
X011276Y009250D01*
X011276Y009253D02*
X011044Y009253D01*
X011044Y009256D02*
X011276Y009256D01*
X011276Y009259D02*
X011044Y009259D01*
X011044Y009262D02*
X011276Y009262D01*
X011276Y009265D02*
X011044Y009265D01*
X011044Y009268D02*
X011276Y009268D01*
X011276Y009353D02*
X011044Y009353D01*
X011044Y009427D01*
X011276Y009427D01*
X011276Y009353D01*
X011276Y009356D02*
X011044Y009356D01*
X011044Y009359D02*
X011276Y009359D01*
X011276Y009362D02*
X011044Y009362D01*
X011044Y009365D02*
X011276Y009365D01*
X011276Y009368D02*
X011044Y009368D01*
X011044Y009371D02*
X011276Y009371D01*
X011276Y009374D02*
X011044Y009374D01*
X011044Y009377D02*
X011276Y009377D01*
X011276Y009380D02*
X011044Y009380D01*
X011044Y009383D02*
X011276Y009383D01*
X011276Y009386D02*
X011044Y009386D01*
X011044Y009389D02*
X011276Y009389D01*
X011276Y009392D02*
X011044Y009392D01*
X011044Y009395D02*
X011276Y009395D01*
X011276Y009398D02*
X011044Y009398D01*
X011044Y009401D02*
X011276Y009401D01*
X011276Y009404D02*
X011044Y009404D01*
X011044Y009407D02*
X011276Y009407D01*
X011276Y009410D02*
X011044Y009410D01*
X011044Y009413D02*
X011276Y009413D01*
X011276Y009416D02*
X011044Y009416D01*
X011044Y009419D02*
X011276Y009419D01*
X011276Y009422D02*
X011044Y009422D01*
X011044Y009425D02*
X011276Y009425D01*
X011276Y009510D02*
X011044Y009510D01*
X011044Y009584D01*
X011276Y009584D01*
X011276Y009510D01*
X011276Y009513D02*
X011044Y009513D01*
X011044Y009516D02*
X011276Y009516D01*
X011276Y009519D02*
X011044Y009519D01*
X011044Y009522D02*
X011276Y009522D01*
X011276Y009525D02*
X011044Y009525D01*
X011044Y009528D02*
X011276Y009528D01*
X011276Y009531D02*
X011044Y009531D01*
X011044Y009534D02*
X011276Y009534D01*
X011276Y009537D02*
X011044Y009537D01*
X011044Y009540D02*
X011276Y009540D01*
X011276Y009543D02*
X011044Y009543D01*
X011044Y009546D02*
X011276Y009546D01*
X011276Y009549D02*
X011044Y009549D01*
X011044Y009552D02*
X011276Y009552D01*
X011276Y009555D02*
X011044Y009555D01*
X011044Y009558D02*
X011276Y009558D01*
X011276Y009561D02*
X011044Y009561D01*
X011044Y009564D02*
X011276Y009564D01*
X011276Y009567D02*
X011044Y009567D01*
X011044Y009570D02*
X011276Y009570D01*
X011276Y009573D02*
X011044Y009573D01*
X011044Y009576D02*
X011276Y009576D01*
X011276Y009579D02*
X011044Y009579D01*
X011044Y009582D02*
X011276Y009582D01*
X011276Y009668D02*
X011044Y009668D01*
X011044Y009742D01*
X011276Y009742D01*
X011276Y009668D01*
X011276Y009671D02*
X011044Y009671D01*
X011044Y009674D02*
X011276Y009674D01*
X011276Y009677D02*
X011044Y009677D01*
X011044Y009680D02*
X011276Y009680D01*
X011276Y009683D02*
X011044Y009683D01*
X011044Y009686D02*
X011276Y009686D01*
X011276Y009689D02*
X011044Y009689D01*
X011044Y009692D02*
X011276Y009692D01*
X011276Y009695D02*
X011044Y009695D01*
X011044Y009698D02*
X011276Y009698D01*
X011276Y009701D02*
X011044Y009701D01*
X011044Y009704D02*
X011276Y009704D01*
X011276Y009707D02*
X011044Y009707D01*
X011044Y009710D02*
X011276Y009710D01*
X011276Y009713D02*
X011044Y009713D01*
X011044Y009716D02*
X011276Y009716D01*
X011276Y009719D02*
X011044Y009719D01*
X011044Y009722D02*
X011276Y009722D01*
X011276Y009725D02*
X011044Y009725D01*
X011044Y009728D02*
X011276Y009728D01*
X011276Y009731D02*
X011044Y009731D01*
X011044Y009734D02*
X011276Y009734D01*
X011276Y009737D02*
X011044Y009737D01*
X011044Y009740D02*
X011276Y009740D01*
D14*
X011352Y009828D02*
X011104Y009828D01*
X011104Y009996D01*
X011352Y009996D01*
X011352Y009828D01*
X011352Y009836D02*
X011104Y009836D01*
X011104Y009844D02*
X011352Y009844D01*
X011352Y009852D02*
X011104Y009852D01*
X011104Y009860D02*
X011352Y009860D01*
X011352Y009868D02*
X011104Y009868D01*
X011104Y009876D02*
X011352Y009876D01*
X011352Y009884D02*
X011104Y009884D01*
X011104Y009892D02*
X011352Y009892D01*
X011352Y009900D02*
X011104Y009900D01*
X011104Y009908D02*
X011352Y009908D01*
X011352Y009916D02*
X011104Y009916D01*
X011104Y009924D02*
X011352Y009924D01*
X011352Y009932D02*
X011104Y009932D01*
X011104Y009940D02*
X011352Y009940D01*
X011352Y009948D02*
X011104Y009948D01*
X011104Y009956D02*
X011352Y009956D01*
X011352Y009964D02*
X011104Y009964D01*
X011104Y009972D02*
X011352Y009972D01*
X011352Y009980D02*
X011104Y009980D01*
X011104Y009988D02*
X011352Y009988D01*
X011352Y009996D02*
X011104Y009996D01*
X011104Y008312D02*
X011352Y008312D01*
X011104Y008312D02*
X011104Y008480D01*
X011352Y008480D01*
X011352Y008312D01*
X011352Y008320D02*
X011104Y008320D01*
X011104Y008328D02*
X011352Y008328D01*
X011352Y008336D02*
X011104Y008336D01*
X011104Y008344D02*
X011352Y008344D01*
X011352Y008352D02*
X011104Y008352D01*
X011104Y008360D02*
X011352Y008360D01*
X011352Y008368D02*
X011104Y008368D01*
X011104Y008376D02*
X011352Y008376D01*
X011352Y008384D02*
X011104Y008384D01*
X011104Y008392D02*
X011352Y008392D01*
X011352Y008400D02*
X011104Y008400D01*
X011104Y008408D02*
X011352Y008408D01*
X011352Y008416D02*
X011104Y008416D01*
X011104Y008424D02*
X011352Y008424D01*
X011352Y008432D02*
X011104Y008432D01*
X011104Y008440D02*
X011352Y008440D01*
X011352Y008448D02*
X011104Y008448D01*
X011104Y008456D02*
X011352Y008456D01*
X011352Y008464D02*
X011104Y008464D01*
X011104Y008472D02*
X011352Y008472D01*
X011352Y008480D02*
X011104Y008480D01*
X012541Y008312D02*
X012789Y008312D01*
X012541Y008312D02*
X012541Y008480D01*
X012789Y008480D01*
X012789Y008312D01*
X012789Y008320D02*
X012541Y008320D01*
X012541Y008328D02*
X012789Y008328D01*
X012789Y008336D02*
X012541Y008336D01*
X012541Y008344D02*
X012789Y008344D01*
X012789Y008352D02*
X012541Y008352D01*
X012541Y008360D02*
X012789Y008360D01*
X012789Y008368D02*
X012541Y008368D01*
X012541Y008376D02*
X012789Y008376D01*
X012789Y008384D02*
X012541Y008384D01*
X012541Y008392D02*
X012789Y008392D01*
X012789Y008400D02*
X012541Y008400D01*
X012541Y008408D02*
X012789Y008408D01*
X012789Y008416D02*
X012541Y008416D01*
X012541Y008424D02*
X012789Y008424D01*
X012789Y008432D02*
X012541Y008432D01*
X012541Y008440D02*
X012789Y008440D01*
X012789Y008448D02*
X012541Y008448D01*
X012541Y008456D02*
X012789Y008456D01*
X012789Y008464D02*
X012541Y008464D01*
X012541Y008472D02*
X012789Y008472D01*
X012789Y008480D02*
X012541Y008480D01*
D15*
X012537Y009819D02*
X012534Y009819D01*
X012797Y009819D01*
X012797Y009894D01*
X012687Y010004D01*
X012537Y010004D01*
X012537Y009819D01*
X012537Y009838D02*
X012797Y009838D01*
X012797Y009876D02*
X012537Y009876D01*
X012537Y009914D02*
X012777Y009914D01*
X012739Y009952D02*
X012537Y009952D01*
X012537Y009990D02*
X012701Y009990D01*
D16*
X009737Y009589D03*
X009737Y009018D03*
D17*
X012986Y007678D03*
X013567Y007678D03*
X013567Y006772D03*
X012986Y006772D03*
D18*
X012909Y007225D03*
X013645Y007225D03*
D19*
X012482Y006772D03*
X012168Y006771D03*
X012168Y006451D03*
X012482Y006452D03*
X009637Y008426D03*
X009637Y008746D03*
X009598Y009870D03*
X009598Y010190D03*
D20*
X010634Y010436D03*
X010954Y010436D03*
X012205Y007676D03*
X012525Y007676D03*
D21*
X011465Y007651D03*
X011465Y006750D03*
D22*
X010589Y006947D03*
X010589Y007459D03*
X007204Y010424D03*
X007204Y010936D03*
X015394Y016724D03*
X015394Y017236D03*
X015994Y017236D03*
X015994Y016724D03*
X018484Y010796D03*
X018484Y010284D03*
X010841Y002090D03*
X010841Y001578D03*
D23*
X010104Y007487D03*
X009592Y007487D03*
X006780Y010780D03*
X006269Y010780D03*
X012062Y013743D03*
X012574Y013743D03*
X015814Y010392D03*
X016325Y010392D03*
D24*
X011650Y010674D02*
X011650Y010910D01*
X011946Y010910D01*
X011946Y010674D01*
X011650Y010674D01*
X011650Y010752D02*
X011946Y010752D01*
X011946Y010830D02*
X011650Y010830D01*
X011650Y010908D02*
X011946Y010908D01*
X011650Y011304D02*
X011650Y011540D01*
X011946Y011540D01*
X011946Y011304D01*
X011650Y011304D01*
X011650Y011382D02*
X011946Y011382D01*
X011946Y011460D02*
X011650Y011460D01*
X011650Y011538D02*
X011946Y011538D01*
X015276Y015347D02*
X015512Y015347D01*
X015276Y015347D02*
X015276Y015583D01*
X015512Y015583D01*
X015512Y015347D01*
X015512Y015425D02*
X015276Y015425D01*
X015276Y015503D02*
X015512Y015503D01*
X015512Y015581D02*
X015276Y015581D01*
X015276Y015977D02*
X015512Y015977D01*
X015276Y015977D02*
X015276Y016213D01*
X015512Y016213D01*
X015512Y015977D01*
X015512Y016055D02*
X015276Y016055D01*
X015276Y016133D02*
X015512Y016133D01*
X015512Y016211D02*
X015276Y016211D01*
X015876Y015977D02*
X016112Y015977D01*
X015876Y015977D02*
X015876Y016213D01*
X016112Y016213D01*
X016112Y015977D01*
X016112Y016055D02*
X015876Y016055D01*
X015876Y016133D02*
X016112Y016133D01*
X016112Y016211D02*
X015876Y016211D01*
X015876Y015347D02*
X016112Y015347D01*
X015876Y015347D02*
X015876Y015583D01*
X016112Y015583D01*
X016112Y015347D01*
X016112Y015425D02*
X015876Y015425D01*
X015876Y015503D02*
X016112Y015503D01*
X016112Y015581D02*
X015876Y015581D01*
D25*
X011416Y013741D03*
X010816Y013741D03*
X007154Y011780D03*
X006554Y011780D03*
X005654Y011780D03*
X005054Y011780D03*
X005054Y012780D03*
X005654Y012780D03*
X005654Y010780D03*
X005054Y010780D03*
X005054Y009780D03*
X005654Y009780D03*
X006554Y009780D03*
X007154Y009780D03*
X005354Y006380D03*
X004754Y006380D03*
X004694Y005380D03*
X005294Y005380D03*
X007554Y004760D03*
X008154Y004760D03*
X008154Y003840D03*
X007554Y003840D03*
X007554Y002980D03*
X008154Y002980D03*
X008154Y002120D03*
X007554Y002120D03*
X009054Y001880D03*
X009654Y001880D03*
X014477Y006761D03*
X015077Y006761D03*
D26*
X003104Y015337D03*
X009993Y016185D03*
D27*
X009993Y015185D03*
X004104Y015337D03*
D28*
X003880Y013339D03*
X002880Y013339D03*
X002880Y012339D03*
X003880Y012339D03*
X003880Y011339D03*
X002880Y011339D03*
X002880Y010339D03*
X003880Y010339D03*
X003880Y009339D03*
X002880Y009339D03*
X002880Y008339D03*
X003880Y008339D03*
X003880Y007339D03*
X002880Y007339D03*
X002880Y006339D03*
X003880Y006339D03*
X003880Y005339D03*
X002880Y005339D03*
X002880Y004339D03*
X003880Y004339D03*
D29*
X017882Y004240D02*
X018422Y004240D01*
X019374Y004240D02*
X019914Y004240D01*
X019914Y003240D02*
X019374Y003240D01*
X018422Y003240D02*
X017882Y003240D01*
X017882Y002240D02*
X018422Y002240D01*
X019374Y002240D02*
X019914Y002240D01*
D30*
X014777Y006761D03*
X007854Y002120D03*
X009354Y001880D03*
X006854Y011780D03*
X005354Y012780D03*
D31*
X005334Y015280D03*
X005334Y015880D03*
X005334Y016480D03*
D32*
X020696Y011989D03*
D33*
X020312Y011989D03*
X021080Y011989D03*
D34*
X008724Y015630D03*
X008024Y015630D03*
X008024Y016300D03*
X008724Y016300D03*
D35*
X007148Y016390D03*
X006774Y016390D03*
X006400Y016390D03*
X006400Y015209D03*
X007148Y015209D03*
D36*
X011022Y011676D03*
X011022Y010976D03*
D37*
X010430Y004826D03*
X010430Y004576D03*
X010430Y004316D03*
X010430Y004056D03*
X010430Y003806D03*
X010430Y003546D03*
X010430Y003296D03*
X010430Y003036D03*
X010430Y002776D03*
X010430Y002526D03*
X012730Y002526D03*
X012730Y002776D03*
X012730Y003036D03*
X012730Y003296D03*
X012730Y003546D03*
X012730Y003806D03*
X012730Y004056D03*
X012730Y004316D03*
X012730Y004576D03*
X012730Y004826D03*
M02*
