%
M48
M72
T01C0.0160
T02C0.0177
T03C0.0236
T04C0.0360
T05C0.0390
T06C0.0394
T07C0.0400
%
T01
X21080Y11989
X20312Y11989
X13524Y4240
X13524Y2100
X7564Y10940
X7644Y6860
X9824Y4580
X10384Y2060
X16704Y14500
X7044Y4300
X21465Y11391
X19715Y11391
X15375Y10311
X11555Y9451
X12275Y9451
X11575Y8771
X12335Y8751
X11955Y9151
X9285Y15901
X9285Y16351
X21215Y7891
X9552Y10463
X21215Y8891
X19715Y10391
X19715Y9391
X21415Y9841
X21415Y10841
X20215Y6891
X20215Y7891
X19215Y6891
X19215Y7891
X18215Y6891
X18215Y7891
X17215Y6891
X17215Y7891
X14215Y13891
X16215Y6891
X16215Y7891
X17215Y9241
X16115Y9241
X15115Y9241
X16665Y11791
X15215Y7891
X10932Y8153
X11192Y10443
X19315Y9991
X19315Y10791
X12518Y6130
X12178Y6129
X6781Y16755
X5923Y17092
X12954Y10197
X13993Y7919
X9335Y8451
X11072Y12163
X13278Y7090
X10055Y14531
X10095Y13771
X9075Y13511
X9355Y11651
X8855Y12151
X9935Y12251
X13735Y10951
X14655Y12171
X12755Y12231
X15715Y12391
X14515Y9231
X13015Y8091
X6795Y7911
X6755Y9171
X20215Y5891
X16225Y6191
X17225Y6191
X18225Y6191
X19225Y6191
X19265Y4971
X18265Y4971
X17265Y4971
X16265Y4971
X15265Y4971
X14265Y4971
X13865Y6161
X14265Y2971
X15265Y2971
X16265Y2971
X17265Y2971
X17265Y1971
X16265Y1971
X15265Y1971
X14265Y1971
X14255Y3711
X15255Y3711
X16255Y3711
X17255Y3711
X21215Y4891
X21215Y3891
X18215Y9241
X19215Y9241
X19185Y11871
X18075Y13141
X18075Y14141
X18075Y15141
X18075Y16141
X18075Y17141
X17075Y17141
X17075Y16141
X17075Y15141
X17355Y14131
X16065Y13731
X15365Y14961
X14075Y17141
X13075Y17141
X12075Y17141
X11075Y17141
X10075Y17141
X13075Y16141
X13205Y15141
X14075Y15141
X12075Y15141
X12075Y16141
X11075Y16141
X8075Y14141
X7075Y14141
X6075Y14141
X7075Y13141
X3923Y16092
X11605Y2561
X11625Y1711
X12625Y1711
X6525Y3471
X6525Y4471
X5525Y4471
X5525Y3471
X4525Y3471
X3525Y3471
X2525Y3471
X2525Y2471
X6265Y1971
X4265Y1971
X3265Y1971
X8795Y3811
X9815Y2871
X12124Y7300
X14864Y7360
X7004Y4780
X6104Y2980
X16244Y11200
X10984Y3680
X13504Y9720
X11084Y3040
X13564Y10240
X9044Y2420
X8444Y7100
X8744Y12880
X13864Y11960
X7044Y2120
X12784Y11080
X7024Y3840
X12304Y11140
X11864Y14160
X13044Y5600
X9824Y6840
X13024Y6040
X9304Y7480
X6484Y6540
X6544Y8800
X6184Y6900
X6184Y9100
X4664Y7120
X6904Y6400
X5644Y12180
X5304Y5980
X4464Y13100
X6104Y10240
X6104Y12780
X5604Y5600
X4784Y16480
T02
X20696Y11989
T03
X3384Y6820
T04
X19644Y4240
X19644Y3240
X19644Y2240
X18152Y4240
X18152Y3240
X18152Y2240
T05
X9993Y16185
X9993Y15185
X3104Y15337
X4104Y15337
T06
X10324Y12820
X8264Y12420
X8264Y9420
X8264Y10420
X8264Y11420
X8264Y8420
X17504Y9880
X17504Y11880
X17504Y10880
X16324Y12820
X15324Y12820
X14324Y12820
X13324Y12820
X12324Y12820
X11324Y12820
X5180Y7938
X4404Y14357
X10994Y15190
X3704Y16820
X4904Y3000
X13724Y16040
X21104Y2280
X21104Y6280
X8104Y17280
X9104Y17280
X3904Y3000
X2704Y16820
T07
X3880Y4339
X3880Y5339
X3880Y6339
X3880Y7339
X3880Y8339
X3880Y9339
X3880Y10339
X3880Y11339
X3880Y12339
X3880Y13339
X2880Y4339
X2880Y5339
X2880Y6339
X2880Y7339
X2880Y8339
X2880Y9339
X2880Y10339
X2880Y11339
X2880Y12339
X2880Y13339
M30
