G75*
G70*
%OFA0B0*%
%FSLAX24Y24*%
%IPPOS*%
%LPD*%
%AMOC8*
5,1,8,0,0,1.08239X$1,22.5*
%
%ADD10C,0.0000*%
%ADD11C,0.0620*%
%ADD12R,0.0600X0.0600*%
%ADD13C,0.0600*%
%ADD14OC8,0.0600*%
%ADD15C,0.0540*%
%ADD16C,0.0320*%
%ADD17C,0.0300*%
D10*
X002104Y001280D02*
X002104Y017815D01*
X018600Y017815D01*
X018600Y012307D01*
X022249Y012327D01*
X022249Y001300D01*
X002104Y001280D01*
D11*
X003904Y003000D03*
X004904Y003000D03*
X005180Y007938D03*
X008264Y008420D03*
X008264Y009420D03*
X008264Y010420D03*
X008264Y011420D03*
X008264Y012420D03*
X010324Y012820D03*
X011324Y012820D03*
X012324Y012820D03*
X013324Y012820D03*
X014324Y012820D03*
X015324Y012820D03*
X016324Y012820D03*
X017504Y011880D03*
X017504Y010880D03*
X017504Y009880D03*
X021104Y006280D03*
X021104Y002280D03*
X004404Y014357D03*
X003704Y016820D03*
X002704Y016820D03*
X008104Y017280D03*
X009104Y017280D03*
X010994Y015190D03*
X013724Y016040D03*
D12*
X009993Y016185D03*
X003104Y015337D03*
D13*
X004104Y015337D03*
X009993Y015185D03*
D14*
X003880Y013339D03*
X002880Y013339D03*
X002880Y012339D03*
X003880Y012339D03*
X003880Y011339D03*
X002880Y011339D03*
X002880Y010339D03*
X003880Y010339D03*
X003880Y009339D03*
X002880Y009339D03*
X002880Y008339D03*
X003880Y008339D03*
X003880Y007339D03*
X002880Y007339D03*
X002880Y006339D03*
X003880Y006339D03*
X003880Y005339D03*
X002880Y005339D03*
X002880Y004339D03*
X003880Y004339D03*
D15*
X017882Y004240D02*
X018422Y004240D01*
X019374Y004240D02*
X019914Y004240D01*
X019914Y003240D02*
X019374Y003240D01*
X018422Y003240D02*
X017882Y003240D01*
X017882Y002240D02*
X018422Y002240D01*
X019374Y002240D02*
X019914Y002240D01*
D16*
X020696Y011989D03*
D17*
X020312Y011989D03*
X021080Y011989D03*
M02*
