G75*
G70*
%OFA0B0*%
%FSLAX24Y24*%
%IPPOS*%
%LPD*%
%AMOC8*
5,1,8,0,0,1.08239X$1,22.5*
%
%ADD10C,0.0000*%
%ADD11C,0.0037*%
%ADD12C,0.0002*%
%ADD13C,0.0007*%
%ADD14C,0.0008*%
%ADD15R,0.0511X0.0255*%
%ADD16R,0.0285X0.0157*%
%ADD17R,0.0129X0.0236*%
%ADD18R,0.0200X0.0080*%
%ADD19R,0.0080X0.0200*%
%ADD20R,0.0960X0.0362*%
%ADD21R,0.0314X0.0236*%
%ADD22R,0.0236X0.0314*%
%ADD23C,0.0069*%
%ADD24R,0.0420X0.0590*%
%ADD25R,0.0410X0.0360*%
%ADD26R,0.0236X0.0432*%
%ADD27R,0.0360X0.0410*%
%ADD28R,0.0540X0.0100*%
D10*
X002104Y001280D02*
X002104Y017815D01*
X018600Y017815D01*
X018600Y012307D01*
X022249Y012327D01*
X022249Y001300D01*
X002104Y001280D01*
D11*
X012578Y009862D02*
X012650Y009862D01*
X012578Y009862D02*
X012578Y009962D01*
X012650Y009962D01*
X012650Y009862D01*
X012650Y009898D02*
X012578Y009898D01*
X012578Y009934D02*
X012650Y009934D01*
D12*
X012401Y009844D02*
X012401Y010038D01*
X012437Y010038D01*
X012437Y009844D01*
X012401Y009844D01*
X012401Y009845D02*
X012437Y009845D01*
X012437Y009846D02*
X012401Y009846D01*
X012401Y009847D02*
X012437Y009847D01*
X012437Y009848D02*
X012401Y009848D01*
X012401Y009849D02*
X012437Y009849D01*
X012437Y009850D02*
X012401Y009850D01*
X012401Y009851D02*
X012437Y009851D01*
X012437Y009852D02*
X012401Y009852D01*
X012401Y009853D02*
X012437Y009853D01*
X012437Y009854D02*
X012401Y009854D01*
X012401Y009855D02*
X012437Y009855D01*
X012437Y009856D02*
X012401Y009856D01*
X012401Y009857D02*
X012437Y009857D01*
X012437Y009858D02*
X012401Y009858D01*
X012401Y009859D02*
X012437Y009859D01*
X012437Y009860D02*
X012401Y009860D01*
X012401Y009861D02*
X012437Y009861D01*
X012437Y009862D02*
X012401Y009862D01*
X012401Y009863D02*
X012437Y009863D01*
X012437Y009864D02*
X012401Y009864D01*
X012401Y009865D02*
X012437Y009865D01*
X012437Y009866D02*
X012401Y009866D01*
X012401Y009867D02*
X012437Y009867D01*
X012437Y009868D02*
X012401Y009868D01*
X012401Y009869D02*
X012437Y009869D01*
X012437Y009870D02*
X012401Y009870D01*
X012401Y009871D02*
X012437Y009871D01*
X012437Y009872D02*
X012401Y009872D01*
X012401Y009873D02*
X012437Y009873D01*
X012437Y009874D02*
X012401Y009874D01*
X012401Y009875D02*
X012437Y009875D01*
X012437Y009876D02*
X012401Y009876D01*
X012401Y009877D02*
X012437Y009877D01*
X012437Y009878D02*
X012401Y009878D01*
X012401Y009879D02*
X012437Y009879D01*
X012437Y009880D02*
X012401Y009880D01*
X012401Y009881D02*
X012437Y009881D01*
X012437Y009882D02*
X012401Y009882D01*
X012401Y009883D02*
X012437Y009883D01*
X012437Y009884D02*
X012401Y009884D01*
X012401Y009885D02*
X012437Y009885D01*
X012437Y009886D02*
X012401Y009886D01*
X012401Y009887D02*
X012437Y009887D01*
X012437Y009888D02*
X012401Y009888D01*
X012401Y009889D02*
X012437Y009889D01*
X012437Y009890D02*
X012401Y009890D01*
X012401Y009891D02*
X012437Y009891D01*
X012437Y009892D02*
X012401Y009892D01*
X012401Y009893D02*
X012437Y009893D01*
X012437Y009894D02*
X012401Y009894D01*
X012401Y009895D02*
X012437Y009895D01*
X012437Y009896D02*
X012401Y009896D01*
X012401Y009897D02*
X012437Y009897D01*
X012437Y009898D02*
X012401Y009898D01*
X012401Y009899D02*
X012437Y009899D01*
X012437Y009900D02*
X012401Y009900D01*
X012401Y009901D02*
X012437Y009901D01*
X012437Y009902D02*
X012401Y009902D01*
X012401Y009903D02*
X012437Y009903D01*
X012437Y009904D02*
X012401Y009904D01*
X012401Y009905D02*
X012437Y009905D01*
X012437Y009906D02*
X012401Y009906D01*
X012401Y009907D02*
X012437Y009907D01*
X012437Y009908D02*
X012401Y009908D01*
X012401Y009909D02*
X012437Y009909D01*
X012437Y009910D02*
X012401Y009910D01*
X012401Y009911D02*
X012437Y009911D01*
X012437Y009912D02*
X012401Y009912D01*
X012401Y009913D02*
X012437Y009913D01*
X012437Y009914D02*
X012401Y009914D01*
X012401Y009915D02*
X012437Y009915D01*
X012437Y009916D02*
X012401Y009916D01*
X012401Y009917D02*
X012437Y009917D01*
X012437Y009918D02*
X012401Y009918D01*
X012401Y009919D02*
X012437Y009919D01*
X012437Y009920D02*
X012401Y009920D01*
X012401Y009921D02*
X012437Y009921D01*
X012437Y009922D02*
X012401Y009922D01*
X012401Y009923D02*
X012437Y009923D01*
X012437Y009924D02*
X012401Y009924D01*
X012401Y009925D02*
X012437Y009925D01*
X012437Y009926D02*
X012401Y009926D01*
X012401Y009927D02*
X012437Y009927D01*
X012437Y009928D02*
X012401Y009928D01*
X012401Y009929D02*
X012437Y009929D01*
X012437Y009930D02*
X012401Y009930D01*
X012401Y009931D02*
X012437Y009931D01*
X012437Y009932D02*
X012401Y009932D01*
X012401Y009933D02*
X012437Y009933D01*
X012437Y009934D02*
X012401Y009934D01*
X012401Y009935D02*
X012437Y009935D01*
X012437Y009936D02*
X012401Y009936D01*
X012401Y009937D02*
X012437Y009937D01*
X012437Y009938D02*
X012401Y009938D01*
X012401Y009939D02*
X012437Y009939D01*
X012437Y009940D02*
X012401Y009940D01*
X012401Y009941D02*
X012437Y009941D01*
X012437Y009942D02*
X012401Y009942D01*
X012401Y009943D02*
X012437Y009943D01*
X012437Y009944D02*
X012401Y009944D01*
X012401Y009945D02*
X012437Y009945D01*
X012437Y009946D02*
X012401Y009946D01*
X012401Y009947D02*
X012437Y009947D01*
X012437Y009948D02*
X012401Y009948D01*
X012401Y009949D02*
X012437Y009949D01*
X012437Y009950D02*
X012401Y009950D01*
X012401Y009951D02*
X012437Y009951D01*
X012437Y009952D02*
X012401Y009952D01*
X012401Y009953D02*
X012437Y009953D01*
X012437Y009954D02*
X012401Y009954D01*
X012401Y009955D02*
X012437Y009955D01*
X012437Y009956D02*
X012401Y009956D01*
X012401Y009957D02*
X012437Y009957D01*
X012437Y009958D02*
X012401Y009958D01*
X012401Y009959D02*
X012437Y009959D01*
X012437Y009960D02*
X012401Y009960D01*
X012401Y009961D02*
X012437Y009961D01*
X012437Y009962D02*
X012401Y009962D01*
X012401Y009963D02*
X012437Y009963D01*
X012437Y009964D02*
X012401Y009964D01*
X012401Y009965D02*
X012437Y009965D01*
X012437Y009966D02*
X012401Y009966D01*
X012401Y009967D02*
X012437Y009967D01*
X012437Y009968D02*
X012401Y009968D01*
X012401Y009969D02*
X012437Y009969D01*
X012437Y009970D02*
X012401Y009970D01*
X012401Y009971D02*
X012437Y009971D01*
X012437Y009972D02*
X012401Y009972D01*
X012401Y009973D02*
X012437Y009973D01*
X012437Y009974D02*
X012401Y009974D01*
X012401Y009975D02*
X012437Y009975D01*
X012437Y009976D02*
X012401Y009976D01*
X012401Y009977D02*
X012437Y009977D01*
X012437Y009978D02*
X012401Y009978D01*
X012401Y009979D02*
X012437Y009979D01*
X012437Y009980D02*
X012401Y009980D01*
X012401Y009981D02*
X012437Y009981D01*
X012437Y009982D02*
X012401Y009982D01*
X012401Y009983D02*
X012437Y009983D01*
X012437Y009984D02*
X012401Y009984D01*
X012401Y009985D02*
X012437Y009985D01*
X012437Y009986D02*
X012401Y009986D01*
X012401Y009987D02*
X012437Y009987D01*
X012437Y009988D02*
X012401Y009988D01*
X012401Y009989D02*
X012437Y009989D01*
X012437Y009990D02*
X012401Y009990D01*
X012401Y009991D02*
X012437Y009991D01*
X012437Y009992D02*
X012401Y009992D01*
X012401Y009993D02*
X012437Y009993D01*
X012437Y009994D02*
X012401Y009994D01*
X012401Y009995D02*
X012437Y009995D01*
X012437Y009996D02*
X012401Y009996D01*
X012401Y009997D02*
X012437Y009997D01*
X012437Y009998D02*
X012401Y009998D01*
X012401Y009999D02*
X012437Y009999D01*
X012437Y010000D02*
X012401Y010000D01*
X012401Y010001D02*
X012437Y010001D01*
X012437Y010002D02*
X012401Y010002D01*
X012401Y010003D02*
X012437Y010003D01*
X012437Y010004D02*
X012401Y010004D01*
X012401Y010005D02*
X012437Y010005D01*
X012437Y010006D02*
X012401Y010006D01*
X012401Y010007D02*
X012437Y010007D01*
X012437Y010008D02*
X012401Y010008D01*
X012401Y010009D02*
X012437Y010009D01*
X012437Y010010D02*
X012401Y010010D01*
X012401Y010011D02*
X012437Y010011D01*
X012437Y010012D02*
X012401Y010012D01*
X012401Y010013D02*
X012437Y010013D01*
X012437Y010014D02*
X012401Y010014D01*
X012401Y010015D02*
X012437Y010015D01*
X012437Y010016D02*
X012401Y010016D01*
X012401Y010017D02*
X012437Y010017D01*
X012437Y010018D02*
X012401Y010018D01*
X012401Y010019D02*
X012437Y010019D01*
X012437Y010020D02*
X012401Y010020D01*
X012401Y010021D02*
X012437Y010021D01*
X012437Y010022D02*
X012401Y010022D01*
X012401Y010023D02*
X012437Y010023D01*
X012437Y010024D02*
X012401Y010024D01*
X012401Y010025D02*
X012437Y010025D01*
X012437Y010026D02*
X012401Y010026D01*
X012401Y010027D02*
X012437Y010027D01*
X012437Y010028D02*
X012401Y010028D01*
X012401Y010029D02*
X012437Y010029D01*
X012437Y010030D02*
X012401Y010030D01*
X012401Y010031D02*
X012437Y010031D01*
X012437Y010032D02*
X012401Y010032D01*
X012401Y010033D02*
X012437Y010033D01*
X012437Y010034D02*
X012401Y010034D01*
X012401Y010035D02*
X012437Y010035D01*
X012437Y010036D02*
X012401Y010036D01*
X012401Y010037D02*
X012437Y010037D01*
X012437Y010038D02*
X012401Y010038D01*
X012244Y010038D02*
X012244Y009844D01*
X012244Y010038D02*
X012280Y010038D01*
X012280Y009844D01*
X012244Y009844D01*
X012244Y009845D02*
X012280Y009845D01*
X012280Y009846D02*
X012244Y009846D01*
X012244Y009847D02*
X012280Y009847D01*
X012280Y009848D02*
X012244Y009848D01*
X012244Y009849D02*
X012280Y009849D01*
X012280Y009850D02*
X012244Y009850D01*
X012244Y009851D02*
X012280Y009851D01*
X012280Y009852D02*
X012244Y009852D01*
X012244Y009853D02*
X012280Y009853D01*
X012280Y009854D02*
X012244Y009854D01*
X012244Y009855D02*
X012280Y009855D01*
X012280Y009856D02*
X012244Y009856D01*
X012244Y009857D02*
X012280Y009857D01*
X012280Y009858D02*
X012244Y009858D01*
X012244Y009859D02*
X012280Y009859D01*
X012280Y009860D02*
X012244Y009860D01*
X012244Y009861D02*
X012280Y009861D01*
X012280Y009862D02*
X012244Y009862D01*
X012244Y009863D02*
X012280Y009863D01*
X012280Y009864D02*
X012244Y009864D01*
X012244Y009865D02*
X012280Y009865D01*
X012280Y009866D02*
X012244Y009866D01*
X012244Y009867D02*
X012280Y009867D01*
X012280Y009868D02*
X012244Y009868D01*
X012244Y009869D02*
X012280Y009869D01*
X012280Y009870D02*
X012244Y009870D01*
X012244Y009871D02*
X012280Y009871D01*
X012280Y009872D02*
X012244Y009872D01*
X012244Y009873D02*
X012280Y009873D01*
X012280Y009874D02*
X012244Y009874D01*
X012244Y009875D02*
X012280Y009875D01*
X012280Y009876D02*
X012244Y009876D01*
X012244Y009877D02*
X012280Y009877D01*
X012280Y009878D02*
X012244Y009878D01*
X012244Y009879D02*
X012280Y009879D01*
X012280Y009880D02*
X012244Y009880D01*
X012244Y009881D02*
X012280Y009881D01*
X012280Y009882D02*
X012244Y009882D01*
X012244Y009883D02*
X012280Y009883D01*
X012280Y009884D02*
X012244Y009884D01*
X012244Y009885D02*
X012280Y009885D01*
X012280Y009886D02*
X012244Y009886D01*
X012244Y009887D02*
X012280Y009887D01*
X012280Y009888D02*
X012244Y009888D01*
X012244Y009889D02*
X012280Y009889D01*
X012280Y009890D02*
X012244Y009890D01*
X012244Y009891D02*
X012280Y009891D01*
X012280Y009892D02*
X012244Y009892D01*
X012244Y009893D02*
X012280Y009893D01*
X012280Y009894D02*
X012244Y009894D01*
X012244Y009895D02*
X012280Y009895D01*
X012280Y009896D02*
X012244Y009896D01*
X012244Y009897D02*
X012280Y009897D01*
X012280Y009898D02*
X012244Y009898D01*
X012244Y009899D02*
X012280Y009899D01*
X012280Y009900D02*
X012244Y009900D01*
X012244Y009901D02*
X012280Y009901D01*
X012280Y009902D02*
X012244Y009902D01*
X012244Y009903D02*
X012280Y009903D01*
X012280Y009904D02*
X012244Y009904D01*
X012244Y009905D02*
X012280Y009905D01*
X012280Y009906D02*
X012244Y009906D01*
X012244Y009907D02*
X012280Y009907D01*
X012280Y009908D02*
X012244Y009908D01*
X012244Y009909D02*
X012280Y009909D01*
X012280Y009910D02*
X012244Y009910D01*
X012244Y009911D02*
X012280Y009911D01*
X012280Y009912D02*
X012244Y009912D01*
X012244Y009913D02*
X012280Y009913D01*
X012280Y009914D02*
X012244Y009914D01*
X012244Y009915D02*
X012280Y009915D01*
X012280Y009916D02*
X012244Y009916D01*
X012244Y009917D02*
X012280Y009917D01*
X012280Y009918D02*
X012244Y009918D01*
X012244Y009919D02*
X012280Y009919D01*
X012280Y009920D02*
X012244Y009920D01*
X012244Y009921D02*
X012280Y009921D01*
X012280Y009922D02*
X012244Y009922D01*
X012244Y009923D02*
X012280Y009923D01*
X012280Y009924D02*
X012244Y009924D01*
X012244Y009925D02*
X012280Y009925D01*
X012280Y009926D02*
X012244Y009926D01*
X012244Y009927D02*
X012280Y009927D01*
X012280Y009928D02*
X012244Y009928D01*
X012244Y009929D02*
X012280Y009929D01*
X012280Y009930D02*
X012244Y009930D01*
X012244Y009931D02*
X012280Y009931D01*
X012280Y009932D02*
X012244Y009932D01*
X012244Y009933D02*
X012280Y009933D01*
X012280Y009934D02*
X012244Y009934D01*
X012244Y009935D02*
X012280Y009935D01*
X012280Y009936D02*
X012244Y009936D01*
X012244Y009937D02*
X012280Y009937D01*
X012280Y009938D02*
X012244Y009938D01*
X012244Y009939D02*
X012280Y009939D01*
X012280Y009940D02*
X012244Y009940D01*
X012244Y009941D02*
X012280Y009941D01*
X012280Y009942D02*
X012244Y009942D01*
X012244Y009943D02*
X012280Y009943D01*
X012280Y009944D02*
X012244Y009944D01*
X012244Y009945D02*
X012280Y009945D01*
X012280Y009946D02*
X012244Y009946D01*
X012244Y009947D02*
X012280Y009947D01*
X012280Y009948D02*
X012244Y009948D01*
X012244Y009949D02*
X012280Y009949D01*
X012280Y009950D02*
X012244Y009950D01*
X012244Y009951D02*
X012280Y009951D01*
X012280Y009952D02*
X012244Y009952D01*
X012244Y009953D02*
X012280Y009953D01*
X012280Y009954D02*
X012244Y009954D01*
X012244Y009955D02*
X012280Y009955D01*
X012280Y009956D02*
X012244Y009956D01*
X012244Y009957D02*
X012280Y009957D01*
X012280Y009958D02*
X012244Y009958D01*
X012244Y009959D02*
X012280Y009959D01*
X012280Y009960D02*
X012244Y009960D01*
X012244Y009961D02*
X012280Y009961D01*
X012280Y009962D02*
X012244Y009962D01*
X012244Y009963D02*
X012280Y009963D01*
X012280Y009964D02*
X012244Y009964D01*
X012244Y009965D02*
X012280Y009965D01*
X012280Y009966D02*
X012244Y009966D01*
X012244Y009967D02*
X012280Y009967D01*
X012280Y009968D02*
X012244Y009968D01*
X012244Y009969D02*
X012280Y009969D01*
X012280Y009970D02*
X012244Y009970D01*
X012244Y009971D02*
X012280Y009971D01*
X012280Y009972D02*
X012244Y009972D01*
X012244Y009973D02*
X012280Y009973D01*
X012280Y009974D02*
X012244Y009974D01*
X012244Y009975D02*
X012280Y009975D01*
X012280Y009976D02*
X012244Y009976D01*
X012244Y009977D02*
X012280Y009977D01*
X012280Y009978D02*
X012244Y009978D01*
X012244Y009979D02*
X012280Y009979D01*
X012280Y009980D02*
X012244Y009980D01*
X012244Y009981D02*
X012280Y009981D01*
X012280Y009982D02*
X012244Y009982D01*
X012244Y009983D02*
X012280Y009983D01*
X012280Y009984D02*
X012244Y009984D01*
X012244Y009985D02*
X012280Y009985D01*
X012280Y009986D02*
X012244Y009986D01*
X012244Y009987D02*
X012280Y009987D01*
X012280Y009988D02*
X012244Y009988D01*
X012244Y009989D02*
X012280Y009989D01*
X012280Y009990D02*
X012244Y009990D01*
X012244Y009991D02*
X012280Y009991D01*
X012280Y009992D02*
X012244Y009992D01*
X012244Y009993D02*
X012280Y009993D01*
X012280Y009994D02*
X012244Y009994D01*
X012244Y009995D02*
X012280Y009995D01*
X012280Y009996D02*
X012244Y009996D01*
X012244Y009997D02*
X012280Y009997D01*
X012280Y009998D02*
X012244Y009998D01*
X012244Y009999D02*
X012280Y009999D01*
X012280Y010000D02*
X012244Y010000D01*
X012244Y010001D02*
X012280Y010001D01*
X012280Y010002D02*
X012244Y010002D01*
X012244Y010003D02*
X012280Y010003D01*
X012280Y010004D02*
X012244Y010004D01*
X012244Y010005D02*
X012280Y010005D01*
X012280Y010006D02*
X012244Y010006D01*
X012244Y010007D02*
X012280Y010007D01*
X012280Y010008D02*
X012244Y010008D01*
X012244Y010009D02*
X012280Y010009D01*
X012280Y010010D02*
X012244Y010010D01*
X012244Y010011D02*
X012280Y010011D01*
X012280Y010012D02*
X012244Y010012D01*
X012244Y010013D02*
X012280Y010013D01*
X012280Y010014D02*
X012244Y010014D01*
X012244Y010015D02*
X012280Y010015D01*
X012280Y010016D02*
X012244Y010016D01*
X012244Y010017D02*
X012280Y010017D01*
X012280Y010018D02*
X012244Y010018D01*
X012244Y010019D02*
X012280Y010019D01*
X012280Y010020D02*
X012244Y010020D01*
X012244Y010021D02*
X012280Y010021D01*
X012280Y010022D02*
X012244Y010022D01*
X012244Y010023D02*
X012280Y010023D01*
X012280Y010024D02*
X012244Y010024D01*
X012244Y010025D02*
X012280Y010025D01*
X012280Y010026D02*
X012244Y010026D01*
X012244Y010027D02*
X012280Y010027D01*
X012280Y010028D02*
X012244Y010028D01*
X012244Y010029D02*
X012280Y010029D01*
X012280Y010030D02*
X012244Y010030D01*
X012244Y010031D02*
X012280Y010031D01*
X012280Y010032D02*
X012244Y010032D01*
X012244Y010033D02*
X012280Y010033D01*
X012280Y010034D02*
X012244Y010034D01*
X012244Y010035D02*
X012280Y010035D01*
X012280Y010036D02*
X012244Y010036D01*
X012244Y010037D02*
X012280Y010037D01*
X012280Y010038D02*
X012244Y010038D01*
X012086Y010038D02*
X012086Y009844D01*
X012086Y010038D02*
X012122Y010038D01*
X012122Y009844D01*
X012086Y009844D01*
X012086Y009845D02*
X012122Y009845D01*
X012122Y009846D02*
X012086Y009846D01*
X012086Y009847D02*
X012122Y009847D01*
X012122Y009848D02*
X012086Y009848D01*
X012086Y009849D02*
X012122Y009849D01*
X012122Y009850D02*
X012086Y009850D01*
X012086Y009851D02*
X012122Y009851D01*
X012122Y009852D02*
X012086Y009852D01*
X012086Y009853D02*
X012122Y009853D01*
X012122Y009854D02*
X012086Y009854D01*
X012086Y009855D02*
X012122Y009855D01*
X012122Y009856D02*
X012086Y009856D01*
X012086Y009857D02*
X012122Y009857D01*
X012122Y009858D02*
X012086Y009858D01*
X012086Y009859D02*
X012122Y009859D01*
X012122Y009860D02*
X012086Y009860D01*
X012086Y009861D02*
X012122Y009861D01*
X012122Y009862D02*
X012086Y009862D01*
X012086Y009863D02*
X012122Y009863D01*
X012122Y009864D02*
X012086Y009864D01*
X012086Y009865D02*
X012122Y009865D01*
X012122Y009866D02*
X012086Y009866D01*
X012086Y009867D02*
X012122Y009867D01*
X012122Y009868D02*
X012086Y009868D01*
X012086Y009869D02*
X012122Y009869D01*
X012122Y009870D02*
X012086Y009870D01*
X012086Y009871D02*
X012122Y009871D01*
X012122Y009872D02*
X012086Y009872D01*
X012086Y009873D02*
X012122Y009873D01*
X012122Y009874D02*
X012086Y009874D01*
X012086Y009875D02*
X012122Y009875D01*
X012122Y009876D02*
X012086Y009876D01*
X012086Y009877D02*
X012122Y009877D01*
X012122Y009878D02*
X012086Y009878D01*
X012086Y009879D02*
X012122Y009879D01*
X012122Y009880D02*
X012086Y009880D01*
X012086Y009881D02*
X012122Y009881D01*
X012122Y009882D02*
X012086Y009882D01*
X012086Y009883D02*
X012122Y009883D01*
X012122Y009884D02*
X012086Y009884D01*
X012086Y009885D02*
X012122Y009885D01*
X012122Y009886D02*
X012086Y009886D01*
X012086Y009887D02*
X012122Y009887D01*
X012122Y009888D02*
X012086Y009888D01*
X012086Y009889D02*
X012122Y009889D01*
X012122Y009890D02*
X012086Y009890D01*
X012086Y009891D02*
X012122Y009891D01*
X012122Y009892D02*
X012086Y009892D01*
X012086Y009893D02*
X012122Y009893D01*
X012122Y009894D02*
X012086Y009894D01*
X012086Y009895D02*
X012122Y009895D01*
X012122Y009896D02*
X012086Y009896D01*
X012086Y009897D02*
X012122Y009897D01*
X012122Y009898D02*
X012086Y009898D01*
X012086Y009899D02*
X012122Y009899D01*
X012122Y009900D02*
X012086Y009900D01*
X012086Y009901D02*
X012122Y009901D01*
X012122Y009902D02*
X012086Y009902D01*
X012086Y009903D02*
X012122Y009903D01*
X012122Y009904D02*
X012086Y009904D01*
X012086Y009905D02*
X012122Y009905D01*
X012122Y009906D02*
X012086Y009906D01*
X012086Y009907D02*
X012122Y009907D01*
X012122Y009908D02*
X012086Y009908D01*
X012086Y009909D02*
X012122Y009909D01*
X012122Y009910D02*
X012086Y009910D01*
X012086Y009911D02*
X012122Y009911D01*
X012122Y009912D02*
X012086Y009912D01*
X012086Y009913D02*
X012122Y009913D01*
X012122Y009914D02*
X012086Y009914D01*
X012086Y009915D02*
X012122Y009915D01*
X012122Y009916D02*
X012086Y009916D01*
X012086Y009917D02*
X012122Y009917D01*
X012122Y009918D02*
X012086Y009918D01*
X012086Y009919D02*
X012122Y009919D01*
X012122Y009920D02*
X012086Y009920D01*
X012086Y009921D02*
X012122Y009921D01*
X012122Y009922D02*
X012086Y009922D01*
X012086Y009923D02*
X012122Y009923D01*
X012122Y009924D02*
X012086Y009924D01*
X012086Y009925D02*
X012122Y009925D01*
X012122Y009926D02*
X012086Y009926D01*
X012086Y009927D02*
X012122Y009927D01*
X012122Y009928D02*
X012086Y009928D01*
X012086Y009929D02*
X012122Y009929D01*
X012122Y009930D02*
X012086Y009930D01*
X012086Y009931D02*
X012122Y009931D01*
X012122Y009932D02*
X012086Y009932D01*
X012086Y009933D02*
X012122Y009933D01*
X012122Y009934D02*
X012086Y009934D01*
X012086Y009935D02*
X012122Y009935D01*
X012122Y009936D02*
X012086Y009936D01*
X012086Y009937D02*
X012122Y009937D01*
X012122Y009938D02*
X012086Y009938D01*
X012086Y009939D02*
X012122Y009939D01*
X012122Y009940D02*
X012086Y009940D01*
X012086Y009941D02*
X012122Y009941D01*
X012122Y009942D02*
X012086Y009942D01*
X012086Y009943D02*
X012122Y009943D01*
X012122Y009944D02*
X012086Y009944D01*
X012086Y009945D02*
X012122Y009945D01*
X012122Y009946D02*
X012086Y009946D01*
X012086Y009947D02*
X012122Y009947D01*
X012122Y009948D02*
X012086Y009948D01*
X012086Y009949D02*
X012122Y009949D01*
X012122Y009950D02*
X012086Y009950D01*
X012086Y009951D02*
X012122Y009951D01*
X012122Y009952D02*
X012086Y009952D01*
X012086Y009953D02*
X012122Y009953D01*
X012122Y009954D02*
X012086Y009954D01*
X012086Y009955D02*
X012122Y009955D01*
X012122Y009956D02*
X012086Y009956D01*
X012086Y009957D02*
X012122Y009957D01*
X012122Y009958D02*
X012086Y009958D01*
X012086Y009959D02*
X012122Y009959D01*
X012122Y009960D02*
X012086Y009960D01*
X012086Y009961D02*
X012122Y009961D01*
X012122Y009962D02*
X012086Y009962D01*
X012086Y009963D02*
X012122Y009963D01*
X012122Y009964D02*
X012086Y009964D01*
X012086Y009965D02*
X012122Y009965D01*
X012122Y009966D02*
X012086Y009966D01*
X012086Y009967D02*
X012122Y009967D01*
X012122Y009968D02*
X012086Y009968D01*
X012086Y009969D02*
X012122Y009969D01*
X012122Y009970D02*
X012086Y009970D01*
X012086Y009971D02*
X012122Y009971D01*
X012122Y009972D02*
X012086Y009972D01*
X012086Y009973D02*
X012122Y009973D01*
X012122Y009974D02*
X012086Y009974D01*
X012086Y009975D02*
X012122Y009975D01*
X012122Y009976D02*
X012086Y009976D01*
X012086Y009977D02*
X012122Y009977D01*
X012122Y009978D02*
X012086Y009978D01*
X012086Y009979D02*
X012122Y009979D01*
X012122Y009980D02*
X012086Y009980D01*
X012086Y009981D02*
X012122Y009981D01*
X012122Y009982D02*
X012086Y009982D01*
X012086Y009983D02*
X012122Y009983D01*
X012122Y009984D02*
X012086Y009984D01*
X012086Y009985D02*
X012122Y009985D01*
X012122Y009986D02*
X012086Y009986D01*
X012086Y009987D02*
X012122Y009987D01*
X012122Y009988D02*
X012086Y009988D01*
X012086Y009989D02*
X012122Y009989D01*
X012122Y009990D02*
X012086Y009990D01*
X012086Y009991D02*
X012122Y009991D01*
X012122Y009992D02*
X012086Y009992D01*
X012086Y009993D02*
X012122Y009993D01*
X012122Y009994D02*
X012086Y009994D01*
X012086Y009995D02*
X012122Y009995D01*
X012122Y009996D02*
X012086Y009996D01*
X012086Y009997D02*
X012122Y009997D01*
X012122Y009998D02*
X012086Y009998D01*
X012086Y009999D02*
X012122Y009999D01*
X012122Y010000D02*
X012086Y010000D01*
X012086Y010001D02*
X012122Y010001D01*
X012122Y010002D02*
X012086Y010002D01*
X012086Y010003D02*
X012122Y010003D01*
X012122Y010004D02*
X012086Y010004D01*
X012086Y010005D02*
X012122Y010005D01*
X012122Y010006D02*
X012086Y010006D01*
X012086Y010007D02*
X012122Y010007D01*
X012122Y010008D02*
X012086Y010008D01*
X012086Y010009D02*
X012122Y010009D01*
X012122Y010010D02*
X012086Y010010D01*
X012086Y010011D02*
X012122Y010011D01*
X012122Y010012D02*
X012086Y010012D01*
X012086Y010013D02*
X012122Y010013D01*
X012122Y010014D02*
X012086Y010014D01*
X012086Y010015D02*
X012122Y010015D01*
X012122Y010016D02*
X012086Y010016D01*
X012086Y010017D02*
X012122Y010017D01*
X012122Y010018D02*
X012086Y010018D01*
X012086Y010019D02*
X012122Y010019D01*
X012122Y010020D02*
X012086Y010020D01*
X012086Y010021D02*
X012122Y010021D01*
X012122Y010022D02*
X012086Y010022D01*
X012086Y010023D02*
X012122Y010023D01*
X012122Y010024D02*
X012086Y010024D01*
X012086Y010025D02*
X012122Y010025D01*
X012122Y010026D02*
X012086Y010026D01*
X012086Y010027D02*
X012122Y010027D01*
X012122Y010028D02*
X012086Y010028D01*
X012086Y010029D02*
X012122Y010029D01*
X012122Y010030D02*
X012086Y010030D01*
X012086Y010031D02*
X012122Y010031D01*
X012122Y010032D02*
X012086Y010032D01*
X012086Y010033D02*
X012122Y010033D01*
X012122Y010034D02*
X012086Y010034D01*
X012086Y010035D02*
X012122Y010035D01*
X012122Y010036D02*
X012086Y010036D01*
X012086Y010037D02*
X012122Y010037D01*
X012122Y010038D02*
X012086Y010038D01*
X011929Y010038D02*
X011929Y009844D01*
X011929Y010038D02*
X011965Y010038D01*
X011965Y009844D01*
X011929Y009844D01*
X011929Y009845D02*
X011965Y009845D01*
X011965Y009846D02*
X011929Y009846D01*
X011929Y009847D02*
X011965Y009847D01*
X011965Y009848D02*
X011929Y009848D01*
X011929Y009849D02*
X011965Y009849D01*
X011965Y009850D02*
X011929Y009850D01*
X011929Y009851D02*
X011965Y009851D01*
X011965Y009852D02*
X011929Y009852D01*
X011929Y009853D02*
X011965Y009853D01*
X011965Y009854D02*
X011929Y009854D01*
X011929Y009855D02*
X011965Y009855D01*
X011965Y009856D02*
X011929Y009856D01*
X011929Y009857D02*
X011965Y009857D01*
X011965Y009858D02*
X011929Y009858D01*
X011929Y009859D02*
X011965Y009859D01*
X011965Y009860D02*
X011929Y009860D01*
X011929Y009861D02*
X011965Y009861D01*
X011965Y009862D02*
X011929Y009862D01*
X011929Y009863D02*
X011965Y009863D01*
X011965Y009864D02*
X011929Y009864D01*
X011929Y009865D02*
X011965Y009865D01*
X011965Y009866D02*
X011929Y009866D01*
X011929Y009867D02*
X011965Y009867D01*
X011965Y009868D02*
X011929Y009868D01*
X011929Y009869D02*
X011965Y009869D01*
X011965Y009870D02*
X011929Y009870D01*
X011929Y009871D02*
X011965Y009871D01*
X011965Y009872D02*
X011929Y009872D01*
X011929Y009873D02*
X011965Y009873D01*
X011965Y009874D02*
X011929Y009874D01*
X011929Y009875D02*
X011965Y009875D01*
X011965Y009876D02*
X011929Y009876D01*
X011929Y009877D02*
X011965Y009877D01*
X011965Y009878D02*
X011929Y009878D01*
X011929Y009879D02*
X011965Y009879D01*
X011965Y009880D02*
X011929Y009880D01*
X011929Y009881D02*
X011965Y009881D01*
X011965Y009882D02*
X011929Y009882D01*
X011929Y009883D02*
X011965Y009883D01*
X011965Y009884D02*
X011929Y009884D01*
X011929Y009885D02*
X011965Y009885D01*
X011965Y009886D02*
X011929Y009886D01*
X011929Y009887D02*
X011965Y009887D01*
X011965Y009888D02*
X011929Y009888D01*
X011929Y009889D02*
X011965Y009889D01*
X011965Y009890D02*
X011929Y009890D01*
X011929Y009891D02*
X011965Y009891D01*
X011965Y009892D02*
X011929Y009892D01*
X011929Y009893D02*
X011965Y009893D01*
X011965Y009894D02*
X011929Y009894D01*
X011929Y009895D02*
X011965Y009895D01*
X011965Y009896D02*
X011929Y009896D01*
X011929Y009897D02*
X011965Y009897D01*
X011965Y009898D02*
X011929Y009898D01*
X011929Y009899D02*
X011965Y009899D01*
X011965Y009900D02*
X011929Y009900D01*
X011929Y009901D02*
X011965Y009901D01*
X011965Y009902D02*
X011929Y009902D01*
X011929Y009903D02*
X011965Y009903D01*
X011965Y009904D02*
X011929Y009904D01*
X011929Y009905D02*
X011965Y009905D01*
X011965Y009906D02*
X011929Y009906D01*
X011929Y009907D02*
X011965Y009907D01*
X011965Y009908D02*
X011929Y009908D01*
X011929Y009909D02*
X011965Y009909D01*
X011965Y009910D02*
X011929Y009910D01*
X011929Y009911D02*
X011965Y009911D01*
X011965Y009912D02*
X011929Y009912D01*
X011929Y009913D02*
X011965Y009913D01*
X011965Y009914D02*
X011929Y009914D01*
X011929Y009915D02*
X011965Y009915D01*
X011965Y009916D02*
X011929Y009916D01*
X011929Y009917D02*
X011965Y009917D01*
X011965Y009918D02*
X011929Y009918D01*
X011929Y009919D02*
X011965Y009919D01*
X011965Y009920D02*
X011929Y009920D01*
X011929Y009921D02*
X011965Y009921D01*
X011965Y009922D02*
X011929Y009922D01*
X011929Y009923D02*
X011965Y009923D01*
X011965Y009924D02*
X011929Y009924D01*
X011929Y009925D02*
X011965Y009925D01*
X011965Y009926D02*
X011929Y009926D01*
X011929Y009927D02*
X011965Y009927D01*
X011965Y009928D02*
X011929Y009928D01*
X011929Y009929D02*
X011965Y009929D01*
X011965Y009930D02*
X011929Y009930D01*
X011929Y009931D02*
X011965Y009931D01*
X011965Y009932D02*
X011929Y009932D01*
X011929Y009933D02*
X011965Y009933D01*
X011965Y009934D02*
X011929Y009934D01*
X011929Y009935D02*
X011965Y009935D01*
X011965Y009936D02*
X011929Y009936D01*
X011929Y009937D02*
X011965Y009937D01*
X011965Y009938D02*
X011929Y009938D01*
X011929Y009939D02*
X011965Y009939D01*
X011965Y009940D02*
X011929Y009940D01*
X011929Y009941D02*
X011965Y009941D01*
X011965Y009942D02*
X011929Y009942D01*
X011929Y009943D02*
X011965Y009943D01*
X011965Y009944D02*
X011929Y009944D01*
X011929Y009945D02*
X011965Y009945D01*
X011965Y009946D02*
X011929Y009946D01*
X011929Y009947D02*
X011965Y009947D01*
X011965Y009948D02*
X011929Y009948D01*
X011929Y009949D02*
X011965Y009949D01*
X011965Y009950D02*
X011929Y009950D01*
X011929Y009951D02*
X011965Y009951D01*
X011965Y009952D02*
X011929Y009952D01*
X011929Y009953D02*
X011965Y009953D01*
X011965Y009954D02*
X011929Y009954D01*
X011929Y009955D02*
X011965Y009955D01*
X011965Y009956D02*
X011929Y009956D01*
X011929Y009957D02*
X011965Y009957D01*
X011965Y009958D02*
X011929Y009958D01*
X011929Y009959D02*
X011965Y009959D01*
X011965Y009960D02*
X011929Y009960D01*
X011929Y009961D02*
X011965Y009961D01*
X011965Y009962D02*
X011929Y009962D01*
X011929Y009963D02*
X011965Y009963D01*
X011965Y009964D02*
X011929Y009964D01*
X011929Y009965D02*
X011965Y009965D01*
X011965Y009966D02*
X011929Y009966D01*
X011929Y009967D02*
X011965Y009967D01*
X011965Y009968D02*
X011929Y009968D01*
X011929Y009969D02*
X011965Y009969D01*
X011965Y009970D02*
X011929Y009970D01*
X011929Y009971D02*
X011965Y009971D01*
X011965Y009972D02*
X011929Y009972D01*
X011929Y009973D02*
X011965Y009973D01*
X011965Y009974D02*
X011929Y009974D01*
X011929Y009975D02*
X011965Y009975D01*
X011965Y009976D02*
X011929Y009976D01*
X011929Y009977D02*
X011965Y009977D01*
X011965Y009978D02*
X011929Y009978D01*
X011929Y009979D02*
X011965Y009979D01*
X011965Y009980D02*
X011929Y009980D01*
X011929Y009981D02*
X011965Y009981D01*
X011965Y009982D02*
X011929Y009982D01*
X011929Y009983D02*
X011965Y009983D01*
X011965Y009984D02*
X011929Y009984D01*
X011929Y009985D02*
X011965Y009985D01*
X011965Y009986D02*
X011929Y009986D01*
X011929Y009987D02*
X011965Y009987D01*
X011965Y009988D02*
X011929Y009988D01*
X011929Y009989D02*
X011965Y009989D01*
X011965Y009990D02*
X011929Y009990D01*
X011929Y009991D02*
X011965Y009991D01*
X011965Y009992D02*
X011929Y009992D01*
X011929Y009993D02*
X011965Y009993D01*
X011965Y009994D02*
X011929Y009994D01*
X011929Y009995D02*
X011965Y009995D01*
X011965Y009996D02*
X011929Y009996D01*
X011929Y009997D02*
X011965Y009997D01*
X011965Y009998D02*
X011929Y009998D01*
X011929Y009999D02*
X011965Y009999D01*
X011965Y010000D02*
X011929Y010000D01*
X011929Y010001D02*
X011965Y010001D01*
X011965Y010002D02*
X011929Y010002D01*
X011929Y010003D02*
X011965Y010003D01*
X011965Y010004D02*
X011929Y010004D01*
X011929Y010005D02*
X011965Y010005D01*
X011965Y010006D02*
X011929Y010006D01*
X011929Y010007D02*
X011965Y010007D01*
X011965Y010008D02*
X011929Y010008D01*
X011929Y010009D02*
X011965Y010009D01*
X011965Y010010D02*
X011929Y010010D01*
X011929Y010011D02*
X011965Y010011D01*
X011965Y010012D02*
X011929Y010012D01*
X011929Y010013D02*
X011965Y010013D01*
X011965Y010014D02*
X011929Y010014D01*
X011929Y010015D02*
X011965Y010015D01*
X011965Y010016D02*
X011929Y010016D01*
X011929Y010017D02*
X011965Y010017D01*
X011965Y010018D02*
X011929Y010018D01*
X011929Y010019D02*
X011965Y010019D01*
X011965Y010020D02*
X011929Y010020D01*
X011929Y010021D02*
X011965Y010021D01*
X011965Y010022D02*
X011929Y010022D01*
X011929Y010023D02*
X011965Y010023D01*
X011965Y010024D02*
X011929Y010024D01*
X011929Y010025D02*
X011965Y010025D01*
X011965Y010026D02*
X011929Y010026D01*
X011929Y010027D02*
X011965Y010027D01*
X011965Y010028D02*
X011929Y010028D01*
X011929Y010029D02*
X011965Y010029D01*
X011965Y010030D02*
X011929Y010030D01*
X011929Y010031D02*
X011965Y010031D01*
X011965Y010032D02*
X011929Y010032D01*
X011929Y010033D02*
X011965Y010033D01*
X011965Y010034D02*
X011929Y010034D01*
X011929Y010035D02*
X011965Y010035D01*
X011965Y010036D02*
X011929Y010036D01*
X011929Y010037D02*
X011965Y010037D01*
X011965Y010038D02*
X011929Y010038D01*
X011771Y010038D02*
X011771Y009844D01*
X011771Y010038D02*
X011807Y010038D01*
X011807Y009844D01*
X011771Y009844D01*
X011771Y009845D02*
X011807Y009845D01*
X011807Y009846D02*
X011771Y009846D01*
X011771Y009847D02*
X011807Y009847D01*
X011807Y009848D02*
X011771Y009848D01*
X011771Y009849D02*
X011807Y009849D01*
X011807Y009850D02*
X011771Y009850D01*
X011771Y009851D02*
X011807Y009851D01*
X011807Y009852D02*
X011771Y009852D01*
X011771Y009853D02*
X011807Y009853D01*
X011807Y009854D02*
X011771Y009854D01*
X011771Y009855D02*
X011807Y009855D01*
X011807Y009856D02*
X011771Y009856D01*
X011771Y009857D02*
X011807Y009857D01*
X011807Y009858D02*
X011771Y009858D01*
X011771Y009859D02*
X011807Y009859D01*
X011807Y009860D02*
X011771Y009860D01*
X011771Y009861D02*
X011807Y009861D01*
X011807Y009862D02*
X011771Y009862D01*
X011771Y009863D02*
X011807Y009863D01*
X011807Y009864D02*
X011771Y009864D01*
X011771Y009865D02*
X011807Y009865D01*
X011807Y009866D02*
X011771Y009866D01*
X011771Y009867D02*
X011807Y009867D01*
X011807Y009868D02*
X011771Y009868D01*
X011771Y009869D02*
X011807Y009869D01*
X011807Y009870D02*
X011771Y009870D01*
X011771Y009871D02*
X011807Y009871D01*
X011807Y009872D02*
X011771Y009872D01*
X011771Y009873D02*
X011807Y009873D01*
X011807Y009874D02*
X011771Y009874D01*
X011771Y009875D02*
X011807Y009875D01*
X011807Y009876D02*
X011771Y009876D01*
X011771Y009877D02*
X011807Y009877D01*
X011807Y009878D02*
X011771Y009878D01*
X011771Y009879D02*
X011807Y009879D01*
X011807Y009880D02*
X011771Y009880D01*
X011771Y009881D02*
X011807Y009881D01*
X011807Y009882D02*
X011771Y009882D01*
X011771Y009883D02*
X011807Y009883D01*
X011807Y009884D02*
X011771Y009884D01*
X011771Y009885D02*
X011807Y009885D01*
X011807Y009886D02*
X011771Y009886D01*
X011771Y009887D02*
X011807Y009887D01*
X011807Y009888D02*
X011771Y009888D01*
X011771Y009889D02*
X011807Y009889D01*
X011807Y009890D02*
X011771Y009890D01*
X011771Y009891D02*
X011807Y009891D01*
X011807Y009892D02*
X011771Y009892D01*
X011771Y009893D02*
X011807Y009893D01*
X011807Y009894D02*
X011771Y009894D01*
X011771Y009895D02*
X011807Y009895D01*
X011807Y009896D02*
X011771Y009896D01*
X011771Y009897D02*
X011807Y009897D01*
X011807Y009898D02*
X011771Y009898D01*
X011771Y009899D02*
X011807Y009899D01*
X011807Y009900D02*
X011771Y009900D01*
X011771Y009901D02*
X011807Y009901D01*
X011807Y009902D02*
X011771Y009902D01*
X011771Y009903D02*
X011807Y009903D01*
X011807Y009904D02*
X011771Y009904D01*
X011771Y009905D02*
X011807Y009905D01*
X011807Y009906D02*
X011771Y009906D01*
X011771Y009907D02*
X011807Y009907D01*
X011807Y009908D02*
X011771Y009908D01*
X011771Y009909D02*
X011807Y009909D01*
X011807Y009910D02*
X011771Y009910D01*
X011771Y009911D02*
X011807Y009911D01*
X011807Y009912D02*
X011771Y009912D01*
X011771Y009913D02*
X011807Y009913D01*
X011807Y009914D02*
X011771Y009914D01*
X011771Y009915D02*
X011807Y009915D01*
X011807Y009916D02*
X011771Y009916D01*
X011771Y009917D02*
X011807Y009917D01*
X011807Y009918D02*
X011771Y009918D01*
X011771Y009919D02*
X011807Y009919D01*
X011807Y009920D02*
X011771Y009920D01*
X011771Y009921D02*
X011807Y009921D01*
X011807Y009922D02*
X011771Y009922D01*
X011771Y009923D02*
X011807Y009923D01*
X011807Y009924D02*
X011771Y009924D01*
X011771Y009925D02*
X011807Y009925D01*
X011807Y009926D02*
X011771Y009926D01*
X011771Y009927D02*
X011807Y009927D01*
X011807Y009928D02*
X011771Y009928D01*
X011771Y009929D02*
X011807Y009929D01*
X011807Y009930D02*
X011771Y009930D01*
X011771Y009931D02*
X011807Y009931D01*
X011807Y009932D02*
X011771Y009932D01*
X011771Y009933D02*
X011807Y009933D01*
X011807Y009934D02*
X011771Y009934D01*
X011771Y009935D02*
X011807Y009935D01*
X011807Y009936D02*
X011771Y009936D01*
X011771Y009937D02*
X011807Y009937D01*
X011807Y009938D02*
X011771Y009938D01*
X011771Y009939D02*
X011807Y009939D01*
X011807Y009940D02*
X011771Y009940D01*
X011771Y009941D02*
X011807Y009941D01*
X011807Y009942D02*
X011771Y009942D01*
X011771Y009943D02*
X011807Y009943D01*
X011807Y009944D02*
X011771Y009944D01*
X011771Y009945D02*
X011807Y009945D01*
X011807Y009946D02*
X011771Y009946D01*
X011771Y009947D02*
X011807Y009947D01*
X011807Y009948D02*
X011771Y009948D01*
X011771Y009949D02*
X011807Y009949D01*
X011807Y009950D02*
X011771Y009950D01*
X011771Y009951D02*
X011807Y009951D01*
X011807Y009952D02*
X011771Y009952D01*
X011771Y009953D02*
X011807Y009953D01*
X011807Y009954D02*
X011771Y009954D01*
X011771Y009955D02*
X011807Y009955D01*
X011807Y009956D02*
X011771Y009956D01*
X011771Y009957D02*
X011807Y009957D01*
X011807Y009958D02*
X011771Y009958D01*
X011771Y009959D02*
X011807Y009959D01*
X011807Y009960D02*
X011771Y009960D01*
X011771Y009961D02*
X011807Y009961D01*
X011807Y009962D02*
X011771Y009962D01*
X011771Y009963D02*
X011807Y009963D01*
X011807Y009964D02*
X011771Y009964D01*
X011771Y009965D02*
X011807Y009965D01*
X011807Y009966D02*
X011771Y009966D01*
X011771Y009967D02*
X011807Y009967D01*
X011807Y009968D02*
X011771Y009968D01*
X011771Y009969D02*
X011807Y009969D01*
X011807Y009970D02*
X011771Y009970D01*
X011771Y009971D02*
X011807Y009971D01*
X011807Y009972D02*
X011771Y009972D01*
X011771Y009973D02*
X011807Y009973D01*
X011807Y009974D02*
X011771Y009974D01*
X011771Y009975D02*
X011807Y009975D01*
X011807Y009976D02*
X011771Y009976D01*
X011771Y009977D02*
X011807Y009977D01*
X011807Y009978D02*
X011771Y009978D01*
X011771Y009979D02*
X011807Y009979D01*
X011807Y009980D02*
X011771Y009980D01*
X011771Y009981D02*
X011807Y009981D01*
X011807Y009982D02*
X011771Y009982D01*
X011771Y009983D02*
X011807Y009983D01*
X011807Y009984D02*
X011771Y009984D01*
X011771Y009985D02*
X011807Y009985D01*
X011807Y009986D02*
X011771Y009986D01*
X011771Y009987D02*
X011807Y009987D01*
X011807Y009988D02*
X011771Y009988D01*
X011771Y009989D02*
X011807Y009989D01*
X011807Y009990D02*
X011771Y009990D01*
X011771Y009991D02*
X011807Y009991D01*
X011807Y009992D02*
X011771Y009992D01*
X011771Y009993D02*
X011807Y009993D01*
X011807Y009994D02*
X011771Y009994D01*
X011771Y009995D02*
X011807Y009995D01*
X011807Y009996D02*
X011771Y009996D01*
X011771Y009997D02*
X011807Y009997D01*
X011807Y009998D02*
X011771Y009998D01*
X011771Y009999D02*
X011807Y009999D01*
X011807Y010000D02*
X011771Y010000D01*
X011771Y010001D02*
X011807Y010001D01*
X011807Y010002D02*
X011771Y010002D01*
X011771Y010003D02*
X011807Y010003D01*
X011807Y010004D02*
X011771Y010004D01*
X011771Y010005D02*
X011807Y010005D01*
X011807Y010006D02*
X011771Y010006D01*
X011771Y010007D02*
X011807Y010007D01*
X011807Y010008D02*
X011771Y010008D01*
X011771Y010009D02*
X011807Y010009D01*
X011807Y010010D02*
X011771Y010010D01*
X011771Y010011D02*
X011807Y010011D01*
X011807Y010012D02*
X011771Y010012D01*
X011771Y010013D02*
X011807Y010013D01*
X011807Y010014D02*
X011771Y010014D01*
X011771Y010015D02*
X011807Y010015D01*
X011807Y010016D02*
X011771Y010016D01*
X011771Y010017D02*
X011807Y010017D01*
X011807Y010018D02*
X011771Y010018D01*
X011771Y010019D02*
X011807Y010019D01*
X011807Y010020D02*
X011771Y010020D01*
X011771Y010021D02*
X011807Y010021D01*
X011807Y010022D02*
X011771Y010022D01*
X011771Y010023D02*
X011807Y010023D01*
X011807Y010024D02*
X011771Y010024D01*
X011771Y010025D02*
X011807Y010025D01*
X011807Y010026D02*
X011771Y010026D01*
X011771Y010027D02*
X011807Y010027D01*
X011807Y010028D02*
X011771Y010028D01*
X011771Y010029D02*
X011807Y010029D01*
X011807Y010030D02*
X011771Y010030D01*
X011771Y010031D02*
X011807Y010031D01*
X011807Y010032D02*
X011771Y010032D01*
X011771Y010033D02*
X011807Y010033D01*
X011807Y010034D02*
X011771Y010034D01*
X011771Y010035D02*
X011807Y010035D01*
X011807Y010036D02*
X011771Y010036D01*
X011771Y010037D02*
X011807Y010037D01*
X011807Y010038D02*
X011771Y010038D01*
X011614Y010038D02*
X011614Y009844D01*
X011614Y010038D02*
X011650Y010038D01*
X011650Y009844D01*
X011614Y009844D01*
X011614Y009845D02*
X011650Y009845D01*
X011650Y009846D02*
X011614Y009846D01*
X011614Y009847D02*
X011650Y009847D01*
X011650Y009848D02*
X011614Y009848D01*
X011614Y009849D02*
X011650Y009849D01*
X011650Y009850D02*
X011614Y009850D01*
X011614Y009851D02*
X011650Y009851D01*
X011650Y009852D02*
X011614Y009852D01*
X011614Y009853D02*
X011650Y009853D01*
X011650Y009854D02*
X011614Y009854D01*
X011614Y009855D02*
X011650Y009855D01*
X011650Y009856D02*
X011614Y009856D01*
X011614Y009857D02*
X011650Y009857D01*
X011650Y009858D02*
X011614Y009858D01*
X011614Y009859D02*
X011650Y009859D01*
X011650Y009860D02*
X011614Y009860D01*
X011614Y009861D02*
X011650Y009861D01*
X011650Y009862D02*
X011614Y009862D01*
X011614Y009863D02*
X011650Y009863D01*
X011650Y009864D02*
X011614Y009864D01*
X011614Y009865D02*
X011650Y009865D01*
X011650Y009866D02*
X011614Y009866D01*
X011614Y009867D02*
X011650Y009867D01*
X011650Y009868D02*
X011614Y009868D01*
X011614Y009869D02*
X011650Y009869D01*
X011650Y009870D02*
X011614Y009870D01*
X011614Y009871D02*
X011650Y009871D01*
X011650Y009872D02*
X011614Y009872D01*
X011614Y009873D02*
X011650Y009873D01*
X011650Y009874D02*
X011614Y009874D01*
X011614Y009875D02*
X011650Y009875D01*
X011650Y009876D02*
X011614Y009876D01*
X011614Y009877D02*
X011650Y009877D01*
X011650Y009878D02*
X011614Y009878D01*
X011614Y009879D02*
X011650Y009879D01*
X011650Y009880D02*
X011614Y009880D01*
X011614Y009881D02*
X011650Y009881D01*
X011650Y009882D02*
X011614Y009882D01*
X011614Y009883D02*
X011650Y009883D01*
X011650Y009884D02*
X011614Y009884D01*
X011614Y009885D02*
X011650Y009885D01*
X011650Y009886D02*
X011614Y009886D01*
X011614Y009887D02*
X011650Y009887D01*
X011650Y009888D02*
X011614Y009888D01*
X011614Y009889D02*
X011650Y009889D01*
X011650Y009890D02*
X011614Y009890D01*
X011614Y009891D02*
X011650Y009891D01*
X011650Y009892D02*
X011614Y009892D01*
X011614Y009893D02*
X011650Y009893D01*
X011650Y009894D02*
X011614Y009894D01*
X011614Y009895D02*
X011650Y009895D01*
X011650Y009896D02*
X011614Y009896D01*
X011614Y009897D02*
X011650Y009897D01*
X011650Y009898D02*
X011614Y009898D01*
X011614Y009899D02*
X011650Y009899D01*
X011650Y009900D02*
X011614Y009900D01*
X011614Y009901D02*
X011650Y009901D01*
X011650Y009902D02*
X011614Y009902D01*
X011614Y009903D02*
X011650Y009903D01*
X011650Y009904D02*
X011614Y009904D01*
X011614Y009905D02*
X011650Y009905D01*
X011650Y009906D02*
X011614Y009906D01*
X011614Y009907D02*
X011650Y009907D01*
X011650Y009908D02*
X011614Y009908D01*
X011614Y009909D02*
X011650Y009909D01*
X011650Y009910D02*
X011614Y009910D01*
X011614Y009911D02*
X011650Y009911D01*
X011650Y009912D02*
X011614Y009912D01*
X011614Y009913D02*
X011650Y009913D01*
X011650Y009914D02*
X011614Y009914D01*
X011614Y009915D02*
X011650Y009915D01*
X011650Y009916D02*
X011614Y009916D01*
X011614Y009917D02*
X011650Y009917D01*
X011650Y009918D02*
X011614Y009918D01*
X011614Y009919D02*
X011650Y009919D01*
X011650Y009920D02*
X011614Y009920D01*
X011614Y009921D02*
X011650Y009921D01*
X011650Y009922D02*
X011614Y009922D01*
X011614Y009923D02*
X011650Y009923D01*
X011650Y009924D02*
X011614Y009924D01*
X011614Y009925D02*
X011650Y009925D01*
X011650Y009926D02*
X011614Y009926D01*
X011614Y009927D02*
X011650Y009927D01*
X011650Y009928D02*
X011614Y009928D01*
X011614Y009929D02*
X011650Y009929D01*
X011650Y009930D02*
X011614Y009930D01*
X011614Y009931D02*
X011650Y009931D01*
X011650Y009932D02*
X011614Y009932D01*
X011614Y009933D02*
X011650Y009933D01*
X011650Y009934D02*
X011614Y009934D01*
X011614Y009935D02*
X011650Y009935D01*
X011650Y009936D02*
X011614Y009936D01*
X011614Y009937D02*
X011650Y009937D01*
X011650Y009938D02*
X011614Y009938D01*
X011614Y009939D02*
X011650Y009939D01*
X011650Y009940D02*
X011614Y009940D01*
X011614Y009941D02*
X011650Y009941D01*
X011650Y009942D02*
X011614Y009942D01*
X011614Y009943D02*
X011650Y009943D01*
X011650Y009944D02*
X011614Y009944D01*
X011614Y009945D02*
X011650Y009945D01*
X011650Y009946D02*
X011614Y009946D01*
X011614Y009947D02*
X011650Y009947D01*
X011650Y009948D02*
X011614Y009948D01*
X011614Y009949D02*
X011650Y009949D01*
X011650Y009950D02*
X011614Y009950D01*
X011614Y009951D02*
X011650Y009951D01*
X011650Y009952D02*
X011614Y009952D01*
X011614Y009953D02*
X011650Y009953D01*
X011650Y009954D02*
X011614Y009954D01*
X011614Y009955D02*
X011650Y009955D01*
X011650Y009956D02*
X011614Y009956D01*
X011614Y009957D02*
X011650Y009957D01*
X011650Y009958D02*
X011614Y009958D01*
X011614Y009959D02*
X011650Y009959D01*
X011650Y009960D02*
X011614Y009960D01*
X011614Y009961D02*
X011650Y009961D01*
X011650Y009962D02*
X011614Y009962D01*
X011614Y009963D02*
X011650Y009963D01*
X011650Y009964D02*
X011614Y009964D01*
X011614Y009965D02*
X011650Y009965D01*
X011650Y009966D02*
X011614Y009966D01*
X011614Y009967D02*
X011650Y009967D01*
X011650Y009968D02*
X011614Y009968D01*
X011614Y009969D02*
X011650Y009969D01*
X011650Y009970D02*
X011614Y009970D01*
X011614Y009971D02*
X011650Y009971D01*
X011650Y009972D02*
X011614Y009972D01*
X011614Y009973D02*
X011650Y009973D01*
X011650Y009974D02*
X011614Y009974D01*
X011614Y009975D02*
X011650Y009975D01*
X011650Y009976D02*
X011614Y009976D01*
X011614Y009977D02*
X011650Y009977D01*
X011650Y009978D02*
X011614Y009978D01*
X011614Y009979D02*
X011650Y009979D01*
X011650Y009980D02*
X011614Y009980D01*
X011614Y009981D02*
X011650Y009981D01*
X011650Y009982D02*
X011614Y009982D01*
X011614Y009983D02*
X011650Y009983D01*
X011650Y009984D02*
X011614Y009984D01*
X011614Y009985D02*
X011650Y009985D01*
X011650Y009986D02*
X011614Y009986D01*
X011614Y009987D02*
X011650Y009987D01*
X011650Y009988D02*
X011614Y009988D01*
X011614Y009989D02*
X011650Y009989D01*
X011650Y009990D02*
X011614Y009990D01*
X011614Y009991D02*
X011650Y009991D01*
X011650Y009992D02*
X011614Y009992D01*
X011614Y009993D02*
X011650Y009993D01*
X011650Y009994D02*
X011614Y009994D01*
X011614Y009995D02*
X011650Y009995D01*
X011650Y009996D02*
X011614Y009996D01*
X011614Y009997D02*
X011650Y009997D01*
X011650Y009998D02*
X011614Y009998D01*
X011614Y009999D02*
X011650Y009999D01*
X011650Y010000D02*
X011614Y010000D01*
X011614Y010001D02*
X011650Y010001D01*
X011650Y010002D02*
X011614Y010002D01*
X011614Y010003D02*
X011650Y010003D01*
X011650Y010004D02*
X011614Y010004D01*
X011614Y010005D02*
X011650Y010005D01*
X011650Y010006D02*
X011614Y010006D01*
X011614Y010007D02*
X011650Y010007D01*
X011650Y010008D02*
X011614Y010008D01*
X011614Y010009D02*
X011650Y010009D01*
X011650Y010010D02*
X011614Y010010D01*
X011614Y010011D02*
X011650Y010011D01*
X011650Y010012D02*
X011614Y010012D01*
X011614Y010013D02*
X011650Y010013D01*
X011650Y010014D02*
X011614Y010014D01*
X011614Y010015D02*
X011650Y010015D01*
X011650Y010016D02*
X011614Y010016D01*
X011614Y010017D02*
X011650Y010017D01*
X011650Y010018D02*
X011614Y010018D01*
X011614Y010019D02*
X011650Y010019D01*
X011650Y010020D02*
X011614Y010020D01*
X011614Y010021D02*
X011650Y010021D01*
X011650Y010022D02*
X011614Y010022D01*
X011614Y010023D02*
X011650Y010023D01*
X011650Y010024D02*
X011614Y010024D01*
X011614Y010025D02*
X011650Y010025D01*
X011650Y010026D02*
X011614Y010026D01*
X011614Y010027D02*
X011650Y010027D01*
X011650Y010028D02*
X011614Y010028D01*
X011614Y010029D02*
X011650Y010029D01*
X011650Y010030D02*
X011614Y010030D01*
X011614Y010031D02*
X011650Y010031D01*
X011650Y010032D02*
X011614Y010032D01*
X011614Y010033D02*
X011650Y010033D01*
X011650Y010034D02*
X011614Y010034D01*
X011614Y010035D02*
X011650Y010035D01*
X011650Y010036D02*
X011614Y010036D01*
X011614Y010037D02*
X011650Y010037D01*
X011650Y010038D02*
X011614Y010038D01*
X011456Y010038D02*
X011456Y009844D01*
X011456Y010038D02*
X011492Y010038D01*
X011492Y009844D01*
X011456Y009844D01*
X011456Y009845D02*
X011492Y009845D01*
X011492Y009846D02*
X011456Y009846D01*
X011456Y009847D02*
X011492Y009847D01*
X011492Y009848D02*
X011456Y009848D01*
X011456Y009849D02*
X011492Y009849D01*
X011492Y009850D02*
X011456Y009850D01*
X011456Y009851D02*
X011492Y009851D01*
X011492Y009852D02*
X011456Y009852D01*
X011456Y009853D02*
X011492Y009853D01*
X011492Y009854D02*
X011456Y009854D01*
X011456Y009855D02*
X011492Y009855D01*
X011492Y009856D02*
X011456Y009856D01*
X011456Y009857D02*
X011492Y009857D01*
X011492Y009858D02*
X011456Y009858D01*
X011456Y009859D02*
X011492Y009859D01*
X011492Y009860D02*
X011456Y009860D01*
X011456Y009861D02*
X011492Y009861D01*
X011492Y009862D02*
X011456Y009862D01*
X011456Y009863D02*
X011492Y009863D01*
X011492Y009864D02*
X011456Y009864D01*
X011456Y009865D02*
X011492Y009865D01*
X011492Y009866D02*
X011456Y009866D01*
X011456Y009867D02*
X011492Y009867D01*
X011492Y009868D02*
X011456Y009868D01*
X011456Y009869D02*
X011492Y009869D01*
X011492Y009870D02*
X011456Y009870D01*
X011456Y009871D02*
X011492Y009871D01*
X011492Y009872D02*
X011456Y009872D01*
X011456Y009873D02*
X011492Y009873D01*
X011492Y009874D02*
X011456Y009874D01*
X011456Y009875D02*
X011492Y009875D01*
X011492Y009876D02*
X011456Y009876D01*
X011456Y009877D02*
X011492Y009877D01*
X011492Y009878D02*
X011456Y009878D01*
X011456Y009879D02*
X011492Y009879D01*
X011492Y009880D02*
X011456Y009880D01*
X011456Y009881D02*
X011492Y009881D01*
X011492Y009882D02*
X011456Y009882D01*
X011456Y009883D02*
X011492Y009883D01*
X011492Y009884D02*
X011456Y009884D01*
X011456Y009885D02*
X011492Y009885D01*
X011492Y009886D02*
X011456Y009886D01*
X011456Y009887D02*
X011492Y009887D01*
X011492Y009888D02*
X011456Y009888D01*
X011456Y009889D02*
X011492Y009889D01*
X011492Y009890D02*
X011456Y009890D01*
X011456Y009891D02*
X011492Y009891D01*
X011492Y009892D02*
X011456Y009892D01*
X011456Y009893D02*
X011492Y009893D01*
X011492Y009894D02*
X011456Y009894D01*
X011456Y009895D02*
X011492Y009895D01*
X011492Y009896D02*
X011456Y009896D01*
X011456Y009897D02*
X011492Y009897D01*
X011492Y009898D02*
X011456Y009898D01*
X011456Y009899D02*
X011492Y009899D01*
X011492Y009900D02*
X011456Y009900D01*
X011456Y009901D02*
X011492Y009901D01*
X011492Y009902D02*
X011456Y009902D01*
X011456Y009903D02*
X011492Y009903D01*
X011492Y009904D02*
X011456Y009904D01*
X011456Y009905D02*
X011492Y009905D01*
X011492Y009906D02*
X011456Y009906D01*
X011456Y009907D02*
X011492Y009907D01*
X011492Y009908D02*
X011456Y009908D01*
X011456Y009909D02*
X011492Y009909D01*
X011492Y009910D02*
X011456Y009910D01*
X011456Y009911D02*
X011492Y009911D01*
X011492Y009912D02*
X011456Y009912D01*
X011456Y009913D02*
X011492Y009913D01*
X011492Y009914D02*
X011456Y009914D01*
X011456Y009915D02*
X011492Y009915D01*
X011492Y009916D02*
X011456Y009916D01*
X011456Y009917D02*
X011492Y009917D01*
X011492Y009918D02*
X011456Y009918D01*
X011456Y009919D02*
X011492Y009919D01*
X011492Y009920D02*
X011456Y009920D01*
X011456Y009921D02*
X011492Y009921D01*
X011492Y009922D02*
X011456Y009922D01*
X011456Y009923D02*
X011492Y009923D01*
X011492Y009924D02*
X011456Y009924D01*
X011456Y009925D02*
X011492Y009925D01*
X011492Y009926D02*
X011456Y009926D01*
X011456Y009927D02*
X011492Y009927D01*
X011492Y009928D02*
X011456Y009928D01*
X011456Y009929D02*
X011492Y009929D01*
X011492Y009930D02*
X011456Y009930D01*
X011456Y009931D02*
X011492Y009931D01*
X011492Y009932D02*
X011456Y009932D01*
X011456Y009933D02*
X011492Y009933D01*
X011492Y009934D02*
X011456Y009934D01*
X011456Y009935D02*
X011492Y009935D01*
X011492Y009936D02*
X011456Y009936D01*
X011456Y009937D02*
X011492Y009937D01*
X011492Y009938D02*
X011456Y009938D01*
X011456Y009939D02*
X011492Y009939D01*
X011492Y009940D02*
X011456Y009940D01*
X011456Y009941D02*
X011492Y009941D01*
X011492Y009942D02*
X011456Y009942D01*
X011456Y009943D02*
X011492Y009943D01*
X011492Y009944D02*
X011456Y009944D01*
X011456Y009945D02*
X011492Y009945D01*
X011492Y009946D02*
X011456Y009946D01*
X011456Y009947D02*
X011492Y009947D01*
X011492Y009948D02*
X011456Y009948D01*
X011456Y009949D02*
X011492Y009949D01*
X011492Y009950D02*
X011456Y009950D01*
X011456Y009951D02*
X011492Y009951D01*
X011492Y009952D02*
X011456Y009952D01*
X011456Y009953D02*
X011492Y009953D01*
X011492Y009954D02*
X011456Y009954D01*
X011456Y009955D02*
X011492Y009955D01*
X011492Y009956D02*
X011456Y009956D01*
X011456Y009957D02*
X011492Y009957D01*
X011492Y009958D02*
X011456Y009958D01*
X011456Y009959D02*
X011492Y009959D01*
X011492Y009960D02*
X011456Y009960D01*
X011456Y009961D02*
X011492Y009961D01*
X011492Y009962D02*
X011456Y009962D01*
X011456Y009963D02*
X011492Y009963D01*
X011492Y009964D02*
X011456Y009964D01*
X011456Y009965D02*
X011492Y009965D01*
X011492Y009966D02*
X011456Y009966D01*
X011456Y009967D02*
X011492Y009967D01*
X011492Y009968D02*
X011456Y009968D01*
X011456Y009969D02*
X011492Y009969D01*
X011492Y009970D02*
X011456Y009970D01*
X011456Y009971D02*
X011492Y009971D01*
X011492Y009972D02*
X011456Y009972D01*
X011456Y009973D02*
X011492Y009973D01*
X011492Y009974D02*
X011456Y009974D01*
X011456Y009975D02*
X011492Y009975D01*
X011492Y009976D02*
X011456Y009976D01*
X011456Y009977D02*
X011492Y009977D01*
X011492Y009978D02*
X011456Y009978D01*
X011456Y009979D02*
X011492Y009979D01*
X011492Y009980D02*
X011456Y009980D01*
X011456Y009981D02*
X011492Y009981D01*
X011492Y009982D02*
X011456Y009982D01*
X011456Y009983D02*
X011492Y009983D01*
X011492Y009984D02*
X011456Y009984D01*
X011456Y009985D02*
X011492Y009985D01*
X011492Y009986D02*
X011456Y009986D01*
X011456Y009987D02*
X011492Y009987D01*
X011492Y009988D02*
X011456Y009988D01*
X011456Y009989D02*
X011492Y009989D01*
X011492Y009990D02*
X011456Y009990D01*
X011456Y009991D02*
X011492Y009991D01*
X011492Y009992D02*
X011456Y009992D01*
X011456Y009993D02*
X011492Y009993D01*
X011492Y009994D02*
X011456Y009994D01*
X011456Y009995D02*
X011492Y009995D01*
X011492Y009996D02*
X011456Y009996D01*
X011456Y009997D02*
X011492Y009997D01*
X011492Y009998D02*
X011456Y009998D01*
X011456Y009999D02*
X011492Y009999D01*
X011492Y010000D02*
X011456Y010000D01*
X011456Y010001D02*
X011492Y010001D01*
X011492Y010002D02*
X011456Y010002D01*
X011456Y010003D02*
X011492Y010003D01*
X011492Y010004D02*
X011456Y010004D01*
X011456Y010005D02*
X011492Y010005D01*
X011492Y010006D02*
X011456Y010006D01*
X011456Y010007D02*
X011492Y010007D01*
X011492Y010008D02*
X011456Y010008D01*
X011456Y010009D02*
X011492Y010009D01*
X011492Y010010D02*
X011456Y010010D01*
X011456Y010011D02*
X011492Y010011D01*
X011492Y010012D02*
X011456Y010012D01*
X011456Y010013D02*
X011492Y010013D01*
X011492Y010014D02*
X011456Y010014D01*
X011456Y010015D02*
X011492Y010015D01*
X011492Y010016D02*
X011456Y010016D01*
X011456Y010017D02*
X011492Y010017D01*
X011492Y010018D02*
X011456Y010018D01*
X011456Y010019D02*
X011492Y010019D01*
X011492Y010020D02*
X011456Y010020D01*
X011456Y010021D02*
X011492Y010021D01*
X011492Y010022D02*
X011456Y010022D01*
X011456Y010023D02*
X011492Y010023D01*
X011492Y010024D02*
X011456Y010024D01*
X011456Y010025D02*
X011492Y010025D01*
X011492Y010026D02*
X011456Y010026D01*
X011456Y010027D02*
X011492Y010027D01*
X011492Y010028D02*
X011456Y010028D01*
X011456Y010029D02*
X011492Y010029D01*
X011492Y010030D02*
X011456Y010030D01*
X011456Y010031D02*
X011492Y010031D01*
X011492Y010032D02*
X011456Y010032D01*
X011456Y010033D02*
X011492Y010033D01*
X011492Y010034D02*
X011456Y010034D01*
X011456Y010035D02*
X011492Y010035D01*
X011492Y010036D02*
X011456Y010036D01*
X011456Y010037D02*
X011492Y010037D01*
X011492Y010038D02*
X011456Y010038D01*
X011257Y009687D02*
X011063Y009687D01*
X011063Y009723D01*
X011257Y009723D01*
X011257Y009687D01*
X011257Y009688D02*
X011063Y009688D01*
X011063Y009689D02*
X011257Y009689D01*
X011257Y009690D02*
X011063Y009690D01*
X011063Y009691D02*
X011257Y009691D01*
X011257Y009692D02*
X011063Y009692D01*
X011063Y009693D02*
X011257Y009693D01*
X011257Y009694D02*
X011063Y009694D01*
X011063Y009695D02*
X011257Y009695D01*
X011257Y009696D02*
X011063Y009696D01*
X011063Y009697D02*
X011257Y009697D01*
X011257Y009698D02*
X011063Y009698D01*
X011063Y009699D02*
X011257Y009699D01*
X011257Y009700D02*
X011063Y009700D01*
X011063Y009701D02*
X011257Y009701D01*
X011257Y009702D02*
X011063Y009702D01*
X011063Y009703D02*
X011257Y009703D01*
X011257Y009704D02*
X011063Y009704D01*
X011063Y009705D02*
X011257Y009705D01*
X011257Y009706D02*
X011063Y009706D01*
X011063Y009707D02*
X011257Y009707D01*
X011257Y009708D02*
X011063Y009708D01*
X011063Y009709D02*
X011257Y009709D01*
X011257Y009710D02*
X011063Y009710D01*
X011063Y009711D02*
X011257Y009711D01*
X011257Y009712D02*
X011063Y009712D01*
X011063Y009713D02*
X011257Y009713D01*
X011257Y009714D02*
X011063Y009714D01*
X011063Y009715D02*
X011257Y009715D01*
X011257Y009716D02*
X011063Y009716D01*
X011063Y009717D02*
X011257Y009717D01*
X011257Y009718D02*
X011063Y009718D01*
X011063Y009719D02*
X011257Y009719D01*
X011257Y009720D02*
X011063Y009720D01*
X011063Y009721D02*
X011257Y009721D01*
X011257Y009722D02*
X011063Y009722D01*
X011063Y009723D02*
X011257Y009723D01*
X011257Y009529D02*
X011063Y009529D01*
X011063Y009565D01*
X011257Y009565D01*
X011257Y009529D01*
X011257Y009530D02*
X011063Y009530D01*
X011063Y009531D02*
X011257Y009531D01*
X011257Y009532D02*
X011063Y009532D01*
X011063Y009533D02*
X011257Y009533D01*
X011257Y009534D02*
X011063Y009534D01*
X011063Y009535D02*
X011257Y009535D01*
X011257Y009536D02*
X011063Y009536D01*
X011063Y009537D02*
X011257Y009537D01*
X011257Y009538D02*
X011063Y009538D01*
X011063Y009539D02*
X011257Y009539D01*
X011257Y009540D02*
X011063Y009540D01*
X011063Y009541D02*
X011257Y009541D01*
X011257Y009542D02*
X011063Y009542D01*
X011063Y009543D02*
X011257Y009543D01*
X011257Y009544D02*
X011063Y009544D01*
X011063Y009545D02*
X011257Y009545D01*
X011257Y009546D02*
X011063Y009546D01*
X011063Y009547D02*
X011257Y009547D01*
X011257Y009548D02*
X011063Y009548D01*
X011063Y009549D02*
X011257Y009549D01*
X011257Y009550D02*
X011063Y009550D01*
X011063Y009551D02*
X011257Y009551D01*
X011257Y009552D02*
X011063Y009552D01*
X011063Y009553D02*
X011257Y009553D01*
X011257Y009554D02*
X011063Y009554D01*
X011063Y009555D02*
X011257Y009555D01*
X011257Y009556D02*
X011063Y009556D01*
X011063Y009557D02*
X011257Y009557D01*
X011257Y009558D02*
X011063Y009558D01*
X011063Y009559D02*
X011257Y009559D01*
X011257Y009560D02*
X011063Y009560D01*
X011063Y009561D02*
X011257Y009561D01*
X011257Y009562D02*
X011063Y009562D01*
X011063Y009563D02*
X011257Y009563D01*
X011257Y009564D02*
X011063Y009564D01*
X011063Y009565D02*
X011257Y009565D01*
X011257Y009372D02*
X011063Y009372D01*
X011063Y009408D01*
X011257Y009408D01*
X011257Y009372D01*
X011257Y009373D02*
X011063Y009373D01*
X011063Y009374D02*
X011257Y009374D01*
X011257Y009375D02*
X011063Y009375D01*
X011063Y009376D02*
X011257Y009376D01*
X011257Y009377D02*
X011063Y009377D01*
X011063Y009378D02*
X011257Y009378D01*
X011257Y009379D02*
X011063Y009379D01*
X011063Y009380D02*
X011257Y009380D01*
X011257Y009381D02*
X011063Y009381D01*
X011063Y009382D02*
X011257Y009382D01*
X011257Y009383D02*
X011063Y009383D01*
X011063Y009384D02*
X011257Y009384D01*
X011257Y009385D02*
X011063Y009385D01*
X011063Y009386D02*
X011257Y009386D01*
X011257Y009387D02*
X011063Y009387D01*
X011063Y009388D02*
X011257Y009388D01*
X011257Y009389D02*
X011063Y009389D01*
X011063Y009390D02*
X011257Y009390D01*
X011257Y009391D02*
X011063Y009391D01*
X011063Y009392D02*
X011257Y009392D01*
X011257Y009393D02*
X011063Y009393D01*
X011063Y009394D02*
X011257Y009394D01*
X011257Y009395D02*
X011063Y009395D01*
X011063Y009396D02*
X011257Y009396D01*
X011257Y009397D02*
X011063Y009397D01*
X011063Y009398D02*
X011257Y009398D01*
X011257Y009399D02*
X011063Y009399D01*
X011063Y009400D02*
X011257Y009400D01*
X011257Y009401D02*
X011063Y009401D01*
X011063Y009402D02*
X011257Y009402D01*
X011257Y009403D02*
X011063Y009403D01*
X011063Y009404D02*
X011257Y009404D01*
X011257Y009405D02*
X011063Y009405D01*
X011063Y009406D02*
X011257Y009406D01*
X011257Y009407D02*
X011063Y009407D01*
X011063Y009408D02*
X011257Y009408D01*
X011257Y009215D02*
X011063Y009215D01*
X011063Y009251D01*
X011257Y009251D01*
X011257Y009215D01*
X011257Y009216D02*
X011063Y009216D01*
X011063Y009217D02*
X011257Y009217D01*
X011257Y009218D02*
X011063Y009218D01*
X011063Y009219D02*
X011257Y009219D01*
X011257Y009220D02*
X011063Y009220D01*
X011063Y009221D02*
X011257Y009221D01*
X011257Y009222D02*
X011063Y009222D01*
X011063Y009223D02*
X011257Y009223D01*
X011257Y009224D02*
X011063Y009224D01*
X011063Y009225D02*
X011257Y009225D01*
X011257Y009226D02*
X011063Y009226D01*
X011063Y009227D02*
X011257Y009227D01*
X011257Y009228D02*
X011063Y009228D01*
X011063Y009229D02*
X011257Y009229D01*
X011257Y009230D02*
X011063Y009230D01*
X011063Y009231D02*
X011257Y009231D01*
X011257Y009232D02*
X011063Y009232D01*
X011063Y009233D02*
X011257Y009233D01*
X011257Y009234D02*
X011063Y009234D01*
X011063Y009235D02*
X011257Y009235D01*
X011257Y009236D02*
X011063Y009236D01*
X011063Y009237D02*
X011257Y009237D01*
X011257Y009238D02*
X011063Y009238D01*
X011063Y009239D02*
X011257Y009239D01*
X011257Y009240D02*
X011063Y009240D01*
X011063Y009241D02*
X011257Y009241D01*
X011257Y009242D02*
X011063Y009242D01*
X011063Y009243D02*
X011257Y009243D01*
X011257Y009244D02*
X011063Y009244D01*
X011063Y009245D02*
X011257Y009245D01*
X011257Y009246D02*
X011063Y009246D01*
X011063Y009247D02*
X011257Y009247D01*
X011257Y009248D02*
X011063Y009248D01*
X011063Y009249D02*
X011257Y009249D01*
X011257Y009250D02*
X011063Y009250D01*
X011063Y009251D02*
X011257Y009251D01*
X011257Y009057D02*
X011063Y009057D01*
X011063Y009093D01*
X011257Y009093D01*
X011257Y009057D01*
X011257Y009058D02*
X011063Y009058D01*
X011063Y009059D02*
X011257Y009059D01*
X011257Y009060D02*
X011063Y009060D01*
X011063Y009061D02*
X011257Y009061D01*
X011257Y009062D02*
X011063Y009062D01*
X011063Y009063D02*
X011257Y009063D01*
X011257Y009064D02*
X011063Y009064D01*
X011063Y009065D02*
X011257Y009065D01*
X011257Y009066D02*
X011063Y009066D01*
X011063Y009067D02*
X011257Y009067D01*
X011257Y009068D02*
X011063Y009068D01*
X011063Y009069D02*
X011257Y009069D01*
X011257Y009070D02*
X011063Y009070D01*
X011063Y009071D02*
X011257Y009071D01*
X011257Y009072D02*
X011063Y009072D01*
X011063Y009073D02*
X011257Y009073D01*
X011257Y009074D02*
X011063Y009074D01*
X011063Y009075D02*
X011257Y009075D01*
X011257Y009076D02*
X011063Y009076D01*
X011063Y009077D02*
X011257Y009077D01*
X011257Y009078D02*
X011063Y009078D01*
X011063Y009079D02*
X011257Y009079D01*
X011257Y009080D02*
X011063Y009080D01*
X011063Y009081D02*
X011257Y009081D01*
X011257Y009082D02*
X011063Y009082D01*
X011063Y009083D02*
X011257Y009083D01*
X011257Y009084D02*
X011063Y009084D01*
X011063Y009085D02*
X011257Y009085D01*
X011257Y009086D02*
X011063Y009086D01*
X011063Y009087D02*
X011257Y009087D01*
X011257Y009088D02*
X011063Y009088D01*
X011063Y009089D02*
X011257Y009089D01*
X011257Y009090D02*
X011063Y009090D01*
X011063Y009091D02*
X011257Y009091D01*
X011257Y009092D02*
X011063Y009092D01*
X011063Y009093D02*
X011257Y009093D01*
X011257Y008900D02*
X011063Y008900D01*
X011063Y008936D01*
X011257Y008936D01*
X011257Y008900D01*
X011257Y008901D02*
X011063Y008901D01*
X011063Y008902D02*
X011257Y008902D01*
X011257Y008903D02*
X011063Y008903D01*
X011063Y008904D02*
X011257Y008904D01*
X011257Y008905D02*
X011063Y008905D01*
X011063Y008906D02*
X011257Y008906D01*
X011257Y008907D02*
X011063Y008907D01*
X011063Y008908D02*
X011257Y008908D01*
X011257Y008909D02*
X011063Y008909D01*
X011063Y008910D02*
X011257Y008910D01*
X011257Y008911D02*
X011063Y008911D01*
X011063Y008912D02*
X011257Y008912D01*
X011257Y008913D02*
X011063Y008913D01*
X011063Y008914D02*
X011257Y008914D01*
X011257Y008915D02*
X011063Y008915D01*
X011063Y008916D02*
X011257Y008916D01*
X011257Y008917D02*
X011063Y008917D01*
X011063Y008918D02*
X011257Y008918D01*
X011257Y008919D02*
X011063Y008919D01*
X011063Y008920D02*
X011257Y008920D01*
X011257Y008921D02*
X011063Y008921D01*
X011063Y008922D02*
X011257Y008922D01*
X011257Y008923D02*
X011063Y008923D01*
X011063Y008924D02*
X011257Y008924D01*
X011257Y008925D02*
X011063Y008925D01*
X011063Y008926D02*
X011257Y008926D01*
X011257Y008927D02*
X011063Y008927D01*
X011063Y008928D02*
X011257Y008928D01*
X011257Y008929D02*
X011063Y008929D01*
X011063Y008930D02*
X011257Y008930D01*
X011257Y008931D02*
X011063Y008931D01*
X011063Y008932D02*
X011257Y008932D01*
X011257Y008933D02*
X011063Y008933D01*
X011063Y008934D02*
X011257Y008934D01*
X011257Y008935D02*
X011063Y008935D01*
X011063Y008936D02*
X011257Y008936D01*
X011257Y008742D02*
X011063Y008742D01*
X011063Y008778D01*
X011257Y008778D01*
X011257Y008742D01*
X011257Y008743D02*
X011063Y008743D01*
X011063Y008744D02*
X011257Y008744D01*
X011257Y008745D02*
X011063Y008745D01*
X011063Y008746D02*
X011257Y008746D01*
X011257Y008747D02*
X011063Y008747D01*
X011063Y008748D02*
X011257Y008748D01*
X011257Y008749D02*
X011063Y008749D01*
X011063Y008750D02*
X011257Y008750D01*
X011257Y008751D02*
X011063Y008751D01*
X011063Y008752D02*
X011257Y008752D01*
X011257Y008753D02*
X011063Y008753D01*
X011063Y008754D02*
X011257Y008754D01*
X011257Y008755D02*
X011063Y008755D01*
X011063Y008756D02*
X011257Y008756D01*
X011257Y008757D02*
X011063Y008757D01*
X011063Y008758D02*
X011257Y008758D01*
X011257Y008759D02*
X011063Y008759D01*
X011063Y008760D02*
X011257Y008760D01*
X011257Y008761D02*
X011063Y008761D01*
X011063Y008762D02*
X011257Y008762D01*
X011257Y008763D02*
X011063Y008763D01*
X011063Y008764D02*
X011257Y008764D01*
X011257Y008765D02*
X011063Y008765D01*
X011063Y008766D02*
X011257Y008766D01*
X011257Y008767D02*
X011063Y008767D01*
X011063Y008768D02*
X011257Y008768D01*
X011257Y008769D02*
X011063Y008769D01*
X011063Y008770D02*
X011257Y008770D01*
X011257Y008771D02*
X011063Y008771D01*
X011063Y008772D02*
X011257Y008772D01*
X011257Y008773D02*
X011063Y008773D01*
X011063Y008774D02*
X011257Y008774D01*
X011257Y008775D02*
X011063Y008775D01*
X011063Y008776D02*
X011257Y008776D01*
X011257Y008777D02*
X011063Y008777D01*
X011063Y008778D02*
X011257Y008778D01*
X011257Y008585D02*
X011063Y008585D01*
X011063Y008621D01*
X011257Y008621D01*
X011257Y008585D01*
X011257Y008586D02*
X011063Y008586D01*
X011063Y008587D02*
X011257Y008587D01*
X011257Y008588D02*
X011063Y008588D01*
X011063Y008589D02*
X011257Y008589D01*
X011257Y008590D02*
X011063Y008590D01*
X011063Y008591D02*
X011257Y008591D01*
X011257Y008592D02*
X011063Y008592D01*
X011063Y008593D02*
X011257Y008593D01*
X011257Y008594D02*
X011063Y008594D01*
X011063Y008595D02*
X011257Y008595D01*
X011257Y008596D02*
X011063Y008596D01*
X011063Y008597D02*
X011257Y008597D01*
X011257Y008598D02*
X011063Y008598D01*
X011063Y008599D02*
X011257Y008599D01*
X011257Y008600D02*
X011063Y008600D01*
X011063Y008601D02*
X011257Y008601D01*
X011257Y008602D02*
X011063Y008602D01*
X011063Y008603D02*
X011257Y008603D01*
X011257Y008604D02*
X011063Y008604D01*
X011063Y008605D02*
X011257Y008605D01*
X011257Y008606D02*
X011063Y008606D01*
X011063Y008607D02*
X011257Y008607D01*
X011257Y008608D02*
X011063Y008608D01*
X011063Y008609D02*
X011257Y008609D01*
X011257Y008610D02*
X011063Y008610D01*
X011063Y008611D02*
X011257Y008611D01*
X011257Y008612D02*
X011063Y008612D01*
X011063Y008613D02*
X011257Y008613D01*
X011257Y008614D02*
X011063Y008614D01*
X011063Y008615D02*
X011257Y008615D01*
X011257Y008616D02*
X011063Y008616D01*
X011063Y008617D02*
X011257Y008617D01*
X011257Y008618D02*
X011063Y008618D01*
X011063Y008619D02*
X011257Y008619D01*
X011257Y008620D02*
X011063Y008620D01*
X011063Y008621D02*
X011257Y008621D01*
X011456Y008463D02*
X011456Y008269D01*
X011456Y008463D02*
X011492Y008463D01*
X011492Y008269D01*
X011456Y008269D01*
X011456Y008270D02*
X011492Y008270D01*
X011492Y008271D02*
X011456Y008271D01*
X011456Y008272D02*
X011492Y008272D01*
X011492Y008273D02*
X011456Y008273D01*
X011456Y008274D02*
X011492Y008274D01*
X011492Y008275D02*
X011456Y008275D01*
X011456Y008276D02*
X011492Y008276D01*
X011492Y008277D02*
X011456Y008277D01*
X011456Y008278D02*
X011492Y008278D01*
X011492Y008279D02*
X011456Y008279D01*
X011456Y008280D02*
X011492Y008280D01*
X011492Y008281D02*
X011456Y008281D01*
X011456Y008282D02*
X011492Y008282D01*
X011492Y008283D02*
X011456Y008283D01*
X011456Y008284D02*
X011492Y008284D01*
X011492Y008285D02*
X011456Y008285D01*
X011456Y008286D02*
X011492Y008286D01*
X011492Y008287D02*
X011456Y008287D01*
X011456Y008288D02*
X011492Y008288D01*
X011492Y008289D02*
X011456Y008289D01*
X011456Y008290D02*
X011492Y008290D01*
X011492Y008291D02*
X011456Y008291D01*
X011456Y008292D02*
X011492Y008292D01*
X011492Y008293D02*
X011456Y008293D01*
X011456Y008294D02*
X011492Y008294D01*
X011492Y008295D02*
X011456Y008295D01*
X011456Y008296D02*
X011492Y008296D01*
X011492Y008297D02*
X011456Y008297D01*
X011456Y008298D02*
X011492Y008298D01*
X011492Y008299D02*
X011456Y008299D01*
X011456Y008300D02*
X011492Y008300D01*
X011492Y008301D02*
X011456Y008301D01*
X011456Y008302D02*
X011492Y008302D01*
X011492Y008303D02*
X011456Y008303D01*
X011456Y008304D02*
X011492Y008304D01*
X011492Y008305D02*
X011456Y008305D01*
X011456Y008306D02*
X011492Y008306D01*
X011492Y008307D02*
X011456Y008307D01*
X011456Y008308D02*
X011492Y008308D01*
X011492Y008309D02*
X011456Y008309D01*
X011456Y008310D02*
X011492Y008310D01*
X011492Y008311D02*
X011456Y008311D01*
X011456Y008312D02*
X011492Y008312D01*
X011492Y008313D02*
X011456Y008313D01*
X011456Y008314D02*
X011492Y008314D01*
X011492Y008315D02*
X011456Y008315D01*
X011456Y008316D02*
X011492Y008316D01*
X011492Y008317D02*
X011456Y008317D01*
X011456Y008318D02*
X011492Y008318D01*
X011492Y008319D02*
X011456Y008319D01*
X011456Y008320D02*
X011492Y008320D01*
X011492Y008321D02*
X011456Y008321D01*
X011456Y008322D02*
X011492Y008322D01*
X011492Y008323D02*
X011456Y008323D01*
X011456Y008324D02*
X011492Y008324D01*
X011492Y008325D02*
X011456Y008325D01*
X011456Y008326D02*
X011492Y008326D01*
X011492Y008327D02*
X011456Y008327D01*
X011456Y008328D02*
X011492Y008328D01*
X011492Y008329D02*
X011456Y008329D01*
X011456Y008330D02*
X011492Y008330D01*
X011492Y008331D02*
X011456Y008331D01*
X011456Y008332D02*
X011492Y008332D01*
X011492Y008333D02*
X011456Y008333D01*
X011456Y008334D02*
X011492Y008334D01*
X011492Y008335D02*
X011456Y008335D01*
X011456Y008336D02*
X011492Y008336D01*
X011492Y008337D02*
X011456Y008337D01*
X011456Y008338D02*
X011492Y008338D01*
X011492Y008339D02*
X011456Y008339D01*
X011456Y008340D02*
X011492Y008340D01*
X011492Y008341D02*
X011456Y008341D01*
X011456Y008342D02*
X011492Y008342D01*
X011492Y008343D02*
X011456Y008343D01*
X011456Y008344D02*
X011492Y008344D01*
X011492Y008345D02*
X011456Y008345D01*
X011456Y008346D02*
X011492Y008346D01*
X011492Y008347D02*
X011456Y008347D01*
X011456Y008348D02*
X011492Y008348D01*
X011492Y008349D02*
X011456Y008349D01*
X011456Y008350D02*
X011492Y008350D01*
X011492Y008351D02*
X011456Y008351D01*
X011456Y008352D02*
X011492Y008352D01*
X011492Y008353D02*
X011456Y008353D01*
X011456Y008354D02*
X011492Y008354D01*
X011492Y008355D02*
X011456Y008355D01*
X011456Y008356D02*
X011492Y008356D01*
X011492Y008357D02*
X011456Y008357D01*
X011456Y008358D02*
X011492Y008358D01*
X011492Y008359D02*
X011456Y008359D01*
X011456Y008360D02*
X011492Y008360D01*
X011492Y008361D02*
X011456Y008361D01*
X011456Y008362D02*
X011492Y008362D01*
X011492Y008363D02*
X011456Y008363D01*
X011456Y008364D02*
X011492Y008364D01*
X011492Y008365D02*
X011456Y008365D01*
X011456Y008366D02*
X011492Y008366D01*
X011492Y008367D02*
X011456Y008367D01*
X011456Y008368D02*
X011492Y008368D01*
X011492Y008369D02*
X011456Y008369D01*
X011456Y008370D02*
X011492Y008370D01*
X011492Y008371D02*
X011456Y008371D01*
X011456Y008372D02*
X011492Y008372D01*
X011492Y008373D02*
X011456Y008373D01*
X011456Y008374D02*
X011492Y008374D01*
X011492Y008375D02*
X011456Y008375D01*
X011456Y008376D02*
X011492Y008376D01*
X011492Y008377D02*
X011456Y008377D01*
X011456Y008378D02*
X011492Y008378D01*
X011492Y008379D02*
X011456Y008379D01*
X011456Y008380D02*
X011492Y008380D01*
X011492Y008381D02*
X011456Y008381D01*
X011456Y008382D02*
X011492Y008382D01*
X011492Y008383D02*
X011456Y008383D01*
X011456Y008384D02*
X011492Y008384D01*
X011492Y008385D02*
X011456Y008385D01*
X011456Y008386D02*
X011492Y008386D01*
X011492Y008387D02*
X011456Y008387D01*
X011456Y008388D02*
X011492Y008388D01*
X011492Y008389D02*
X011456Y008389D01*
X011456Y008390D02*
X011492Y008390D01*
X011492Y008391D02*
X011456Y008391D01*
X011456Y008392D02*
X011492Y008392D01*
X011492Y008393D02*
X011456Y008393D01*
X011456Y008394D02*
X011492Y008394D01*
X011492Y008395D02*
X011456Y008395D01*
X011456Y008396D02*
X011492Y008396D01*
X011492Y008397D02*
X011456Y008397D01*
X011456Y008398D02*
X011492Y008398D01*
X011492Y008399D02*
X011456Y008399D01*
X011456Y008400D02*
X011492Y008400D01*
X011492Y008401D02*
X011456Y008401D01*
X011456Y008402D02*
X011492Y008402D01*
X011492Y008403D02*
X011456Y008403D01*
X011456Y008404D02*
X011492Y008404D01*
X011492Y008405D02*
X011456Y008405D01*
X011456Y008406D02*
X011492Y008406D01*
X011492Y008407D02*
X011456Y008407D01*
X011456Y008408D02*
X011492Y008408D01*
X011492Y008409D02*
X011456Y008409D01*
X011456Y008410D02*
X011492Y008410D01*
X011492Y008411D02*
X011456Y008411D01*
X011456Y008412D02*
X011492Y008412D01*
X011492Y008413D02*
X011456Y008413D01*
X011456Y008414D02*
X011492Y008414D01*
X011492Y008415D02*
X011456Y008415D01*
X011456Y008416D02*
X011492Y008416D01*
X011492Y008417D02*
X011456Y008417D01*
X011456Y008418D02*
X011492Y008418D01*
X011492Y008419D02*
X011456Y008419D01*
X011456Y008420D02*
X011492Y008420D01*
X011492Y008421D02*
X011456Y008421D01*
X011456Y008422D02*
X011492Y008422D01*
X011492Y008423D02*
X011456Y008423D01*
X011456Y008424D02*
X011492Y008424D01*
X011492Y008425D02*
X011456Y008425D01*
X011456Y008426D02*
X011492Y008426D01*
X011492Y008427D02*
X011456Y008427D01*
X011456Y008428D02*
X011492Y008428D01*
X011492Y008429D02*
X011456Y008429D01*
X011456Y008430D02*
X011492Y008430D01*
X011492Y008431D02*
X011456Y008431D01*
X011456Y008432D02*
X011492Y008432D01*
X011492Y008433D02*
X011456Y008433D01*
X011456Y008434D02*
X011492Y008434D01*
X011492Y008435D02*
X011456Y008435D01*
X011456Y008436D02*
X011492Y008436D01*
X011492Y008437D02*
X011456Y008437D01*
X011456Y008438D02*
X011492Y008438D01*
X011492Y008439D02*
X011456Y008439D01*
X011456Y008440D02*
X011492Y008440D01*
X011492Y008441D02*
X011456Y008441D01*
X011456Y008442D02*
X011492Y008442D01*
X011492Y008443D02*
X011456Y008443D01*
X011456Y008444D02*
X011492Y008444D01*
X011492Y008445D02*
X011456Y008445D01*
X011456Y008446D02*
X011492Y008446D01*
X011492Y008447D02*
X011456Y008447D01*
X011456Y008448D02*
X011492Y008448D01*
X011492Y008449D02*
X011456Y008449D01*
X011456Y008450D02*
X011492Y008450D01*
X011492Y008451D02*
X011456Y008451D01*
X011456Y008452D02*
X011492Y008452D01*
X011492Y008453D02*
X011456Y008453D01*
X011456Y008454D02*
X011492Y008454D01*
X011492Y008455D02*
X011456Y008455D01*
X011456Y008456D02*
X011492Y008456D01*
X011492Y008457D02*
X011456Y008457D01*
X011456Y008458D02*
X011492Y008458D01*
X011492Y008459D02*
X011456Y008459D01*
X011456Y008460D02*
X011492Y008460D01*
X011492Y008461D02*
X011456Y008461D01*
X011456Y008462D02*
X011492Y008462D01*
X011492Y008463D02*
X011456Y008463D01*
X011614Y008463D02*
X011614Y008269D01*
X011614Y008463D02*
X011650Y008463D01*
X011650Y008269D01*
X011614Y008269D01*
X011614Y008270D02*
X011650Y008270D01*
X011650Y008271D02*
X011614Y008271D01*
X011614Y008272D02*
X011650Y008272D01*
X011650Y008273D02*
X011614Y008273D01*
X011614Y008274D02*
X011650Y008274D01*
X011650Y008275D02*
X011614Y008275D01*
X011614Y008276D02*
X011650Y008276D01*
X011650Y008277D02*
X011614Y008277D01*
X011614Y008278D02*
X011650Y008278D01*
X011650Y008279D02*
X011614Y008279D01*
X011614Y008280D02*
X011650Y008280D01*
X011650Y008281D02*
X011614Y008281D01*
X011614Y008282D02*
X011650Y008282D01*
X011650Y008283D02*
X011614Y008283D01*
X011614Y008284D02*
X011650Y008284D01*
X011650Y008285D02*
X011614Y008285D01*
X011614Y008286D02*
X011650Y008286D01*
X011650Y008287D02*
X011614Y008287D01*
X011614Y008288D02*
X011650Y008288D01*
X011650Y008289D02*
X011614Y008289D01*
X011614Y008290D02*
X011650Y008290D01*
X011650Y008291D02*
X011614Y008291D01*
X011614Y008292D02*
X011650Y008292D01*
X011650Y008293D02*
X011614Y008293D01*
X011614Y008294D02*
X011650Y008294D01*
X011650Y008295D02*
X011614Y008295D01*
X011614Y008296D02*
X011650Y008296D01*
X011650Y008297D02*
X011614Y008297D01*
X011614Y008298D02*
X011650Y008298D01*
X011650Y008299D02*
X011614Y008299D01*
X011614Y008300D02*
X011650Y008300D01*
X011650Y008301D02*
X011614Y008301D01*
X011614Y008302D02*
X011650Y008302D01*
X011650Y008303D02*
X011614Y008303D01*
X011614Y008304D02*
X011650Y008304D01*
X011650Y008305D02*
X011614Y008305D01*
X011614Y008306D02*
X011650Y008306D01*
X011650Y008307D02*
X011614Y008307D01*
X011614Y008308D02*
X011650Y008308D01*
X011650Y008309D02*
X011614Y008309D01*
X011614Y008310D02*
X011650Y008310D01*
X011650Y008311D02*
X011614Y008311D01*
X011614Y008312D02*
X011650Y008312D01*
X011650Y008313D02*
X011614Y008313D01*
X011614Y008314D02*
X011650Y008314D01*
X011650Y008315D02*
X011614Y008315D01*
X011614Y008316D02*
X011650Y008316D01*
X011650Y008317D02*
X011614Y008317D01*
X011614Y008318D02*
X011650Y008318D01*
X011650Y008319D02*
X011614Y008319D01*
X011614Y008320D02*
X011650Y008320D01*
X011650Y008321D02*
X011614Y008321D01*
X011614Y008322D02*
X011650Y008322D01*
X011650Y008323D02*
X011614Y008323D01*
X011614Y008324D02*
X011650Y008324D01*
X011650Y008325D02*
X011614Y008325D01*
X011614Y008326D02*
X011650Y008326D01*
X011650Y008327D02*
X011614Y008327D01*
X011614Y008328D02*
X011650Y008328D01*
X011650Y008329D02*
X011614Y008329D01*
X011614Y008330D02*
X011650Y008330D01*
X011650Y008331D02*
X011614Y008331D01*
X011614Y008332D02*
X011650Y008332D01*
X011650Y008333D02*
X011614Y008333D01*
X011614Y008334D02*
X011650Y008334D01*
X011650Y008335D02*
X011614Y008335D01*
X011614Y008336D02*
X011650Y008336D01*
X011650Y008337D02*
X011614Y008337D01*
X011614Y008338D02*
X011650Y008338D01*
X011650Y008339D02*
X011614Y008339D01*
X011614Y008340D02*
X011650Y008340D01*
X011650Y008341D02*
X011614Y008341D01*
X011614Y008342D02*
X011650Y008342D01*
X011650Y008343D02*
X011614Y008343D01*
X011614Y008344D02*
X011650Y008344D01*
X011650Y008345D02*
X011614Y008345D01*
X011614Y008346D02*
X011650Y008346D01*
X011650Y008347D02*
X011614Y008347D01*
X011614Y008348D02*
X011650Y008348D01*
X011650Y008349D02*
X011614Y008349D01*
X011614Y008350D02*
X011650Y008350D01*
X011650Y008351D02*
X011614Y008351D01*
X011614Y008352D02*
X011650Y008352D01*
X011650Y008353D02*
X011614Y008353D01*
X011614Y008354D02*
X011650Y008354D01*
X011650Y008355D02*
X011614Y008355D01*
X011614Y008356D02*
X011650Y008356D01*
X011650Y008357D02*
X011614Y008357D01*
X011614Y008358D02*
X011650Y008358D01*
X011650Y008359D02*
X011614Y008359D01*
X011614Y008360D02*
X011650Y008360D01*
X011650Y008361D02*
X011614Y008361D01*
X011614Y008362D02*
X011650Y008362D01*
X011650Y008363D02*
X011614Y008363D01*
X011614Y008364D02*
X011650Y008364D01*
X011650Y008365D02*
X011614Y008365D01*
X011614Y008366D02*
X011650Y008366D01*
X011650Y008367D02*
X011614Y008367D01*
X011614Y008368D02*
X011650Y008368D01*
X011650Y008369D02*
X011614Y008369D01*
X011614Y008370D02*
X011650Y008370D01*
X011650Y008371D02*
X011614Y008371D01*
X011614Y008372D02*
X011650Y008372D01*
X011650Y008373D02*
X011614Y008373D01*
X011614Y008374D02*
X011650Y008374D01*
X011650Y008375D02*
X011614Y008375D01*
X011614Y008376D02*
X011650Y008376D01*
X011650Y008377D02*
X011614Y008377D01*
X011614Y008378D02*
X011650Y008378D01*
X011650Y008379D02*
X011614Y008379D01*
X011614Y008380D02*
X011650Y008380D01*
X011650Y008381D02*
X011614Y008381D01*
X011614Y008382D02*
X011650Y008382D01*
X011650Y008383D02*
X011614Y008383D01*
X011614Y008384D02*
X011650Y008384D01*
X011650Y008385D02*
X011614Y008385D01*
X011614Y008386D02*
X011650Y008386D01*
X011650Y008387D02*
X011614Y008387D01*
X011614Y008388D02*
X011650Y008388D01*
X011650Y008389D02*
X011614Y008389D01*
X011614Y008390D02*
X011650Y008390D01*
X011650Y008391D02*
X011614Y008391D01*
X011614Y008392D02*
X011650Y008392D01*
X011650Y008393D02*
X011614Y008393D01*
X011614Y008394D02*
X011650Y008394D01*
X011650Y008395D02*
X011614Y008395D01*
X011614Y008396D02*
X011650Y008396D01*
X011650Y008397D02*
X011614Y008397D01*
X011614Y008398D02*
X011650Y008398D01*
X011650Y008399D02*
X011614Y008399D01*
X011614Y008400D02*
X011650Y008400D01*
X011650Y008401D02*
X011614Y008401D01*
X011614Y008402D02*
X011650Y008402D01*
X011650Y008403D02*
X011614Y008403D01*
X011614Y008404D02*
X011650Y008404D01*
X011650Y008405D02*
X011614Y008405D01*
X011614Y008406D02*
X011650Y008406D01*
X011650Y008407D02*
X011614Y008407D01*
X011614Y008408D02*
X011650Y008408D01*
X011650Y008409D02*
X011614Y008409D01*
X011614Y008410D02*
X011650Y008410D01*
X011650Y008411D02*
X011614Y008411D01*
X011614Y008412D02*
X011650Y008412D01*
X011650Y008413D02*
X011614Y008413D01*
X011614Y008414D02*
X011650Y008414D01*
X011650Y008415D02*
X011614Y008415D01*
X011614Y008416D02*
X011650Y008416D01*
X011650Y008417D02*
X011614Y008417D01*
X011614Y008418D02*
X011650Y008418D01*
X011650Y008419D02*
X011614Y008419D01*
X011614Y008420D02*
X011650Y008420D01*
X011650Y008421D02*
X011614Y008421D01*
X011614Y008422D02*
X011650Y008422D01*
X011650Y008423D02*
X011614Y008423D01*
X011614Y008424D02*
X011650Y008424D01*
X011650Y008425D02*
X011614Y008425D01*
X011614Y008426D02*
X011650Y008426D01*
X011650Y008427D02*
X011614Y008427D01*
X011614Y008428D02*
X011650Y008428D01*
X011650Y008429D02*
X011614Y008429D01*
X011614Y008430D02*
X011650Y008430D01*
X011650Y008431D02*
X011614Y008431D01*
X011614Y008432D02*
X011650Y008432D01*
X011650Y008433D02*
X011614Y008433D01*
X011614Y008434D02*
X011650Y008434D01*
X011650Y008435D02*
X011614Y008435D01*
X011614Y008436D02*
X011650Y008436D01*
X011650Y008437D02*
X011614Y008437D01*
X011614Y008438D02*
X011650Y008438D01*
X011650Y008439D02*
X011614Y008439D01*
X011614Y008440D02*
X011650Y008440D01*
X011650Y008441D02*
X011614Y008441D01*
X011614Y008442D02*
X011650Y008442D01*
X011650Y008443D02*
X011614Y008443D01*
X011614Y008444D02*
X011650Y008444D01*
X011650Y008445D02*
X011614Y008445D01*
X011614Y008446D02*
X011650Y008446D01*
X011650Y008447D02*
X011614Y008447D01*
X011614Y008448D02*
X011650Y008448D01*
X011650Y008449D02*
X011614Y008449D01*
X011614Y008450D02*
X011650Y008450D01*
X011650Y008451D02*
X011614Y008451D01*
X011614Y008452D02*
X011650Y008452D01*
X011650Y008453D02*
X011614Y008453D01*
X011614Y008454D02*
X011650Y008454D01*
X011650Y008455D02*
X011614Y008455D01*
X011614Y008456D02*
X011650Y008456D01*
X011650Y008457D02*
X011614Y008457D01*
X011614Y008458D02*
X011650Y008458D01*
X011650Y008459D02*
X011614Y008459D01*
X011614Y008460D02*
X011650Y008460D01*
X011650Y008461D02*
X011614Y008461D01*
X011614Y008462D02*
X011650Y008462D01*
X011650Y008463D02*
X011614Y008463D01*
X011771Y008463D02*
X011771Y008269D01*
X011771Y008463D02*
X011807Y008463D01*
X011807Y008269D01*
X011771Y008269D01*
X011771Y008270D02*
X011807Y008270D01*
X011807Y008271D02*
X011771Y008271D01*
X011771Y008272D02*
X011807Y008272D01*
X011807Y008273D02*
X011771Y008273D01*
X011771Y008274D02*
X011807Y008274D01*
X011807Y008275D02*
X011771Y008275D01*
X011771Y008276D02*
X011807Y008276D01*
X011807Y008277D02*
X011771Y008277D01*
X011771Y008278D02*
X011807Y008278D01*
X011807Y008279D02*
X011771Y008279D01*
X011771Y008280D02*
X011807Y008280D01*
X011807Y008281D02*
X011771Y008281D01*
X011771Y008282D02*
X011807Y008282D01*
X011807Y008283D02*
X011771Y008283D01*
X011771Y008284D02*
X011807Y008284D01*
X011807Y008285D02*
X011771Y008285D01*
X011771Y008286D02*
X011807Y008286D01*
X011807Y008287D02*
X011771Y008287D01*
X011771Y008288D02*
X011807Y008288D01*
X011807Y008289D02*
X011771Y008289D01*
X011771Y008290D02*
X011807Y008290D01*
X011807Y008291D02*
X011771Y008291D01*
X011771Y008292D02*
X011807Y008292D01*
X011807Y008293D02*
X011771Y008293D01*
X011771Y008294D02*
X011807Y008294D01*
X011807Y008295D02*
X011771Y008295D01*
X011771Y008296D02*
X011807Y008296D01*
X011807Y008297D02*
X011771Y008297D01*
X011771Y008298D02*
X011807Y008298D01*
X011807Y008299D02*
X011771Y008299D01*
X011771Y008300D02*
X011807Y008300D01*
X011807Y008301D02*
X011771Y008301D01*
X011771Y008302D02*
X011807Y008302D01*
X011807Y008303D02*
X011771Y008303D01*
X011771Y008304D02*
X011807Y008304D01*
X011807Y008305D02*
X011771Y008305D01*
X011771Y008306D02*
X011807Y008306D01*
X011807Y008307D02*
X011771Y008307D01*
X011771Y008308D02*
X011807Y008308D01*
X011807Y008309D02*
X011771Y008309D01*
X011771Y008310D02*
X011807Y008310D01*
X011807Y008311D02*
X011771Y008311D01*
X011771Y008312D02*
X011807Y008312D01*
X011807Y008313D02*
X011771Y008313D01*
X011771Y008314D02*
X011807Y008314D01*
X011807Y008315D02*
X011771Y008315D01*
X011771Y008316D02*
X011807Y008316D01*
X011807Y008317D02*
X011771Y008317D01*
X011771Y008318D02*
X011807Y008318D01*
X011807Y008319D02*
X011771Y008319D01*
X011771Y008320D02*
X011807Y008320D01*
X011807Y008321D02*
X011771Y008321D01*
X011771Y008322D02*
X011807Y008322D01*
X011807Y008323D02*
X011771Y008323D01*
X011771Y008324D02*
X011807Y008324D01*
X011807Y008325D02*
X011771Y008325D01*
X011771Y008326D02*
X011807Y008326D01*
X011807Y008327D02*
X011771Y008327D01*
X011771Y008328D02*
X011807Y008328D01*
X011807Y008329D02*
X011771Y008329D01*
X011771Y008330D02*
X011807Y008330D01*
X011807Y008331D02*
X011771Y008331D01*
X011771Y008332D02*
X011807Y008332D01*
X011807Y008333D02*
X011771Y008333D01*
X011771Y008334D02*
X011807Y008334D01*
X011807Y008335D02*
X011771Y008335D01*
X011771Y008336D02*
X011807Y008336D01*
X011807Y008337D02*
X011771Y008337D01*
X011771Y008338D02*
X011807Y008338D01*
X011807Y008339D02*
X011771Y008339D01*
X011771Y008340D02*
X011807Y008340D01*
X011807Y008341D02*
X011771Y008341D01*
X011771Y008342D02*
X011807Y008342D01*
X011807Y008343D02*
X011771Y008343D01*
X011771Y008344D02*
X011807Y008344D01*
X011807Y008345D02*
X011771Y008345D01*
X011771Y008346D02*
X011807Y008346D01*
X011807Y008347D02*
X011771Y008347D01*
X011771Y008348D02*
X011807Y008348D01*
X011807Y008349D02*
X011771Y008349D01*
X011771Y008350D02*
X011807Y008350D01*
X011807Y008351D02*
X011771Y008351D01*
X011771Y008352D02*
X011807Y008352D01*
X011807Y008353D02*
X011771Y008353D01*
X011771Y008354D02*
X011807Y008354D01*
X011807Y008355D02*
X011771Y008355D01*
X011771Y008356D02*
X011807Y008356D01*
X011807Y008357D02*
X011771Y008357D01*
X011771Y008358D02*
X011807Y008358D01*
X011807Y008359D02*
X011771Y008359D01*
X011771Y008360D02*
X011807Y008360D01*
X011807Y008361D02*
X011771Y008361D01*
X011771Y008362D02*
X011807Y008362D01*
X011807Y008363D02*
X011771Y008363D01*
X011771Y008364D02*
X011807Y008364D01*
X011807Y008365D02*
X011771Y008365D01*
X011771Y008366D02*
X011807Y008366D01*
X011807Y008367D02*
X011771Y008367D01*
X011771Y008368D02*
X011807Y008368D01*
X011807Y008369D02*
X011771Y008369D01*
X011771Y008370D02*
X011807Y008370D01*
X011807Y008371D02*
X011771Y008371D01*
X011771Y008372D02*
X011807Y008372D01*
X011807Y008373D02*
X011771Y008373D01*
X011771Y008374D02*
X011807Y008374D01*
X011807Y008375D02*
X011771Y008375D01*
X011771Y008376D02*
X011807Y008376D01*
X011807Y008377D02*
X011771Y008377D01*
X011771Y008378D02*
X011807Y008378D01*
X011807Y008379D02*
X011771Y008379D01*
X011771Y008380D02*
X011807Y008380D01*
X011807Y008381D02*
X011771Y008381D01*
X011771Y008382D02*
X011807Y008382D01*
X011807Y008383D02*
X011771Y008383D01*
X011771Y008384D02*
X011807Y008384D01*
X011807Y008385D02*
X011771Y008385D01*
X011771Y008386D02*
X011807Y008386D01*
X011807Y008387D02*
X011771Y008387D01*
X011771Y008388D02*
X011807Y008388D01*
X011807Y008389D02*
X011771Y008389D01*
X011771Y008390D02*
X011807Y008390D01*
X011807Y008391D02*
X011771Y008391D01*
X011771Y008392D02*
X011807Y008392D01*
X011807Y008393D02*
X011771Y008393D01*
X011771Y008394D02*
X011807Y008394D01*
X011807Y008395D02*
X011771Y008395D01*
X011771Y008396D02*
X011807Y008396D01*
X011807Y008397D02*
X011771Y008397D01*
X011771Y008398D02*
X011807Y008398D01*
X011807Y008399D02*
X011771Y008399D01*
X011771Y008400D02*
X011807Y008400D01*
X011807Y008401D02*
X011771Y008401D01*
X011771Y008402D02*
X011807Y008402D01*
X011807Y008403D02*
X011771Y008403D01*
X011771Y008404D02*
X011807Y008404D01*
X011807Y008405D02*
X011771Y008405D01*
X011771Y008406D02*
X011807Y008406D01*
X011807Y008407D02*
X011771Y008407D01*
X011771Y008408D02*
X011807Y008408D01*
X011807Y008409D02*
X011771Y008409D01*
X011771Y008410D02*
X011807Y008410D01*
X011807Y008411D02*
X011771Y008411D01*
X011771Y008412D02*
X011807Y008412D01*
X011807Y008413D02*
X011771Y008413D01*
X011771Y008414D02*
X011807Y008414D01*
X011807Y008415D02*
X011771Y008415D01*
X011771Y008416D02*
X011807Y008416D01*
X011807Y008417D02*
X011771Y008417D01*
X011771Y008418D02*
X011807Y008418D01*
X011807Y008419D02*
X011771Y008419D01*
X011771Y008420D02*
X011807Y008420D01*
X011807Y008421D02*
X011771Y008421D01*
X011771Y008422D02*
X011807Y008422D01*
X011807Y008423D02*
X011771Y008423D01*
X011771Y008424D02*
X011807Y008424D01*
X011807Y008425D02*
X011771Y008425D01*
X011771Y008426D02*
X011807Y008426D01*
X011807Y008427D02*
X011771Y008427D01*
X011771Y008428D02*
X011807Y008428D01*
X011807Y008429D02*
X011771Y008429D01*
X011771Y008430D02*
X011807Y008430D01*
X011807Y008431D02*
X011771Y008431D01*
X011771Y008432D02*
X011807Y008432D01*
X011807Y008433D02*
X011771Y008433D01*
X011771Y008434D02*
X011807Y008434D01*
X011807Y008435D02*
X011771Y008435D01*
X011771Y008436D02*
X011807Y008436D01*
X011807Y008437D02*
X011771Y008437D01*
X011771Y008438D02*
X011807Y008438D01*
X011807Y008439D02*
X011771Y008439D01*
X011771Y008440D02*
X011807Y008440D01*
X011807Y008441D02*
X011771Y008441D01*
X011771Y008442D02*
X011807Y008442D01*
X011807Y008443D02*
X011771Y008443D01*
X011771Y008444D02*
X011807Y008444D01*
X011807Y008445D02*
X011771Y008445D01*
X011771Y008446D02*
X011807Y008446D01*
X011807Y008447D02*
X011771Y008447D01*
X011771Y008448D02*
X011807Y008448D01*
X011807Y008449D02*
X011771Y008449D01*
X011771Y008450D02*
X011807Y008450D01*
X011807Y008451D02*
X011771Y008451D01*
X011771Y008452D02*
X011807Y008452D01*
X011807Y008453D02*
X011771Y008453D01*
X011771Y008454D02*
X011807Y008454D01*
X011807Y008455D02*
X011771Y008455D01*
X011771Y008456D02*
X011807Y008456D01*
X011807Y008457D02*
X011771Y008457D01*
X011771Y008458D02*
X011807Y008458D01*
X011807Y008459D02*
X011771Y008459D01*
X011771Y008460D02*
X011807Y008460D01*
X011807Y008461D02*
X011771Y008461D01*
X011771Y008462D02*
X011807Y008462D01*
X011807Y008463D02*
X011771Y008463D01*
X011929Y008463D02*
X011929Y008269D01*
X011929Y008463D02*
X011965Y008463D01*
X011965Y008269D01*
X011929Y008269D01*
X011929Y008270D02*
X011965Y008270D01*
X011965Y008271D02*
X011929Y008271D01*
X011929Y008272D02*
X011965Y008272D01*
X011965Y008273D02*
X011929Y008273D01*
X011929Y008274D02*
X011965Y008274D01*
X011965Y008275D02*
X011929Y008275D01*
X011929Y008276D02*
X011965Y008276D01*
X011965Y008277D02*
X011929Y008277D01*
X011929Y008278D02*
X011965Y008278D01*
X011965Y008279D02*
X011929Y008279D01*
X011929Y008280D02*
X011965Y008280D01*
X011965Y008281D02*
X011929Y008281D01*
X011929Y008282D02*
X011965Y008282D01*
X011965Y008283D02*
X011929Y008283D01*
X011929Y008284D02*
X011965Y008284D01*
X011965Y008285D02*
X011929Y008285D01*
X011929Y008286D02*
X011965Y008286D01*
X011965Y008287D02*
X011929Y008287D01*
X011929Y008288D02*
X011965Y008288D01*
X011965Y008289D02*
X011929Y008289D01*
X011929Y008290D02*
X011965Y008290D01*
X011965Y008291D02*
X011929Y008291D01*
X011929Y008292D02*
X011965Y008292D01*
X011965Y008293D02*
X011929Y008293D01*
X011929Y008294D02*
X011965Y008294D01*
X011965Y008295D02*
X011929Y008295D01*
X011929Y008296D02*
X011965Y008296D01*
X011965Y008297D02*
X011929Y008297D01*
X011929Y008298D02*
X011965Y008298D01*
X011965Y008299D02*
X011929Y008299D01*
X011929Y008300D02*
X011965Y008300D01*
X011965Y008301D02*
X011929Y008301D01*
X011929Y008302D02*
X011965Y008302D01*
X011965Y008303D02*
X011929Y008303D01*
X011929Y008304D02*
X011965Y008304D01*
X011965Y008305D02*
X011929Y008305D01*
X011929Y008306D02*
X011965Y008306D01*
X011965Y008307D02*
X011929Y008307D01*
X011929Y008308D02*
X011965Y008308D01*
X011965Y008309D02*
X011929Y008309D01*
X011929Y008310D02*
X011965Y008310D01*
X011965Y008311D02*
X011929Y008311D01*
X011929Y008312D02*
X011965Y008312D01*
X011965Y008313D02*
X011929Y008313D01*
X011929Y008314D02*
X011965Y008314D01*
X011965Y008315D02*
X011929Y008315D01*
X011929Y008316D02*
X011965Y008316D01*
X011965Y008317D02*
X011929Y008317D01*
X011929Y008318D02*
X011965Y008318D01*
X011965Y008319D02*
X011929Y008319D01*
X011929Y008320D02*
X011965Y008320D01*
X011965Y008321D02*
X011929Y008321D01*
X011929Y008322D02*
X011965Y008322D01*
X011965Y008323D02*
X011929Y008323D01*
X011929Y008324D02*
X011965Y008324D01*
X011965Y008325D02*
X011929Y008325D01*
X011929Y008326D02*
X011965Y008326D01*
X011965Y008327D02*
X011929Y008327D01*
X011929Y008328D02*
X011965Y008328D01*
X011965Y008329D02*
X011929Y008329D01*
X011929Y008330D02*
X011965Y008330D01*
X011965Y008331D02*
X011929Y008331D01*
X011929Y008332D02*
X011965Y008332D01*
X011965Y008333D02*
X011929Y008333D01*
X011929Y008334D02*
X011965Y008334D01*
X011965Y008335D02*
X011929Y008335D01*
X011929Y008336D02*
X011965Y008336D01*
X011965Y008337D02*
X011929Y008337D01*
X011929Y008338D02*
X011965Y008338D01*
X011965Y008339D02*
X011929Y008339D01*
X011929Y008340D02*
X011965Y008340D01*
X011965Y008341D02*
X011929Y008341D01*
X011929Y008342D02*
X011965Y008342D01*
X011965Y008343D02*
X011929Y008343D01*
X011929Y008344D02*
X011965Y008344D01*
X011965Y008345D02*
X011929Y008345D01*
X011929Y008346D02*
X011965Y008346D01*
X011965Y008347D02*
X011929Y008347D01*
X011929Y008348D02*
X011965Y008348D01*
X011965Y008349D02*
X011929Y008349D01*
X011929Y008350D02*
X011965Y008350D01*
X011965Y008351D02*
X011929Y008351D01*
X011929Y008352D02*
X011965Y008352D01*
X011965Y008353D02*
X011929Y008353D01*
X011929Y008354D02*
X011965Y008354D01*
X011965Y008355D02*
X011929Y008355D01*
X011929Y008356D02*
X011965Y008356D01*
X011965Y008357D02*
X011929Y008357D01*
X011929Y008358D02*
X011965Y008358D01*
X011965Y008359D02*
X011929Y008359D01*
X011929Y008360D02*
X011965Y008360D01*
X011965Y008361D02*
X011929Y008361D01*
X011929Y008362D02*
X011965Y008362D01*
X011965Y008363D02*
X011929Y008363D01*
X011929Y008364D02*
X011965Y008364D01*
X011965Y008365D02*
X011929Y008365D01*
X011929Y008366D02*
X011965Y008366D01*
X011965Y008367D02*
X011929Y008367D01*
X011929Y008368D02*
X011965Y008368D01*
X011965Y008369D02*
X011929Y008369D01*
X011929Y008370D02*
X011965Y008370D01*
X011965Y008371D02*
X011929Y008371D01*
X011929Y008372D02*
X011965Y008372D01*
X011965Y008373D02*
X011929Y008373D01*
X011929Y008374D02*
X011965Y008374D01*
X011965Y008375D02*
X011929Y008375D01*
X011929Y008376D02*
X011965Y008376D01*
X011965Y008377D02*
X011929Y008377D01*
X011929Y008378D02*
X011965Y008378D01*
X011965Y008379D02*
X011929Y008379D01*
X011929Y008380D02*
X011965Y008380D01*
X011965Y008381D02*
X011929Y008381D01*
X011929Y008382D02*
X011965Y008382D01*
X011965Y008383D02*
X011929Y008383D01*
X011929Y008384D02*
X011965Y008384D01*
X011965Y008385D02*
X011929Y008385D01*
X011929Y008386D02*
X011965Y008386D01*
X011965Y008387D02*
X011929Y008387D01*
X011929Y008388D02*
X011965Y008388D01*
X011965Y008389D02*
X011929Y008389D01*
X011929Y008390D02*
X011965Y008390D01*
X011965Y008391D02*
X011929Y008391D01*
X011929Y008392D02*
X011965Y008392D01*
X011965Y008393D02*
X011929Y008393D01*
X011929Y008394D02*
X011965Y008394D01*
X011965Y008395D02*
X011929Y008395D01*
X011929Y008396D02*
X011965Y008396D01*
X011965Y008397D02*
X011929Y008397D01*
X011929Y008398D02*
X011965Y008398D01*
X011965Y008399D02*
X011929Y008399D01*
X011929Y008400D02*
X011965Y008400D01*
X011965Y008401D02*
X011929Y008401D01*
X011929Y008402D02*
X011965Y008402D01*
X011965Y008403D02*
X011929Y008403D01*
X011929Y008404D02*
X011965Y008404D01*
X011965Y008405D02*
X011929Y008405D01*
X011929Y008406D02*
X011965Y008406D01*
X011965Y008407D02*
X011929Y008407D01*
X011929Y008408D02*
X011965Y008408D01*
X011965Y008409D02*
X011929Y008409D01*
X011929Y008410D02*
X011965Y008410D01*
X011965Y008411D02*
X011929Y008411D01*
X011929Y008412D02*
X011965Y008412D01*
X011965Y008413D02*
X011929Y008413D01*
X011929Y008414D02*
X011965Y008414D01*
X011965Y008415D02*
X011929Y008415D01*
X011929Y008416D02*
X011965Y008416D01*
X011965Y008417D02*
X011929Y008417D01*
X011929Y008418D02*
X011965Y008418D01*
X011965Y008419D02*
X011929Y008419D01*
X011929Y008420D02*
X011965Y008420D01*
X011965Y008421D02*
X011929Y008421D01*
X011929Y008422D02*
X011965Y008422D01*
X011965Y008423D02*
X011929Y008423D01*
X011929Y008424D02*
X011965Y008424D01*
X011965Y008425D02*
X011929Y008425D01*
X011929Y008426D02*
X011965Y008426D01*
X011965Y008427D02*
X011929Y008427D01*
X011929Y008428D02*
X011965Y008428D01*
X011965Y008429D02*
X011929Y008429D01*
X011929Y008430D02*
X011965Y008430D01*
X011965Y008431D02*
X011929Y008431D01*
X011929Y008432D02*
X011965Y008432D01*
X011965Y008433D02*
X011929Y008433D01*
X011929Y008434D02*
X011965Y008434D01*
X011965Y008435D02*
X011929Y008435D01*
X011929Y008436D02*
X011965Y008436D01*
X011965Y008437D02*
X011929Y008437D01*
X011929Y008438D02*
X011965Y008438D01*
X011965Y008439D02*
X011929Y008439D01*
X011929Y008440D02*
X011965Y008440D01*
X011965Y008441D02*
X011929Y008441D01*
X011929Y008442D02*
X011965Y008442D01*
X011965Y008443D02*
X011929Y008443D01*
X011929Y008444D02*
X011965Y008444D01*
X011965Y008445D02*
X011929Y008445D01*
X011929Y008446D02*
X011965Y008446D01*
X011965Y008447D02*
X011929Y008447D01*
X011929Y008448D02*
X011965Y008448D01*
X011965Y008449D02*
X011929Y008449D01*
X011929Y008450D02*
X011965Y008450D01*
X011965Y008451D02*
X011929Y008451D01*
X011929Y008452D02*
X011965Y008452D01*
X011965Y008453D02*
X011929Y008453D01*
X011929Y008454D02*
X011965Y008454D01*
X011965Y008455D02*
X011929Y008455D01*
X011929Y008456D02*
X011965Y008456D01*
X011965Y008457D02*
X011929Y008457D01*
X011929Y008458D02*
X011965Y008458D01*
X011965Y008459D02*
X011929Y008459D01*
X011929Y008460D02*
X011965Y008460D01*
X011965Y008461D02*
X011929Y008461D01*
X011929Y008462D02*
X011965Y008462D01*
X011965Y008463D02*
X011929Y008463D01*
X012086Y008463D02*
X012086Y008269D01*
X012086Y008463D02*
X012122Y008463D01*
X012122Y008269D01*
X012086Y008269D01*
X012086Y008270D02*
X012122Y008270D01*
X012122Y008271D02*
X012086Y008271D01*
X012086Y008272D02*
X012122Y008272D01*
X012122Y008273D02*
X012086Y008273D01*
X012086Y008274D02*
X012122Y008274D01*
X012122Y008275D02*
X012086Y008275D01*
X012086Y008276D02*
X012122Y008276D01*
X012122Y008277D02*
X012086Y008277D01*
X012086Y008278D02*
X012122Y008278D01*
X012122Y008279D02*
X012086Y008279D01*
X012086Y008280D02*
X012122Y008280D01*
X012122Y008281D02*
X012086Y008281D01*
X012086Y008282D02*
X012122Y008282D01*
X012122Y008283D02*
X012086Y008283D01*
X012086Y008284D02*
X012122Y008284D01*
X012122Y008285D02*
X012086Y008285D01*
X012086Y008286D02*
X012122Y008286D01*
X012122Y008287D02*
X012086Y008287D01*
X012086Y008288D02*
X012122Y008288D01*
X012122Y008289D02*
X012086Y008289D01*
X012086Y008290D02*
X012122Y008290D01*
X012122Y008291D02*
X012086Y008291D01*
X012086Y008292D02*
X012122Y008292D01*
X012122Y008293D02*
X012086Y008293D01*
X012086Y008294D02*
X012122Y008294D01*
X012122Y008295D02*
X012086Y008295D01*
X012086Y008296D02*
X012122Y008296D01*
X012122Y008297D02*
X012086Y008297D01*
X012086Y008298D02*
X012122Y008298D01*
X012122Y008299D02*
X012086Y008299D01*
X012086Y008300D02*
X012122Y008300D01*
X012122Y008301D02*
X012086Y008301D01*
X012086Y008302D02*
X012122Y008302D01*
X012122Y008303D02*
X012086Y008303D01*
X012086Y008304D02*
X012122Y008304D01*
X012122Y008305D02*
X012086Y008305D01*
X012086Y008306D02*
X012122Y008306D01*
X012122Y008307D02*
X012086Y008307D01*
X012086Y008308D02*
X012122Y008308D01*
X012122Y008309D02*
X012086Y008309D01*
X012086Y008310D02*
X012122Y008310D01*
X012122Y008311D02*
X012086Y008311D01*
X012086Y008312D02*
X012122Y008312D01*
X012122Y008313D02*
X012086Y008313D01*
X012086Y008314D02*
X012122Y008314D01*
X012122Y008315D02*
X012086Y008315D01*
X012086Y008316D02*
X012122Y008316D01*
X012122Y008317D02*
X012086Y008317D01*
X012086Y008318D02*
X012122Y008318D01*
X012122Y008319D02*
X012086Y008319D01*
X012086Y008320D02*
X012122Y008320D01*
X012122Y008321D02*
X012086Y008321D01*
X012086Y008322D02*
X012122Y008322D01*
X012122Y008323D02*
X012086Y008323D01*
X012086Y008324D02*
X012122Y008324D01*
X012122Y008325D02*
X012086Y008325D01*
X012086Y008326D02*
X012122Y008326D01*
X012122Y008327D02*
X012086Y008327D01*
X012086Y008328D02*
X012122Y008328D01*
X012122Y008329D02*
X012086Y008329D01*
X012086Y008330D02*
X012122Y008330D01*
X012122Y008331D02*
X012086Y008331D01*
X012086Y008332D02*
X012122Y008332D01*
X012122Y008333D02*
X012086Y008333D01*
X012086Y008334D02*
X012122Y008334D01*
X012122Y008335D02*
X012086Y008335D01*
X012086Y008336D02*
X012122Y008336D01*
X012122Y008337D02*
X012086Y008337D01*
X012086Y008338D02*
X012122Y008338D01*
X012122Y008339D02*
X012086Y008339D01*
X012086Y008340D02*
X012122Y008340D01*
X012122Y008341D02*
X012086Y008341D01*
X012086Y008342D02*
X012122Y008342D01*
X012122Y008343D02*
X012086Y008343D01*
X012086Y008344D02*
X012122Y008344D01*
X012122Y008345D02*
X012086Y008345D01*
X012086Y008346D02*
X012122Y008346D01*
X012122Y008347D02*
X012086Y008347D01*
X012086Y008348D02*
X012122Y008348D01*
X012122Y008349D02*
X012086Y008349D01*
X012086Y008350D02*
X012122Y008350D01*
X012122Y008351D02*
X012086Y008351D01*
X012086Y008352D02*
X012122Y008352D01*
X012122Y008353D02*
X012086Y008353D01*
X012086Y008354D02*
X012122Y008354D01*
X012122Y008355D02*
X012086Y008355D01*
X012086Y008356D02*
X012122Y008356D01*
X012122Y008357D02*
X012086Y008357D01*
X012086Y008358D02*
X012122Y008358D01*
X012122Y008359D02*
X012086Y008359D01*
X012086Y008360D02*
X012122Y008360D01*
X012122Y008361D02*
X012086Y008361D01*
X012086Y008362D02*
X012122Y008362D01*
X012122Y008363D02*
X012086Y008363D01*
X012086Y008364D02*
X012122Y008364D01*
X012122Y008365D02*
X012086Y008365D01*
X012086Y008366D02*
X012122Y008366D01*
X012122Y008367D02*
X012086Y008367D01*
X012086Y008368D02*
X012122Y008368D01*
X012122Y008369D02*
X012086Y008369D01*
X012086Y008370D02*
X012122Y008370D01*
X012122Y008371D02*
X012086Y008371D01*
X012086Y008372D02*
X012122Y008372D01*
X012122Y008373D02*
X012086Y008373D01*
X012086Y008374D02*
X012122Y008374D01*
X012122Y008375D02*
X012086Y008375D01*
X012086Y008376D02*
X012122Y008376D01*
X012122Y008377D02*
X012086Y008377D01*
X012086Y008378D02*
X012122Y008378D01*
X012122Y008379D02*
X012086Y008379D01*
X012086Y008380D02*
X012122Y008380D01*
X012122Y008381D02*
X012086Y008381D01*
X012086Y008382D02*
X012122Y008382D01*
X012122Y008383D02*
X012086Y008383D01*
X012086Y008384D02*
X012122Y008384D01*
X012122Y008385D02*
X012086Y008385D01*
X012086Y008386D02*
X012122Y008386D01*
X012122Y008387D02*
X012086Y008387D01*
X012086Y008388D02*
X012122Y008388D01*
X012122Y008389D02*
X012086Y008389D01*
X012086Y008390D02*
X012122Y008390D01*
X012122Y008391D02*
X012086Y008391D01*
X012086Y008392D02*
X012122Y008392D01*
X012122Y008393D02*
X012086Y008393D01*
X012086Y008394D02*
X012122Y008394D01*
X012122Y008395D02*
X012086Y008395D01*
X012086Y008396D02*
X012122Y008396D01*
X012122Y008397D02*
X012086Y008397D01*
X012086Y008398D02*
X012122Y008398D01*
X012122Y008399D02*
X012086Y008399D01*
X012086Y008400D02*
X012122Y008400D01*
X012122Y008401D02*
X012086Y008401D01*
X012086Y008402D02*
X012122Y008402D01*
X012122Y008403D02*
X012086Y008403D01*
X012086Y008404D02*
X012122Y008404D01*
X012122Y008405D02*
X012086Y008405D01*
X012086Y008406D02*
X012122Y008406D01*
X012122Y008407D02*
X012086Y008407D01*
X012086Y008408D02*
X012122Y008408D01*
X012122Y008409D02*
X012086Y008409D01*
X012086Y008410D02*
X012122Y008410D01*
X012122Y008411D02*
X012086Y008411D01*
X012086Y008412D02*
X012122Y008412D01*
X012122Y008413D02*
X012086Y008413D01*
X012086Y008414D02*
X012122Y008414D01*
X012122Y008415D02*
X012086Y008415D01*
X012086Y008416D02*
X012122Y008416D01*
X012122Y008417D02*
X012086Y008417D01*
X012086Y008418D02*
X012122Y008418D01*
X012122Y008419D02*
X012086Y008419D01*
X012086Y008420D02*
X012122Y008420D01*
X012122Y008421D02*
X012086Y008421D01*
X012086Y008422D02*
X012122Y008422D01*
X012122Y008423D02*
X012086Y008423D01*
X012086Y008424D02*
X012122Y008424D01*
X012122Y008425D02*
X012086Y008425D01*
X012086Y008426D02*
X012122Y008426D01*
X012122Y008427D02*
X012086Y008427D01*
X012086Y008428D02*
X012122Y008428D01*
X012122Y008429D02*
X012086Y008429D01*
X012086Y008430D02*
X012122Y008430D01*
X012122Y008431D02*
X012086Y008431D01*
X012086Y008432D02*
X012122Y008432D01*
X012122Y008433D02*
X012086Y008433D01*
X012086Y008434D02*
X012122Y008434D01*
X012122Y008435D02*
X012086Y008435D01*
X012086Y008436D02*
X012122Y008436D01*
X012122Y008437D02*
X012086Y008437D01*
X012086Y008438D02*
X012122Y008438D01*
X012122Y008439D02*
X012086Y008439D01*
X012086Y008440D02*
X012122Y008440D01*
X012122Y008441D02*
X012086Y008441D01*
X012086Y008442D02*
X012122Y008442D01*
X012122Y008443D02*
X012086Y008443D01*
X012086Y008444D02*
X012122Y008444D01*
X012122Y008445D02*
X012086Y008445D01*
X012086Y008446D02*
X012122Y008446D01*
X012122Y008447D02*
X012086Y008447D01*
X012086Y008448D02*
X012122Y008448D01*
X012122Y008449D02*
X012086Y008449D01*
X012086Y008450D02*
X012122Y008450D01*
X012122Y008451D02*
X012086Y008451D01*
X012086Y008452D02*
X012122Y008452D01*
X012122Y008453D02*
X012086Y008453D01*
X012086Y008454D02*
X012122Y008454D01*
X012122Y008455D02*
X012086Y008455D01*
X012086Y008456D02*
X012122Y008456D01*
X012122Y008457D02*
X012086Y008457D01*
X012086Y008458D02*
X012122Y008458D01*
X012122Y008459D02*
X012086Y008459D01*
X012086Y008460D02*
X012122Y008460D01*
X012122Y008461D02*
X012086Y008461D01*
X012086Y008462D02*
X012122Y008462D01*
X012122Y008463D02*
X012086Y008463D01*
X012244Y008463D02*
X012244Y008269D01*
X012244Y008463D02*
X012280Y008463D01*
X012280Y008269D01*
X012244Y008269D01*
X012244Y008270D02*
X012280Y008270D01*
X012280Y008271D02*
X012244Y008271D01*
X012244Y008272D02*
X012280Y008272D01*
X012280Y008273D02*
X012244Y008273D01*
X012244Y008274D02*
X012280Y008274D01*
X012280Y008275D02*
X012244Y008275D01*
X012244Y008276D02*
X012280Y008276D01*
X012280Y008277D02*
X012244Y008277D01*
X012244Y008278D02*
X012280Y008278D01*
X012280Y008279D02*
X012244Y008279D01*
X012244Y008280D02*
X012280Y008280D01*
X012280Y008281D02*
X012244Y008281D01*
X012244Y008282D02*
X012280Y008282D01*
X012280Y008283D02*
X012244Y008283D01*
X012244Y008284D02*
X012280Y008284D01*
X012280Y008285D02*
X012244Y008285D01*
X012244Y008286D02*
X012280Y008286D01*
X012280Y008287D02*
X012244Y008287D01*
X012244Y008288D02*
X012280Y008288D01*
X012280Y008289D02*
X012244Y008289D01*
X012244Y008290D02*
X012280Y008290D01*
X012280Y008291D02*
X012244Y008291D01*
X012244Y008292D02*
X012280Y008292D01*
X012280Y008293D02*
X012244Y008293D01*
X012244Y008294D02*
X012280Y008294D01*
X012280Y008295D02*
X012244Y008295D01*
X012244Y008296D02*
X012280Y008296D01*
X012280Y008297D02*
X012244Y008297D01*
X012244Y008298D02*
X012280Y008298D01*
X012280Y008299D02*
X012244Y008299D01*
X012244Y008300D02*
X012280Y008300D01*
X012280Y008301D02*
X012244Y008301D01*
X012244Y008302D02*
X012280Y008302D01*
X012280Y008303D02*
X012244Y008303D01*
X012244Y008304D02*
X012280Y008304D01*
X012280Y008305D02*
X012244Y008305D01*
X012244Y008306D02*
X012280Y008306D01*
X012280Y008307D02*
X012244Y008307D01*
X012244Y008308D02*
X012280Y008308D01*
X012280Y008309D02*
X012244Y008309D01*
X012244Y008310D02*
X012280Y008310D01*
X012280Y008311D02*
X012244Y008311D01*
X012244Y008312D02*
X012280Y008312D01*
X012280Y008313D02*
X012244Y008313D01*
X012244Y008314D02*
X012280Y008314D01*
X012280Y008315D02*
X012244Y008315D01*
X012244Y008316D02*
X012280Y008316D01*
X012280Y008317D02*
X012244Y008317D01*
X012244Y008318D02*
X012280Y008318D01*
X012280Y008319D02*
X012244Y008319D01*
X012244Y008320D02*
X012280Y008320D01*
X012280Y008321D02*
X012244Y008321D01*
X012244Y008322D02*
X012280Y008322D01*
X012280Y008323D02*
X012244Y008323D01*
X012244Y008324D02*
X012280Y008324D01*
X012280Y008325D02*
X012244Y008325D01*
X012244Y008326D02*
X012280Y008326D01*
X012280Y008327D02*
X012244Y008327D01*
X012244Y008328D02*
X012280Y008328D01*
X012280Y008329D02*
X012244Y008329D01*
X012244Y008330D02*
X012280Y008330D01*
X012280Y008331D02*
X012244Y008331D01*
X012244Y008332D02*
X012280Y008332D01*
X012280Y008333D02*
X012244Y008333D01*
X012244Y008334D02*
X012280Y008334D01*
X012280Y008335D02*
X012244Y008335D01*
X012244Y008336D02*
X012280Y008336D01*
X012280Y008337D02*
X012244Y008337D01*
X012244Y008338D02*
X012280Y008338D01*
X012280Y008339D02*
X012244Y008339D01*
X012244Y008340D02*
X012280Y008340D01*
X012280Y008341D02*
X012244Y008341D01*
X012244Y008342D02*
X012280Y008342D01*
X012280Y008343D02*
X012244Y008343D01*
X012244Y008344D02*
X012280Y008344D01*
X012280Y008345D02*
X012244Y008345D01*
X012244Y008346D02*
X012280Y008346D01*
X012280Y008347D02*
X012244Y008347D01*
X012244Y008348D02*
X012280Y008348D01*
X012280Y008349D02*
X012244Y008349D01*
X012244Y008350D02*
X012280Y008350D01*
X012280Y008351D02*
X012244Y008351D01*
X012244Y008352D02*
X012280Y008352D01*
X012280Y008353D02*
X012244Y008353D01*
X012244Y008354D02*
X012280Y008354D01*
X012280Y008355D02*
X012244Y008355D01*
X012244Y008356D02*
X012280Y008356D01*
X012280Y008357D02*
X012244Y008357D01*
X012244Y008358D02*
X012280Y008358D01*
X012280Y008359D02*
X012244Y008359D01*
X012244Y008360D02*
X012280Y008360D01*
X012280Y008361D02*
X012244Y008361D01*
X012244Y008362D02*
X012280Y008362D01*
X012280Y008363D02*
X012244Y008363D01*
X012244Y008364D02*
X012280Y008364D01*
X012280Y008365D02*
X012244Y008365D01*
X012244Y008366D02*
X012280Y008366D01*
X012280Y008367D02*
X012244Y008367D01*
X012244Y008368D02*
X012280Y008368D01*
X012280Y008369D02*
X012244Y008369D01*
X012244Y008370D02*
X012280Y008370D01*
X012280Y008371D02*
X012244Y008371D01*
X012244Y008372D02*
X012280Y008372D01*
X012280Y008373D02*
X012244Y008373D01*
X012244Y008374D02*
X012280Y008374D01*
X012280Y008375D02*
X012244Y008375D01*
X012244Y008376D02*
X012280Y008376D01*
X012280Y008377D02*
X012244Y008377D01*
X012244Y008378D02*
X012280Y008378D01*
X012280Y008379D02*
X012244Y008379D01*
X012244Y008380D02*
X012280Y008380D01*
X012280Y008381D02*
X012244Y008381D01*
X012244Y008382D02*
X012280Y008382D01*
X012280Y008383D02*
X012244Y008383D01*
X012244Y008384D02*
X012280Y008384D01*
X012280Y008385D02*
X012244Y008385D01*
X012244Y008386D02*
X012280Y008386D01*
X012280Y008387D02*
X012244Y008387D01*
X012244Y008388D02*
X012280Y008388D01*
X012280Y008389D02*
X012244Y008389D01*
X012244Y008390D02*
X012280Y008390D01*
X012280Y008391D02*
X012244Y008391D01*
X012244Y008392D02*
X012280Y008392D01*
X012280Y008393D02*
X012244Y008393D01*
X012244Y008394D02*
X012280Y008394D01*
X012280Y008395D02*
X012244Y008395D01*
X012244Y008396D02*
X012280Y008396D01*
X012280Y008397D02*
X012244Y008397D01*
X012244Y008398D02*
X012280Y008398D01*
X012280Y008399D02*
X012244Y008399D01*
X012244Y008400D02*
X012280Y008400D01*
X012280Y008401D02*
X012244Y008401D01*
X012244Y008402D02*
X012280Y008402D01*
X012280Y008403D02*
X012244Y008403D01*
X012244Y008404D02*
X012280Y008404D01*
X012280Y008405D02*
X012244Y008405D01*
X012244Y008406D02*
X012280Y008406D01*
X012280Y008407D02*
X012244Y008407D01*
X012244Y008408D02*
X012280Y008408D01*
X012280Y008409D02*
X012244Y008409D01*
X012244Y008410D02*
X012280Y008410D01*
X012280Y008411D02*
X012244Y008411D01*
X012244Y008412D02*
X012280Y008412D01*
X012280Y008413D02*
X012244Y008413D01*
X012244Y008414D02*
X012280Y008414D01*
X012280Y008415D02*
X012244Y008415D01*
X012244Y008416D02*
X012280Y008416D01*
X012280Y008417D02*
X012244Y008417D01*
X012244Y008418D02*
X012280Y008418D01*
X012280Y008419D02*
X012244Y008419D01*
X012244Y008420D02*
X012280Y008420D01*
X012280Y008421D02*
X012244Y008421D01*
X012244Y008422D02*
X012280Y008422D01*
X012280Y008423D02*
X012244Y008423D01*
X012244Y008424D02*
X012280Y008424D01*
X012280Y008425D02*
X012244Y008425D01*
X012244Y008426D02*
X012280Y008426D01*
X012280Y008427D02*
X012244Y008427D01*
X012244Y008428D02*
X012280Y008428D01*
X012280Y008429D02*
X012244Y008429D01*
X012244Y008430D02*
X012280Y008430D01*
X012280Y008431D02*
X012244Y008431D01*
X012244Y008432D02*
X012280Y008432D01*
X012280Y008433D02*
X012244Y008433D01*
X012244Y008434D02*
X012280Y008434D01*
X012280Y008435D02*
X012244Y008435D01*
X012244Y008436D02*
X012280Y008436D01*
X012280Y008437D02*
X012244Y008437D01*
X012244Y008438D02*
X012280Y008438D01*
X012280Y008439D02*
X012244Y008439D01*
X012244Y008440D02*
X012280Y008440D01*
X012280Y008441D02*
X012244Y008441D01*
X012244Y008442D02*
X012280Y008442D01*
X012280Y008443D02*
X012244Y008443D01*
X012244Y008444D02*
X012280Y008444D01*
X012280Y008445D02*
X012244Y008445D01*
X012244Y008446D02*
X012280Y008446D01*
X012280Y008447D02*
X012244Y008447D01*
X012244Y008448D02*
X012280Y008448D01*
X012280Y008449D02*
X012244Y008449D01*
X012244Y008450D02*
X012280Y008450D01*
X012280Y008451D02*
X012244Y008451D01*
X012244Y008452D02*
X012280Y008452D01*
X012280Y008453D02*
X012244Y008453D01*
X012244Y008454D02*
X012280Y008454D01*
X012280Y008455D02*
X012244Y008455D01*
X012244Y008456D02*
X012280Y008456D01*
X012280Y008457D02*
X012244Y008457D01*
X012244Y008458D02*
X012280Y008458D01*
X012280Y008459D02*
X012244Y008459D01*
X012244Y008460D02*
X012280Y008460D01*
X012280Y008461D02*
X012244Y008461D01*
X012244Y008462D02*
X012280Y008462D01*
X012280Y008463D02*
X012244Y008463D01*
X012401Y008463D02*
X012401Y008269D01*
X012401Y008463D02*
X012437Y008463D01*
X012437Y008269D01*
X012401Y008269D01*
X012401Y008270D02*
X012437Y008270D01*
X012437Y008271D02*
X012401Y008271D01*
X012401Y008272D02*
X012437Y008272D01*
X012437Y008273D02*
X012401Y008273D01*
X012401Y008274D02*
X012437Y008274D01*
X012437Y008275D02*
X012401Y008275D01*
X012401Y008276D02*
X012437Y008276D01*
X012437Y008277D02*
X012401Y008277D01*
X012401Y008278D02*
X012437Y008278D01*
X012437Y008279D02*
X012401Y008279D01*
X012401Y008280D02*
X012437Y008280D01*
X012437Y008281D02*
X012401Y008281D01*
X012401Y008282D02*
X012437Y008282D01*
X012437Y008283D02*
X012401Y008283D01*
X012401Y008284D02*
X012437Y008284D01*
X012437Y008285D02*
X012401Y008285D01*
X012401Y008286D02*
X012437Y008286D01*
X012437Y008287D02*
X012401Y008287D01*
X012401Y008288D02*
X012437Y008288D01*
X012437Y008289D02*
X012401Y008289D01*
X012401Y008290D02*
X012437Y008290D01*
X012437Y008291D02*
X012401Y008291D01*
X012401Y008292D02*
X012437Y008292D01*
X012437Y008293D02*
X012401Y008293D01*
X012401Y008294D02*
X012437Y008294D01*
X012437Y008295D02*
X012401Y008295D01*
X012401Y008296D02*
X012437Y008296D01*
X012437Y008297D02*
X012401Y008297D01*
X012401Y008298D02*
X012437Y008298D01*
X012437Y008299D02*
X012401Y008299D01*
X012401Y008300D02*
X012437Y008300D01*
X012437Y008301D02*
X012401Y008301D01*
X012401Y008302D02*
X012437Y008302D01*
X012437Y008303D02*
X012401Y008303D01*
X012401Y008304D02*
X012437Y008304D01*
X012437Y008305D02*
X012401Y008305D01*
X012401Y008306D02*
X012437Y008306D01*
X012437Y008307D02*
X012401Y008307D01*
X012401Y008308D02*
X012437Y008308D01*
X012437Y008309D02*
X012401Y008309D01*
X012401Y008310D02*
X012437Y008310D01*
X012437Y008311D02*
X012401Y008311D01*
X012401Y008312D02*
X012437Y008312D01*
X012437Y008313D02*
X012401Y008313D01*
X012401Y008314D02*
X012437Y008314D01*
X012437Y008315D02*
X012401Y008315D01*
X012401Y008316D02*
X012437Y008316D01*
X012437Y008317D02*
X012401Y008317D01*
X012401Y008318D02*
X012437Y008318D01*
X012437Y008319D02*
X012401Y008319D01*
X012401Y008320D02*
X012437Y008320D01*
X012437Y008321D02*
X012401Y008321D01*
X012401Y008322D02*
X012437Y008322D01*
X012437Y008323D02*
X012401Y008323D01*
X012401Y008324D02*
X012437Y008324D01*
X012437Y008325D02*
X012401Y008325D01*
X012401Y008326D02*
X012437Y008326D01*
X012437Y008327D02*
X012401Y008327D01*
X012401Y008328D02*
X012437Y008328D01*
X012437Y008329D02*
X012401Y008329D01*
X012401Y008330D02*
X012437Y008330D01*
X012437Y008331D02*
X012401Y008331D01*
X012401Y008332D02*
X012437Y008332D01*
X012437Y008333D02*
X012401Y008333D01*
X012401Y008334D02*
X012437Y008334D01*
X012437Y008335D02*
X012401Y008335D01*
X012401Y008336D02*
X012437Y008336D01*
X012437Y008337D02*
X012401Y008337D01*
X012401Y008338D02*
X012437Y008338D01*
X012437Y008339D02*
X012401Y008339D01*
X012401Y008340D02*
X012437Y008340D01*
X012437Y008341D02*
X012401Y008341D01*
X012401Y008342D02*
X012437Y008342D01*
X012437Y008343D02*
X012401Y008343D01*
X012401Y008344D02*
X012437Y008344D01*
X012437Y008345D02*
X012401Y008345D01*
X012401Y008346D02*
X012437Y008346D01*
X012437Y008347D02*
X012401Y008347D01*
X012401Y008348D02*
X012437Y008348D01*
X012437Y008349D02*
X012401Y008349D01*
X012401Y008350D02*
X012437Y008350D01*
X012437Y008351D02*
X012401Y008351D01*
X012401Y008352D02*
X012437Y008352D01*
X012437Y008353D02*
X012401Y008353D01*
X012401Y008354D02*
X012437Y008354D01*
X012437Y008355D02*
X012401Y008355D01*
X012401Y008356D02*
X012437Y008356D01*
X012437Y008357D02*
X012401Y008357D01*
X012401Y008358D02*
X012437Y008358D01*
X012437Y008359D02*
X012401Y008359D01*
X012401Y008360D02*
X012437Y008360D01*
X012437Y008361D02*
X012401Y008361D01*
X012401Y008362D02*
X012437Y008362D01*
X012437Y008363D02*
X012401Y008363D01*
X012401Y008364D02*
X012437Y008364D01*
X012437Y008365D02*
X012401Y008365D01*
X012401Y008366D02*
X012437Y008366D01*
X012437Y008367D02*
X012401Y008367D01*
X012401Y008368D02*
X012437Y008368D01*
X012437Y008369D02*
X012401Y008369D01*
X012401Y008370D02*
X012437Y008370D01*
X012437Y008371D02*
X012401Y008371D01*
X012401Y008372D02*
X012437Y008372D01*
X012437Y008373D02*
X012401Y008373D01*
X012401Y008374D02*
X012437Y008374D01*
X012437Y008375D02*
X012401Y008375D01*
X012401Y008376D02*
X012437Y008376D01*
X012437Y008377D02*
X012401Y008377D01*
X012401Y008378D02*
X012437Y008378D01*
X012437Y008379D02*
X012401Y008379D01*
X012401Y008380D02*
X012437Y008380D01*
X012437Y008381D02*
X012401Y008381D01*
X012401Y008382D02*
X012437Y008382D01*
X012437Y008383D02*
X012401Y008383D01*
X012401Y008384D02*
X012437Y008384D01*
X012437Y008385D02*
X012401Y008385D01*
X012401Y008386D02*
X012437Y008386D01*
X012437Y008387D02*
X012401Y008387D01*
X012401Y008388D02*
X012437Y008388D01*
X012437Y008389D02*
X012401Y008389D01*
X012401Y008390D02*
X012437Y008390D01*
X012437Y008391D02*
X012401Y008391D01*
X012401Y008392D02*
X012437Y008392D01*
X012437Y008393D02*
X012401Y008393D01*
X012401Y008394D02*
X012437Y008394D01*
X012437Y008395D02*
X012401Y008395D01*
X012401Y008396D02*
X012437Y008396D01*
X012437Y008397D02*
X012401Y008397D01*
X012401Y008398D02*
X012437Y008398D01*
X012437Y008399D02*
X012401Y008399D01*
X012401Y008400D02*
X012437Y008400D01*
X012437Y008401D02*
X012401Y008401D01*
X012401Y008402D02*
X012437Y008402D01*
X012437Y008403D02*
X012401Y008403D01*
X012401Y008404D02*
X012437Y008404D01*
X012437Y008405D02*
X012401Y008405D01*
X012401Y008406D02*
X012437Y008406D01*
X012437Y008407D02*
X012401Y008407D01*
X012401Y008408D02*
X012437Y008408D01*
X012437Y008409D02*
X012401Y008409D01*
X012401Y008410D02*
X012437Y008410D01*
X012437Y008411D02*
X012401Y008411D01*
X012401Y008412D02*
X012437Y008412D01*
X012437Y008413D02*
X012401Y008413D01*
X012401Y008414D02*
X012437Y008414D01*
X012437Y008415D02*
X012401Y008415D01*
X012401Y008416D02*
X012437Y008416D01*
X012437Y008417D02*
X012401Y008417D01*
X012401Y008418D02*
X012437Y008418D01*
X012437Y008419D02*
X012401Y008419D01*
X012401Y008420D02*
X012437Y008420D01*
X012437Y008421D02*
X012401Y008421D01*
X012401Y008422D02*
X012437Y008422D01*
X012437Y008423D02*
X012401Y008423D01*
X012401Y008424D02*
X012437Y008424D01*
X012437Y008425D02*
X012401Y008425D01*
X012401Y008426D02*
X012437Y008426D01*
X012437Y008427D02*
X012401Y008427D01*
X012401Y008428D02*
X012437Y008428D01*
X012437Y008429D02*
X012401Y008429D01*
X012401Y008430D02*
X012437Y008430D01*
X012437Y008431D02*
X012401Y008431D01*
X012401Y008432D02*
X012437Y008432D01*
X012437Y008433D02*
X012401Y008433D01*
X012401Y008434D02*
X012437Y008434D01*
X012437Y008435D02*
X012401Y008435D01*
X012401Y008436D02*
X012437Y008436D01*
X012437Y008437D02*
X012401Y008437D01*
X012401Y008438D02*
X012437Y008438D01*
X012437Y008439D02*
X012401Y008439D01*
X012401Y008440D02*
X012437Y008440D01*
X012437Y008441D02*
X012401Y008441D01*
X012401Y008442D02*
X012437Y008442D01*
X012437Y008443D02*
X012401Y008443D01*
X012401Y008444D02*
X012437Y008444D01*
X012437Y008445D02*
X012401Y008445D01*
X012401Y008446D02*
X012437Y008446D01*
X012437Y008447D02*
X012401Y008447D01*
X012401Y008448D02*
X012437Y008448D01*
X012437Y008449D02*
X012401Y008449D01*
X012401Y008450D02*
X012437Y008450D01*
X012437Y008451D02*
X012401Y008451D01*
X012401Y008452D02*
X012437Y008452D01*
X012437Y008453D02*
X012401Y008453D01*
X012401Y008454D02*
X012437Y008454D01*
X012437Y008455D02*
X012401Y008455D01*
X012401Y008456D02*
X012437Y008456D01*
X012437Y008457D02*
X012401Y008457D01*
X012401Y008458D02*
X012437Y008458D01*
X012437Y008459D02*
X012401Y008459D01*
X012401Y008460D02*
X012437Y008460D01*
X012437Y008461D02*
X012401Y008461D01*
X012401Y008462D02*
X012437Y008462D01*
X012437Y008463D02*
X012401Y008463D01*
X012637Y008585D02*
X012831Y008585D01*
X012637Y008585D02*
X012637Y008621D01*
X012831Y008621D01*
X012831Y008585D01*
X012831Y008586D02*
X012637Y008586D01*
X012637Y008587D02*
X012831Y008587D01*
X012831Y008588D02*
X012637Y008588D01*
X012637Y008589D02*
X012831Y008589D01*
X012831Y008590D02*
X012637Y008590D01*
X012637Y008591D02*
X012831Y008591D01*
X012831Y008592D02*
X012637Y008592D01*
X012637Y008593D02*
X012831Y008593D01*
X012831Y008594D02*
X012637Y008594D01*
X012637Y008595D02*
X012831Y008595D01*
X012831Y008596D02*
X012637Y008596D01*
X012637Y008597D02*
X012831Y008597D01*
X012831Y008598D02*
X012637Y008598D01*
X012637Y008599D02*
X012831Y008599D01*
X012831Y008600D02*
X012637Y008600D01*
X012637Y008601D02*
X012831Y008601D01*
X012831Y008602D02*
X012637Y008602D01*
X012637Y008603D02*
X012831Y008603D01*
X012831Y008604D02*
X012637Y008604D01*
X012637Y008605D02*
X012831Y008605D01*
X012831Y008606D02*
X012637Y008606D01*
X012637Y008607D02*
X012831Y008607D01*
X012831Y008608D02*
X012637Y008608D01*
X012637Y008609D02*
X012831Y008609D01*
X012831Y008610D02*
X012637Y008610D01*
X012637Y008611D02*
X012831Y008611D01*
X012831Y008612D02*
X012637Y008612D01*
X012637Y008613D02*
X012831Y008613D01*
X012831Y008614D02*
X012637Y008614D01*
X012637Y008615D02*
X012831Y008615D01*
X012831Y008616D02*
X012637Y008616D01*
X012637Y008617D02*
X012831Y008617D01*
X012831Y008618D02*
X012637Y008618D01*
X012637Y008619D02*
X012831Y008619D01*
X012831Y008620D02*
X012637Y008620D01*
X012637Y008621D02*
X012831Y008621D01*
X012831Y008742D02*
X012637Y008742D01*
X012637Y008778D01*
X012831Y008778D01*
X012831Y008742D01*
X012831Y008743D02*
X012637Y008743D01*
X012637Y008744D02*
X012831Y008744D01*
X012831Y008745D02*
X012637Y008745D01*
X012637Y008746D02*
X012831Y008746D01*
X012831Y008747D02*
X012637Y008747D01*
X012637Y008748D02*
X012831Y008748D01*
X012831Y008749D02*
X012637Y008749D01*
X012637Y008750D02*
X012831Y008750D01*
X012831Y008751D02*
X012637Y008751D01*
X012637Y008752D02*
X012831Y008752D01*
X012831Y008753D02*
X012637Y008753D01*
X012637Y008754D02*
X012831Y008754D01*
X012831Y008755D02*
X012637Y008755D01*
X012637Y008756D02*
X012831Y008756D01*
X012831Y008757D02*
X012637Y008757D01*
X012637Y008758D02*
X012831Y008758D01*
X012831Y008759D02*
X012637Y008759D01*
X012637Y008760D02*
X012831Y008760D01*
X012831Y008761D02*
X012637Y008761D01*
X012637Y008762D02*
X012831Y008762D01*
X012831Y008763D02*
X012637Y008763D01*
X012637Y008764D02*
X012831Y008764D01*
X012831Y008765D02*
X012637Y008765D01*
X012637Y008766D02*
X012831Y008766D01*
X012831Y008767D02*
X012637Y008767D01*
X012637Y008768D02*
X012831Y008768D01*
X012831Y008769D02*
X012637Y008769D01*
X012637Y008770D02*
X012831Y008770D01*
X012831Y008771D02*
X012637Y008771D01*
X012637Y008772D02*
X012831Y008772D01*
X012831Y008773D02*
X012637Y008773D01*
X012637Y008774D02*
X012831Y008774D01*
X012831Y008775D02*
X012637Y008775D01*
X012637Y008776D02*
X012831Y008776D01*
X012831Y008777D02*
X012637Y008777D01*
X012637Y008778D02*
X012831Y008778D01*
X012831Y008900D02*
X012637Y008900D01*
X012637Y008936D01*
X012831Y008936D01*
X012831Y008900D01*
X012831Y008901D02*
X012637Y008901D01*
X012637Y008902D02*
X012831Y008902D01*
X012831Y008903D02*
X012637Y008903D01*
X012637Y008904D02*
X012831Y008904D01*
X012831Y008905D02*
X012637Y008905D01*
X012637Y008906D02*
X012831Y008906D01*
X012831Y008907D02*
X012637Y008907D01*
X012637Y008908D02*
X012831Y008908D01*
X012831Y008909D02*
X012637Y008909D01*
X012637Y008910D02*
X012831Y008910D01*
X012831Y008911D02*
X012637Y008911D01*
X012637Y008912D02*
X012831Y008912D01*
X012831Y008913D02*
X012637Y008913D01*
X012637Y008914D02*
X012831Y008914D01*
X012831Y008915D02*
X012637Y008915D01*
X012637Y008916D02*
X012831Y008916D01*
X012831Y008917D02*
X012637Y008917D01*
X012637Y008918D02*
X012831Y008918D01*
X012831Y008919D02*
X012637Y008919D01*
X012637Y008920D02*
X012831Y008920D01*
X012831Y008921D02*
X012637Y008921D01*
X012637Y008922D02*
X012831Y008922D01*
X012831Y008923D02*
X012637Y008923D01*
X012637Y008924D02*
X012831Y008924D01*
X012831Y008925D02*
X012637Y008925D01*
X012637Y008926D02*
X012831Y008926D01*
X012831Y008927D02*
X012637Y008927D01*
X012637Y008928D02*
X012831Y008928D01*
X012831Y008929D02*
X012637Y008929D01*
X012637Y008930D02*
X012831Y008930D01*
X012831Y008931D02*
X012637Y008931D01*
X012637Y008932D02*
X012831Y008932D01*
X012831Y008933D02*
X012637Y008933D01*
X012637Y008934D02*
X012831Y008934D01*
X012831Y008935D02*
X012637Y008935D01*
X012637Y008936D02*
X012831Y008936D01*
X012831Y009057D02*
X012637Y009057D01*
X012637Y009093D01*
X012831Y009093D01*
X012831Y009057D01*
X012831Y009058D02*
X012637Y009058D01*
X012637Y009059D02*
X012831Y009059D01*
X012831Y009060D02*
X012637Y009060D01*
X012637Y009061D02*
X012831Y009061D01*
X012831Y009062D02*
X012637Y009062D01*
X012637Y009063D02*
X012831Y009063D01*
X012831Y009064D02*
X012637Y009064D01*
X012637Y009065D02*
X012831Y009065D01*
X012831Y009066D02*
X012637Y009066D01*
X012637Y009067D02*
X012831Y009067D01*
X012831Y009068D02*
X012637Y009068D01*
X012637Y009069D02*
X012831Y009069D01*
X012831Y009070D02*
X012637Y009070D01*
X012637Y009071D02*
X012831Y009071D01*
X012831Y009072D02*
X012637Y009072D01*
X012637Y009073D02*
X012831Y009073D01*
X012831Y009074D02*
X012637Y009074D01*
X012637Y009075D02*
X012831Y009075D01*
X012831Y009076D02*
X012637Y009076D01*
X012637Y009077D02*
X012831Y009077D01*
X012831Y009078D02*
X012637Y009078D01*
X012637Y009079D02*
X012831Y009079D01*
X012831Y009080D02*
X012637Y009080D01*
X012637Y009081D02*
X012831Y009081D01*
X012831Y009082D02*
X012637Y009082D01*
X012637Y009083D02*
X012831Y009083D01*
X012831Y009084D02*
X012637Y009084D01*
X012637Y009085D02*
X012831Y009085D01*
X012831Y009086D02*
X012637Y009086D01*
X012637Y009087D02*
X012831Y009087D01*
X012831Y009088D02*
X012637Y009088D01*
X012637Y009089D02*
X012831Y009089D01*
X012831Y009090D02*
X012637Y009090D01*
X012637Y009091D02*
X012831Y009091D01*
X012831Y009092D02*
X012637Y009092D01*
X012637Y009093D02*
X012831Y009093D01*
X012831Y009215D02*
X012637Y009215D01*
X012637Y009251D01*
X012831Y009251D01*
X012831Y009215D01*
X012831Y009216D02*
X012637Y009216D01*
X012637Y009217D02*
X012831Y009217D01*
X012831Y009218D02*
X012637Y009218D01*
X012637Y009219D02*
X012831Y009219D01*
X012831Y009220D02*
X012637Y009220D01*
X012637Y009221D02*
X012831Y009221D01*
X012831Y009222D02*
X012637Y009222D01*
X012637Y009223D02*
X012831Y009223D01*
X012831Y009224D02*
X012637Y009224D01*
X012637Y009225D02*
X012831Y009225D01*
X012831Y009226D02*
X012637Y009226D01*
X012637Y009227D02*
X012831Y009227D01*
X012831Y009228D02*
X012637Y009228D01*
X012637Y009229D02*
X012831Y009229D01*
X012831Y009230D02*
X012637Y009230D01*
X012637Y009231D02*
X012831Y009231D01*
X012831Y009232D02*
X012637Y009232D01*
X012637Y009233D02*
X012831Y009233D01*
X012831Y009234D02*
X012637Y009234D01*
X012637Y009235D02*
X012831Y009235D01*
X012831Y009236D02*
X012637Y009236D01*
X012637Y009237D02*
X012831Y009237D01*
X012831Y009238D02*
X012637Y009238D01*
X012637Y009239D02*
X012831Y009239D01*
X012831Y009240D02*
X012637Y009240D01*
X012637Y009241D02*
X012831Y009241D01*
X012831Y009242D02*
X012637Y009242D01*
X012637Y009243D02*
X012831Y009243D01*
X012831Y009244D02*
X012637Y009244D01*
X012637Y009245D02*
X012831Y009245D01*
X012831Y009246D02*
X012637Y009246D01*
X012637Y009247D02*
X012831Y009247D01*
X012831Y009248D02*
X012637Y009248D01*
X012637Y009249D02*
X012831Y009249D01*
X012831Y009250D02*
X012637Y009250D01*
X012637Y009251D02*
X012831Y009251D01*
X012831Y009372D02*
X012637Y009372D01*
X012637Y009408D01*
X012831Y009408D01*
X012831Y009372D01*
X012831Y009373D02*
X012637Y009373D01*
X012637Y009374D02*
X012831Y009374D01*
X012831Y009375D02*
X012637Y009375D01*
X012637Y009376D02*
X012831Y009376D01*
X012831Y009377D02*
X012637Y009377D01*
X012637Y009378D02*
X012831Y009378D01*
X012831Y009379D02*
X012637Y009379D01*
X012637Y009380D02*
X012831Y009380D01*
X012831Y009381D02*
X012637Y009381D01*
X012637Y009382D02*
X012831Y009382D01*
X012831Y009383D02*
X012637Y009383D01*
X012637Y009384D02*
X012831Y009384D01*
X012831Y009385D02*
X012637Y009385D01*
X012637Y009386D02*
X012831Y009386D01*
X012831Y009387D02*
X012637Y009387D01*
X012637Y009388D02*
X012831Y009388D01*
X012831Y009389D02*
X012637Y009389D01*
X012637Y009390D02*
X012831Y009390D01*
X012831Y009391D02*
X012637Y009391D01*
X012637Y009392D02*
X012831Y009392D01*
X012831Y009393D02*
X012637Y009393D01*
X012637Y009394D02*
X012831Y009394D01*
X012831Y009395D02*
X012637Y009395D01*
X012637Y009396D02*
X012831Y009396D01*
X012831Y009397D02*
X012637Y009397D01*
X012637Y009398D02*
X012831Y009398D01*
X012831Y009399D02*
X012637Y009399D01*
X012637Y009400D02*
X012831Y009400D01*
X012831Y009401D02*
X012637Y009401D01*
X012637Y009402D02*
X012831Y009402D01*
X012831Y009403D02*
X012637Y009403D01*
X012637Y009404D02*
X012831Y009404D01*
X012831Y009405D02*
X012637Y009405D01*
X012637Y009406D02*
X012831Y009406D01*
X012831Y009407D02*
X012637Y009407D01*
X012637Y009408D02*
X012831Y009408D01*
X012831Y009529D02*
X012637Y009529D01*
X012637Y009565D01*
X012831Y009565D01*
X012831Y009529D01*
X012831Y009530D02*
X012637Y009530D01*
X012637Y009531D02*
X012831Y009531D01*
X012831Y009532D02*
X012637Y009532D01*
X012637Y009533D02*
X012831Y009533D01*
X012831Y009534D02*
X012637Y009534D01*
X012637Y009535D02*
X012831Y009535D01*
X012831Y009536D02*
X012637Y009536D01*
X012637Y009537D02*
X012831Y009537D01*
X012831Y009538D02*
X012637Y009538D01*
X012637Y009539D02*
X012831Y009539D01*
X012831Y009540D02*
X012637Y009540D01*
X012637Y009541D02*
X012831Y009541D01*
X012831Y009542D02*
X012637Y009542D01*
X012637Y009543D02*
X012831Y009543D01*
X012831Y009544D02*
X012637Y009544D01*
X012637Y009545D02*
X012831Y009545D01*
X012831Y009546D02*
X012637Y009546D01*
X012637Y009547D02*
X012831Y009547D01*
X012831Y009548D02*
X012637Y009548D01*
X012637Y009549D02*
X012831Y009549D01*
X012831Y009550D02*
X012637Y009550D01*
X012637Y009551D02*
X012831Y009551D01*
X012831Y009552D02*
X012637Y009552D01*
X012637Y009553D02*
X012831Y009553D01*
X012831Y009554D02*
X012637Y009554D01*
X012637Y009555D02*
X012831Y009555D01*
X012831Y009556D02*
X012637Y009556D01*
X012637Y009557D02*
X012831Y009557D01*
X012831Y009558D02*
X012637Y009558D01*
X012637Y009559D02*
X012831Y009559D01*
X012831Y009560D02*
X012637Y009560D01*
X012637Y009561D02*
X012831Y009561D01*
X012831Y009562D02*
X012637Y009562D01*
X012637Y009563D02*
X012831Y009563D01*
X012831Y009564D02*
X012637Y009564D01*
X012637Y009565D02*
X012831Y009565D01*
X012831Y009687D02*
X012637Y009687D01*
X012637Y009723D01*
X012831Y009723D01*
X012831Y009687D01*
X012831Y009688D02*
X012637Y009688D01*
X012637Y009689D02*
X012831Y009689D01*
X012831Y009690D02*
X012637Y009690D01*
X012637Y009691D02*
X012831Y009691D01*
X012831Y009692D02*
X012637Y009692D01*
X012637Y009693D02*
X012831Y009693D01*
X012831Y009694D02*
X012637Y009694D01*
X012637Y009695D02*
X012831Y009695D01*
X012831Y009696D02*
X012637Y009696D01*
X012637Y009697D02*
X012831Y009697D01*
X012831Y009698D02*
X012637Y009698D01*
X012637Y009699D02*
X012831Y009699D01*
X012831Y009700D02*
X012637Y009700D01*
X012637Y009701D02*
X012831Y009701D01*
X012831Y009702D02*
X012637Y009702D01*
X012637Y009703D02*
X012831Y009703D01*
X012831Y009704D02*
X012637Y009704D01*
X012637Y009705D02*
X012831Y009705D01*
X012831Y009706D02*
X012637Y009706D01*
X012637Y009707D02*
X012831Y009707D01*
X012831Y009708D02*
X012637Y009708D01*
X012637Y009709D02*
X012831Y009709D01*
X012831Y009710D02*
X012637Y009710D01*
X012637Y009711D02*
X012831Y009711D01*
X012831Y009712D02*
X012637Y009712D01*
X012637Y009713D02*
X012831Y009713D01*
X012831Y009714D02*
X012637Y009714D01*
X012637Y009715D02*
X012831Y009715D01*
X012831Y009716D02*
X012637Y009716D01*
X012637Y009717D02*
X012831Y009717D01*
X012831Y009718D02*
X012637Y009718D01*
X012637Y009719D02*
X012831Y009719D01*
X012831Y009720D02*
X012637Y009720D01*
X012637Y009721D02*
X012831Y009721D01*
X012831Y009722D02*
X012637Y009722D01*
X012637Y009723D02*
X012831Y009723D01*
D13*
X011333Y009847D02*
X011123Y009847D01*
X011123Y009977D01*
X011333Y009977D01*
X011333Y009847D01*
X011333Y009853D02*
X011123Y009853D01*
X011123Y009859D02*
X011333Y009859D01*
X011333Y009865D02*
X011123Y009865D01*
X011123Y009871D02*
X011333Y009871D01*
X011333Y009877D02*
X011123Y009877D01*
X011123Y009883D02*
X011333Y009883D01*
X011333Y009889D02*
X011123Y009889D01*
X011123Y009895D02*
X011333Y009895D01*
X011333Y009901D02*
X011123Y009901D01*
X011123Y009907D02*
X011333Y009907D01*
X011333Y009913D02*
X011123Y009913D01*
X011123Y009919D02*
X011333Y009919D01*
X011333Y009925D02*
X011123Y009925D01*
X011123Y009931D02*
X011333Y009931D01*
X011333Y009937D02*
X011123Y009937D01*
X011123Y009943D02*
X011333Y009943D01*
X011333Y009949D02*
X011123Y009949D01*
X011123Y009955D02*
X011333Y009955D01*
X011333Y009961D02*
X011123Y009961D01*
X011123Y009967D02*
X011333Y009967D01*
X011333Y009973D02*
X011123Y009973D01*
X011123Y008331D02*
X011333Y008331D01*
X011123Y008331D02*
X011123Y008461D01*
X011333Y008461D01*
X011333Y008331D01*
X011333Y008337D02*
X011123Y008337D01*
X011123Y008343D02*
X011333Y008343D01*
X011333Y008349D02*
X011123Y008349D01*
X011123Y008355D02*
X011333Y008355D01*
X011333Y008361D02*
X011123Y008361D01*
X011123Y008367D02*
X011333Y008367D01*
X011333Y008373D02*
X011123Y008373D01*
X011123Y008379D02*
X011333Y008379D01*
X011333Y008385D02*
X011123Y008385D01*
X011123Y008391D02*
X011333Y008391D01*
X011333Y008397D02*
X011123Y008397D01*
X011123Y008403D02*
X011333Y008403D01*
X011333Y008409D02*
X011123Y008409D01*
X011123Y008415D02*
X011333Y008415D01*
X011333Y008421D02*
X011123Y008421D01*
X011123Y008427D02*
X011333Y008427D01*
X011333Y008433D02*
X011123Y008433D01*
X011123Y008439D02*
X011333Y008439D01*
X011333Y008445D02*
X011123Y008445D01*
X011123Y008451D02*
X011333Y008451D01*
X011333Y008457D02*
X011123Y008457D01*
X012560Y008331D02*
X012770Y008331D01*
X012560Y008331D02*
X012560Y008461D01*
X012770Y008461D01*
X012770Y008331D01*
X012770Y008337D02*
X012560Y008337D01*
X012560Y008343D02*
X012770Y008343D01*
X012770Y008349D02*
X012560Y008349D01*
X012560Y008355D02*
X012770Y008355D01*
X012770Y008361D02*
X012560Y008361D01*
X012560Y008367D02*
X012770Y008367D01*
X012770Y008373D02*
X012560Y008373D01*
X012560Y008379D02*
X012770Y008379D01*
X012770Y008385D02*
X012560Y008385D01*
X012560Y008391D02*
X012770Y008391D01*
X012770Y008397D02*
X012560Y008397D01*
X012560Y008403D02*
X012770Y008403D01*
X012770Y008409D02*
X012560Y008409D01*
X012560Y008415D02*
X012770Y008415D01*
X012770Y008421D02*
X012560Y008421D01*
X012560Y008427D02*
X012770Y008427D01*
X012770Y008433D02*
X012560Y008433D01*
X012560Y008439D02*
X012770Y008439D01*
X012770Y008445D02*
X012560Y008445D01*
X012560Y008451D02*
X012770Y008451D01*
X012770Y008457D02*
X012560Y008457D01*
D14*
X012541Y009827D02*
X012541Y009996D01*
X012687Y009996D01*
X012789Y009894D01*
X012789Y009827D01*
X012541Y009827D01*
X012541Y009828D02*
X012789Y009828D01*
X012789Y009834D02*
X012541Y009834D01*
X012541Y009840D02*
X012789Y009840D01*
X012789Y009847D02*
X012541Y009847D01*
X012541Y009853D02*
X012789Y009853D01*
X012789Y009860D02*
X012541Y009860D01*
X012541Y009866D02*
X012789Y009866D01*
X012789Y009872D02*
X012541Y009872D01*
X012541Y009879D02*
X012789Y009879D01*
X012789Y009885D02*
X012541Y009885D01*
X012541Y009891D02*
X012789Y009891D01*
X012786Y009898D02*
X012541Y009898D01*
X012541Y009904D02*
X012779Y009904D01*
X012773Y009911D02*
X012541Y009911D01*
X012541Y009917D02*
X012766Y009917D01*
X012760Y009923D02*
X012541Y009923D01*
X012541Y009930D02*
X012754Y009930D01*
X012747Y009936D02*
X012541Y009936D01*
X012541Y009942D02*
X012741Y009942D01*
X012735Y009949D02*
X012541Y009949D01*
X012541Y009955D02*
X012728Y009955D01*
X012722Y009962D02*
X012541Y009962D01*
X012541Y009968D02*
X012716Y009968D01*
X012709Y009974D02*
X012541Y009974D01*
X012541Y009981D02*
X012703Y009981D01*
X012696Y009987D02*
X012541Y009987D01*
X012541Y009993D02*
X012690Y009993D01*
D15*
X009737Y009589D03*
X009737Y009018D03*
D16*
X012986Y007678D03*
X013567Y007678D03*
X013567Y006772D03*
X012986Y006772D03*
D17*
X012909Y007225D03*
X013645Y007225D03*
D18*
X012482Y006772D03*
X012168Y006771D03*
X012168Y006451D03*
X012482Y006452D03*
X009637Y008426D03*
X009637Y008746D03*
X009598Y009870D03*
X009598Y010190D03*
D19*
X010634Y010436D03*
X010954Y010436D03*
X012205Y007676D03*
X012525Y007676D03*
D20*
X011465Y007651D03*
X011465Y006750D03*
D21*
X010589Y006947D03*
X010589Y007459D03*
X007204Y010424D03*
X007204Y010936D03*
X015394Y016724D03*
X015394Y017236D03*
X015994Y017236D03*
X015994Y016724D03*
X018484Y010796D03*
X018484Y010284D03*
X010841Y002090D03*
X010841Y001578D03*
D22*
X010104Y007487D03*
X009592Y007487D03*
X006780Y010780D03*
X006269Y010780D03*
X012062Y013743D03*
X012574Y013743D03*
X015814Y010392D03*
X016325Y010392D03*
D23*
X011665Y010689D02*
X011665Y010895D01*
X011931Y010895D01*
X011931Y010689D01*
X011665Y010689D01*
X011665Y010757D02*
X011931Y010757D01*
X011931Y010825D02*
X011665Y010825D01*
X011665Y010893D02*
X011931Y010893D01*
X011665Y011319D02*
X011665Y011525D01*
X011931Y011525D01*
X011931Y011319D01*
X011665Y011319D01*
X011665Y011387D02*
X011931Y011387D01*
X011931Y011455D02*
X011665Y011455D01*
X011665Y011523D02*
X011931Y011523D01*
X015291Y015362D02*
X015497Y015362D01*
X015291Y015362D02*
X015291Y015568D01*
X015497Y015568D01*
X015497Y015362D01*
X015497Y015430D02*
X015291Y015430D01*
X015291Y015498D02*
X015497Y015498D01*
X015497Y015566D02*
X015291Y015566D01*
X015291Y015992D02*
X015497Y015992D01*
X015291Y015992D02*
X015291Y016198D01*
X015497Y016198D01*
X015497Y015992D01*
X015497Y016060D02*
X015291Y016060D01*
X015291Y016128D02*
X015497Y016128D01*
X015497Y016196D02*
X015291Y016196D01*
X015891Y015992D02*
X016097Y015992D01*
X015891Y015992D02*
X015891Y016198D01*
X016097Y016198D01*
X016097Y015992D01*
X016097Y016060D02*
X015891Y016060D01*
X015891Y016128D02*
X016097Y016128D01*
X016097Y016196D02*
X015891Y016196D01*
X015891Y015362D02*
X016097Y015362D01*
X015891Y015362D02*
X015891Y015568D01*
X016097Y015568D01*
X016097Y015362D01*
X016097Y015430D02*
X015891Y015430D01*
X015891Y015498D02*
X016097Y015498D01*
X016097Y015566D02*
X015891Y015566D01*
D24*
X011416Y013741D03*
X010816Y013741D03*
X007154Y011780D03*
X006554Y011780D03*
X005654Y011780D03*
X005054Y011780D03*
X005054Y012780D03*
X005654Y012780D03*
X005654Y010780D03*
X005054Y010780D03*
X005054Y009780D03*
X005654Y009780D03*
X006554Y009780D03*
X007154Y009780D03*
X005354Y006380D03*
X004754Y006380D03*
X004694Y005380D03*
X005294Y005380D03*
X007554Y004760D03*
X008154Y004760D03*
X008154Y003840D03*
X007554Y003840D03*
X007554Y002980D03*
X008154Y002980D03*
X008154Y002120D03*
X007554Y002120D03*
X009054Y001880D03*
X009654Y001880D03*
X014477Y006761D03*
X015077Y006761D03*
D25*
X008724Y015630D03*
X008024Y015630D03*
X008024Y016300D03*
X008724Y016300D03*
D26*
X007148Y016390D03*
X006774Y016390D03*
X006400Y016390D03*
X006400Y015209D03*
X007148Y015209D03*
D27*
X011022Y011676D03*
X011022Y010976D03*
D28*
X010430Y004826D03*
X010430Y004576D03*
X010430Y004316D03*
X010430Y004056D03*
X010430Y003806D03*
X010430Y003546D03*
X010430Y003296D03*
X010430Y003036D03*
X010430Y002776D03*
X010430Y002526D03*
X012730Y002526D03*
X012730Y002776D03*
X012730Y003036D03*
X012730Y003296D03*
X012730Y003546D03*
X012730Y003806D03*
X012730Y004056D03*
X012730Y004316D03*
X012730Y004576D03*
X012730Y004826D03*
M02*
