G75*
G70*
%OFA0B0*%
%FSLAX24Y24*%
%IPPOS*%
%LPD*%
%AMOC8*
5,1,8,0,0,1.08239X$1,22.5*
%
%ADD10C,0.0000*%
%ADD11C,0.0050*%
%ADD12C,0.0060*%
%ADD13C,0.0160*%
%ADD14C,0.0118*%
%ADD15C,0.0039*%
%ADD16C,0.0100*%
%ADD17C,0.0200*%
%ADD18R,0.0180X0.0271*%
%ADD19C,0.0080*%
%ADD20R,0.0300X0.0180*%
%ADD21R,0.0400X0.0300*%
%ADD22R,0.0300X0.0300*%
%ADD23C,0.0120*%
D10*
X002104Y001280D02*
X002104Y017815D01*
X018600Y017815D01*
X018600Y012307D01*
X022249Y012327D01*
X022249Y001300D01*
X002104Y001280D01*
D11*
X003504Y003000D02*
X003506Y003040D01*
X003512Y003079D01*
X003522Y003118D01*
X003535Y003155D01*
X003553Y003191D01*
X003574Y003225D01*
X003598Y003257D01*
X003625Y003286D01*
X003655Y003313D01*
X003687Y003336D01*
X003722Y003356D01*
X003758Y003372D01*
X003796Y003385D01*
X003835Y003394D01*
X003874Y003399D01*
X003914Y003400D01*
X003954Y003397D01*
X003993Y003390D01*
X004031Y003379D01*
X004069Y003365D01*
X004104Y003346D01*
X004137Y003325D01*
X004169Y003300D01*
X004197Y003272D01*
X004223Y003242D01*
X004245Y003209D01*
X004264Y003174D01*
X004280Y003137D01*
X004292Y003099D01*
X004300Y003060D01*
X004304Y003020D01*
X004304Y002980D01*
X004300Y002940D01*
X004292Y002901D01*
X004280Y002863D01*
X004264Y002826D01*
X004245Y002791D01*
X004223Y002758D01*
X004197Y002728D01*
X004169Y002700D01*
X004137Y002675D01*
X004104Y002654D01*
X004069Y002635D01*
X004031Y002621D01*
X003993Y002610D01*
X003954Y002603D01*
X003914Y002600D01*
X003874Y002601D01*
X003835Y002606D01*
X003796Y002615D01*
X003758Y002628D01*
X003722Y002644D01*
X003687Y002664D01*
X003655Y002687D01*
X003625Y002714D01*
X003598Y002743D01*
X003574Y002775D01*
X003553Y002809D01*
X003535Y002845D01*
X003522Y002882D01*
X003512Y002921D01*
X003506Y002960D01*
X003504Y003000D01*
X004504Y003000D02*
X004506Y003040D01*
X004512Y003079D01*
X004522Y003118D01*
X004535Y003155D01*
X004553Y003191D01*
X004574Y003225D01*
X004598Y003257D01*
X004625Y003286D01*
X004655Y003313D01*
X004687Y003336D01*
X004722Y003356D01*
X004758Y003372D01*
X004796Y003385D01*
X004835Y003394D01*
X004874Y003399D01*
X004914Y003400D01*
X004954Y003397D01*
X004993Y003390D01*
X005031Y003379D01*
X005069Y003365D01*
X005104Y003346D01*
X005137Y003325D01*
X005169Y003300D01*
X005197Y003272D01*
X005223Y003242D01*
X005245Y003209D01*
X005264Y003174D01*
X005280Y003137D01*
X005292Y003099D01*
X005300Y003060D01*
X005304Y003020D01*
X005304Y002980D01*
X005300Y002940D01*
X005292Y002901D01*
X005280Y002863D01*
X005264Y002826D01*
X005245Y002791D01*
X005223Y002758D01*
X005197Y002728D01*
X005169Y002700D01*
X005137Y002675D01*
X005104Y002654D01*
X005069Y002635D01*
X005031Y002621D01*
X004993Y002610D01*
X004954Y002603D01*
X004914Y002600D01*
X004874Y002601D01*
X004835Y002606D01*
X004796Y002615D01*
X004758Y002628D01*
X004722Y002644D01*
X004687Y002664D01*
X004655Y002687D01*
X004625Y002714D01*
X004598Y002743D01*
X004574Y002775D01*
X004553Y002809D01*
X004535Y002845D01*
X004522Y002882D01*
X004512Y002921D01*
X004506Y002960D01*
X004504Y003000D01*
X004780Y007938D02*
X004782Y007978D01*
X004788Y008017D01*
X004798Y008056D01*
X004811Y008093D01*
X004829Y008129D01*
X004850Y008163D01*
X004874Y008195D01*
X004901Y008224D01*
X004931Y008251D01*
X004963Y008274D01*
X004998Y008294D01*
X005034Y008310D01*
X005072Y008323D01*
X005111Y008332D01*
X005150Y008337D01*
X005190Y008338D01*
X005230Y008335D01*
X005269Y008328D01*
X005307Y008317D01*
X005345Y008303D01*
X005380Y008284D01*
X005413Y008263D01*
X005445Y008238D01*
X005473Y008210D01*
X005499Y008180D01*
X005521Y008147D01*
X005540Y008112D01*
X005556Y008075D01*
X005568Y008037D01*
X005576Y007998D01*
X005580Y007958D01*
X005580Y007918D01*
X005576Y007878D01*
X005568Y007839D01*
X005556Y007801D01*
X005540Y007764D01*
X005521Y007729D01*
X005499Y007696D01*
X005473Y007666D01*
X005445Y007638D01*
X005413Y007613D01*
X005380Y007592D01*
X005345Y007573D01*
X005307Y007559D01*
X005269Y007548D01*
X005230Y007541D01*
X005190Y007538D01*
X005150Y007539D01*
X005111Y007544D01*
X005072Y007553D01*
X005034Y007566D01*
X004998Y007582D01*
X004963Y007602D01*
X004931Y007625D01*
X004901Y007652D01*
X004874Y007681D01*
X004850Y007713D01*
X004829Y007747D01*
X004811Y007783D01*
X004798Y007820D01*
X004788Y007859D01*
X004782Y007898D01*
X004780Y007938D01*
X007864Y008420D02*
X007866Y008460D01*
X007872Y008499D01*
X007882Y008538D01*
X007895Y008575D01*
X007913Y008611D01*
X007934Y008645D01*
X007958Y008677D01*
X007985Y008706D01*
X008015Y008733D01*
X008047Y008756D01*
X008082Y008776D01*
X008118Y008792D01*
X008156Y008805D01*
X008195Y008814D01*
X008234Y008819D01*
X008274Y008820D01*
X008314Y008817D01*
X008353Y008810D01*
X008391Y008799D01*
X008429Y008785D01*
X008464Y008766D01*
X008497Y008745D01*
X008529Y008720D01*
X008557Y008692D01*
X008583Y008662D01*
X008605Y008629D01*
X008624Y008594D01*
X008640Y008557D01*
X008652Y008519D01*
X008660Y008480D01*
X008664Y008440D01*
X008664Y008400D01*
X008660Y008360D01*
X008652Y008321D01*
X008640Y008283D01*
X008624Y008246D01*
X008605Y008211D01*
X008583Y008178D01*
X008557Y008148D01*
X008529Y008120D01*
X008497Y008095D01*
X008464Y008074D01*
X008429Y008055D01*
X008391Y008041D01*
X008353Y008030D01*
X008314Y008023D01*
X008274Y008020D01*
X008234Y008021D01*
X008195Y008026D01*
X008156Y008035D01*
X008118Y008048D01*
X008082Y008064D01*
X008047Y008084D01*
X008015Y008107D01*
X007985Y008134D01*
X007958Y008163D01*
X007934Y008195D01*
X007913Y008229D01*
X007895Y008265D01*
X007882Y008302D01*
X007872Y008341D01*
X007866Y008380D01*
X007864Y008420D01*
X007864Y009420D02*
X007866Y009460D01*
X007872Y009499D01*
X007882Y009538D01*
X007895Y009575D01*
X007913Y009611D01*
X007934Y009645D01*
X007958Y009677D01*
X007985Y009706D01*
X008015Y009733D01*
X008047Y009756D01*
X008082Y009776D01*
X008118Y009792D01*
X008156Y009805D01*
X008195Y009814D01*
X008234Y009819D01*
X008274Y009820D01*
X008314Y009817D01*
X008353Y009810D01*
X008391Y009799D01*
X008429Y009785D01*
X008464Y009766D01*
X008497Y009745D01*
X008529Y009720D01*
X008557Y009692D01*
X008583Y009662D01*
X008605Y009629D01*
X008624Y009594D01*
X008640Y009557D01*
X008652Y009519D01*
X008660Y009480D01*
X008664Y009440D01*
X008664Y009400D01*
X008660Y009360D01*
X008652Y009321D01*
X008640Y009283D01*
X008624Y009246D01*
X008605Y009211D01*
X008583Y009178D01*
X008557Y009148D01*
X008529Y009120D01*
X008497Y009095D01*
X008464Y009074D01*
X008429Y009055D01*
X008391Y009041D01*
X008353Y009030D01*
X008314Y009023D01*
X008274Y009020D01*
X008234Y009021D01*
X008195Y009026D01*
X008156Y009035D01*
X008118Y009048D01*
X008082Y009064D01*
X008047Y009084D01*
X008015Y009107D01*
X007985Y009134D01*
X007958Y009163D01*
X007934Y009195D01*
X007913Y009229D01*
X007895Y009265D01*
X007882Y009302D01*
X007872Y009341D01*
X007866Y009380D01*
X007864Y009420D01*
X007739Y010431D02*
X007469Y010431D01*
X007469Y010566D01*
X007514Y010611D01*
X007604Y010611D01*
X007649Y010566D01*
X007649Y010431D01*
X007649Y010521D02*
X007739Y010611D01*
X007739Y010725D02*
X007739Y010906D01*
X007739Y010816D02*
X007469Y010816D01*
X007559Y010725D01*
X007559Y011020D02*
X007469Y011110D01*
X007739Y011110D01*
X007739Y011020D02*
X007739Y011200D01*
X007864Y011420D02*
X007866Y011460D01*
X007872Y011499D01*
X007882Y011538D01*
X007895Y011575D01*
X007913Y011611D01*
X007934Y011645D01*
X007958Y011677D01*
X007985Y011706D01*
X008015Y011733D01*
X008047Y011756D01*
X008082Y011776D01*
X008118Y011792D01*
X008156Y011805D01*
X008195Y011814D01*
X008234Y011819D01*
X008274Y011820D01*
X008314Y011817D01*
X008353Y011810D01*
X008391Y011799D01*
X008429Y011785D01*
X008464Y011766D01*
X008497Y011745D01*
X008529Y011720D01*
X008557Y011692D01*
X008583Y011662D01*
X008605Y011629D01*
X008624Y011594D01*
X008640Y011557D01*
X008652Y011519D01*
X008660Y011480D01*
X008664Y011440D01*
X008664Y011400D01*
X008660Y011360D01*
X008652Y011321D01*
X008640Y011283D01*
X008624Y011246D01*
X008605Y011211D01*
X008583Y011178D01*
X008557Y011148D01*
X008529Y011120D01*
X008497Y011095D01*
X008464Y011074D01*
X008429Y011055D01*
X008391Y011041D01*
X008353Y011030D01*
X008314Y011023D01*
X008274Y011020D01*
X008234Y011021D01*
X008195Y011026D01*
X008156Y011035D01*
X008118Y011048D01*
X008082Y011064D01*
X008047Y011084D01*
X008015Y011107D01*
X007985Y011134D01*
X007958Y011163D01*
X007934Y011195D01*
X007913Y011229D01*
X007895Y011265D01*
X007882Y011302D01*
X007872Y011341D01*
X007866Y011380D01*
X007864Y011420D01*
X006919Y011260D02*
X006739Y011080D01*
X006784Y011035D01*
X006874Y011035D01*
X006919Y011080D01*
X006919Y011260D01*
X006874Y011305D01*
X006784Y011305D01*
X006739Y011260D01*
X006739Y011080D01*
X006624Y011035D02*
X006444Y011035D01*
X006534Y011035D02*
X006534Y011305D01*
X006444Y011215D01*
X006330Y011260D02*
X006285Y011305D01*
X006149Y011305D01*
X006149Y011035D01*
X006149Y011125D02*
X006285Y011125D01*
X006330Y011170D01*
X006330Y011260D01*
X006239Y011125D02*
X006330Y011035D01*
X007864Y010420D02*
X007866Y010460D01*
X007872Y010499D01*
X007882Y010538D01*
X007895Y010575D01*
X007913Y010611D01*
X007934Y010645D01*
X007958Y010677D01*
X007985Y010706D01*
X008015Y010733D01*
X008047Y010756D01*
X008082Y010776D01*
X008118Y010792D01*
X008156Y010805D01*
X008195Y010814D01*
X008234Y010819D01*
X008274Y010820D01*
X008314Y010817D01*
X008353Y010810D01*
X008391Y010799D01*
X008429Y010785D01*
X008464Y010766D01*
X008497Y010745D01*
X008529Y010720D01*
X008557Y010692D01*
X008583Y010662D01*
X008605Y010629D01*
X008624Y010594D01*
X008640Y010557D01*
X008652Y010519D01*
X008660Y010480D01*
X008664Y010440D01*
X008664Y010400D01*
X008660Y010360D01*
X008652Y010321D01*
X008640Y010283D01*
X008624Y010246D01*
X008605Y010211D01*
X008583Y010178D01*
X008557Y010148D01*
X008529Y010120D01*
X008497Y010095D01*
X008464Y010074D01*
X008429Y010055D01*
X008391Y010041D01*
X008353Y010030D01*
X008314Y010023D01*
X008274Y010020D01*
X008234Y010021D01*
X008195Y010026D01*
X008156Y010035D01*
X008118Y010048D01*
X008082Y010064D01*
X008047Y010084D01*
X008015Y010107D01*
X007985Y010134D01*
X007958Y010163D01*
X007934Y010195D01*
X007913Y010229D01*
X007895Y010265D01*
X007882Y010302D01*
X007872Y010341D01*
X007866Y010380D01*
X007864Y010420D01*
X010722Y010626D02*
X010722Y012026D01*
X011322Y012026D01*
X011322Y010626D01*
X010722Y010626D01*
X007864Y012420D02*
X007866Y012460D01*
X007872Y012499D01*
X007882Y012538D01*
X007895Y012575D01*
X007913Y012611D01*
X007934Y012645D01*
X007958Y012677D01*
X007985Y012706D01*
X008015Y012733D01*
X008047Y012756D01*
X008082Y012776D01*
X008118Y012792D01*
X008156Y012805D01*
X008195Y012814D01*
X008234Y012819D01*
X008274Y012820D01*
X008314Y012817D01*
X008353Y012810D01*
X008391Y012799D01*
X008429Y012785D01*
X008464Y012766D01*
X008497Y012745D01*
X008529Y012720D01*
X008557Y012692D01*
X008583Y012662D01*
X008605Y012629D01*
X008624Y012594D01*
X008640Y012557D01*
X008652Y012519D01*
X008660Y012480D01*
X008664Y012440D01*
X008664Y012400D01*
X008660Y012360D01*
X008652Y012321D01*
X008640Y012283D01*
X008624Y012246D01*
X008605Y012211D01*
X008583Y012178D01*
X008557Y012148D01*
X008529Y012120D01*
X008497Y012095D01*
X008464Y012074D01*
X008429Y012055D01*
X008391Y012041D01*
X008353Y012030D01*
X008314Y012023D01*
X008274Y012020D01*
X008234Y012021D01*
X008195Y012026D01*
X008156Y012035D01*
X008118Y012048D01*
X008082Y012064D01*
X008047Y012084D01*
X008015Y012107D01*
X007985Y012134D01*
X007958Y012163D01*
X007934Y012195D01*
X007913Y012229D01*
X007895Y012265D01*
X007882Y012302D01*
X007872Y012341D01*
X007866Y012380D01*
X007864Y012420D01*
X009924Y012820D02*
X009926Y012860D01*
X009932Y012899D01*
X009942Y012938D01*
X009955Y012975D01*
X009973Y013011D01*
X009994Y013045D01*
X010018Y013077D01*
X010045Y013106D01*
X010075Y013133D01*
X010107Y013156D01*
X010142Y013176D01*
X010178Y013192D01*
X010216Y013205D01*
X010255Y013214D01*
X010294Y013219D01*
X010334Y013220D01*
X010374Y013217D01*
X010413Y013210D01*
X010451Y013199D01*
X010489Y013185D01*
X010524Y013166D01*
X010557Y013145D01*
X010589Y013120D01*
X010617Y013092D01*
X010643Y013062D01*
X010665Y013029D01*
X010684Y012994D01*
X010700Y012957D01*
X010712Y012919D01*
X010720Y012880D01*
X010724Y012840D01*
X010724Y012800D01*
X010720Y012760D01*
X010712Y012721D01*
X010700Y012683D01*
X010684Y012646D01*
X010665Y012611D01*
X010643Y012578D01*
X010617Y012548D01*
X010589Y012520D01*
X010557Y012495D01*
X010524Y012474D01*
X010489Y012455D01*
X010451Y012441D01*
X010413Y012430D01*
X010374Y012423D01*
X010334Y012420D01*
X010294Y012421D01*
X010255Y012426D01*
X010216Y012435D01*
X010178Y012448D01*
X010142Y012464D01*
X010107Y012484D01*
X010075Y012507D01*
X010045Y012534D01*
X010018Y012563D01*
X009994Y012595D01*
X009973Y012629D01*
X009955Y012665D01*
X009942Y012702D01*
X009932Y012741D01*
X009926Y012780D01*
X009924Y012820D01*
X010924Y012820D02*
X010926Y012860D01*
X010932Y012899D01*
X010942Y012938D01*
X010955Y012975D01*
X010973Y013011D01*
X010994Y013045D01*
X011018Y013077D01*
X011045Y013106D01*
X011075Y013133D01*
X011107Y013156D01*
X011142Y013176D01*
X011178Y013192D01*
X011216Y013205D01*
X011255Y013214D01*
X011294Y013219D01*
X011334Y013220D01*
X011374Y013217D01*
X011413Y013210D01*
X011451Y013199D01*
X011489Y013185D01*
X011524Y013166D01*
X011557Y013145D01*
X011589Y013120D01*
X011617Y013092D01*
X011643Y013062D01*
X011665Y013029D01*
X011684Y012994D01*
X011700Y012957D01*
X011712Y012919D01*
X011720Y012880D01*
X011724Y012840D01*
X011724Y012800D01*
X011720Y012760D01*
X011712Y012721D01*
X011700Y012683D01*
X011684Y012646D01*
X011665Y012611D01*
X011643Y012578D01*
X011617Y012548D01*
X011589Y012520D01*
X011557Y012495D01*
X011524Y012474D01*
X011489Y012455D01*
X011451Y012441D01*
X011413Y012430D01*
X011374Y012423D01*
X011334Y012420D01*
X011294Y012421D01*
X011255Y012426D01*
X011216Y012435D01*
X011178Y012448D01*
X011142Y012464D01*
X011107Y012484D01*
X011075Y012507D01*
X011045Y012534D01*
X011018Y012563D01*
X010994Y012595D01*
X010973Y012629D01*
X010955Y012665D01*
X010942Y012702D01*
X010932Y012741D01*
X010926Y012780D01*
X010924Y012820D01*
X011924Y012820D02*
X011926Y012860D01*
X011932Y012899D01*
X011942Y012938D01*
X011955Y012975D01*
X011973Y013011D01*
X011994Y013045D01*
X012018Y013077D01*
X012045Y013106D01*
X012075Y013133D01*
X012107Y013156D01*
X012142Y013176D01*
X012178Y013192D01*
X012216Y013205D01*
X012255Y013214D01*
X012294Y013219D01*
X012334Y013220D01*
X012374Y013217D01*
X012413Y013210D01*
X012451Y013199D01*
X012489Y013185D01*
X012524Y013166D01*
X012557Y013145D01*
X012589Y013120D01*
X012617Y013092D01*
X012643Y013062D01*
X012665Y013029D01*
X012684Y012994D01*
X012700Y012957D01*
X012712Y012919D01*
X012720Y012880D01*
X012724Y012840D01*
X012724Y012800D01*
X012720Y012760D01*
X012712Y012721D01*
X012700Y012683D01*
X012684Y012646D01*
X012665Y012611D01*
X012643Y012578D01*
X012617Y012548D01*
X012589Y012520D01*
X012557Y012495D01*
X012524Y012474D01*
X012489Y012455D01*
X012451Y012441D01*
X012413Y012430D01*
X012374Y012423D01*
X012334Y012420D01*
X012294Y012421D01*
X012255Y012426D01*
X012216Y012435D01*
X012178Y012448D01*
X012142Y012464D01*
X012107Y012484D01*
X012075Y012507D01*
X012045Y012534D01*
X012018Y012563D01*
X011994Y012595D01*
X011973Y012629D01*
X011955Y012665D01*
X011942Y012702D01*
X011932Y012741D01*
X011926Y012780D01*
X011924Y012820D01*
X012924Y012820D02*
X012926Y012860D01*
X012932Y012899D01*
X012942Y012938D01*
X012955Y012975D01*
X012973Y013011D01*
X012994Y013045D01*
X013018Y013077D01*
X013045Y013106D01*
X013075Y013133D01*
X013107Y013156D01*
X013142Y013176D01*
X013178Y013192D01*
X013216Y013205D01*
X013255Y013214D01*
X013294Y013219D01*
X013334Y013220D01*
X013374Y013217D01*
X013413Y013210D01*
X013451Y013199D01*
X013489Y013185D01*
X013524Y013166D01*
X013557Y013145D01*
X013589Y013120D01*
X013617Y013092D01*
X013643Y013062D01*
X013665Y013029D01*
X013684Y012994D01*
X013700Y012957D01*
X013712Y012919D01*
X013720Y012880D01*
X013724Y012840D01*
X013724Y012800D01*
X013720Y012760D01*
X013712Y012721D01*
X013700Y012683D01*
X013684Y012646D01*
X013665Y012611D01*
X013643Y012578D01*
X013617Y012548D01*
X013589Y012520D01*
X013557Y012495D01*
X013524Y012474D01*
X013489Y012455D01*
X013451Y012441D01*
X013413Y012430D01*
X013374Y012423D01*
X013334Y012420D01*
X013294Y012421D01*
X013255Y012426D01*
X013216Y012435D01*
X013178Y012448D01*
X013142Y012464D01*
X013107Y012484D01*
X013075Y012507D01*
X013045Y012534D01*
X013018Y012563D01*
X012994Y012595D01*
X012973Y012629D01*
X012955Y012665D01*
X012942Y012702D01*
X012932Y012741D01*
X012926Y012780D01*
X012924Y012820D01*
X013924Y012820D02*
X013926Y012860D01*
X013932Y012899D01*
X013942Y012938D01*
X013955Y012975D01*
X013973Y013011D01*
X013994Y013045D01*
X014018Y013077D01*
X014045Y013106D01*
X014075Y013133D01*
X014107Y013156D01*
X014142Y013176D01*
X014178Y013192D01*
X014216Y013205D01*
X014255Y013214D01*
X014294Y013219D01*
X014334Y013220D01*
X014374Y013217D01*
X014413Y013210D01*
X014451Y013199D01*
X014489Y013185D01*
X014524Y013166D01*
X014557Y013145D01*
X014589Y013120D01*
X014617Y013092D01*
X014643Y013062D01*
X014665Y013029D01*
X014684Y012994D01*
X014700Y012957D01*
X014712Y012919D01*
X014720Y012880D01*
X014724Y012840D01*
X014724Y012800D01*
X014720Y012760D01*
X014712Y012721D01*
X014700Y012683D01*
X014684Y012646D01*
X014665Y012611D01*
X014643Y012578D01*
X014617Y012548D01*
X014589Y012520D01*
X014557Y012495D01*
X014524Y012474D01*
X014489Y012455D01*
X014451Y012441D01*
X014413Y012430D01*
X014374Y012423D01*
X014334Y012420D01*
X014294Y012421D01*
X014255Y012426D01*
X014216Y012435D01*
X014178Y012448D01*
X014142Y012464D01*
X014107Y012484D01*
X014075Y012507D01*
X014045Y012534D01*
X014018Y012563D01*
X013994Y012595D01*
X013973Y012629D01*
X013955Y012665D01*
X013942Y012702D01*
X013932Y012741D01*
X013926Y012780D01*
X013924Y012820D01*
X014924Y012820D02*
X014926Y012860D01*
X014932Y012899D01*
X014942Y012938D01*
X014955Y012975D01*
X014973Y013011D01*
X014994Y013045D01*
X015018Y013077D01*
X015045Y013106D01*
X015075Y013133D01*
X015107Y013156D01*
X015142Y013176D01*
X015178Y013192D01*
X015216Y013205D01*
X015255Y013214D01*
X015294Y013219D01*
X015334Y013220D01*
X015374Y013217D01*
X015413Y013210D01*
X015451Y013199D01*
X015489Y013185D01*
X015524Y013166D01*
X015557Y013145D01*
X015589Y013120D01*
X015617Y013092D01*
X015643Y013062D01*
X015665Y013029D01*
X015684Y012994D01*
X015700Y012957D01*
X015712Y012919D01*
X015720Y012880D01*
X015724Y012840D01*
X015724Y012800D01*
X015720Y012760D01*
X015712Y012721D01*
X015700Y012683D01*
X015684Y012646D01*
X015665Y012611D01*
X015643Y012578D01*
X015617Y012548D01*
X015589Y012520D01*
X015557Y012495D01*
X015524Y012474D01*
X015489Y012455D01*
X015451Y012441D01*
X015413Y012430D01*
X015374Y012423D01*
X015334Y012420D01*
X015294Y012421D01*
X015255Y012426D01*
X015216Y012435D01*
X015178Y012448D01*
X015142Y012464D01*
X015107Y012484D01*
X015075Y012507D01*
X015045Y012534D01*
X015018Y012563D01*
X014994Y012595D01*
X014973Y012629D01*
X014955Y012665D01*
X014942Y012702D01*
X014932Y012741D01*
X014926Y012780D01*
X014924Y012820D01*
X015924Y012820D02*
X015926Y012860D01*
X015932Y012899D01*
X015942Y012938D01*
X015955Y012975D01*
X015973Y013011D01*
X015994Y013045D01*
X016018Y013077D01*
X016045Y013106D01*
X016075Y013133D01*
X016107Y013156D01*
X016142Y013176D01*
X016178Y013192D01*
X016216Y013205D01*
X016255Y013214D01*
X016294Y013219D01*
X016334Y013220D01*
X016374Y013217D01*
X016413Y013210D01*
X016451Y013199D01*
X016489Y013185D01*
X016524Y013166D01*
X016557Y013145D01*
X016589Y013120D01*
X016617Y013092D01*
X016643Y013062D01*
X016665Y013029D01*
X016684Y012994D01*
X016700Y012957D01*
X016712Y012919D01*
X016720Y012880D01*
X016724Y012840D01*
X016724Y012800D01*
X016720Y012760D01*
X016712Y012721D01*
X016700Y012683D01*
X016684Y012646D01*
X016665Y012611D01*
X016643Y012578D01*
X016617Y012548D01*
X016589Y012520D01*
X016557Y012495D01*
X016524Y012474D01*
X016489Y012455D01*
X016451Y012441D01*
X016413Y012430D01*
X016374Y012423D01*
X016334Y012420D01*
X016294Y012421D01*
X016255Y012426D01*
X016216Y012435D01*
X016178Y012448D01*
X016142Y012464D01*
X016107Y012484D01*
X016075Y012507D01*
X016045Y012534D01*
X016018Y012563D01*
X015994Y012595D01*
X015973Y012629D01*
X015955Y012665D01*
X015942Y012702D01*
X015932Y012741D01*
X015926Y012780D01*
X015924Y012820D01*
X017104Y011880D02*
X017106Y011920D01*
X017112Y011959D01*
X017122Y011998D01*
X017135Y012035D01*
X017153Y012071D01*
X017174Y012105D01*
X017198Y012137D01*
X017225Y012166D01*
X017255Y012193D01*
X017287Y012216D01*
X017322Y012236D01*
X017358Y012252D01*
X017396Y012265D01*
X017435Y012274D01*
X017474Y012279D01*
X017514Y012280D01*
X017554Y012277D01*
X017593Y012270D01*
X017631Y012259D01*
X017669Y012245D01*
X017704Y012226D01*
X017737Y012205D01*
X017769Y012180D01*
X017797Y012152D01*
X017823Y012122D01*
X017845Y012089D01*
X017864Y012054D01*
X017880Y012017D01*
X017892Y011979D01*
X017900Y011940D01*
X017904Y011900D01*
X017904Y011860D01*
X017900Y011820D01*
X017892Y011781D01*
X017880Y011743D01*
X017864Y011706D01*
X017845Y011671D01*
X017823Y011638D01*
X017797Y011608D01*
X017769Y011580D01*
X017737Y011555D01*
X017704Y011534D01*
X017669Y011515D01*
X017631Y011501D01*
X017593Y011490D01*
X017554Y011483D01*
X017514Y011480D01*
X017474Y011481D01*
X017435Y011486D01*
X017396Y011495D01*
X017358Y011508D01*
X017322Y011524D01*
X017287Y011544D01*
X017255Y011567D01*
X017225Y011594D01*
X017198Y011623D01*
X017174Y011655D01*
X017153Y011689D01*
X017135Y011725D01*
X017122Y011762D01*
X017112Y011801D01*
X017106Y011840D01*
X017104Y011880D01*
X017104Y010880D02*
X017106Y010920D01*
X017112Y010959D01*
X017122Y010998D01*
X017135Y011035D01*
X017153Y011071D01*
X017174Y011105D01*
X017198Y011137D01*
X017225Y011166D01*
X017255Y011193D01*
X017287Y011216D01*
X017322Y011236D01*
X017358Y011252D01*
X017396Y011265D01*
X017435Y011274D01*
X017474Y011279D01*
X017514Y011280D01*
X017554Y011277D01*
X017593Y011270D01*
X017631Y011259D01*
X017669Y011245D01*
X017704Y011226D01*
X017737Y011205D01*
X017769Y011180D01*
X017797Y011152D01*
X017823Y011122D01*
X017845Y011089D01*
X017864Y011054D01*
X017880Y011017D01*
X017892Y010979D01*
X017900Y010940D01*
X017904Y010900D01*
X017904Y010860D01*
X017900Y010820D01*
X017892Y010781D01*
X017880Y010743D01*
X017864Y010706D01*
X017845Y010671D01*
X017823Y010638D01*
X017797Y010608D01*
X017769Y010580D01*
X017737Y010555D01*
X017704Y010534D01*
X017669Y010515D01*
X017631Y010501D01*
X017593Y010490D01*
X017554Y010483D01*
X017514Y010480D01*
X017474Y010481D01*
X017435Y010486D01*
X017396Y010495D01*
X017358Y010508D01*
X017322Y010524D01*
X017287Y010544D01*
X017255Y010567D01*
X017225Y010594D01*
X017198Y010623D01*
X017174Y010655D01*
X017153Y010689D01*
X017135Y010725D01*
X017122Y010762D01*
X017112Y010801D01*
X017106Y010840D01*
X017104Y010880D01*
X017104Y009880D02*
X017106Y009920D01*
X017112Y009959D01*
X017122Y009998D01*
X017135Y010035D01*
X017153Y010071D01*
X017174Y010105D01*
X017198Y010137D01*
X017225Y010166D01*
X017255Y010193D01*
X017287Y010216D01*
X017322Y010236D01*
X017358Y010252D01*
X017396Y010265D01*
X017435Y010274D01*
X017474Y010279D01*
X017514Y010280D01*
X017554Y010277D01*
X017593Y010270D01*
X017631Y010259D01*
X017669Y010245D01*
X017704Y010226D01*
X017737Y010205D01*
X017769Y010180D01*
X017797Y010152D01*
X017823Y010122D01*
X017845Y010089D01*
X017864Y010054D01*
X017880Y010017D01*
X017892Y009979D01*
X017900Y009940D01*
X017904Y009900D01*
X017904Y009860D01*
X017900Y009820D01*
X017892Y009781D01*
X017880Y009743D01*
X017864Y009706D01*
X017845Y009671D01*
X017823Y009638D01*
X017797Y009608D01*
X017769Y009580D01*
X017737Y009555D01*
X017704Y009534D01*
X017669Y009515D01*
X017631Y009501D01*
X017593Y009490D01*
X017554Y009483D01*
X017514Y009480D01*
X017474Y009481D01*
X017435Y009486D01*
X017396Y009495D01*
X017358Y009508D01*
X017322Y009524D01*
X017287Y009544D01*
X017255Y009567D01*
X017225Y009594D01*
X017198Y009623D01*
X017174Y009655D01*
X017153Y009689D01*
X017135Y009725D01*
X017122Y009762D01*
X017112Y009801D01*
X017106Y009840D01*
X017104Y009880D01*
X019244Y012229D02*
X019244Y017323D01*
X019246Y017368D01*
X019251Y017412D01*
X019260Y017456D01*
X019272Y017499D01*
X019287Y017541D01*
X019306Y017582D01*
X019328Y017621D01*
X019353Y017658D01*
X019381Y017693D01*
X019411Y017726D01*
X019444Y017756D01*
X019479Y017784D01*
X019516Y017809D01*
X019555Y017831D01*
X019596Y017850D01*
X019638Y017865D01*
X019681Y017877D01*
X019725Y017886D01*
X019769Y017891D01*
X019814Y017893D01*
X021589Y017893D01*
X021579Y017893D02*
X021624Y017891D01*
X021668Y017886D01*
X021712Y017877D01*
X021755Y017865D01*
X021797Y017850D01*
X021838Y017831D01*
X021877Y017809D01*
X021914Y017784D01*
X021949Y017756D01*
X021982Y017726D01*
X022012Y017693D01*
X022040Y017658D01*
X022065Y017621D01*
X022087Y017582D01*
X022106Y017541D01*
X022121Y017499D01*
X022133Y017456D01*
X022142Y017412D01*
X022147Y017368D01*
X022149Y017323D01*
X022149Y017333D02*
X022149Y012229D01*
X019244Y012229D01*
X013324Y016040D02*
X013326Y016080D01*
X013332Y016119D01*
X013342Y016158D01*
X013355Y016195D01*
X013373Y016231D01*
X013394Y016265D01*
X013418Y016297D01*
X013445Y016326D01*
X013475Y016353D01*
X013507Y016376D01*
X013542Y016396D01*
X013578Y016412D01*
X013616Y016425D01*
X013655Y016434D01*
X013694Y016439D01*
X013734Y016440D01*
X013774Y016437D01*
X013813Y016430D01*
X013851Y016419D01*
X013889Y016405D01*
X013924Y016386D01*
X013957Y016365D01*
X013989Y016340D01*
X014017Y016312D01*
X014043Y016282D01*
X014065Y016249D01*
X014084Y016214D01*
X014100Y016177D01*
X014112Y016139D01*
X014120Y016100D01*
X014124Y016060D01*
X014124Y016020D01*
X014120Y015980D01*
X014112Y015941D01*
X014100Y015903D01*
X014084Y015866D01*
X014065Y015831D01*
X014043Y015798D01*
X014017Y015768D01*
X013989Y015740D01*
X013957Y015715D01*
X013924Y015694D01*
X013889Y015675D01*
X013851Y015661D01*
X013813Y015650D01*
X013774Y015643D01*
X013734Y015640D01*
X013694Y015641D01*
X013655Y015646D01*
X013616Y015655D01*
X013578Y015668D01*
X013542Y015684D01*
X013507Y015704D01*
X013475Y015727D01*
X013445Y015754D01*
X013418Y015783D01*
X013394Y015815D01*
X013373Y015849D01*
X013355Y015885D01*
X013342Y015922D01*
X013332Y015961D01*
X013326Y016000D01*
X013324Y016040D01*
X010594Y015190D02*
X010596Y015230D01*
X010602Y015269D01*
X010612Y015308D01*
X010625Y015345D01*
X010643Y015381D01*
X010664Y015415D01*
X010688Y015447D01*
X010715Y015476D01*
X010745Y015503D01*
X010777Y015526D01*
X010812Y015546D01*
X010848Y015562D01*
X010886Y015575D01*
X010925Y015584D01*
X010964Y015589D01*
X011004Y015590D01*
X011044Y015587D01*
X011083Y015580D01*
X011121Y015569D01*
X011159Y015555D01*
X011194Y015536D01*
X011227Y015515D01*
X011259Y015490D01*
X011287Y015462D01*
X011313Y015432D01*
X011335Y015399D01*
X011354Y015364D01*
X011370Y015327D01*
X011382Y015289D01*
X011390Y015250D01*
X011394Y015210D01*
X011394Y015170D01*
X011390Y015130D01*
X011382Y015091D01*
X011370Y015053D01*
X011354Y015016D01*
X011335Y014981D01*
X011313Y014948D01*
X011287Y014918D01*
X011259Y014890D01*
X011227Y014865D01*
X011194Y014844D01*
X011159Y014825D01*
X011121Y014811D01*
X011083Y014800D01*
X011044Y014793D01*
X011004Y014790D01*
X010964Y014791D01*
X010925Y014796D01*
X010886Y014805D01*
X010848Y014818D01*
X010812Y014834D01*
X010777Y014854D01*
X010745Y014877D01*
X010715Y014904D01*
X010688Y014933D01*
X010664Y014965D01*
X010643Y014999D01*
X010625Y015035D01*
X010612Y015072D01*
X010602Y015111D01*
X010596Y015150D01*
X010594Y015190D01*
X010493Y014685D02*
X010493Y016685D01*
X009493Y016685D01*
X009493Y014685D01*
X010493Y014685D01*
X009074Y015330D02*
X009074Y015930D01*
X007674Y015930D01*
X007674Y015330D01*
X009074Y015330D01*
X009074Y016000D02*
X009074Y016600D01*
X007674Y016600D01*
X007674Y016000D01*
X009074Y016000D01*
X007404Y016154D02*
X007404Y015445D01*
X007365Y015445D01*
X006932Y015445D02*
X006617Y015445D01*
X006184Y015445D02*
X006144Y015445D01*
X006144Y016154D01*
X006184Y016154D01*
X007365Y016154D02*
X007404Y016154D01*
X007404Y015997D02*
X007377Y015995D01*
X007351Y015990D01*
X007326Y015981D01*
X007302Y015968D01*
X007280Y015953D01*
X007260Y015934D01*
X007243Y015914D01*
X007229Y015891D01*
X007218Y015866D01*
X007211Y015840D01*
X007207Y015813D01*
X007207Y015787D01*
X007211Y015760D01*
X007218Y015734D01*
X007229Y015709D01*
X007243Y015686D01*
X007260Y015666D01*
X007280Y015647D01*
X007302Y015632D01*
X007326Y015619D01*
X007351Y015610D01*
X007377Y015605D01*
X007404Y015603D01*
X007704Y017280D02*
X007706Y017320D01*
X007712Y017359D01*
X007722Y017398D01*
X007735Y017435D01*
X007753Y017471D01*
X007774Y017505D01*
X007798Y017537D01*
X007825Y017566D01*
X007855Y017593D01*
X007887Y017616D01*
X007922Y017636D01*
X007958Y017652D01*
X007996Y017665D01*
X008035Y017674D01*
X008074Y017679D01*
X008114Y017680D01*
X008154Y017677D01*
X008193Y017670D01*
X008231Y017659D01*
X008269Y017645D01*
X008304Y017626D01*
X008337Y017605D01*
X008369Y017580D01*
X008397Y017552D01*
X008423Y017522D01*
X008445Y017489D01*
X008464Y017454D01*
X008480Y017417D01*
X008492Y017379D01*
X008500Y017340D01*
X008504Y017300D01*
X008504Y017260D01*
X008500Y017220D01*
X008492Y017181D01*
X008480Y017143D01*
X008464Y017106D01*
X008445Y017071D01*
X008423Y017038D01*
X008397Y017008D01*
X008369Y016980D01*
X008337Y016955D01*
X008304Y016934D01*
X008269Y016915D01*
X008231Y016901D01*
X008193Y016890D01*
X008154Y016883D01*
X008114Y016880D01*
X008074Y016881D01*
X008035Y016886D01*
X007996Y016895D01*
X007958Y016908D01*
X007922Y016924D01*
X007887Y016944D01*
X007855Y016967D01*
X007825Y016994D01*
X007798Y017023D01*
X007774Y017055D01*
X007753Y017089D01*
X007735Y017125D01*
X007722Y017162D01*
X007712Y017201D01*
X007706Y017240D01*
X007704Y017280D01*
X008704Y017280D02*
X008706Y017320D01*
X008712Y017359D01*
X008722Y017398D01*
X008735Y017435D01*
X008753Y017471D01*
X008774Y017505D01*
X008798Y017537D01*
X008825Y017566D01*
X008855Y017593D01*
X008887Y017616D01*
X008922Y017636D01*
X008958Y017652D01*
X008996Y017665D01*
X009035Y017674D01*
X009074Y017679D01*
X009114Y017680D01*
X009154Y017677D01*
X009193Y017670D01*
X009231Y017659D01*
X009269Y017645D01*
X009304Y017626D01*
X009337Y017605D01*
X009369Y017580D01*
X009397Y017552D01*
X009423Y017522D01*
X009445Y017489D01*
X009464Y017454D01*
X009480Y017417D01*
X009492Y017379D01*
X009500Y017340D01*
X009504Y017300D01*
X009504Y017260D01*
X009500Y017220D01*
X009492Y017181D01*
X009480Y017143D01*
X009464Y017106D01*
X009445Y017071D01*
X009423Y017038D01*
X009397Y017008D01*
X009369Y016980D01*
X009337Y016955D01*
X009304Y016934D01*
X009269Y016915D01*
X009231Y016901D01*
X009193Y016890D01*
X009154Y016883D01*
X009114Y016880D01*
X009074Y016881D01*
X009035Y016886D01*
X008996Y016895D01*
X008958Y016908D01*
X008922Y016924D01*
X008887Y016944D01*
X008855Y016967D01*
X008825Y016994D01*
X008798Y017023D01*
X008774Y017055D01*
X008753Y017089D01*
X008735Y017125D01*
X008722Y017162D01*
X008712Y017201D01*
X008706Y017240D01*
X008704Y017280D01*
X004604Y015837D02*
X004604Y014837D01*
X002604Y014837D01*
X002604Y015837D01*
X004604Y015837D01*
X003304Y016820D02*
X003306Y016860D01*
X003312Y016899D01*
X003322Y016938D01*
X003335Y016975D01*
X003353Y017011D01*
X003374Y017045D01*
X003398Y017077D01*
X003425Y017106D01*
X003455Y017133D01*
X003487Y017156D01*
X003522Y017176D01*
X003558Y017192D01*
X003596Y017205D01*
X003635Y017214D01*
X003674Y017219D01*
X003714Y017220D01*
X003754Y017217D01*
X003793Y017210D01*
X003831Y017199D01*
X003869Y017185D01*
X003904Y017166D01*
X003937Y017145D01*
X003969Y017120D01*
X003997Y017092D01*
X004023Y017062D01*
X004045Y017029D01*
X004064Y016994D01*
X004080Y016957D01*
X004092Y016919D01*
X004100Y016880D01*
X004104Y016840D01*
X004104Y016800D01*
X004100Y016760D01*
X004092Y016721D01*
X004080Y016683D01*
X004064Y016646D01*
X004045Y016611D01*
X004023Y016578D01*
X003997Y016548D01*
X003969Y016520D01*
X003937Y016495D01*
X003904Y016474D01*
X003869Y016455D01*
X003831Y016441D01*
X003793Y016430D01*
X003754Y016423D01*
X003714Y016420D01*
X003674Y016421D01*
X003635Y016426D01*
X003596Y016435D01*
X003558Y016448D01*
X003522Y016464D01*
X003487Y016484D01*
X003455Y016507D01*
X003425Y016534D01*
X003398Y016563D01*
X003374Y016595D01*
X003353Y016629D01*
X003335Y016665D01*
X003322Y016702D01*
X003312Y016741D01*
X003306Y016780D01*
X003304Y016820D01*
X002304Y016820D02*
X002306Y016860D01*
X002312Y016899D01*
X002322Y016938D01*
X002335Y016975D01*
X002353Y017011D01*
X002374Y017045D01*
X002398Y017077D01*
X002425Y017106D01*
X002455Y017133D01*
X002487Y017156D01*
X002522Y017176D01*
X002558Y017192D01*
X002596Y017205D01*
X002635Y017214D01*
X002674Y017219D01*
X002714Y017220D01*
X002754Y017217D01*
X002793Y017210D01*
X002831Y017199D01*
X002869Y017185D01*
X002904Y017166D01*
X002937Y017145D01*
X002969Y017120D01*
X002997Y017092D01*
X003023Y017062D01*
X003045Y017029D01*
X003064Y016994D01*
X003080Y016957D01*
X003092Y016919D01*
X003100Y016880D01*
X003104Y016840D01*
X003104Y016800D01*
X003100Y016760D01*
X003092Y016721D01*
X003080Y016683D01*
X003064Y016646D01*
X003045Y016611D01*
X003023Y016578D01*
X002997Y016548D01*
X002969Y016520D01*
X002937Y016495D01*
X002904Y016474D01*
X002869Y016455D01*
X002831Y016441D01*
X002793Y016430D01*
X002754Y016423D01*
X002714Y016420D01*
X002674Y016421D01*
X002635Y016426D01*
X002596Y016435D01*
X002558Y016448D01*
X002522Y016464D01*
X002487Y016484D01*
X002455Y016507D01*
X002425Y016534D01*
X002398Y016563D01*
X002374Y016595D01*
X002353Y016629D01*
X002335Y016665D01*
X002322Y016702D01*
X002312Y016741D01*
X002306Y016780D01*
X002304Y016820D01*
X004004Y014357D02*
X004006Y014397D01*
X004012Y014436D01*
X004022Y014475D01*
X004035Y014512D01*
X004053Y014548D01*
X004074Y014582D01*
X004098Y014614D01*
X004125Y014643D01*
X004155Y014670D01*
X004187Y014693D01*
X004222Y014713D01*
X004258Y014729D01*
X004296Y014742D01*
X004335Y014751D01*
X004374Y014756D01*
X004414Y014757D01*
X004454Y014754D01*
X004493Y014747D01*
X004531Y014736D01*
X004569Y014722D01*
X004604Y014703D01*
X004637Y014682D01*
X004669Y014657D01*
X004697Y014629D01*
X004723Y014599D01*
X004745Y014566D01*
X004764Y014531D01*
X004780Y014494D01*
X004792Y014456D01*
X004800Y014417D01*
X004804Y014377D01*
X004804Y014337D01*
X004800Y014297D01*
X004792Y014258D01*
X004780Y014220D01*
X004764Y014183D01*
X004745Y014148D01*
X004723Y014115D01*
X004697Y014085D01*
X004669Y014057D01*
X004637Y014032D01*
X004604Y014011D01*
X004569Y013992D01*
X004531Y013978D01*
X004493Y013967D01*
X004454Y013960D01*
X004414Y013957D01*
X004374Y013958D01*
X004335Y013963D01*
X004296Y013972D01*
X004258Y013985D01*
X004222Y014001D01*
X004187Y014021D01*
X004155Y014044D01*
X004125Y014071D01*
X004098Y014100D01*
X004074Y014132D01*
X004053Y014166D01*
X004035Y014202D01*
X004022Y014239D01*
X004012Y014278D01*
X004006Y014317D01*
X004004Y014357D01*
X017126Y004020D02*
X017467Y004020D01*
X017467Y004133D02*
X017467Y003906D01*
X017240Y003906D02*
X017126Y004020D01*
X017183Y003133D02*
X017126Y003076D01*
X017126Y002963D01*
X017183Y002906D01*
X017183Y003133D02*
X017240Y003133D01*
X017467Y002906D01*
X017467Y003133D01*
X018618Y003076D02*
X018618Y002963D01*
X018675Y002906D01*
X018618Y003076D02*
X018675Y003133D01*
X018732Y003133D01*
X018959Y002906D01*
X018959Y003133D01*
X018959Y003906D02*
X018959Y004133D01*
X018959Y004020D02*
X018618Y004020D01*
X018732Y003906D01*
X020704Y002280D02*
X020706Y002320D01*
X020712Y002359D01*
X020722Y002398D01*
X020735Y002435D01*
X020753Y002471D01*
X020774Y002505D01*
X020798Y002537D01*
X020825Y002566D01*
X020855Y002593D01*
X020887Y002616D01*
X020922Y002636D01*
X020958Y002652D01*
X020996Y002665D01*
X021035Y002674D01*
X021074Y002679D01*
X021114Y002680D01*
X021154Y002677D01*
X021193Y002670D01*
X021231Y002659D01*
X021269Y002645D01*
X021304Y002626D01*
X021337Y002605D01*
X021369Y002580D01*
X021397Y002552D01*
X021423Y002522D01*
X021445Y002489D01*
X021464Y002454D01*
X021480Y002417D01*
X021492Y002379D01*
X021500Y002340D01*
X021504Y002300D01*
X021504Y002260D01*
X021500Y002220D01*
X021492Y002181D01*
X021480Y002143D01*
X021464Y002106D01*
X021445Y002071D01*
X021423Y002038D01*
X021397Y002008D01*
X021369Y001980D01*
X021337Y001955D01*
X021304Y001934D01*
X021269Y001915D01*
X021231Y001901D01*
X021193Y001890D01*
X021154Y001883D01*
X021114Y001880D01*
X021074Y001881D01*
X021035Y001886D01*
X020996Y001895D01*
X020958Y001908D01*
X020922Y001924D01*
X020887Y001944D01*
X020855Y001967D01*
X020825Y001994D01*
X020798Y002023D01*
X020774Y002055D01*
X020753Y002089D01*
X020735Y002125D01*
X020722Y002162D01*
X020712Y002201D01*
X020706Y002240D01*
X020704Y002280D01*
X018959Y002076D02*
X018959Y001963D01*
X018902Y001906D01*
X018789Y002020D02*
X018789Y002076D01*
X018845Y002133D01*
X018902Y002133D01*
X018959Y002076D01*
X018789Y002076D02*
X018732Y002133D01*
X018675Y002133D01*
X018618Y002076D01*
X018618Y001963D01*
X018675Y001906D01*
X017467Y001963D02*
X017410Y001906D01*
X017467Y001963D02*
X017467Y002076D01*
X017410Y002133D01*
X017353Y002133D01*
X017297Y002076D01*
X017297Y002020D01*
X017297Y002076D02*
X017240Y002133D01*
X017183Y002133D01*
X017126Y002076D01*
X017126Y001963D01*
X017183Y001906D01*
X020704Y006280D02*
X020706Y006320D01*
X020712Y006359D01*
X020722Y006398D01*
X020735Y006435D01*
X020753Y006471D01*
X020774Y006505D01*
X020798Y006537D01*
X020825Y006566D01*
X020855Y006593D01*
X020887Y006616D01*
X020922Y006636D01*
X020958Y006652D01*
X020996Y006665D01*
X021035Y006674D01*
X021074Y006679D01*
X021114Y006680D01*
X021154Y006677D01*
X021193Y006670D01*
X021231Y006659D01*
X021269Y006645D01*
X021304Y006626D01*
X021337Y006605D01*
X021369Y006580D01*
X021397Y006552D01*
X021423Y006522D01*
X021445Y006489D01*
X021464Y006454D01*
X021480Y006417D01*
X021492Y006379D01*
X021500Y006340D01*
X021504Y006300D01*
X021504Y006260D01*
X021500Y006220D01*
X021492Y006181D01*
X021480Y006143D01*
X021464Y006106D01*
X021445Y006071D01*
X021423Y006038D01*
X021397Y006008D01*
X021369Y005980D01*
X021337Y005955D01*
X021304Y005934D01*
X021269Y005915D01*
X021231Y005901D01*
X021193Y005890D01*
X021154Y005883D01*
X021114Y005880D01*
X021074Y005881D01*
X021035Y005886D01*
X020996Y005895D01*
X020958Y005908D01*
X020922Y005924D01*
X020887Y005944D01*
X020855Y005967D01*
X020825Y005994D01*
X020798Y006023D01*
X020774Y006055D01*
X020753Y006089D01*
X020735Y006125D01*
X020722Y006162D01*
X020712Y006201D01*
X020706Y006240D01*
X020704Y006280D01*
D12*
X020655Y006790D02*
X020711Y006846D01*
X020711Y006960D01*
X020598Y006960D01*
X020711Y007073D02*
X020655Y007130D01*
X020541Y007130D01*
X020484Y007073D01*
X020484Y006846D01*
X020541Y006790D01*
X020655Y006790D01*
X020853Y006790D02*
X020853Y007130D01*
X021080Y006790D01*
X021080Y007130D01*
X021221Y007130D02*
X021221Y006790D01*
X021391Y006790D01*
X021448Y006846D01*
X021448Y007073D01*
X021391Y007130D01*
X021221Y007130D01*
X021589Y006960D02*
X021759Y006960D01*
X021816Y006903D01*
X021816Y006846D01*
X021759Y006790D01*
X021646Y006790D01*
X021589Y006846D01*
X021589Y006960D01*
X021703Y007073D01*
X021816Y007130D01*
X020181Y005339D02*
X020067Y005339D01*
X020010Y005283D01*
X019869Y005283D02*
X019869Y005169D01*
X019812Y005113D01*
X019642Y005113D01*
X019642Y004999D02*
X019642Y005339D01*
X019812Y005339D01*
X019869Y005283D01*
X020181Y005339D02*
X020237Y005283D01*
X020237Y005226D01*
X020010Y004999D01*
X020237Y004999D01*
X020044Y004740D02*
X020144Y004640D01*
X020144Y003840D01*
X020044Y003740D01*
X020144Y003640D01*
X020144Y002840D01*
X020044Y002740D01*
X020144Y002640D01*
X020144Y001840D01*
X020044Y001740D01*
X019244Y001740D01*
X019144Y001840D01*
X019144Y002640D01*
X019244Y002740D01*
X019144Y002840D01*
X019144Y003640D01*
X019244Y003740D01*
X019144Y003840D01*
X019144Y004640D01*
X019244Y004740D01*
X020044Y004740D01*
X019444Y005056D02*
X019444Y005339D01*
X019387Y005339D02*
X019501Y005339D01*
X019444Y005056D02*
X019387Y004999D01*
X019330Y004999D01*
X019274Y005056D01*
X018737Y005064D02*
X018681Y005007D01*
X018567Y005007D01*
X018510Y005064D01*
X018624Y005177D02*
X018681Y005177D01*
X018737Y005120D01*
X018737Y005064D01*
X018681Y005177D02*
X018737Y005234D01*
X018737Y005291D01*
X018681Y005347D01*
X018567Y005347D01*
X018510Y005291D01*
X018369Y005291D02*
X018369Y005177D01*
X018312Y005120D01*
X018142Y005120D01*
X018142Y005007D02*
X018142Y005347D01*
X018312Y005347D01*
X018369Y005291D01*
X018001Y005347D02*
X017887Y005347D01*
X017944Y005347D02*
X017944Y005064D01*
X017887Y005007D01*
X017830Y005007D01*
X017774Y005064D01*
X017752Y004740D02*
X017652Y004640D01*
X017652Y003840D01*
X017752Y003740D01*
X017652Y003640D01*
X017652Y002840D01*
X017752Y002740D01*
X017652Y002640D01*
X017652Y001840D01*
X017752Y001740D01*
X018552Y001740D01*
X018652Y001840D01*
X018652Y002640D01*
X018552Y002740D01*
X018652Y002840D01*
X018652Y003640D01*
X018552Y003740D01*
X018652Y003840D01*
X018652Y004640D01*
X018552Y004740D01*
X017752Y004740D01*
X015427Y006461D02*
X015427Y007061D01*
X015425Y007078D01*
X015421Y007095D01*
X015414Y007111D01*
X015404Y007125D01*
X015391Y007138D01*
X015377Y007148D01*
X015361Y007155D01*
X015344Y007159D01*
X015327Y007161D01*
X014227Y007161D01*
X014268Y007229D02*
X014211Y007285D01*
X014268Y007229D02*
X014382Y007229D01*
X014438Y007285D01*
X014438Y007342D01*
X014382Y007399D01*
X014268Y007399D01*
X014211Y007456D01*
X014211Y007512D01*
X014268Y007569D01*
X014382Y007569D01*
X014438Y007512D01*
X014693Y007569D02*
X014807Y007569D01*
X014750Y007569D02*
X014750Y007285D01*
X014693Y007229D01*
X014636Y007229D01*
X014580Y007285D01*
X014948Y007229D02*
X015175Y007229D01*
X015061Y007229D02*
X015061Y007569D01*
X014948Y007456D01*
X015316Y007569D02*
X015543Y007569D01*
X015543Y007512D01*
X015316Y007285D01*
X015316Y007229D01*
X015427Y006461D02*
X015425Y006444D01*
X015421Y006427D01*
X015414Y006411D01*
X015404Y006397D01*
X015391Y006384D01*
X015377Y006374D01*
X015361Y006367D01*
X015344Y006363D01*
X015327Y006361D01*
X014227Y006361D01*
X014210Y006363D01*
X014193Y006367D01*
X014177Y006374D01*
X014163Y006384D01*
X014150Y006397D01*
X014140Y006411D01*
X014133Y006427D01*
X014129Y006444D01*
X014127Y006461D01*
X014127Y007061D01*
X014129Y007078D01*
X014133Y007095D01*
X014140Y007111D01*
X014150Y007125D01*
X014163Y007138D01*
X014177Y007148D01*
X014193Y007155D01*
X014210Y007159D01*
X014227Y007161D01*
X013873Y008056D02*
X013760Y008056D01*
X013703Y008112D01*
X013562Y008112D02*
X013505Y008056D01*
X013392Y008056D01*
X013335Y008112D01*
X013335Y008339D01*
X013392Y008396D01*
X013505Y008396D01*
X013562Y008339D01*
X013703Y008339D02*
X013760Y008396D01*
X013873Y008396D01*
X013930Y008339D01*
X013930Y008283D01*
X013873Y008226D01*
X013930Y008169D01*
X013930Y008112D01*
X013873Y008056D01*
X013873Y008226D02*
X013817Y008226D01*
X014891Y009610D02*
X015005Y009610D01*
X015061Y009666D01*
X015061Y009780D01*
X014948Y009780D01*
X015061Y009893D02*
X015005Y009950D01*
X014891Y009950D01*
X014834Y009893D01*
X014834Y009666D01*
X014891Y009610D01*
X015203Y009610D02*
X015316Y009610D01*
X015259Y009610D02*
X015259Y009950D01*
X015203Y009950D02*
X015316Y009950D01*
X015344Y010097D02*
X015288Y010154D01*
X015344Y010097D02*
X015458Y010097D01*
X015515Y010154D01*
X015515Y010211D01*
X015458Y010267D01*
X015401Y010267D01*
X015458Y010267D02*
X015515Y010324D01*
X015515Y010381D01*
X015458Y010437D01*
X015344Y010437D01*
X015288Y010381D01*
X015146Y010381D02*
X015146Y010267D01*
X015090Y010211D01*
X014919Y010211D01*
X015033Y010211D02*
X015146Y010097D01*
X014919Y010097D02*
X014919Y010437D01*
X015090Y010437D01*
X015146Y010381D01*
X015391Y010710D02*
X015505Y010710D01*
X015561Y010766D01*
X015561Y010880D01*
X015448Y010880D01*
X015561Y010993D02*
X015505Y011050D01*
X015391Y011050D01*
X015334Y010993D01*
X015334Y010766D01*
X015391Y010710D01*
X015703Y010653D02*
X015930Y010653D01*
X016071Y010710D02*
X016071Y011050D01*
X016241Y011050D01*
X016298Y010993D01*
X016298Y010880D01*
X016241Y010823D01*
X016071Y010823D01*
X016184Y010823D02*
X016298Y010710D01*
X016553Y010710D02*
X016553Y011050D01*
X016666Y011050D02*
X016439Y011050D01*
X016808Y010993D02*
X016808Y010937D01*
X016864Y010880D01*
X016978Y010880D01*
X017035Y010823D01*
X017035Y010766D01*
X016978Y010710D01*
X016864Y010710D01*
X016808Y010766D01*
X016808Y010993D02*
X016864Y011050D01*
X016978Y011050D01*
X017035Y010993D01*
X016978Y011610D02*
X016864Y011610D01*
X016808Y011666D01*
X016864Y011780D02*
X016978Y011780D01*
X017035Y011723D01*
X017035Y011666D01*
X016978Y011610D01*
X016864Y011780D02*
X016808Y011837D01*
X016808Y011893D01*
X016864Y011950D01*
X016978Y011950D01*
X017035Y011893D01*
X016666Y011950D02*
X016439Y011950D01*
X016553Y011950D02*
X016553Y011610D01*
X016298Y011666D02*
X016241Y011610D01*
X016128Y011610D01*
X016071Y011666D01*
X016071Y011893D01*
X016128Y011950D01*
X016241Y011950D01*
X016298Y011893D01*
X015930Y011553D02*
X015703Y011553D01*
X015561Y011666D02*
X015561Y011780D01*
X015448Y011780D01*
X015561Y011893D02*
X015505Y011950D01*
X015391Y011950D01*
X015334Y011893D01*
X015334Y011666D01*
X015391Y011610D01*
X015505Y011610D01*
X015561Y011666D01*
X018334Y011578D02*
X018334Y011465D01*
X018391Y011408D01*
X018391Y011267D02*
X018334Y011210D01*
X018334Y011040D01*
X018674Y011040D01*
X018561Y011040D02*
X018561Y011210D01*
X018504Y011267D01*
X018391Y011267D01*
X018561Y011153D02*
X018674Y011267D01*
X018674Y011408D02*
X018448Y011635D01*
X018391Y011635D01*
X018334Y011578D01*
X018674Y011635D02*
X018674Y011408D01*
X017148Y009893D02*
X017092Y009950D01*
X016978Y009950D01*
X016922Y009893D01*
X016922Y009837D01*
X016978Y009780D01*
X017092Y009780D01*
X017148Y009723D01*
X017148Y009666D01*
X017092Y009610D01*
X016978Y009610D01*
X016922Y009666D01*
X016780Y009610D02*
X016553Y009610D01*
X016553Y009950D01*
X016780Y009950D01*
X016667Y009780D02*
X016553Y009780D01*
X016412Y009780D02*
X016355Y009723D01*
X016185Y009723D01*
X016185Y009610D02*
X016185Y009950D01*
X016355Y009950D01*
X016412Y009893D01*
X016412Y009780D01*
X016298Y009723D02*
X016412Y009610D01*
X016043Y009610D02*
X016043Y009950D01*
X015817Y009950D02*
X015817Y009610D01*
X015675Y009553D02*
X015448Y009553D01*
X015817Y009950D02*
X016043Y009610D01*
X012468Y010751D02*
X012128Y010751D01*
X012128Y010921D01*
X012184Y010977D01*
X012298Y010977D01*
X012355Y010921D01*
X012355Y010751D01*
X012355Y010864D02*
X012468Y010977D01*
X012298Y011119D02*
X012298Y011346D01*
X012468Y011289D02*
X012128Y011289D01*
X012298Y011119D01*
X010213Y011012D02*
X010156Y011069D01*
X010042Y011069D01*
X009986Y011012D01*
X009986Y010956D01*
X010042Y010899D01*
X010213Y010899D01*
X010213Y011012D02*
X010213Y010785D01*
X010156Y010729D01*
X010042Y010729D01*
X009986Y010785D01*
X009844Y010785D02*
X009788Y010729D01*
X009674Y010729D01*
X009617Y010785D01*
X009617Y011012D01*
X009674Y011069D01*
X009788Y011069D01*
X009844Y011012D01*
X009285Y011270D02*
X009285Y011610D01*
X009115Y011440D01*
X009342Y011440D01*
X009647Y011490D02*
X009647Y011717D01*
X009704Y011774D01*
X009818Y011774D01*
X009874Y011717D01*
X010016Y011717D02*
X010072Y011774D01*
X010186Y011774D01*
X010243Y011717D01*
X010243Y011661D01*
X010186Y011604D01*
X010072Y011604D01*
X010016Y011661D01*
X010016Y011717D01*
X010072Y011604D02*
X010016Y011547D01*
X010016Y011490D01*
X010072Y011434D01*
X010186Y011434D01*
X010243Y011490D01*
X010243Y011547D01*
X010186Y011604D01*
X009874Y011490D02*
X009818Y011434D01*
X009704Y011434D01*
X009647Y011490D01*
X008974Y011440D02*
X008860Y011440D01*
X008974Y011440D02*
X008974Y011326D01*
X008917Y011270D01*
X008803Y011270D01*
X008747Y011326D01*
X008747Y011553D01*
X008803Y011610D01*
X008917Y011610D01*
X008974Y011553D01*
X007636Y012260D02*
X007409Y012260D01*
X007636Y012487D01*
X007636Y012543D01*
X007579Y012600D01*
X007466Y012600D01*
X007409Y012543D01*
X007154Y012600D02*
X007041Y012487D01*
X007154Y012600D02*
X007154Y012260D01*
X007041Y012260D02*
X007268Y012260D01*
X007404Y012180D02*
X006304Y012180D01*
X006361Y012260D02*
X006304Y012316D01*
X006361Y012260D02*
X006475Y012260D01*
X006531Y012316D01*
X006531Y012373D01*
X006475Y012430D01*
X006361Y012430D01*
X006304Y012487D01*
X006304Y012543D01*
X006361Y012600D01*
X006475Y012600D01*
X006531Y012543D01*
X006786Y012600D02*
X006900Y012600D01*
X006843Y012600D02*
X006843Y012316D01*
X006786Y012260D01*
X006729Y012260D01*
X006673Y012316D01*
X006304Y012180D02*
X006287Y012178D01*
X006270Y012174D01*
X006254Y012167D01*
X006240Y012157D01*
X006227Y012144D01*
X006217Y012130D01*
X006210Y012114D01*
X006206Y012097D01*
X006204Y012080D01*
X006204Y011480D01*
X006206Y011463D01*
X006210Y011446D01*
X006217Y011430D01*
X006227Y011416D01*
X006240Y011403D01*
X006254Y011393D01*
X006270Y011386D01*
X006287Y011382D01*
X006304Y011380D01*
X007404Y011380D01*
X007421Y011382D01*
X007438Y011386D01*
X007454Y011393D01*
X007468Y011403D01*
X007481Y011416D01*
X007491Y011430D01*
X007498Y011446D01*
X007502Y011463D01*
X007504Y011480D01*
X007504Y012080D01*
X007502Y012097D01*
X007498Y012114D01*
X007491Y012130D01*
X007481Y012144D01*
X007468Y012157D01*
X007454Y012167D01*
X007438Y012174D01*
X007421Y012178D01*
X007404Y012180D01*
X008031Y012950D02*
X008145Y012950D01*
X008201Y013006D01*
X008201Y013120D01*
X008088Y013120D01*
X008201Y013233D02*
X008145Y013290D01*
X008031Y013290D01*
X007974Y013233D01*
X007974Y013006D01*
X008031Y012950D01*
X008343Y013006D02*
X008399Y012950D01*
X008513Y012950D01*
X008570Y013006D01*
X008570Y013063D01*
X008513Y013120D01*
X008456Y013120D01*
X008513Y013120D02*
X008570Y013177D01*
X008570Y013233D01*
X008513Y013290D01*
X008399Y013290D01*
X008343Y013233D01*
X009754Y013306D02*
X009811Y013250D01*
X009925Y013250D01*
X009981Y013306D01*
X009981Y013420D01*
X009868Y013420D01*
X009981Y013533D02*
X009925Y013590D01*
X009811Y013590D01*
X009754Y013533D01*
X009754Y013306D01*
X010123Y013306D02*
X010179Y013250D01*
X010293Y013250D01*
X010350Y013306D01*
X010350Y013363D01*
X010293Y013420D01*
X010179Y013420D01*
X010123Y013477D01*
X010123Y013533D01*
X010179Y013590D01*
X010293Y013590D01*
X010350Y013533D01*
X010350Y013477D01*
X010293Y013420D01*
X010179Y013420D02*
X010123Y013363D01*
X010123Y013306D01*
X010466Y013441D02*
X010466Y014041D01*
X010468Y014058D01*
X010472Y014075D01*
X010479Y014091D01*
X010489Y014105D01*
X010502Y014118D01*
X010516Y014128D01*
X010532Y014135D01*
X010549Y014139D01*
X010566Y014141D01*
X011666Y014141D01*
X011683Y014139D01*
X011700Y014135D01*
X011716Y014128D01*
X011730Y014118D01*
X011743Y014105D01*
X011753Y014091D01*
X011760Y014075D01*
X011764Y014058D01*
X011766Y014041D01*
X011766Y013441D01*
X011764Y013424D01*
X011760Y013407D01*
X011753Y013391D01*
X011743Y013377D01*
X011730Y013364D01*
X011716Y013354D01*
X011700Y013347D01*
X011683Y013343D01*
X011666Y013341D01*
X010566Y013341D01*
X010549Y013343D01*
X010532Y013347D01*
X010516Y013354D01*
X010502Y013364D01*
X010489Y013377D01*
X010479Y013391D01*
X010472Y013407D01*
X010468Y013424D01*
X010466Y013441D01*
X010730Y014248D02*
X010673Y014305D01*
X010730Y014248D02*
X010843Y014248D01*
X010900Y014305D01*
X010900Y014362D01*
X010843Y014419D01*
X010730Y014419D01*
X010673Y014475D01*
X010673Y014532D01*
X010730Y014589D01*
X010843Y014589D01*
X010900Y014532D01*
X011155Y014589D02*
X011268Y014589D01*
X011212Y014589D02*
X011212Y014305D01*
X011155Y014248D01*
X011098Y014248D01*
X011042Y014305D01*
X011410Y014419D02*
X011637Y014419D01*
X011580Y014589D02*
X011580Y014248D01*
X011410Y014419D02*
X011580Y014589D01*
X012018Y014363D02*
X012188Y014363D01*
X012244Y014307D01*
X012244Y014193D01*
X012188Y014137D01*
X012018Y014137D01*
X012131Y014137D02*
X012244Y014023D01*
X012386Y014080D02*
X012443Y014023D01*
X012556Y014023D01*
X012613Y014080D01*
X012613Y014193D01*
X012556Y014250D01*
X012499Y014250D01*
X012386Y014193D01*
X012386Y014363D01*
X012613Y014363D01*
X012568Y014560D02*
X012341Y014560D01*
X012284Y014616D01*
X012284Y014730D01*
X012341Y014787D01*
X012454Y014787D02*
X012454Y014673D01*
X012454Y014787D02*
X012568Y014787D01*
X012624Y014730D01*
X012624Y014616D01*
X012568Y014560D01*
X012568Y014928D02*
X012341Y014928D01*
X012284Y014985D01*
X012284Y015098D01*
X012341Y015155D01*
X012568Y015155D01*
X012624Y015098D01*
X012624Y014985D01*
X012568Y014928D01*
X013054Y014887D02*
X013394Y014887D01*
X013054Y014660D01*
X013394Y014660D01*
X013338Y014519D02*
X013111Y014519D01*
X013054Y014462D01*
X013054Y014349D01*
X013111Y014292D01*
X013338Y014292D01*
X013394Y014349D01*
X013394Y014462D01*
X013338Y014519D01*
X013451Y014150D02*
X013451Y013924D01*
X013394Y013792D02*
X013394Y013678D01*
X013394Y013735D02*
X013054Y013735D01*
X013054Y013678D02*
X013054Y013792D01*
X013111Y013537D02*
X013054Y013480D01*
X013054Y013366D01*
X013111Y013310D01*
X013338Y013310D01*
X013394Y013366D01*
X013394Y013480D01*
X013338Y013537D01*
X013224Y013537D01*
X013224Y013423D01*
X014154Y013406D02*
X014211Y013350D01*
X014438Y013350D01*
X014494Y013406D01*
X014494Y013520D01*
X014438Y013577D01*
X014324Y013577D01*
X014324Y013463D01*
X014211Y013577D02*
X014154Y013520D01*
X014154Y013406D01*
X014211Y013718D02*
X014438Y013718D01*
X014494Y013775D01*
X014494Y013888D01*
X014438Y013945D01*
X014211Y013945D01*
X014154Y013888D01*
X014154Y013775D01*
X014211Y013718D01*
X014551Y014086D02*
X014551Y014313D01*
X014438Y014455D02*
X014494Y014511D01*
X014494Y014625D01*
X014438Y014682D01*
X014381Y014682D01*
X014324Y014625D01*
X014324Y014511D01*
X014268Y014455D01*
X014211Y014455D01*
X014154Y014511D01*
X014154Y014625D01*
X014211Y014682D01*
X014211Y014823D02*
X014324Y014936D01*
X014494Y014936D01*
X014324Y014936D02*
X014211Y015050D01*
X014154Y015050D01*
X014211Y015191D02*
X014268Y015191D01*
X014324Y015248D01*
X014324Y015361D01*
X014381Y015418D01*
X014438Y015418D01*
X014494Y015361D01*
X014494Y015248D01*
X014438Y015191D01*
X014211Y015191D02*
X014154Y015248D01*
X014154Y015361D01*
X014211Y015418D01*
X014211Y015560D02*
X014438Y015560D01*
X014494Y015616D01*
X014494Y015730D01*
X014438Y015787D01*
X014211Y015787D01*
X014154Y015730D01*
X014154Y015616D01*
X014211Y015560D01*
X014154Y015928D02*
X014494Y016155D01*
X014154Y016155D01*
X014154Y015928D02*
X014494Y015928D01*
X014799Y015893D02*
X014799Y015723D01*
X015139Y015723D01*
X015139Y015893D01*
X015083Y015950D01*
X014856Y015950D01*
X014799Y015893D01*
X014856Y016091D02*
X014799Y016148D01*
X014799Y016262D01*
X014856Y016318D01*
X014913Y016318D01*
X015139Y016091D01*
X015139Y016318D01*
X015064Y016723D02*
X014724Y016723D01*
X014724Y016893D01*
X014781Y016950D01*
X014894Y016950D01*
X014951Y016893D01*
X014951Y016723D01*
X014951Y016837D02*
X015064Y016950D01*
X015064Y017091D02*
X015008Y017091D01*
X014781Y017318D01*
X014724Y017318D01*
X014724Y017091D01*
X013774Y018066D02*
X013718Y018010D01*
X013491Y018010D01*
X013434Y018066D01*
X013434Y018180D01*
X013491Y018237D01*
X013604Y018237D02*
X013604Y018123D01*
X013604Y018237D02*
X013718Y018237D01*
X013774Y018180D01*
X013774Y018066D01*
X013774Y018378D02*
X013434Y018378D01*
X013774Y018605D01*
X013434Y018605D01*
X013434Y018746D02*
X013434Y018917D01*
X013491Y018973D01*
X013718Y018973D01*
X013774Y018917D01*
X013774Y018746D01*
X013434Y018746D01*
X013604Y019115D02*
X013434Y019285D01*
X013774Y019285D01*
X013604Y019342D02*
X013604Y019115D01*
X011104Y019017D02*
X011048Y019073D01*
X010821Y019073D01*
X010764Y019017D01*
X010764Y018846D01*
X011104Y018846D01*
X011104Y019017D01*
X011104Y019215D02*
X011104Y019442D01*
X011104Y019328D02*
X010764Y019328D01*
X010878Y019215D01*
X010764Y018705D02*
X011104Y018705D01*
X010764Y018478D01*
X011104Y018478D01*
X011048Y018337D02*
X010934Y018337D01*
X010934Y018223D01*
X010821Y018110D02*
X011048Y018110D01*
X011104Y018166D01*
X011104Y018280D01*
X011048Y018337D01*
X010821Y018337D02*
X010764Y018280D01*
X010764Y018166D01*
X010821Y018110D01*
X009264Y018166D02*
X009264Y018280D01*
X009208Y018337D01*
X009094Y018337D01*
X009094Y018223D01*
X008981Y018110D02*
X009208Y018110D01*
X009264Y018166D01*
X008981Y018110D02*
X008924Y018166D01*
X008924Y018280D01*
X008981Y018337D01*
X008924Y018478D02*
X009264Y018705D01*
X008924Y018705D01*
X008924Y018846D02*
X008924Y019017D01*
X008981Y019073D01*
X009208Y019073D01*
X009264Y019017D01*
X009264Y018846D01*
X008924Y018846D01*
X008981Y019215D02*
X009038Y019215D01*
X009094Y019271D01*
X009094Y019385D01*
X009151Y019442D01*
X009208Y019442D01*
X009264Y019385D01*
X009264Y019271D01*
X009208Y019215D01*
X009151Y019215D01*
X009094Y019271D01*
X009094Y019385D02*
X009038Y019442D01*
X008981Y019442D01*
X008924Y019385D01*
X008924Y019271D01*
X008981Y019215D01*
X008154Y019215D02*
X008098Y019215D01*
X007871Y019442D01*
X007814Y019442D01*
X007814Y019215D01*
X007871Y019073D02*
X007814Y019017D01*
X007814Y018846D01*
X008154Y018846D01*
X008154Y019017D01*
X008098Y019073D01*
X007871Y019073D01*
X007814Y018705D02*
X008154Y018705D01*
X007814Y018478D01*
X008154Y018478D01*
X008098Y018337D02*
X007984Y018337D01*
X007984Y018223D01*
X007871Y018110D02*
X008098Y018110D01*
X008154Y018166D01*
X008154Y018280D01*
X008098Y018337D01*
X007871Y018337D02*
X007814Y018280D01*
X007814Y018166D01*
X007871Y018110D01*
X008924Y018478D02*
X009264Y018478D01*
X007119Y017231D02*
X007062Y017287D01*
X006949Y017287D01*
X006892Y017231D01*
X006751Y017287D02*
X006751Y017004D01*
X006694Y016947D01*
X006581Y016947D01*
X006524Y017004D01*
X006524Y017287D01*
X006892Y016947D02*
X007119Y017174D01*
X007119Y017231D01*
X007119Y016947D02*
X006892Y016947D01*
X005946Y017100D02*
X005719Y017100D01*
X005889Y017270D01*
X005889Y016930D01*
X005734Y016730D02*
X005734Y015030D01*
X005732Y015013D01*
X005728Y014996D01*
X005721Y014980D01*
X005711Y014966D01*
X005698Y014953D01*
X005684Y014943D01*
X005668Y014936D01*
X005651Y014932D01*
X005634Y014930D01*
X005034Y014930D01*
X005017Y014932D01*
X005000Y014936D01*
X004984Y014943D01*
X004970Y014953D01*
X004957Y014966D01*
X004947Y014980D01*
X004940Y014996D01*
X004936Y015013D01*
X004934Y015030D01*
X004934Y016730D01*
X004936Y016747D01*
X004940Y016764D01*
X004947Y016780D01*
X004957Y016794D01*
X004970Y016807D01*
X004984Y016817D01*
X005000Y016824D01*
X005017Y016828D01*
X005034Y016830D01*
X005634Y016830D01*
X005651Y016828D01*
X005668Y016824D01*
X005684Y016817D01*
X005698Y016807D01*
X005711Y016794D01*
X005721Y016780D01*
X005728Y016764D01*
X005732Y016747D01*
X005734Y016730D01*
X005578Y016930D02*
X005351Y016930D01*
X005464Y016930D02*
X005464Y017270D01*
X005351Y017157D01*
X005210Y017270D02*
X005096Y017270D01*
X005153Y017270D02*
X005153Y016986D01*
X005096Y016930D01*
X005039Y016930D01*
X004983Y016986D01*
X004841Y016986D02*
X004785Y016930D01*
X004671Y016930D01*
X004614Y016986D01*
X004671Y017100D02*
X004785Y017100D01*
X004841Y017043D01*
X004841Y016986D01*
X004671Y017100D02*
X004614Y017157D01*
X004614Y017213D01*
X004671Y017270D01*
X004785Y017270D01*
X004841Y017213D01*
X004681Y017376D02*
X004624Y017320D01*
X004511Y017320D01*
X004454Y017376D01*
X004313Y017433D02*
X004313Y017660D01*
X004454Y017603D02*
X004511Y017660D01*
X004624Y017660D01*
X004681Y017603D01*
X004681Y017547D01*
X004624Y017490D01*
X004681Y017433D01*
X004681Y017376D01*
X004624Y017490D02*
X004568Y017490D01*
X004313Y017433D02*
X004199Y017320D01*
X004086Y017433D01*
X004086Y017660D01*
X003945Y017603D02*
X003945Y017547D01*
X003888Y017490D01*
X003945Y017433D01*
X003945Y017376D01*
X003888Y017320D01*
X003774Y017320D01*
X003718Y017376D01*
X003831Y017490D02*
X003888Y017490D01*
X003945Y017603D02*
X003888Y017660D01*
X003774Y017660D01*
X003718Y017603D01*
X003208Y017660D02*
X003208Y017320D01*
X003349Y017263D02*
X003576Y017263D01*
X002981Y017320D02*
X002981Y017660D01*
X003094Y017547D01*
X003208Y017660D01*
X002840Y017660D02*
X002613Y017660D01*
X002613Y017320D01*
X002471Y017320D02*
X002244Y017320D01*
X002244Y017660D01*
X002471Y017660D01*
X002358Y017490D02*
X002244Y017490D01*
X002613Y017490D02*
X002726Y017490D01*
X003634Y018156D02*
X003691Y018100D01*
X003918Y018100D01*
X003974Y018156D01*
X003974Y018270D01*
X003918Y018327D01*
X003804Y018327D01*
X003804Y018213D01*
X003691Y018327D02*
X003634Y018270D01*
X003634Y018156D01*
X003634Y018468D02*
X003974Y018695D01*
X003634Y018695D01*
X003634Y018836D02*
X003634Y019007D01*
X003691Y019063D01*
X003918Y019063D01*
X003974Y019007D01*
X003974Y018836D01*
X003634Y018836D01*
X003691Y019205D02*
X003634Y019261D01*
X003634Y019375D01*
X003691Y019432D01*
X003748Y019432D01*
X003804Y019375D01*
X003861Y019432D01*
X003918Y019432D01*
X003974Y019375D01*
X003974Y019261D01*
X003918Y019205D01*
X003804Y019318D02*
X003804Y019375D01*
X003861Y019573D02*
X003974Y019686D01*
X003861Y019800D01*
X003634Y019800D01*
X003691Y019941D02*
X003634Y019998D01*
X003634Y020111D01*
X003691Y020168D01*
X003748Y020168D01*
X003804Y020111D01*
X003861Y020168D01*
X003918Y020168D01*
X003974Y020111D01*
X003974Y019998D01*
X003918Y019941D01*
X003804Y020055D02*
X003804Y020111D01*
X003861Y019573D02*
X003634Y019573D01*
X003634Y018468D02*
X003974Y018468D01*
X003858Y016281D02*
X003688Y016111D01*
X003915Y016111D01*
X003858Y016281D02*
X003858Y015940D01*
X003546Y016111D02*
X003490Y016054D01*
X003319Y016054D01*
X003319Y015940D02*
X003319Y016281D01*
X003490Y016281D01*
X003546Y016224D01*
X003546Y016111D01*
X003178Y016281D02*
X003065Y016281D01*
X003121Y016281D02*
X003121Y015997D01*
X003065Y015940D01*
X003008Y015940D01*
X002951Y015997D01*
X002539Y015183D02*
X002539Y014956D01*
X002539Y015069D02*
X002199Y015069D01*
X002312Y014956D01*
X002199Y014814D02*
X002539Y014814D01*
X002199Y014587D01*
X002539Y014587D01*
X002482Y014446D02*
X002255Y014446D01*
X002199Y014389D01*
X002199Y014276D01*
X002255Y014219D01*
X002482Y014219D01*
X002539Y014276D01*
X002539Y014389D01*
X002482Y014446D01*
X002482Y014078D02*
X002539Y014021D01*
X002539Y013907D01*
X002482Y013851D01*
X002255Y013851D01*
X002199Y013907D01*
X002199Y014021D01*
X002255Y014078D01*
X002130Y013839D02*
X000130Y013839D01*
X000130Y013519D01*
X000320Y013519D01*
X000320Y013159D01*
X000130Y013159D01*
X000130Y012839D01*
X000130Y012519D01*
X000320Y012519D01*
X000320Y012159D01*
X000130Y012159D01*
X000130Y011839D01*
X000130Y011519D01*
X000320Y011519D01*
X000320Y011159D01*
X000130Y011159D01*
X000130Y010839D01*
X000130Y010519D01*
X000320Y010519D01*
X000320Y010159D01*
X000130Y010159D01*
X000130Y009839D01*
X000130Y009519D01*
X000320Y009519D01*
X000320Y009159D01*
X000130Y009159D01*
X000130Y008839D01*
X000130Y008519D01*
X000320Y008519D01*
X000320Y008159D01*
X000130Y008159D01*
X000130Y007839D01*
X000130Y007519D01*
X000320Y007519D01*
X000320Y007159D01*
X000130Y007159D01*
X000130Y006839D01*
X000130Y006519D01*
X000320Y006519D01*
X000320Y006159D01*
X000130Y006159D01*
X000130Y005839D01*
X000130Y005519D01*
X000320Y005519D01*
X000320Y005159D01*
X000130Y005159D01*
X000130Y004839D01*
X000130Y004519D01*
X000320Y004519D01*
X000320Y004159D01*
X000130Y004159D01*
X000130Y003839D01*
X002130Y003839D01*
X002130Y004839D01*
X002130Y005839D01*
X002130Y006839D01*
X002130Y007839D01*
X002130Y008839D01*
X002130Y009839D01*
X002130Y010839D01*
X002130Y011839D01*
X002130Y012839D01*
X002130Y013839D01*
X001940Y014207D02*
X002054Y014320D01*
X002054Y014547D01*
X001827Y014547D02*
X001827Y014320D01*
X001940Y014207D01*
X001686Y014263D02*
X001629Y014207D01*
X001515Y014207D01*
X001459Y014263D01*
X001459Y014377D02*
X001572Y014433D01*
X001629Y014433D01*
X001686Y014377D01*
X001686Y014263D01*
X001459Y014377D02*
X001459Y014547D01*
X001686Y014547D01*
X001317Y014490D02*
X001261Y014547D01*
X001090Y014547D01*
X001090Y014207D01*
X001261Y014207D01*
X001317Y014263D01*
X001317Y014490D01*
X000949Y014547D02*
X000949Y014207D01*
X000722Y014547D01*
X000722Y014207D01*
X000581Y014263D02*
X000581Y014377D01*
X000467Y014377D01*
X000354Y014490D02*
X000354Y014263D01*
X000410Y014207D01*
X000524Y014207D01*
X000581Y014263D01*
X000581Y014490D02*
X000524Y014547D01*
X000410Y014547D01*
X000354Y014490D01*
X000130Y012839D02*
X002130Y012839D01*
X003513Y013729D02*
X003740Y013956D01*
X003740Y014012D01*
X003684Y014069D01*
X003570Y014069D01*
X003513Y014012D01*
X003513Y013729D02*
X003740Y013729D01*
X003882Y013786D02*
X003938Y013729D01*
X004052Y013729D01*
X004109Y013786D01*
X004109Y014012D01*
X003882Y013786D01*
X003882Y014012D01*
X003938Y014069D01*
X004052Y014069D01*
X004109Y014012D01*
X004744Y013573D02*
X004744Y013517D01*
X004801Y013460D01*
X004915Y013460D01*
X004971Y013403D01*
X004971Y013346D01*
X004915Y013290D01*
X004801Y013290D01*
X004744Y013346D01*
X004804Y013180D02*
X005904Y013180D01*
X005921Y013178D01*
X005938Y013174D01*
X005954Y013167D01*
X005968Y013157D01*
X005981Y013144D01*
X005991Y013130D01*
X005998Y013114D01*
X006002Y013097D01*
X006004Y013080D01*
X006004Y012480D01*
X006002Y012463D01*
X005998Y012446D01*
X005991Y012430D01*
X005981Y012416D01*
X005968Y012403D01*
X005954Y012393D01*
X005938Y012386D01*
X005921Y012382D01*
X005904Y012380D01*
X004804Y012380D01*
X004787Y012382D01*
X004770Y012386D01*
X004754Y012393D01*
X004740Y012403D01*
X004727Y012416D01*
X004717Y012430D01*
X004710Y012446D01*
X004706Y012463D01*
X004704Y012480D01*
X004704Y013080D01*
X004706Y013097D01*
X004710Y013114D01*
X004717Y013130D01*
X004727Y013144D01*
X004740Y013157D01*
X004754Y013167D01*
X004770Y013174D01*
X004787Y013178D01*
X004804Y013180D01*
X005113Y013346D02*
X005169Y013290D01*
X005226Y013290D01*
X005283Y013346D01*
X005283Y013630D01*
X005226Y013630D02*
X005340Y013630D01*
X005481Y013517D02*
X005594Y013630D01*
X005594Y013290D01*
X005481Y013290D02*
X005708Y013290D01*
X005849Y013346D02*
X005906Y013290D01*
X006019Y013290D01*
X006076Y013346D01*
X006076Y013403D01*
X006019Y013460D01*
X005963Y013460D01*
X006019Y013460D02*
X006076Y013517D01*
X006076Y013573D01*
X006019Y013630D01*
X005906Y013630D01*
X005849Y013573D01*
X004971Y013573D02*
X004915Y013630D01*
X004801Y013630D01*
X004744Y013573D01*
X004558Y012483D02*
X004331Y012483D01*
X004274Y012427D01*
X004274Y012313D01*
X004331Y012256D01*
X004388Y012256D01*
X004444Y012313D01*
X004444Y012483D01*
X004558Y012483D02*
X004614Y012427D01*
X004614Y012313D01*
X004558Y012256D01*
X004558Y012058D02*
X004274Y012058D01*
X004274Y012002D02*
X004274Y012115D01*
X004558Y012058D02*
X004614Y012002D01*
X004614Y011945D01*
X004558Y011888D01*
X004558Y011747D02*
X004614Y011690D01*
X004614Y011576D01*
X004558Y011520D01*
X004444Y011576D02*
X004388Y011520D01*
X004331Y011520D01*
X004274Y011576D01*
X004274Y011690D01*
X004331Y011747D01*
X004444Y011690D02*
X004501Y011747D01*
X004558Y011747D01*
X004444Y011690D02*
X004444Y011576D01*
X004704Y011480D02*
X004704Y012080D01*
X004706Y012097D01*
X004710Y012114D01*
X004717Y012130D01*
X004727Y012144D01*
X004740Y012157D01*
X004754Y012167D01*
X004770Y012174D01*
X004787Y012178D01*
X004804Y012180D01*
X005904Y012180D01*
X005921Y012178D01*
X005938Y012174D01*
X005954Y012167D01*
X005968Y012157D01*
X005981Y012144D01*
X005991Y012130D01*
X005998Y012114D01*
X006002Y012097D01*
X006004Y012080D01*
X006004Y011480D01*
X006002Y011463D01*
X005998Y011446D01*
X005991Y011430D01*
X005981Y011416D01*
X005968Y011403D01*
X005954Y011393D01*
X005938Y011386D01*
X005921Y011382D01*
X005904Y011380D01*
X004804Y011380D01*
X004787Y011382D01*
X004770Y011386D01*
X004754Y011393D01*
X004740Y011403D01*
X004727Y011416D01*
X004717Y011430D01*
X004710Y011446D01*
X004706Y011463D01*
X004704Y011480D01*
X004548Y011292D02*
X004604Y011235D01*
X004604Y011121D01*
X004548Y011065D01*
X004434Y011065D02*
X004378Y011178D01*
X004378Y011235D01*
X004434Y011292D01*
X004548Y011292D01*
X004434Y011065D02*
X004264Y011065D01*
X004264Y011292D01*
X004704Y011080D02*
X004704Y010480D01*
X004706Y010463D01*
X004710Y010446D01*
X004717Y010430D01*
X004727Y010416D01*
X004740Y010403D01*
X004754Y010393D01*
X004770Y010386D01*
X004787Y010382D01*
X004804Y010380D01*
X005904Y010380D01*
X005921Y010382D01*
X005938Y010386D01*
X005954Y010393D01*
X005968Y010403D01*
X005981Y010416D01*
X005991Y010430D01*
X005998Y010446D01*
X006002Y010463D01*
X006004Y010480D01*
X006004Y011080D01*
X006002Y011097D01*
X005998Y011114D01*
X005991Y011130D01*
X005981Y011144D01*
X005968Y011157D01*
X005954Y011167D01*
X005938Y011174D01*
X005921Y011178D01*
X005904Y011180D01*
X004804Y011180D01*
X004787Y011178D01*
X004770Y011174D01*
X004754Y011167D01*
X004740Y011157D01*
X004727Y011144D01*
X004717Y011130D01*
X004710Y011114D01*
X004706Y011097D01*
X004704Y011080D01*
X004604Y010923D02*
X004604Y010696D01*
X004604Y010810D02*
X004264Y010810D01*
X004378Y010696D01*
X004264Y010555D02*
X004264Y010442D01*
X004264Y010498D02*
X004548Y010498D01*
X004604Y010442D01*
X004604Y010385D01*
X004548Y010328D01*
X004548Y010187D02*
X004604Y010130D01*
X004604Y010016D01*
X004548Y009960D01*
X004434Y010016D02*
X004434Y010130D01*
X004491Y010187D01*
X004548Y010187D01*
X004704Y010080D02*
X004704Y009480D01*
X004706Y009463D01*
X004710Y009446D01*
X004717Y009430D01*
X004727Y009416D01*
X004740Y009403D01*
X004754Y009393D01*
X004770Y009386D01*
X004787Y009382D01*
X004804Y009380D01*
X005904Y009380D01*
X005921Y009382D01*
X005938Y009386D01*
X005954Y009393D01*
X005968Y009403D01*
X005981Y009416D01*
X005991Y009430D01*
X005998Y009446D01*
X006002Y009463D01*
X006004Y009480D01*
X006004Y010080D01*
X006002Y010097D01*
X005998Y010114D01*
X005991Y010130D01*
X005981Y010144D01*
X005968Y010157D01*
X005954Y010167D01*
X005938Y010174D01*
X005921Y010178D01*
X005904Y010180D01*
X004804Y010180D01*
X004787Y010178D01*
X004770Y010174D01*
X004754Y010167D01*
X004740Y010157D01*
X004727Y010144D01*
X004717Y010130D01*
X004710Y010114D01*
X004706Y010097D01*
X004704Y010080D01*
X004434Y010016D02*
X004378Y009960D01*
X004321Y009960D01*
X004264Y010016D01*
X004264Y010130D01*
X004321Y010187D01*
X004791Y009240D02*
X004734Y009183D01*
X004734Y009127D01*
X004791Y009070D01*
X004905Y009070D01*
X004961Y009013D01*
X004961Y008956D01*
X004905Y008900D01*
X004791Y008900D01*
X004734Y008956D01*
X004791Y009240D02*
X004905Y009240D01*
X004961Y009183D01*
X005216Y009240D02*
X005330Y009240D01*
X005273Y009240D02*
X005273Y008956D01*
X005216Y008900D01*
X005159Y008900D01*
X005103Y008956D01*
X005471Y008956D02*
X005471Y008900D01*
X005471Y008956D02*
X005698Y009183D01*
X005698Y009240D01*
X005471Y009240D01*
X006064Y009153D02*
X006064Y009097D01*
X006121Y009040D01*
X006235Y009040D01*
X006291Y008983D01*
X006291Y008926D01*
X006235Y008870D01*
X006121Y008870D01*
X006064Y008926D01*
X006064Y009153D02*
X006121Y009210D01*
X006235Y009210D01*
X006291Y009153D01*
X006304Y009380D02*
X007404Y009380D01*
X007421Y009382D01*
X007438Y009386D01*
X007454Y009393D01*
X007468Y009403D01*
X007481Y009416D01*
X007491Y009430D01*
X007498Y009446D01*
X007502Y009463D01*
X007504Y009480D01*
X007504Y010080D01*
X007502Y010097D01*
X007498Y010114D01*
X007491Y010130D01*
X007481Y010144D01*
X007468Y010157D01*
X007454Y010167D01*
X007438Y010174D01*
X007421Y010178D01*
X007404Y010180D01*
X006304Y010180D01*
X006287Y010178D01*
X006270Y010174D01*
X006254Y010167D01*
X006240Y010157D01*
X006227Y010144D01*
X006217Y010130D01*
X006210Y010114D01*
X006206Y010097D01*
X006204Y010080D01*
X006204Y009480D01*
X006206Y009463D01*
X006210Y009446D01*
X006217Y009430D01*
X006227Y009416D01*
X006240Y009403D01*
X006254Y009393D01*
X006270Y009386D01*
X006287Y009382D01*
X006304Y009380D01*
X006546Y009210D02*
X006660Y009210D01*
X006603Y009210D02*
X006603Y008926D01*
X006546Y008870D01*
X006489Y008870D01*
X006433Y008926D01*
X006801Y008870D02*
X007028Y008870D01*
X006914Y008870D02*
X006914Y009210D01*
X006801Y009097D01*
X007169Y009040D02*
X007339Y009040D01*
X007396Y008983D01*
X007396Y008926D01*
X007339Y008870D01*
X007226Y008870D01*
X007169Y008926D01*
X007169Y009040D01*
X007283Y009153D01*
X007396Y009210D01*
X008744Y009336D02*
X008801Y009280D01*
X008915Y009280D01*
X008971Y009336D01*
X008971Y009450D01*
X008858Y009450D01*
X008971Y009563D02*
X008915Y009620D01*
X008801Y009620D01*
X008744Y009563D01*
X008744Y009336D01*
X009113Y009280D02*
X009340Y009280D01*
X009226Y009280D02*
X009226Y009620D01*
X009113Y009507D01*
X009818Y009907D02*
X009874Y009850D01*
X010101Y009850D01*
X010158Y009907D01*
X010158Y010020D01*
X010101Y010077D01*
X010158Y010218D02*
X010158Y010445D01*
X010158Y010332D02*
X009818Y010332D01*
X009931Y010218D01*
X009874Y010077D02*
X009818Y010020D01*
X009818Y009907D01*
X009350Y010210D02*
X009123Y010210D01*
X009350Y010437D01*
X009350Y010493D01*
X009293Y010550D01*
X009179Y010550D01*
X009123Y010493D01*
X008981Y010493D02*
X008925Y010550D01*
X008811Y010550D01*
X008754Y010493D01*
X008754Y010266D01*
X008811Y010210D01*
X008925Y010210D01*
X008981Y010266D01*
X008981Y010380D01*
X008868Y010380D01*
X010125Y009503D02*
X010465Y009503D01*
X010465Y009616D02*
X010465Y009389D01*
X010465Y009248D02*
X010352Y009134D01*
X010409Y009021D02*
X010182Y009021D01*
X010125Y009078D01*
X010125Y009191D01*
X010182Y009248D01*
X010409Y009248D01*
X010465Y009191D01*
X010465Y009078D01*
X010409Y009021D01*
X010238Y009389D02*
X010125Y009503D01*
X010212Y008764D02*
X010212Y008537D01*
X009985Y008764D01*
X009928Y008764D01*
X009872Y008707D01*
X009872Y008594D01*
X009928Y008537D01*
X009928Y008396D02*
X009872Y008339D01*
X009872Y008226D01*
X009928Y008169D01*
X010155Y008169D01*
X010212Y008226D01*
X010212Y008339D01*
X010155Y008396D01*
X009410Y008406D02*
X009353Y008350D01*
X009239Y008350D01*
X009183Y008406D01*
X009410Y008633D01*
X009410Y008406D01*
X009183Y008406D02*
X009183Y008633D01*
X009239Y008690D01*
X009353Y008690D01*
X009410Y008633D01*
X009041Y008633D02*
X008985Y008690D01*
X008871Y008690D01*
X008814Y008633D01*
X008814Y008406D01*
X008871Y008350D01*
X008985Y008350D01*
X009041Y008406D01*
X009041Y008520D01*
X008928Y008520D01*
X008825Y007590D02*
X008654Y007590D01*
X008654Y007250D01*
X008654Y007363D02*
X008825Y007363D01*
X008881Y007420D01*
X008881Y007533D01*
X008825Y007590D01*
X009023Y007533D02*
X009023Y007477D01*
X009079Y007420D01*
X009250Y007420D01*
X009250Y007533D02*
X009250Y007306D01*
X009193Y007250D01*
X009079Y007250D01*
X009023Y007306D01*
X008881Y007250D02*
X008768Y007363D01*
X009023Y007533D02*
X009079Y007590D01*
X009193Y007590D01*
X009250Y007533D01*
X010414Y006548D02*
X010471Y006605D01*
X010528Y006605D01*
X010584Y006548D01*
X010584Y006435D01*
X010528Y006378D01*
X010471Y006378D01*
X010414Y006435D01*
X010414Y006548D01*
X010584Y006548D02*
X010641Y006605D01*
X010698Y006605D01*
X010754Y006548D01*
X010754Y006435D01*
X010698Y006378D01*
X010641Y006378D01*
X010584Y006435D01*
X010584Y006237D02*
X010641Y006180D01*
X010641Y006010D01*
X010641Y006123D02*
X010754Y006237D01*
X010584Y006237D02*
X010471Y006237D01*
X010414Y006180D01*
X010414Y006010D01*
X010754Y006010D01*
X010982Y006090D02*
X011209Y006090D01*
X011350Y006090D02*
X011577Y006090D01*
X011464Y006090D02*
X011464Y006430D01*
X011350Y006317D01*
X010982Y006430D02*
X010982Y006090D01*
X010950Y005496D02*
X010950Y005212D01*
X011007Y005156D01*
X011120Y005156D01*
X011177Y005212D01*
X011177Y005496D01*
X011318Y005439D02*
X011375Y005496D01*
X011489Y005496D01*
X011545Y005439D01*
X011545Y005383D01*
X011489Y005326D01*
X011545Y005269D01*
X011545Y005212D01*
X011489Y005156D01*
X011375Y005156D01*
X011318Y005212D01*
X011432Y005326D02*
X011489Y005326D01*
X011460Y004976D02*
X010820Y004976D01*
X011460Y004976D02*
X011700Y004976D01*
X012340Y004976D01*
X011700Y004976D02*
X011698Y004955D01*
X011693Y004935D01*
X011684Y004916D01*
X011672Y004899D01*
X011657Y004884D01*
X011640Y004872D01*
X011621Y004863D01*
X011601Y004858D01*
X011580Y004856D01*
X011559Y004858D01*
X011539Y004863D01*
X011520Y004872D01*
X011503Y004884D01*
X011488Y004899D01*
X011476Y004916D01*
X011467Y004935D01*
X011462Y004955D01*
X011460Y004976D01*
X011996Y005531D02*
X012053Y005475D01*
X012280Y005475D01*
X012336Y005531D01*
X012336Y005645D01*
X012280Y005702D01*
X012419Y005625D02*
X012419Y005512D01*
X012476Y005455D01*
X012703Y005455D01*
X012760Y005512D01*
X012760Y005625D01*
X012703Y005682D01*
X012703Y005823D02*
X012760Y005880D01*
X012760Y005993D01*
X012703Y006050D01*
X012589Y006050D01*
X012533Y005993D01*
X012533Y005937D01*
X012589Y005823D01*
X012419Y005823D01*
X012419Y006050D01*
X012336Y006013D02*
X011996Y006013D01*
X012166Y005843D01*
X012166Y006070D01*
X012053Y005702D02*
X011996Y005645D01*
X011996Y005531D01*
X012419Y005625D02*
X012476Y005682D01*
X013140Y004846D02*
X013540Y004846D01*
X009986Y002953D02*
X009759Y002726D01*
X009816Y002670D01*
X009929Y002670D01*
X009986Y002726D01*
X009986Y002953D01*
X009929Y003010D01*
X009816Y003010D01*
X009759Y002953D01*
X009759Y002726D01*
X009618Y002670D02*
X009391Y002670D01*
X009504Y002670D02*
X009504Y003010D01*
X009391Y002897D01*
X009250Y003010D02*
X009136Y003010D01*
X009193Y003010D02*
X009193Y002726D01*
X009136Y002670D01*
X009079Y002670D01*
X009023Y002726D01*
X008881Y002726D02*
X008825Y002670D01*
X008711Y002670D01*
X008654Y002726D01*
X008711Y002840D02*
X008825Y002840D01*
X008881Y002783D01*
X008881Y002726D01*
X008711Y002840D02*
X008654Y002897D01*
X008654Y002953D01*
X008711Y003010D01*
X008825Y003010D01*
X008881Y002953D01*
X008504Y002680D02*
X008504Y003280D01*
X008502Y003297D01*
X008498Y003314D01*
X008491Y003330D01*
X008481Y003344D01*
X008468Y003357D01*
X008454Y003367D01*
X008438Y003374D01*
X008421Y003378D01*
X008404Y003380D01*
X007304Y003380D01*
X007304Y003440D02*
X008404Y003440D01*
X008421Y003442D01*
X008438Y003446D01*
X008454Y003453D01*
X008468Y003463D01*
X008481Y003476D01*
X008491Y003490D01*
X008498Y003506D01*
X008502Y003523D01*
X008504Y003540D01*
X008504Y004140D01*
X008502Y004157D01*
X008498Y004174D01*
X008491Y004190D01*
X008481Y004204D01*
X008468Y004217D01*
X008454Y004227D01*
X008438Y004234D01*
X008421Y004238D01*
X008404Y004240D01*
X007304Y004240D01*
X007287Y004238D01*
X007270Y004234D01*
X007254Y004227D01*
X007240Y004217D01*
X007227Y004204D01*
X007217Y004190D01*
X007210Y004174D01*
X007206Y004157D01*
X007204Y004140D01*
X007204Y003540D01*
X007206Y003523D01*
X007210Y003506D01*
X007217Y003490D01*
X007227Y003476D01*
X007240Y003463D01*
X007254Y003453D01*
X007270Y003446D01*
X007287Y003442D01*
X007304Y003440D01*
X007304Y003380D02*
X007287Y003378D01*
X007270Y003374D01*
X007254Y003367D01*
X007240Y003357D01*
X007227Y003344D01*
X007217Y003330D01*
X007210Y003314D01*
X007206Y003297D01*
X007204Y003280D01*
X007204Y002680D01*
X007206Y002663D01*
X007210Y002646D01*
X007217Y002630D01*
X007227Y002616D01*
X007240Y002603D01*
X007254Y002593D01*
X007270Y002586D01*
X007287Y002582D01*
X007304Y002580D01*
X008404Y002580D01*
X008404Y002520D02*
X007304Y002520D01*
X007287Y002518D01*
X007270Y002514D01*
X007254Y002507D01*
X007240Y002497D01*
X007227Y002484D01*
X007217Y002470D01*
X007210Y002454D01*
X007206Y002437D01*
X007204Y002420D01*
X007204Y001820D01*
X007206Y001803D01*
X007210Y001786D01*
X007217Y001770D01*
X007227Y001756D01*
X007240Y001743D01*
X007254Y001733D01*
X007270Y001726D01*
X007287Y001722D01*
X007304Y001720D01*
X008404Y001720D01*
X008421Y001722D01*
X008438Y001726D01*
X008454Y001733D01*
X008468Y001743D01*
X008481Y001756D01*
X008491Y001770D01*
X008498Y001786D01*
X008502Y001803D01*
X008504Y001820D01*
X008504Y002420D01*
X008502Y002437D01*
X008498Y002454D01*
X008491Y002470D01*
X008481Y002484D01*
X008468Y002497D01*
X008454Y002507D01*
X008438Y002514D01*
X008421Y002518D01*
X008404Y002520D01*
X008404Y002580D02*
X008421Y002582D01*
X008438Y002586D01*
X008454Y002593D01*
X008468Y002603D01*
X008481Y002616D01*
X008491Y002630D01*
X008498Y002646D01*
X008502Y002663D01*
X008504Y002680D01*
X008804Y002280D02*
X009904Y002280D01*
X009921Y002278D01*
X009938Y002274D01*
X009954Y002267D01*
X009968Y002257D01*
X009981Y002244D01*
X009991Y002230D01*
X009998Y002214D01*
X010002Y002197D01*
X010004Y002180D01*
X010004Y001580D01*
X010002Y001563D01*
X009998Y001546D01*
X009991Y001530D01*
X009981Y001516D01*
X009968Y001503D01*
X009954Y001493D01*
X009938Y001486D01*
X009921Y001482D01*
X009904Y001480D01*
X008804Y001480D01*
X008787Y001482D01*
X008770Y001486D01*
X008754Y001493D01*
X008740Y001503D01*
X008727Y001516D01*
X008717Y001530D01*
X008710Y001546D01*
X008706Y001563D01*
X008704Y001580D01*
X008704Y002180D01*
X008706Y002197D01*
X008710Y002214D01*
X008717Y002230D01*
X008727Y002244D01*
X008740Y002257D01*
X008754Y002267D01*
X008770Y002274D01*
X008787Y002278D01*
X008804Y002280D01*
X009610Y002526D02*
X010010Y002526D01*
X010820Y002376D02*
X012340Y002376D01*
X011437Y002121D02*
X011437Y001894D01*
X011437Y002008D02*
X011097Y002008D01*
X011211Y001894D01*
X011267Y001753D02*
X011154Y001753D01*
X011097Y001696D01*
X011097Y001526D01*
X011437Y001526D01*
X011324Y001526D02*
X011324Y001696D01*
X011267Y001753D01*
X011324Y001639D02*
X011437Y001753D01*
X007226Y002010D02*
X006999Y002010D01*
X007113Y002010D02*
X007113Y002350D01*
X006999Y002237D01*
X006858Y002010D02*
X006631Y002010D01*
X006744Y002010D02*
X006744Y002350D01*
X006631Y002237D01*
X006490Y002350D02*
X006376Y002350D01*
X006433Y002350D02*
X006433Y002066D01*
X006376Y002010D01*
X006319Y002010D01*
X006263Y002066D01*
X006121Y002066D02*
X006065Y002010D01*
X005951Y002010D01*
X005894Y002066D01*
X005951Y002180D02*
X006065Y002180D01*
X006121Y002123D01*
X006121Y002066D01*
X005951Y002180D02*
X005894Y002237D01*
X005894Y002293D01*
X005951Y002350D01*
X006065Y002350D01*
X006121Y002293D01*
X006071Y002870D02*
X006014Y002926D01*
X006071Y002870D02*
X006185Y002870D01*
X006241Y002926D01*
X006241Y002983D01*
X006185Y003040D01*
X006071Y003040D01*
X006014Y003097D01*
X006014Y003153D01*
X006071Y003210D01*
X006185Y003210D01*
X006241Y003153D01*
X006496Y003210D02*
X006610Y003210D01*
X006553Y003210D02*
X006553Y002926D01*
X006496Y002870D01*
X006439Y002870D01*
X006383Y002926D01*
X006751Y002926D02*
X006751Y002983D01*
X006808Y003040D01*
X006921Y003040D01*
X006978Y002983D01*
X006978Y002926D01*
X006921Y002870D01*
X006808Y002870D01*
X006751Y002926D01*
X006808Y003040D02*
X006751Y003097D01*
X006751Y003153D01*
X006808Y003210D01*
X006921Y003210D01*
X006978Y003153D01*
X006978Y003097D01*
X006921Y003040D01*
X006936Y003570D02*
X006823Y003570D01*
X006766Y003626D01*
X006880Y003740D02*
X006936Y003740D01*
X006993Y003683D01*
X006993Y003626D01*
X006936Y003570D01*
X006936Y003740D02*
X006993Y003797D01*
X006993Y003853D01*
X006936Y003910D01*
X006823Y003910D01*
X006766Y003853D01*
X006625Y003910D02*
X006511Y003910D01*
X006568Y003910D02*
X006568Y003626D01*
X006511Y003570D01*
X006454Y003570D01*
X006398Y003626D01*
X006256Y003626D02*
X006200Y003570D01*
X006086Y003570D01*
X006029Y003626D01*
X006086Y003740D02*
X006200Y003740D01*
X006256Y003683D01*
X006256Y003626D01*
X006086Y003740D02*
X006029Y003797D01*
X006029Y003853D01*
X006086Y003910D01*
X006200Y003910D01*
X006256Y003853D01*
X005666Y003773D02*
X005666Y003717D01*
X005609Y003660D01*
X005666Y003603D01*
X005666Y003546D01*
X005609Y003490D01*
X005496Y003490D01*
X005439Y003546D01*
X005298Y003546D02*
X005298Y003773D01*
X005241Y003830D01*
X005071Y003830D01*
X005071Y003490D01*
X005241Y003490D01*
X005298Y003546D01*
X005439Y003773D02*
X005496Y003830D01*
X005609Y003830D01*
X005666Y003773D01*
X005609Y003660D02*
X005553Y003660D01*
X004930Y003490D02*
X004930Y003830D01*
X004703Y003830D02*
X004930Y003490D01*
X004703Y003490D02*
X004703Y003830D01*
X004561Y003773D02*
X004505Y003830D01*
X004391Y003830D01*
X004334Y003773D01*
X004334Y003546D01*
X004391Y003490D01*
X004505Y003490D01*
X004561Y003546D01*
X004561Y003660D01*
X004448Y003660D01*
X004456Y002590D02*
X004569Y002477D01*
X004683Y002590D01*
X004683Y002250D01*
X004824Y002306D02*
X004881Y002250D01*
X004994Y002250D01*
X005051Y002306D01*
X005193Y002306D02*
X005249Y002250D01*
X005363Y002250D01*
X005419Y002306D01*
X005419Y002590D01*
X005193Y002590D02*
X005193Y002306D01*
X005051Y002533D02*
X004994Y002590D01*
X004881Y002590D01*
X004824Y002533D01*
X004824Y002306D01*
X004456Y002250D02*
X004456Y002590D01*
X004315Y002590D02*
X004315Y002363D01*
X004201Y002250D01*
X004088Y002363D01*
X004088Y002590D01*
X003946Y002193D02*
X003719Y002193D01*
X003578Y002250D02*
X003578Y002590D01*
X003464Y002477D01*
X003351Y002590D01*
X003351Y002250D01*
X003096Y002420D02*
X002983Y002420D01*
X002983Y002250D02*
X002983Y002590D01*
X003210Y002590D01*
X002841Y002590D02*
X002614Y002590D01*
X002614Y002250D01*
X002841Y002250D01*
X002728Y002420D02*
X002614Y002420D01*
X002130Y004839D02*
X000130Y004839D01*
X000130Y005839D02*
X002130Y005839D01*
X002130Y006839D02*
X000130Y006839D01*
X000130Y007839D02*
X002130Y007839D01*
X002130Y008839D02*
X000130Y008839D01*
X000130Y009839D02*
X002130Y009839D01*
X002130Y010839D02*
X000130Y010839D01*
X000130Y011839D02*
X002130Y011839D01*
X005659Y008192D02*
X005829Y008192D01*
X005885Y008135D01*
X005885Y008022D01*
X005829Y007965D01*
X005659Y007965D01*
X005659Y007852D02*
X005659Y008192D01*
X006027Y008135D02*
X006027Y007908D01*
X006084Y007852D01*
X006197Y007852D01*
X006254Y007908D01*
X006395Y008022D02*
X006622Y008022D01*
X006565Y008192D02*
X006395Y008022D01*
X006254Y008135D02*
X006197Y008192D01*
X006084Y008192D01*
X006027Y008135D01*
X006565Y008192D02*
X006565Y007852D01*
X005604Y006780D02*
X004504Y006780D01*
X004487Y006778D01*
X004470Y006774D01*
X004454Y006767D01*
X004440Y006757D01*
X004427Y006744D01*
X004417Y006730D01*
X004410Y006714D01*
X004406Y006697D01*
X004404Y006680D01*
X004404Y006080D01*
X004406Y006063D01*
X004410Y006046D01*
X004417Y006030D01*
X004427Y006016D01*
X004440Y006003D01*
X004454Y005993D01*
X004470Y005986D01*
X004487Y005982D01*
X004504Y005980D01*
X005604Y005980D01*
X005621Y005982D01*
X005638Y005986D01*
X005654Y005993D01*
X005668Y006003D01*
X005681Y006016D01*
X005691Y006030D01*
X005698Y006046D01*
X005702Y006063D01*
X005704Y006080D01*
X005704Y006680D01*
X005702Y006697D01*
X005698Y006714D01*
X005691Y006730D01*
X005681Y006744D01*
X005668Y006757D01*
X005654Y006767D01*
X005638Y006774D01*
X005621Y006778D01*
X005604Y006780D01*
X005891Y006550D02*
X005834Y006493D01*
X005834Y006437D01*
X005891Y006380D01*
X006005Y006380D01*
X006061Y006323D01*
X006061Y006266D01*
X006005Y006210D01*
X005891Y006210D01*
X005834Y006266D01*
X005891Y006550D02*
X006005Y006550D01*
X006061Y006493D01*
X006316Y006550D02*
X006430Y006550D01*
X006373Y006550D02*
X006373Y006266D01*
X006316Y006210D01*
X006259Y006210D01*
X006203Y006266D01*
X006571Y006266D02*
X006628Y006210D01*
X006741Y006210D01*
X006798Y006266D01*
X006798Y006380D01*
X006741Y006437D01*
X006684Y006437D01*
X006571Y006380D01*
X006571Y006550D01*
X006798Y006550D01*
X006738Y005550D02*
X006624Y005493D01*
X006511Y005380D01*
X006681Y005380D01*
X006738Y005323D01*
X006738Y005266D01*
X006681Y005210D01*
X006568Y005210D01*
X006511Y005266D01*
X006511Y005380D01*
X006370Y005550D02*
X006256Y005550D01*
X006313Y005550D02*
X006313Y005266D01*
X006256Y005210D01*
X006199Y005210D01*
X006143Y005266D01*
X006001Y005266D02*
X005945Y005210D01*
X005831Y005210D01*
X005774Y005266D01*
X005831Y005380D02*
X005945Y005380D01*
X006001Y005323D01*
X006001Y005266D01*
X006086Y005110D02*
X006029Y005053D01*
X006029Y004997D01*
X006086Y004940D01*
X006200Y004940D01*
X006256Y004883D01*
X006256Y004826D01*
X006200Y004770D01*
X006086Y004770D01*
X006029Y004826D01*
X006086Y005110D02*
X006200Y005110D01*
X006256Y005053D01*
X006511Y005110D02*
X006625Y005110D01*
X006568Y005110D02*
X006568Y004826D01*
X006511Y004770D01*
X006454Y004770D01*
X006398Y004826D01*
X006766Y004770D02*
X006993Y004997D01*
X006993Y005053D01*
X006936Y005110D01*
X006823Y005110D01*
X006766Y005053D01*
X006766Y004770D02*
X006993Y004770D01*
X007204Y005060D02*
X007204Y004460D01*
X007206Y004443D01*
X007210Y004426D01*
X007217Y004410D01*
X007227Y004396D01*
X007240Y004383D01*
X007254Y004373D01*
X007270Y004366D01*
X007287Y004362D01*
X007304Y004360D01*
X008404Y004360D01*
X008421Y004362D01*
X008438Y004366D01*
X008454Y004373D01*
X008468Y004383D01*
X008481Y004396D01*
X008491Y004410D01*
X008498Y004426D01*
X008502Y004443D01*
X008504Y004460D01*
X008504Y005060D01*
X008502Y005077D01*
X008498Y005094D01*
X008491Y005110D01*
X008481Y005124D01*
X008468Y005137D01*
X008454Y005147D01*
X008438Y005154D01*
X008421Y005158D01*
X008404Y005160D01*
X007304Y005160D01*
X007287Y005158D01*
X007270Y005154D01*
X007254Y005147D01*
X007240Y005137D01*
X007227Y005124D01*
X007217Y005110D01*
X007210Y005094D01*
X007206Y005077D01*
X007204Y005060D01*
X006001Y005493D02*
X005945Y005550D01*
X005831Y005550D01*
X005774Y005493D01*
X005774Y005437D01*
X005831Y005380D01*
X005644Y005680D02*
X005644Y005080D01*
X005642Y005063D01*
X005638Y005046D01*
X005631Y005030D01*
X005621Y005016D01*
X005608Y005003D01*
X005594Y004993D01*
X005578Y004986D01*
X005561Y004982D01*
X005544Y004980D01*
X004444Y004980D01*
X004427Y004982D01*
X004410Y004986D01*
X004394Y004993D01*
X004380Y005003D01*
X004367Y005016D01*
X004357Y005030D01*
X004350Y005046D01*
X004346Y005063D01*
X004344Y005080D01*
X004344Y005680D01*
X004346Y005697D01*
X004350Y005714D01*
X004357Y005730D01*
X004367Y005744D01*
X004380Y005757D01*
X004394Y005767D01*
X004410Y005774D01*
X004427Y005778D01*
X004444Y005780D01*
X005544Y005780D01*
X005561Y005778D01*
X005578Y005774D01*
X005594Y005767D01*
X005608Y005757D01*
X005621Y005744D01*
X005631Y005730D01*
X005638Y005714D01*
X005642Y005697D01*
X005644Y005680D01*
X015154Y013406D02*
X015211Y013350D01*
X015438Y013350D01*
X015494Y013406D01*
X015494Y013520D01*
X015438Y013577D01*
X015324Y013577D01*
X015324Y013463D01*
X015211Y013577D02*
X015154Y013520D01*
X015154Y013406D01*
X015551Y013718D02*
X015551Y013945D01*
X015494Y014086D02*
X015154Y014086D01*
X015154Y014257D01*
X015211Y014313D01*
X015324Y014313D01*
X015381Y014257D01*
X015381Y014086D01*
X015381Y014200D02*
X015494Y014313D01*
X015494Y014455D02*
X015154Y014682D01*
X015154Y014455D02*
X015494Y014682D01*
X015139Y014987D02*
X015139Y015213D01*
X015139Y015355D02*
X015139Y015582D01*
X014969Y015468D02*
X014969Y015355D01*
X014799Y015355D02*
X015139Y015355D01*
X014799Y015355D02*
X014799Y015582D01*
X014799Y014987D02*
X015139Y014987D01*
X014211Y014823D02*
X014154Y014823D01*
X013394Y015085D02*
X013394Y015199D01*
X013338Y015255D01*
X013111Y015255D01*
X013054Y015199D01*
X013054Y015085D01*
X013111Y015029D01*
X013338Y015029D01*
X013394Y015085D01*
X013394Y015397D02*
X013054Y015397D01*
X013054Y015624D01*
X013054Y015765D02*
X013054Y015992D01*
X013224Y015879D02*
X013224Y015765D01*
X013394Y015765D02*
X013054Y015765D01*
X013224Y015510D02*
X013224Y015397D01*
X012681Y015296D02*
X012681Y015523D01*
X012624Y015778D02*
X012284Y015778D01*
X012284Y015665D02*
X012284Y015892D01*
X012284Y016033D02*
X012284Y016146D01*
X012284Y016090D02*
X012624Y016090D01*
X012624Y016146D02*
X012624Y016033D01*
X012624Y016279D02*
X012284Y016279D01*
X012398Y016392D01*
X012284Y016505D01*
X012624Y016505D01*
X012624Y016647D02*
X012284Y016647D01*
X012284Y016874D01*
X012454Y016760D02*
X012454Y016647D01*
X012624Y016647D02*
X012624Y016874D01*
X011894Y016750D02*
X011894Y016523D01*
X011668Y016750D01*
X011611Y016750D01*
X011554Y016693D01*
X011554Y016580D01*
X011611Y016523D01*
X011554Y016382D02*
X011781Y016382D01*
X011894Y016268D01*
X011781Y016155D01*
X011554Y016155D01*
X011554Y015900D02*
X011894Y015900D01*
X011894Y016013D02*
X011894Y015786D01*
X011894Y015645D02*
X011781Y015532D01*
X011781Y015588D02*
X011781Y015418D01*
X011894Y015418D02*
X011554Y015418D01*
X011554Y015588D01*
X011611Y015645D01*
X011724Y015645D01*
X011781Y015588D01*
X011668Y015786D02*
X011554Y015900D01*
X010926Y015918D02*
X010870Y015974D01*
X010586Y015974D01*
X010586Y015918D02*
X010586Y016031D01*
X010586Y016173D02*
X010586Y016343D01*
X010643Y016399D01*
X010756Y016399D01*
X010813Y016343D01*
X010813Y016173D01*
X010926Y016173D02*
X010586Y016173D01*
X010926Y015918D02*
X010926Y015861D01*
X010870Y015804D01*
X010926Y016541D02*
X010926Y016768D01*
X010926Y016654D02*
X010586Y016654D01*
X010699Y016541D01*
X011554Y015277D02*
X011781Y015277D01*
X011894Y015163D01*
X011781Y015050D01*
X011554Y015050D01*
X012018Y014363D02*
X012018Y014023D01*
X009020Y014743D02*
X008793Y014516D01*
X008793Y014460D01*
X008651Y014516D02*
X008595Y014460D01*
X008481Y014460D01*
X008424Y014516D01*
X008424Y014743D01*
X008481Y014800D01*
X008595Y014800D01*
X008651Y014743D01*
X008793Y014800D02*
X009020Y014800D01*
X009020Y014743D01*
X008963Y014890D02*
X009020Y014946D01*
X009020Y015003D01*
X008963Y015060D01*
X008793Y015060D01*
X008793Y014946D01*
X008849Y014890D01*
X008963Y014890D01*
X008793Y015060D02*
X008906Y015173D01*
X009020Y015230D01*
X008651Y015173D02*
X008595Y015230D01*
X008481Y015230D01*
X008424Y015173D01*
X008424Y014946D01*
X008481Y014890D01*
X008595Y014890D01*
X008651Y014946D01*
X016154Y014682D02*
X016494Y014455D01*
X016494Y014682D02*
X016154Y014455D01*
X016154Y014313D02*
X016154Y014086D01*
X016154Y014200D02*
X016494Y014200D01*
X016551Y013945D02*
X016551Y013718D01*
X016438Y013577D02*
X016324Y013577D01*
X016324Y013463D01*
X016211Y013350D02*
X016438Y013350D01*
X016494Y013406D01*
X016494Y013520D01*
X016438Y013577D01*
X016211Y013577D02*
X016154Y013520D01*
X016154Y013406D01*
X016211Y013350D01*
X016299Y014987D02*
X016639Y014987D01*
X016639Y015213D01*
X016639Y015355D02*
X016299Y015355D01*
X016299Y015582D01*
X016299Y015723D02*
X016299Y015893D01*
X016356Y015950D01*
X016583Y015950D01*
X016639Y015893D01*
X016639Y015723D01*
X016299Y015723D01*
X016469Y015468D02*
X016469Y015355D01*
X016639Y015355D02*
X016639Y015582D01*
X016639Y016091D02*
X016639Y016318D01*
X016639Y016205D02*
X016299Y016205D01*
X016413Y016091D01*
X016324Y016723D02*
X016324Y016893D01*
X016381Y016950D01*
X016494Y016950D01*
X016551Y016893D01*
X016551Y016723D01*
X016664Y016723D02*
X016324Y016723D01*
X016551Y016837D02*
X016664Y016950D01*
X016608Y017091D02*
X016664Y017148D01*
X016664Y017262D01*
X016608Y017318D01*
X016551Y017318D01*
X016494Y017262D01*
X016494Y017091D01*
X016608Y017091D01*
X016494Y017091D02*
X016381Y017205D01*
X016324Y017318D01*
X020495Y003105D02*
X020438Y003049D01*
X020438Y002822D01*
X020495Y002765D01*
X020608Y002765D01*
X020665Y002822D01*
X020665Y002935D01*
X020551Y002935D01*
X020665Y003049D02*
X020608Y003105D01*
X020495Y003105D01*
X020806Y003105D02*
X021033Y002765D01*
X021033Y003105D01*
X021174Y003105D02*
X021174Y002765D01*
X021345Y002765D01*
X021401Y002822D01*
X021401Y003049D01*
X021345Y003105D01*
X021174Y003105D01*
X020806Y003105D02*
X020806Y002765D01*
X021543Y002822D02*
X021599Y002765D01*
X021713Y002765D01*
X021770Y002822D01*
X021770Y002935D01*
X021713Y002992D01*
X021656Y002992D01*
X021543Y002935D01*
X021543Y003105D01*
X021770Y003105D01*
D13*
X013104Y010374D02*
X013106Y010392D01*
X013112Y010408D01*
X013121Y010423D01*
X013134Y010436D01*
X013149Y010445D01*
X013165Y010451D01*
X013183Y010453D01*
X013201Y010451D01*
X013217Y010445D01*
X013232Y010436D01*
X013245Y010423D01*
X013254Y010408D01*
X013260Y010392D01*
X013262Y010374D01*
X013260Y010356D01*
X013254Y010340D01*
X013245Y010325D01*
X013232Y010312D01*
X013217Y010303D01*
X013201Y010297D01*
X013183Y010295D01*
X013165Y010297D01*
X013149Y010303D01*
X013134Y010312D01*
X013121Y010325D01*
X013112Y010340D01*
X013106Y010356D01*
X013104Y010374D01*
D14*
X012971Y010177D02*
X010923Y010177D01*
X010923Y008130D01*
X012971Y008130D01*
X012971Y010177D01*
D15*
X010053Y009777D02*
X010053Y008830D01*
X009421Y008830D01*
X009421Y009777D01*
X010053Y009777D01*
D16*
X012697Y007905D02*
X012697Y006545D01*
X013867Y006545D01*
X013867Y007905D01*
X012697Y007905D01*
X003330Y003789D02*
X003330Y003389D01*
X003330Y003589D02*
X002729Y003589D01*
X002930Y003389D01*
D17*
X013819Y006345D02*
X013821Y006355D01*
X013826Y006364D01*
X013835Y006370D01*
X013844Y006373D01*
X013855Y006372D01*
X013864Y006367D01*
X013871Y006360D01*
X013875Y006350D01*
X013875Y006340D01*
X013871Y006330D01*
X013864Y006323D01*
X013855Y006318D01*
X013844Y006317D01*
X013835Y006320D01*
X013826Y006326D01*
X013821Y006335D01*
X013819Y006345D01*
D18*
X011465Y007200D03*
D19*
X015308Y015725D02*
X015384Y015841D01*
X015394Y015847D02*
X015486Y015725D01*
X015576Y015847D02*
X015394Y015847D01*
X015213Y015847D01*
X015813Y015847D02*
X015994Y015847D01*
X016086Y015725D01*
X016176Y015847D02*
X015994Y015847D01*
X015984Y015841D02*
X015908Y015725D01*
D20*
X011798Y011107D03*
D21*
X002330Y011339D03*
X002330Y012339D03*
X002330Y013339D03*
X002330Y010339D03*
X002330Y009339D03*
X002330Y008339D03*
X002330Y007339D03*
X002330Y006339D03*
X002330Y005339D03*
X002330Y004339D03*
D22*
X003380Y004339D03*
X003380Y005339D03*
X003380Y006339D03*
X003380Y007339D03*
X003380Y008339D03*
X003380Y009339D03*
X003380Y010339D03*
X003380Y011339D03*
X003380Y012339D03*
X003380Y013339D03*
D23*
X009948Y005166D02*
X009950Y005187D01*
X009956Y005206D01*
X009965Y005225D01*
X009977Y005241D01*
X009993Y005255D01*
X010010Y005266D01*
X010029Y005274D01*
X010050Y005278D01*
X010070Y005278D01*
X010091Y005274D01*
X010110Y005266D01*
X010127Y005255D01*
X010143Y005241D01*
X010155Y005225D01*
X010164Y005206D01*
X010170Y005187D01*
X010172Y005166D01*
X010170Y005145D01*
X010164Y005126D01*
X010155Y005107D01*
X010143Y005091D01*
X010127Y005077D01*
X010110Y005066D01*
X010091Y005058D01*
X010070Y005054D01*
X010050Y005054D01*
X010029Y005058D01*
X010010Y005066D01*
X009993Y005077D01*
X009977Y005091D01*
X009965Y005107D01*
X009956Y005126D01*
X009950Y005145D01*
X009948Y005166D01*
M02*
